<?xml version="1.0" encoding="utf-8"?>
<!-- Generator: Adobe Illustrator 27.5.0, SVG Export Plug-In . SVG Version: 6.00 Build 0)  -->
<svg version="1.1" xmlns="http://www.w3.org/2000/svg" xmlns:xlink="http://www.w3.org/1999/xlink" x="0px" y="0px"
	 viewBox="0 0 500 500" style="enable-background:new 0 0 500 500;" xml:space="preserve">
<g id="Background_Complete">
	<g>
		<rect y="382.398" style="fill:#EBEBEB;" width="500" height="0.25"/>
		<rect x="332.111" y="389.208" style="fill:#EBEBEB;" width="97.597" height="0.25"/>
		<rect x="289" y="394.986" style="fill:#EBEBEB;" width="46.667" height="0.25"/>
		<rect x="430.709" y="398.494" style="fill:#EBEBEB;" width="19.192" height="0.25"/>
		<rect x="126.473" y="395.111" style="fill:#EBEBEB;" width="92.527" height="0.25"/>
		<rect x="97.667" y="395.111" style="fill:#EBEBEB;" width="19.903" height="0.25"/>
		<rect x="57.792" y="390.888" style="fill:#EBEBEB;" width="32.862" height="0.25"/>
		<path style="fill:#EBEBEB;" d="M237.014,337.8H43.915c-3.147,0-5.708-2.561-5.708-5.708V60.66c0-3.147,2.561-5.708,5.708-5.708
			h193.099c3.146,0,5.707,2.561,5.707,5.708v271.432C242.721,335.239,240.16,337.8,237.014,337.8z M43.915,55.203
			c-3.01,0-5.458,2.448-5.458,5.458v271.432c0,3.01,2.448,5.458,5.458,5.458h193.099c3.009,0,5.457-2.448,5.457-5.458V60.66
			c0-3.009-2.448-5.458-5.457-5.458H43.915z"/>
		<path style="fill:#EBEBEB;" d="M453.31,337.8H260.212c-3.147,0-5.707-2.561-5.707-5.708V60.66c0-3.147,2.561-5.708,5.707-5.708
			H453.31c3.148,0,5.708,2.561,5.708,5.708v271.432C459.019,335.239,456.458,337.8,453.31,337.8z M260.212,55.203
			c-3.009,0-5.457,2.448-5.457,5.458v271.432c0,3.01,2.448,5.458,5.457,5.458H453.31c3.01,0,5.458-2.448,5.458-5.458V60.66
			c0-3.009-2.448-5.458-5.458-5.458H260.212z"/>
	</g>
	<g>
		<g>
			<rect x="79.875" y="260.717" style="fill:#EBEBEB;" width="13.778" height="121.682"/>
			
				<rect x="93.653" y="260.717" transform="matrix(-1 -1.224647e-16 1.224647e-16 -1 319.924 643.1151)" style="fill:#F5F5F5;" width="132.618" height="121.682"/>
			
				<rect x="98.542" y="265.436" transform="matrix(-1 -1.224647e-16 1.224647e-16 -1 319.9241 643.1151)" style="fill:#EBEBEB;" width="122.84" height="112.243"/>
			<g>
				
					<rect x="100.542" y="267.658" transform="matrix(-1 -1.224647e-16 1.224647e-16 -1 319.9241 547.6122)" style="fill:#F5F5F5;" width="118.84" height="12.296"/>
				
					<rect x="100.542" y="281.454" transform="matrix(-1 -1.224647e-16 1.224647e-16 -1 319.9241 596.4637)" style="fill:#F5F5F5;" width="118.84" height="33.556"/>
				
					<rect x="100.542" y="316.51" transform="matrix(-1 -1.224647e-16 1.224647e-16 -1 319.9241 692.2414)" style="fill:#F5F5F5;" width="118.84" height="59.222"/>
			</g>
			<path style="fill:#FAFAFA;" d="M194.526,321.261h-69.128c-0.55,0-1-0.45-1-1l0,0c0-0.55,0.45-1,1-1h69.128c0.55,0,1,0.45,1,1l0,0
				C195.526,320.811,195.076,321.261,194.526,321.261z"/>
			<path style="fill:#FAFAFA;" d="M194.526,286.289h-69.128c-0.55,0-1-0.45-1-1l0,0c0-0.55,0.45-1,1-1h69.128c0.55,0,1,0.45,1,1l0,0
				C195.526,285.839,195.076,286.289,194.526,286.289z"/>
			<path style="fill:#FAFAFA;" d="M194.526,272.493h-69.128c-0.55,0-1-0.45-1-1l0,0c0-0.55,0.45-1,1-1h69.128c0.55,0,1,0.45,1,1l0,0
				C195.526,272.043,195.076,272.493,194.526,272.493z"/>
		</g>
		<g>
			<g>
				<g>
					
						<rect x="72.895" y="174.322" transform="matrix(-1 -1.224647e-16 1.224647e-16 -1 313.1894 402.6555)" style="fill:#F0F0F0;" width="167.4" height="54.011"/>
					
						<rect x="134.313" y="122.352" transform="matrix(-1.836970e-16 1 -1 -1.836970e-16 357.9227 44.7329)" style="fill:#E6E6E6;" width="44.563" height="157.953"/>
					
						<rect x="201.943" y="189.981" transform="matrix(-1.836970e-16 1 -1 -1.836970e-16 425.5524 -22.8968)" style="fill:#E0E0E0;" width="44.563" height="22.693"/>
					
						<rect x="40.01" y="195.449" transform="matrix(-1.836970e-16 1 -1 -1.836970e-16 268.3435 134.312)" style="fill:#E6E6E6;" width="54.011" height="11.758"/>
				</g>
				<g>
					<g>
						
							<rect x="206.822" y="182.637" transform="matrix(-1 -1.224647e-16 1.224647e-16 -1 423.5116 406.2467)" style="fill:#F0F0F0;" width="9.868" height="40.972"/>
						<rect x="180.443" y="182.637" style="fill:#E0E0E0;" width="26.379" height="40.972"/>
					</g>
					<g>
						
							<rect x="198.061" y="187.324" transform="matrix(-1 -1.224647e-16 1.224647e-16 -1 401.6809 410.9339)" style="fill:#FAFAFA;" width="5.559" height="36.285"/>
						<rect x="183.2" y="187.324" style="fill:#EBEBEB;" width="14.861" height="36.285"/>
					</g>
					<g>
						<polygon style="fill:#FAFAFA;" points="181.147,223.609 189.382,223.609 194.129,189.416 185.894,189.416 						"/>
						<polygon style="fill:#EBEBEB;" points="181.147,223.609 159.132,223.609 163.879,189.416 185.894,189.416 						"/>
					</g>
					<g>
						
							<rect x="148.139" y="198.189" transform="matrix(-1.836970e-16 1 -1 -1.836970e-16 371.7485 65.6023)" style="fill:#E6E6E6;" width="9.868" height="40.972"/>
						
							<rect x="120.087" y="211.11" transform="matrix(-1.836970e-16 1 -1 -1.836970e-16 343.6968 93.654)" style="fill:#E0E0E0;" width="9.868" height="15.131"/>
						
							<rect x="120.548" y="211.773" transform="matrix(-1.836970e-16 1 -1 -1.836970e-16 343.0334 94.3174)" style="fill:#F0F0F0;" width="7.62" height="13.805"/>
					</g>
					<g>
						
							<rect x="146.707" y="189.408" transform="matrix(-1.836970e-16 1 -1 -1.836970e-16 360.4484 59.3407)" style="fill:#F0F0F0;" width="7.694" height="40.972"/>
						
							<rect x="118.655" y="202.329" transform="matrix(-1.836970e-16 1 -1 -1.836970e-16 332.3966 87.3924)" style="fill:#E6E6E6;" width="7.694" height="15.131"/>
						
							<rect x="118.868" y="202.992" transform="matrix(-1.836970e-16 1 -1 -1.836970e-16 331.7333 88.0559)" style="fill:#F0F0F0;" width="5.941" height="13.805"/>
					</g>
					<g>
						
							<rect x="104.844" y="190.414" transform="matrix(-1 -1.224647e-16 1.224647e-16 -1 217.6832 414.0232)" style="fill:#F0F0F0;" width="7.995" height="33.196"/>
						<rect x="83.472" y="190.414" style="fill:#E0E0E0;" width="21.372" height="33.196"/>
					</g>
					<g>
						
							<rect x="87.167" y="194.211" transform="matrix(-1 -1.224647e-16 1.224647e-16 -1 182.01 417.8207)" style="fill:#FAFAFA;" width="7.676" height="29.398"/>
						<rect x="77.619" y="194.211" style="fill:#EBEBEB;" width="9.548" height="29.398"/>
					</g>
				</g>
			</g>
			<g>
				<g>
					<g>
						
							<rect x="72.895" y="106.256" transform="matrix(-1 -1.224647e-16 1.224647e-16 -1 313.1894 266.5228)" style="fill:#F0F0F0;" width="167.4" height="54.011"/>
						
							<rect x="134.313" y="54.285" transform="matrix(-1.836970e-16 1 -1 -1.836970e-16 289.8563 -23.3335)" style="fill:#E6E6E6;" width="44.563" height="157.953"/>
						
							<rect x="201.943" y="121.915" transform="matrix(-1.836970e-16 1 -1 -1.836970e-16 357.486 -90.9632)" style="fill:#E0E0E0;" width="44.563" height="22.693"/>
						
							<rect x="40.01" y="127.383" transform="matrix(-1.836970e-16 1 -1 -1.836970e-16 200.2773 66.2457)" style="fill:#E6E6E6;" width="54.011" height="11.758"/>
					</g>
				</g>
				<g>
					
						<rect x="155.482" y="129.495" transform="matrix(-1 -1.224647e-16 1.224647e-16 -1 319.5534 285.038)" style="fill:#F0F0F0;" width="8.588" height="26.048"/>
					<rect x="142.736" y="129.495" style="fill:#E0E0E0;" width="12.746" height="26.048"/>
				</g>
				<g>
					
						<rect x="146.054" y="123.963" transform="matrix(-1 -1.224647e-16 1.224647e-16 -1 296.9465 279.5059)" style="fill:#FAFAFA;" width="4.838" height="31.58"/>
					<rect x="133.12" y="123.963" style="fill:#EBEBEB;" width="12.934" height="31.58"/>
				</g>
				<g>
					<polygon style="fill:#F0F0F0;" points="217.362,155.543 224.53,155.543 228.661,125.783 221.493,125.783 					"/>
					<polygon style="fill:#E0E0E0;" points="217.362,155.543 198.202,155.543 202.333,125.783 221.493,125.783 					"/>
				</g>
				<g>
					
						<rect x="112.49" y="131.715" transform="matrix(-1.836970e-16 1 -1 -1.836970e-16 268.0326 33.8033)" style="fill:#F5F5F5;" width="9.25" height="38.407"/>
					
						<rect x="86.194" y="143.826" transform="matrix(-1.836970e-16 1 -1 -1.836970e-16 241.7372 60.0987)" style="fill:#E0E0E0;" width="9.25" height="14.184"/>
					
						<rect x="86.626" y="144.448" transform="matrix(-1.836970e-16 1 -1 -1.836970e-16 241.1154 60.7206)" style="fill:#F0F0F0;" width="7.143" height="12.94"/>
				</g>
				<g>
					
						<rect x="111.713" y="119.815" transform="matrix(-1.836970e-16 1 -1 -1.836970e-16 250.7939 19.8886)" style="fill:#FAFAFA;" width="7.479" height="31.053"/>
					
						<rect x="90.452" y="129.607" transform="matrix(-1.836970e-16 1 -1 -1.836970e-16 229.5331 41.1494)" style="fill:#E0E0E0;" width="7.479" height="11.468"/>
					
						<rect x="90.801" y="130.11" transform="matrix(-1.836970e-16 1 -1 -1.836970e-16 229.0303 41.6522)" style="fill:#F5F5F5;" width="5.775" height="10.463"/>
				</g>
				<g>
					
						<rect x="192.335" y="136.243" transform="matrix(-1.836970e-16 1 -1 -1.836970e-16 347.8442 -44.3043)" style="fill:#FAFAFA;" width="7.479" height="31.053"/>
					
						<rect x="171.074" y="146.036" transform="matrix(-1.836970e-16 1 -1 -1.836970e-16 326.5834 -23.0435)" style="fill:#E0E0E0;" width="7.479" height="11.468"/>
					
						<rect x="171.423" y="146.539" transform="matrix(-1.836970e-16 1 -1 -1.836970e-16 326.0806 -22.5407)" style="fill:#F5F5F5;" width="5.775" height="10.463"/>
				</g>
				<g>
					
						<rect x="111.147" y="123.484" transform="matrix(-1.836970e-16 1 -1 -1.836970e-16 257.4401 27.9338)" style="fill:#F0F0F0;" width="7.212" height="38.407"/>
					
						<rect x="84.852" y="135.595" transform="matrix(-1.836970e-16 1 -1 -1.836970e-16 231.1447 54.2293)" style="fill:#E6E6E6;" width="7.212" height="14.184"/>
					
						<rect x="85.051" y="136.217" transform="matrix(-1.836970e-16 1 -1 -1.836970e-16 230.5228 54.8511)" style="fill:#F0F0F0;" width="5.569" height="12.94"/>
				</g>
			</g>
		</g>
		<g>
			<g>
				<polygon style="fill:#F5F5F5;" points="306.544,118.111 423.907,118.111 428.939,382.398 311.577,382.398 				"/>
				<path style="fill:#F0F0F0;" d="M424.563,362.696l-4.294-225.47c-0.16-8.394-7.01-15.115-15.406-15.115h-78.538
					c-8.625,0-15.57,7.079-15.406,15.702l4.293,225.47c0.16,8.394,7.01,15.115,15.406,15.115h78.538
					C417.782,378.398,424.728,371.32,424.563,362.696z"/>
				<polygon style="fill:#E6E6E6;" points="306.544,118.111 304.298,118.111 309.331,382.398 311.577,382.398 				"/>
			</g>
			<polygon style="fill:#FAFAFA;" points="369.227,122.111 386.894,122.111 401.395,378.398 383.728,378.398 			"/>
			<polygon style="fill:#FAFAFA;" points="355.347,122.111 364.18,122.111 378.681,378.398 369.848,378.398 			"/>
		</g>
	</g>
</g>
<g id="Background_Simple" style="display:none;">
	<g style="display:inline;">
		<path style="fill:#407BFF;" d="M273.476,179.721C225.192,147.856,143.467,72.43,96.857,148.925
			c-46.268,75.934,48.617,159.444,107.523,179.88c59.549,20.659,217.902,9.183,201.722-81.658
			C394.969,184.646,326.809,214.918,273.476,179.721z"/>
		<path style="opacity:0.9;fill:#FFFFFF;" d="M273.476,179.721C225.192,147.856,143.467,72.43,96.857,148.925
			c-46.268,75.934,48.617,159.444,107.523,179.88c59.549,20.659,217.902,9.183,201.722-81.658
			C394.969,184.646,326.809,214.918,273.476,179.721z"/>
	</g>
</g>
<g id="Shadow_1_">
	<ellipse id="_x3C_Path_x3E__24_" style="fill:#F5F5F5;" cx="250" cy="416.238" rx="193.889" ry="11.323"/>
</g>
<g id="Character_1_">
	<g>
		<g>
			<g>
				<path style="fill:#407BFF;" d="M182.309,316.237h86.193l0,0c-3.003-6.539-8.47-10.551-14.376-10.551h-66.971L182.309,316.237z"
					/>
				<g>
					<path style="fill:#407BFF;" d="M167.785,316.237h34.522l0,0c-3.003-6.539-8.47-10.551-14.376-10.551h-12.218
						C169.808,305.686,166.883,309.098,167.785,316.237L167.785,316.237z"/>
					<path style="opacity:0.5;fill:#263238;" d="M167.785,316.237h34.522l0,0c-3.003-6.539-8.47-10.551-14.376-10.551h-12.218
						C169.808,305.686,166.883,309.098,167.785,316.237L167.785,316.237z"/>
				</g>
			</g>
			<g>
				<polygon style="fill:#407BFF;" points="228.592,407.504 221.111,407.504 221.111,316.237 212.902,316.237 212.902,407.504 
					205.421,407.504 197.365,414.96 212.902,414.96 221.111,414.96 236.649,414.96 				"/>
				<polygon style="opacity:0.7;fill:#FFFFFF;" points="228.592,407.504 221.111,407.504 221.111,316.237 212.902,316.237 
					212.902,407.504 205.421,407.504 197.365,414.96 212.902,414.96 221.111,414.96 236.649,414.96 				"/>
			</g>
			<rect x="212.902" y="316.237" style="opacity:0.5;fill:#407BFF;" width="8.21" height="3.065"/>
		</g>
		<g>
			<g>
				<g>
					<g>
						<polygon style="fill:#B55B52;" points="274.714,404.947 283.683,402.678 281.553,381.161 272.584,383.43 						"/>
						<path style="fill:#263238;" d="M284.066,398.715l-10.298,1.328c-0.375,0.048-0.624,0.345-0.599,0.714l0.552,8.212
							c0.057,0.852,0.953,1.549,1.815,1.423c3.577-0.524,5.052-0.912,9.528-1.82c2.753-0.559,9.33-1.926,13.006-3.168
							c3.595-1.215,2.342-4.842,0.674-4.644c-3.951,0.471-10.174,0.013-13.025-1.686
							C285.203,398.768,284.614,398.644,284.066,398.715z"/>
						<g>
							<polygon style="opacity:0.2;" points="272.582,383.436 281.555,381.166 282.577,391.528 273.573,393.487 							"/>
						</g>
						<path style="fill:#263238;" d="M213.958,275.543c0,0,66.474-2.228,66.691,24.275c0.312,38.095,4.455,85.385,4.455,85.385
							l-16.746,2.477c0,0-11.355-45.394-11.142-75.131c-18.696-5.278-67.238-1.839-72.953-17.333
							c-4.675-12.675-2.232-19.673-2.232-19.673H213.958z"/>
						<path style="opacity:0.3;" d="M241.254,283.713c0,0-2.018,15.158,4.902,26.845c4.263,0.512,8.049,1.137,11.062,1.99
							c-0.023,2.763,0.148,5.661,0.466,8.652C268.803,304.624,259.699,285.797,241.254,283.713z"/>
						<polygon style="fill:#407BFF;" points="267.103,392.081 286.492,388.426 286.81,380.914 265.294,384.696 						"/>
						<path style="fill:#407BFF;" d="M287.521,399.892c-0.846,0.109-1.806,0.056-2.485-0.013c-0.085-0.008-0.156-0.066-0.183-0.146
							c-0.026-0.081-0.003-0.17,0.06-0.227c0.267-0.241,2.633-2.35,3.809-2.055c0.273,0.068,0.472,0.255,0.576,0.541
							c0.171,0.471,0.132,0.873-0.118,1.194C288.862,399.594,288.231,399.801,287.521,399.892z M285.584,399.494
							c1.682,0.115,2.883-0.091,3.256-0.572c0.155-0.199,0.172-0.455,0.053-0.783c-0.055-0.151-0.142-0.237-0.275-0.27
							C287.985,397.711,286.56,398.68,285.584,399.494z"/>
						<path style="fill:#407BFF;" d="M285.085,399.879c-0.033,0.004-0.068,0.001-0.101-0.011c-0.07-0.025-0.121-0.084-0.137-0.157
							c-0.023-0.111-0.569-2.721,0.241-3.731c0.218-0.272,0.51-0.411,0.867-0.415c0.428-0.004,0.733,0.191,0.858,0.547
							c0.34,0.973-0.78,3.062-1.623,3.724C285.159,399.859,285.123,399.874,285.085,399.879z M285.859,396.002
							c-0.177,0.023-0.32,0.104-0.435,0.247c-0.484,0.603-0.364,2.122-0.226,2.99c0.71-0.776,1.432-2.347,1.209-2.985
							c-0.042-0.122-0.132-0.261-0.448-0.258C285.924,395.995,285.891,395.998,285.859,396.002z"/>
					</g>
					<g>
						<polygon style="fill:#B55B52;" points="235.919,406.927 245.088,405.762 246.589,383.995 237.42,385.16 						"/>
						<path style="fill:#263238;" d="M245.298,404.499l-10.379-0.328c-0.378-0.012-0.671,0.241-0.705,0.609l-0.763,8.195
							c-0.079,0.85,0.695,1.681,1.565,1.694c3.615,0.052,5.348-0.106,9.912,0.039c2.808,0.089,8.332,0.506,12.181,0.022
							c3.765-0.474,3.26-4.279,1.585-4.416c-3.966-0.325-9.281-3.065-11.824-5.196C246.412,404.733,245.85,404.517,245.298,404.499z
							"/>
						<path style="fill:#407BFF;" d="M248.522,406.212c-0.853-0.027-1.792-0.233-2.451-0.408c-0.082-0.021-0.144-0.09-0.157-0.174
							c-0.013-0.085,0.024-0.168,0.095-0.214c0.302-0.196,2.973-1.901,4.087-1.422c0.258,0.111,0.425,0.327,0.482,0.625
							c0.094,0.493-0.009,0.883-0.307,1.16C249.893,406.131,249.237,406.235,248.522,406.212z M246.672,405.511
							c1.642,0.381,2.861,0.369,3.306-0.046c0.184-0.172,0.242-0.422,0.177-0.764c-0.03-0.158-0.103-0.257-0.228-0.31
							C249.327,404.133,247.765,404.862,246.672,405.511z"/>
						<path style="fill:#407BFF;" d="M246.119,405.811c-0.034-0.001-0.067-0.01-0.098-0.027c-0.065-0.036-0.106-0.103-0.11-0.177
							c-0.005-0.113-0.129-2.776,0.832-3.645c0.259-0.234,0.569-0.325,0.922-0.272c0.424,0.065,0.694,0.305,0.76,0.676
							c0.181,1.014-1.258,2.899-2.195,3.418C246.195,405.804,246.157,405.812,246.119,405.811z M247.5,402.107
							c-0.179-0.006-0.333,0.052-0.468,0.175c-0.574,0.518-0.697,2.037-0.699,2.915c0.825-0.653,1.788-2.089,1.669-2.754
							c-0.022-0.127-0.089-0.279-0.401-0.326C247.565,402.111,247.532,402.108,247.5,402.107z"/>
						<g>
							<polygon style="opacity:0.2;" points="237.418,385.166 246.59,384 245.727,396.448 236.585,397.162 							"/>
						</g>
						<path style="fill:#263238;" d="M191.393,275.543c0,0,66.372,6.275,63.955,26.253c-3.486,28.814-5.21,90.916-5.21,90.916
							l-16.916,0.665c0,0-7.169-56.013-3.46-85.519c-17.176,0-59.224,1.236-63.058-9.113c-3.387-9.143-2.179-23.202-2.179-23.202
							H191.393z"/>
						<polygon style="fill:#407BFF;" points="231.354,394.418 251.656,393.412 252.386,384.576 230.122,386.113 						"/>
					</g>
					<g>
						<path style="fill:#B55B52;" d="M220.085,215.831l0.565,4.597c0.2,1.56,0.421,3.121,0.662,4.675
							c0.5,3.106,0.992,6.206,1.624,9.245c0.594,3.045,1.31,6.037,2.135,8.901c0.814,2.854,1.819,5.611,2.974,7.848
							c0.568,1.105,1.199,2.065,1.727,2.663c0.097,0.12,0.31,0.325,0.517,0.525c0.189,0.201,0.429,0.395,0.655,0.594
							c0.46,0.393,0.967,0.789,1.506,1.182c2.165,1.566,4.795,2.971,7.537,4.267c5.499,2.573,11.612,4.716,17.578,6.695
							l-1.084,6.855c-3.508-0.117-6.821-0.477-10.214-1.022c-1.689-0.265-3.374-0.587-5.059-0.969
							c-1.688-0.372-3.376-0.798-5.06-1.309c-3.38-0.999-6.755-2.279-10.158-4.158c-0.852-0.466-1.702-0.99-2.545-1.584
							c-0.422-0.299-0.844-0.588-1.264-0.934c-0.417-0.329-0.83-0.651-1.312-1.11c-1.798-1.71-3.042-3.469-4.114-5.189
							c-2.097-3.451-3.433-6.847-4.623-10.214c-1.168-3.37-2.056-6.729-2.853-10.077c-0.755-3.356-1.423-6.699-1.92-10.06
							c-0.257-1.679-0.491-3.359-0.703-5.044c-0.223-1.705-0.379-3.331-0.525-5.157L220.085,215.831z"/>
						<g>
							<path style="fill:#407BFF;" d="M206.065,209.153c6.786-6.557,15.15-2.686,18.486,9.593c3.337,12.279,3.857,20.14,3.857,20.14
								l-21.488,4.445C203.014,231.61,199.116,215.868,206.065,209.153z"/>
						</g>
						<path style="opacity:0.3;" d="M212.985,222.565c-1.535-1.387-5.9,4.809-8.561,12.472c0.75,2.865,1.615,5.684,2.49,8.299
							l12.926-2.671C218.806,233.024,216.43,225.669,212.985,222.565z"/>
						<path style="fill:#B55B52;" d="M256.245,265.251l5.114,0.324l-4.085,9.391c0,0-8.831-0.201-8.649-4.549l1.595-2.077
							C251.588,266.557,253.813,265.417,256.245,265.251z"/>
						<polygon style="fill:#B55B52;" points="266.937,266.328 262.525,274.966 257.274,274.966 261.359,265.575 						"/>
					</g>
					<path style="fill:#407BFF;" d="M206.862,202.577l-10.299-2.938l-13.246-0.626c-4.132-0.195-7.867,2.4-9.157,6.33
						c-2.526,7.695-4.848,18.843-6.54,28.463c-1.898,10.788-2.886,27-3.094,41.736h49.433c1.128-30.73,5.039-48.9,6.774-58.954
						c0.699-4.051-1.383-8.063-5.094-9.831L206.862,202.577z"/>
					<path style="opacity:0.3;" d="M172.581,210.673c-1.91,7.037-3.627,15.563-4.957,23.135c-1.114,6.367-1.921,14.609-2.433,23.328
						c8.144-0.803,17.144-10.182,20.032-22.814C188.032,222.043,181.391,209.185,172.581,210.673z"/>
					<path style="fill:#B55B52;" d="M200.669,182.908l4.003,6.11l5.447,8.327c-0.373,0.195-1.206,1.502-1.684,2.465
						c-0.995,2.005-1.817,3.506,2.393,6.376c0.901,0.615,1.469,1.69,1.264,2.762c-0.248,1.3-1.546,2.564-6.091,1.762
						c-5.264-0.929-8.786-3.712-11.406-6.331c-1.514-1.514-1.166-2.654,0.292-4.222
						C199.019,195.717,200.256,188.626,200.669,182.908z"/>
					<path style="opacity:0.2;" d="M208.779,195.298l-3.342-5.935c-0.068,0.148-0.148,0.318-0.227,0.489
						c-0.262,0.637-0.523,1.432-0.716,2.274c-0.614,2.637,1.432,6.4,3.683,8.197c0.091-0.17,0.17-0.341,0.262-0.511
						c0.421-0.864,1.137-2.001,1.546-2.365c0.045-0.046,0.091-0.08,0.136-0.103L208.779,195.298z"/>
					<path style="fill:#263238;" d="M207.251,218.817c-0.125,0-0.24-0.083-0.274-0.209c-0.041-0.151,0.048-0.308,0.2-0.349
						c0.21-0.057,0.449-0.109,0.712-0.167c3.622-0.789,12.104-2.637,11.332-35.177c-0.004-0.157,0.121-0.287,0.277-0.291
						c0.003,0,0.005,0,0.007,0c0.154,0,0.28,0.123,0.284,0.277c0.783,33.009-8.02,34.927-11.779,35.746
						c-0.253,0.055-0.482,0.104-0.684,0.16C207.301,218.814,207.276,218.817,207.251,218.817z"/>
					<path style="fill:#263238;" d="M227.566,173.846c-1.458-4.351-6.7-1.453-6.7-1.453s-0.063,9.128,2.743,11.463
						C226.415,186.191,229.042,178.25,227.566,173.846z"/>
					<path style="fill:#B55B52;" d="M202.08,172.092c-1.608,9.056-3.004,14.26,0.347,20.071c5.041,8.741,16.913,7.694,21.164-0.61
						c3.826-7.474,5.813-21.028-1.966-26.976C213.962,158.718,203.688,163.036,202.08,172.092z"/>
					<path style="fill:#263238;" d="M200.373,177.417c-2.439,3.887,3.646,5.305,3.646,5.305s7.289-5.495,7.44-9.142
						C211.61,169.932,202.306,174.338,200.373,177.417z"/>
					<path style="fill:#263238;" d="M198.031,178.876c-1.2-0.954-2.519-4.807-1.512-8.154c1.007-3.347,4.228-7.011,7.133-5.811
						c1.074-3.095,15.916-6.89,20.879,0.026c5.777,8.05,2.751,12.194-2.058,9.069l-8.807-2.842L198.031,178.876z"/>
					<path style="fill:#263238;" d="M224.368,173.248c-2.349,2.786-11.262,2.147-11.262,2.147l2.925-3.194
						c0,0-2.388,2.12-6.758,1.867c-4.37-0.253-2.021-4.737-2.021-4.737S228.789,168.006,224.368,173.248z"/>
					<path style="fill:#B55B52;" d="M197.202,178.653c-0.098,2.174,0.721,4.199,1.827,5.511c1.662,1.973,4.225,0.4,4.819-2.062
						c0.534-2.216-0.158-5.637-2.334-6.697C199.368,174.36,197.314,176.167,197.202,178.653z"/>
					<g>
						<g>
							<path style="fill:#407BFF;" d="M196.331,172.9c-0.616-2.613,0.505-6.402,2.353-8.475c-0.821,0.189-3.399-1.326,1.332-4.484
								c4.731-3.158,14.558-3.99,19.447-1.59c9.58,4.702,6.926,10.255,6.926,10.255L196.331,172.9z"/>
							<path style="opacity:0.3;" d="M196.331,172.9c-0.616-2.613,0.505-6.402,2.353-8.475c-0.821,0.189-3.399-1.326,1.332-4.484
								c4.731-3.158,14.558-3.99,19.447-1.59c9.58,4.702,6.926,10.255,6.926,10.255L196.331,172.9z"/>
						</g>
						<path style="fill:#407BFF;" d="M196.519,178.604c1.657,0.052,3.269-4.956,17.337-7.484c5.688-1.022,11.637,0.804,13.293,2.439
							c1.656,1.635,0.884-3.749,0.282-5.675c-0.602-1.926-9.387-3.473-15.105-2.787c-9.905,1.189-15.852,6.245-16.672,7.511
							C194.834,173.875,195.003,178.556,196.519,178.604z"/>
					</g>
					<path style="fill:#263238;" d="M201.696,180.008c0.329,1.01,0.004,2.021-0.727,2.259c-0.73,0.238-1.589-0.388-1.918-1.398
						s-0.004-2.021,0.727-2.259C200.508,178.372,201.367,178.998,201.696,180.008z"/>
					<path style="fill:#263238;" d="M202.875,274.545c-1.713,0-2.854-0.462-3.488-1.413c-1.539-2.304,0.434-7.054,2.521-12.083
						c1.953-4.704,3.972-9.568,3.44-12.914c-1.011-6.365-0.079-14.402,0.821-22.175c0.296-2.559,0.577-4.978,0.788-7.323
						c-3.864-3.977-7.768-9.126-5.715-19.688c1.355-6.975,1.054-12.794-0.895-17.299c-0.063-0.144,0.004-0.311,0.148-0.374
						c0.143-0.064,0.311,0.003,0.374,0.148c1.996,4.611,2.31,10.544,0.932,17.633c-2.016,10.376,1.862,15.391,5.656,19.276
						c0.058,0.06,0.087,0.141,0.08,0.224c-0.213,2.393-0.499,4.858-0.801,7.468c-0.896,7.735-1.823,15.733-0.824,22.021
						c0.556,3.503-1.494,8.443-3.477,13.22c-2.027,4.885-3.943,9.499-2.573,11.55c0.521,0.78,1.507,1.16,3.016,1.16
						c0.157,0,0.284,0.127,0.284,0.284C203.159,274.418,203.032,274.545,202.875,274.545z"/>
					<path style="fill:#263238;" d="M215.888,180.473c-0.233,0.709-0.05,1.419,0.407,1.587c0.458,0.168,1.017-0.271,1.25-0.979
						c0.232-0.709,0.05-1.419-0.407-1.587C216.68,179.325,216.121,179.764,215.888,180.473z"/>
					<path style="fill:#263238;" d="M223.799,183.376c-0.233,0.709-0.05,1.419,0.407,1.587c0.458,0.168,1.017-0.271,1.249-0.979
						c0.233-0.709,0.05-1.419-0.407-1.587C224.591,182.228,224.031,182.667,223.799,183.376z"/>
					<path style="fill:#A02724;" d="M221.094,183c0,0-0.054,3.984,0.735,6.269c-1.419,0.516-2.984-0.705-2.984-0.705L221.094,183z"
						/>
					<path style="fill:#263238;" d="M216.855,192.455c-2.776-0.96-3.729-3.228-3.771-3.333c-0.046-0.112,0.008-0.239,0.12-0.285
						c0.112-0.046,0.239,0.008,0.285,0.12c0.011,0.026,1.093,2.609,4.296,3.304c0.119,0.025,0.193,0.142,0.167,0.261
						c-0.025,0.118-0.142,0.193-0.261,0.167C217.396,192.624,217.117,192.546,216.855,192.455z"/>
					<path style="fill:#263238;" d="M215.164,177.409c-0.063-0.034-0.119-0.084-0.161-0.149c-0.13-0.203-0.072-0.475,0.132-0.605
						c2.013-1.293,3.857-0.441,3.934-0.403c0.215,0.078,0.311,0.364,0.207,0.583c-0.104,0.218-0.364,0.311-0.583,0.207
						c-0.077-0.035-1.503-0.667-3.085,0.35C215.47,177.482,215.3,177.482,215.164,177.409z"/>
					<path style="fill:#263238;" d="M225.367,178.797c-0.008-0.071,0.001-0.145,0.031-0.217c0.093-0.223,0.349-0.33,0.572-0.237
						c2.21,0.917,2.56,2.919,2.573,3.003c0.059,0.221-0.122,0.464-0.361,0.502c-0.239,0.039-0.463-0.123-0.502-0.361
						c-0.015-0.083-0.309-1.615-2.045-2.336C225.482,179.089,225.385,178.95,225.367,178.797z"/>
					<g>
						<path style="fill:#B55B52;" d="M187.951,212.727c-0.831,1.505-1.738,3.214-2.604,4.836c-0.868,1.646-1.711,3.307-2.525,4.977
							c-1.652,3.326-3.203,6.685-4.61,10.034c-1.379,3.351-2.636,6.722-3.464,9.95c-0.404,1.606-0.712,3.181-0.84,4.56
							c-0.171,1.323,0.076,2.77-0.025,2.453c0.057,0.282,0.788,1.212,1.896,2.036c1.101,0.848,2.519,1.667,4.031,2.412
							c3.042,1.512,6.48,2.78,9.989,3.915c3.52,1.133,7.148,2.138,10.814,3.065c3.647,0.965,7.414,1.779,11.06,2.576l-0.683,6.906
							c-8.009-0.153-15.833-0.864-23.793-2.441c-3.975-0.804-7.959-1.805-12.023-3.361c-2.03-0.802-4.083-1.729-6.186-3.052
							c-2.068-1.342-4.352-3.023-6.164-6.156c-0.43-0.804-0.825-1.663-1.095-2.625c-0.065-0.226-0.144-0.504-0.186-0.691
							l-0.119-0.544c-0.084-0.369-0.131-0.711-0.191-1.067c-0.211-1.4-0.265-2.704-0.25-3.948c0.031-2.488,0.354-4.746,0.782-6.914
							c0.861-4.325,2.122-8.295,3.564-12.143c1.43-3.847,3.061-7.547,4.806-11.17c0.885-1.805,1.797-3.592,2.736-5.365
							c0.944-1.797,1.887-3.485,2.993-5.328L187.951,212.727z"/>
						<g>
							<path style="fill:#407BFF;" d="M180.385,199.166c9.329-1.419,13.908,6.58,9.52,18.524
								c-4.388,11.944-8.514,18.655-8.514,18.655l-20.094-8.815C164.897,215.711,170.832,200.619,180.385,199.166z"/>
						</g>
						<path style="fill:#B55B52;" d="M212.479,263.661l5.583,1.914l-7.408,7.071c0,0-9.057-3.243-7.202-7.18l2.276-1.296
							C207.68,263.058,210.173,262.87,212.479,263.661z"/>
						<polygon style="fill:#B55B52;" points="224.628,269.33 216.258,274.261 210.655,272.646 218.063,265.575 						"/>
					</g>
				</g>
			</g>
		</g>
	</g>
</g>
<g id="Desk">
	<g>
		<g>
			<g>
				<g>
					<rect x="148.666" y="274.68" style="fill:#407BFF;" width="207.622" height="6.759"/>
					<rect x="148.666" y="274.68" style="opacity:0.6;fill:#FFFFFF;" width="207.622" height="6.759"/>
				</g>
				
					<rect x="148.666" y="274.68" transform="matrix(-1 -1.224647e-16 1.224647e-16 -1 338.7585 556.1193)" style="opacity:0.5;fill:#407BFF;" width="41.426" height="6.759"/>
			</g>
			<g>
				<g>
					<path style="fill:#407BFF;" d="M300.063,272.436h-97.833c-1.234,0-2.244,1.009-2.244,2.244h102.322
						C302.308,273.445,301.298,272.436,300.063,272.436z"/>
				</g>
				<g>
					<path style="fill:#407BFF;" d="M313.029,226.666h-66.881c-0.818,0-1.658,0.663-1.876,1.481l-10.973,41.243
						c-0.218,0.818,0.269,1.481,1.087,1.481h66.881c0.818,0,1.658-0.663,1.875-1.481l10.973-41.243
						C314.334,227.33,313.847,226.666,313.029,226.666z"/>
					<path style="opacity:0.2;" d="M244.272,228.148l-10.973,41.243c-0.217,0.818,0.269,1.481,1.087,1.481l11.761-44.206
						C245.33,226.666,244.49,227.33,244.272,228.148z"/>
				</g>
				<path style="opacity:0.2;" d="M230.778,272.436h-28.547c-1.234,0-2.244,1.009-2.244,2.244h33.036
					C233.023,273.445,232.012,272.436,230.778,272.436z"/>
			</g>
		</g>
		<path style="fill:#407BFF;" d="M191.559,416.238h3.979l-5.612-30.902h3.494v-3.979h-4.217l-17.424-95.938h2.567v-3.979h-9.933
			v3.979h2.567l-17.424,95.938h-4.217v3.979h3.494l-5.612,30.902h3.979l5.612-30.902h33.135L191.559,416.238z M153.534,381.357
			l15.845-87.243l15.845,87.243H153.534z"/>
		<path style="fill:#407BFF;" d="M356.241,412.556h3.979l-5.612-27.22h3.494v-3.979h-4.217l-17.424-95.938h2.567v-3.979h-9.933
			v3.979h2.567l-17.424,95.938h-4.217v3.979h3.494l-5.612,27.22h3.979l5.612-27.22h33.135L356.241,412.556z M318.216,381.357
			l15.845-87.243l15.845,87.243H318.216z"/>
		<path style="fill:#263238;" d="M311.4,273.163v0.791c0,0.401,0.325,0.727,0.726,0.727h25.647c0.401,0,0.726-0.325,0.726-0.727
			v-0.791c0-0.401-0.325-0.727-0.726-0.727h-25.647C311.725,272.436,311.4,272.761,311.4,273.163z"/>
	</g>
</g>
<g id="Coding">
	<g>
		<g>
			<g>
				<path style="opacity:0.9;fill:#263238;" d="M266.604,218.942c-0.791,0-1.375-0.641-1.305-1.432l4.11-46.237
					c0.07-0.791,0.768-1.432,1.559-1.432h56.277c0.791,0,1.375,0.641,1.305,1.432l-4.11,46.237c-0.07,0.791-0.768,1.432-1.559,1.432
					H266.604z"/>
				<g>
					<polygon style="fill:#FFFFFF;" points="314.085,184.234 281.514,184.234 281.621,183.03 314.192,183.03 					"/>
					<polygon style="fill:#407BFF;" points="319.191,186.154 284.687,186.154 284.794,184.95 319.298,184.95 					"/>
					<polygon style="fill:#407BFF;" points="313.105,188.074 284.517,188.074 284.624,186.87 313.212,186.87 					"/>
					<polygon style="fill:#407BFF;" points="309.955,189.994 284.346,189.994 284.453,188.79 310.062,188.79 					"/>
					<polygon style="fill:#FFFFFF;" points="301.887,193.118 280.725,193.118 280.832,191.914 301.994,191.914 					"/>
					<polygon style="fill:#407BFF;" points="306.382,197.673 283.663,197.673 283.556,198.878 306.275,198.878 					"/>
					<polygon style="fill:#407BFF;" points="302.658,195.754 283.834,195.754 283.727,196.958 302.551,196.958 					"/>
					<polygon style="fill:#407BFF;" points="304.737,193.834 284.005,193.834 283.898,195.038 304.63,195.038 					"/>
					<polygon style="fill:#FFFFFF;" points="300.585,207.761 279.423,207.761 279.53,206.557 300.692,206.557 					"/>
					<polygon style="fill:#407BFF;" points="305.081,212.317 282.362,212.317 282.255,213.521 304.974,213.521 					"/>
					<polygon style="fill:#407BFF;" points="301.357,210.397 282.532,210.397 282.425,211.601 301.25,211.601 					"/>
					<polygon style="fill:#407BFF;" points="303.435,208.477 282.703,208.477 282.596,209.681 303.328,209.681 					"/>
					<polygon style="fill:#FFFFFF;" points="292.041,175.277 274.858,175.277 274.965,174.073 292.148,174.073 					"/>
					<polygon style="fill:#FFFFFF;" points="295.615,179.833 277.168,179.833 277.061,181.037 295.508,181.037 					"/>
					<polygon style="fill:#FFFFFF;" points="292.623,177.913 277.339,177.913 277.232,179.117 292.516,179.117 					"/>
					<polygon style="fill:#FFFFFF;" points="294.343,175.993 277.509,175.993 277.402,177.197 294.236,177.197 					"/>
					<polygon style="fill:#407BFF;" points="305.87,203.433 283.151,203.433 283.044,204.637 305.763,204.637 					"/>
					<polygon style="fill:#407BFF;" points="302.146,201.513 283.322,201.513 283.215,202.717 302.039,202.717 					"/>
					<polygon style="fill:#407BFF;" points="304.225,199.594 283.493,199.594 283.386,200.798 304.118,200.798 					"/>
				</g>
			</g>
		</g>
		<g>
			<path style="fill:#407BFF;" d="M345.717,163.421h-37.504c-0.687,0-1.313-0.27-1.76-0.759c-0.45-0.492-0.665-1.143-0.604-1.833
				l2.818-31.705c0.122-1.38,1.347-2.503,2.728-2.503h37.503c0.688,0,1.313,0.27,1.761,0.759c0.45,0.492,0.664,1.143,0.603,1.833
				l-2.818,31.705C348.322,162.298,347.098,163.421,345.717,163.421z M311.396,127.621c-0.877,0-1.654,0.714-1.732,1.592
				l-2.818,31.705c-0.036,0.407,0.086,0.787,0.345,1.069c0.256,0.28,0.62,0.434,1.023,0.434h37.504c0.877,0,1.654-0.714,1.732-1.592
				l2.818-31.705c0.036-0.407-0.086-0.787-0.344-1.069c-0.256-0.28-0.62-0.434-1.023-0.434H311.396z"/>
			<path style="fill:#407BFF;" d="M350.196,136.068h-41.6c-0.276,0-0.5-0.224-0.5-0.5c0-0.276,0.224-0.5,0.5-0.5h41.6
				c0.276,0,0.5,0.224,0.5,0.5C350.696,135.844,350.473,136.068,350.196,136.068z"/>
			<path style="fill:#407BFF;" d="M315.988,163.421c-0.015,0-0.03-0.001-0.045-0.002c-0.275-0.024-0.478-0.267-0.454-0.542
				l2.432-27.354c0.024-0.275,0.267-0.475,0.543-0.454c0.275,0.024,0.478,0.267,0.454,0.543l-2.432,27.354
				C316.462,163.226,316.244,163.421,315.988,163.421z"/>
			<g>
				<path style="fill:#407BFF;" d="M345.321,139.318h-22.585c-0.276,0-0.5-0.224-0.5-0.5c0-0.276,0.224-0.5,0.5-0.5h22.585
					c0.276,0,0.5,0.224,0.5,0.5C345.821,139.094,345.598,139.318,345.321,139.318z"/>
				<path style="fill:#407BFF;" d="M341.783,143.306h-19.401c-0.276,0-0.5-0.224-0.5-0.5c0-0.276,0.224-0.5,0.5-0.5h19.401
					c0.276,0,0.5,0.224,0.5,0.5C342.283,143.082,342.06,143.306,341.783,143.306z"/>
				<path style="fill:#407BFF;" d="M333.308,147.422h-11.293c-0.276,0-0.5-0.224-0.5-0.5c0-0.276,0.224-0.5,0.5-0.5h11.293
					c0.276,0,0.5,0.224,0.5,0.5C333.808,147.198,333.585,147.422,333.308,147.422z"/>
				<path style="fill:#407BFF;" d="M335.087,155.455h-13.786c-0.276,0-0.5-0.224-0.5-0.5s0.224-0.5,0.5-0.5h13.786
					c0.276,0,0.5,0.224,0.5,0.5S335.364,155.455,335.087,155.455z"/>
				<path style="fill:#407BFF;" d="M332.228,159.57h-11.292c-0.276,0-0.5-0.224-0.5-0.5s0.224-0.5,0.5-0.5h11.292
					c0.276,0,0.5,0.224,0.5,0.5S332.505,159.57,332.228,159.57z"/>
				<path style="fill:#407BFF;" d="M338.839,159.57h-3.619c-0.276,0-0.5-0.224-0.5-0.5s0.224-0.5,0.5-0.5h3.619
					c0.276,0,0.5,0.224,0.5,0.5S339.116,159.57,338.839,159.57z"/>
				<path style="fill:#407BFF;" d="M342.809,151.41h-21.148c-0.276,0-0.5-0.224-0.5-0.5c0-0.276,0.224-0.5,0.5-0.5h21.148
					c0.276,0,0.5,0.224,0.5,0.5C343.309,151.186,343.085,151.41,342.809,151.41z"/>
			</g>
		</g>
		<g>
			<path style="fill:#263238;" d="M268.137,160.311c-0.128,0-0.256-0.049-0.354-0.146c-0.195-0.195-0.195-0.512,0-0.707l2.495-2.495
				l-2.495-2.495c-0.195-0.195-0.195-0.512,0-0.707c0.195-0.195,0.512-0.195,0.707,0l2.848,2.848c0.195,0.195,0.195,0.512,0,0.707
				l-2.848,2.848C268.393,160.263,268.265,160.311,268.137,160.311z"/>
			<path style="fill:#263238;" d="M259.603,160.311c-0.128,0-0.256-0.049-0.354-0.146l-2.848-2.848
				c-0.195-0.195-0.195-0.512,0-0.707l2.848-2.848c0.195-0.195,0.512-0.195,0.707,0c0.195,0.195,0.195,0.512,0,0.707l-2.495,2.495
				l2.495,2.495c0.195,0.195,0.195,0.512,0,0.707C259.858,160.263,259.73,160.311,259.603,160.311z"/>
			<path style="fill:#263238;" d="M262.803,160.311c-0.059,0-0.118-0.01-0.175-0.032c-0.259-0.097-0.39-0.385-0.293-0.644
				l2.134-5.696c0.097-0.259,0.387-0.389,0.644-0.293c0.259,0.097,0.39,0.385,0.293,0.643l-2.134,5.696
				C263.196,160.188,263.006,160.311,262.803,160.311z"/>
		</g>
		<g>
			<path style="fill:#407BFF;" d="M331.929,234.095c-0.128,0-0.256-0.049-0.353-0.146c-0.195-0.195-0.195-0.512,0-0.707l2.495-2.495
				l-2.495-2.494c-0.195-0.195-0.195-0.512,0-0.707c0.195-0.195,0.512-0.195,0.707,0l2.848,2.848
				c0.094,0.094,0.146,0.221,0.146,0.354s-0.053,0.26-0.146,0.354l-2.848,2.848C332.185,234.046,332.057,234.095,331.929,234.095z"
				/>
			<path style="fill:#407BFF;" d="M323.395,234.095c-0.128,0-0.256-0.049-0.354-0.146l-2.848-2.848
				c-0.195-0.195-0.195-0.512,0-0.707l2.848-2.848c0.195-0.195,0.512-0.195,0.707,0c0.195,0.195,0.195,0.512,0,0.707l-2.494,2.494
				l2.494,2.495c0.195,0.195,0.195,0.512,0,0.707C323.65,234.046,323.522,234.095,323.395,234.095z"/>
			<path style="fill:#407BFF;" d="M326.595,234.095c-0.059,0-0.118-0.01-0.175-0.032c-0.259-0.097-0.39-0.385-0.293-0.644
				l2.134-5.696c0.097-0.258,0.386-0.389,0.644-0.293c0.259,0.097,0.39,0.385,0.293,0.644l-2.134,5.696
				C326.988,233.971,326.798,234.095,326.595,234.095z"/>
		</g>
		<g>
			<path style="fill:#407BFF;" d="M309.348,120.701c-0.128,0-0.256-0.049-0.354-0.146c-0.195-0.195-0.195-0.512,0-0.707l2.494-2.495
				l-2.494-2.495c-0.195-0.195-0.195-0.512,0-0.707c0.195-0.195,0.512-0.195,0.707,0l2.848,2.848c0.195,0.195,0.195,0.512,0,0.707
				l-2.848,2.848C309.604,120.652,309.476,120.701,309.348,120.701z"/>
			<path style="fill:#407BFF;" d="M300.814,120.701c-0.128,0-0.256-0.049-0.354-0.146l-2.848-2.848
				c-0.195-0.195-0.195-0.512,0-0.707l2.848-2.848c0.195-0.195,0.512-0.195,0.707,0c0.195,0.195,0.195,0.512,0,0.707l-2.495,2.495
				l2.495,2.495c0.195,0.195,0.195,0.512,0,0.707C301.069,120.652,300.941,120.701,300.814,120.701z"/>
			<path style="fill:#407BFF;" d="M304.014,120.701c-0.059,0-0.118-0.01-0.175-0.032c-0.259-0.097-0.39-0.385-0.293-0.644
				l2.134-5.696c0.097-0.259,0.387-0.388,0.644-0.293c0.259,0.097,0.39,0.385,0.293,0.644l-2.134,5.696
				C304.407,120.577,304.216,120.701,304.014,120.701z"/>
		</g>
	</g>
</g>
</svg>
