<?xml version="1.0" encoding="utf-8"?>
<!-- Generator: Adobe Illustrator 27.5.0, SVG Export Plug-In . SVG Version: 6.00 Build 0)  -->
<svg version="1.1" xmlns="http://www.w3.org/2000/svg" xmlns:xlink="http://www.w3.org/1999/xlink" x="0px" y="0px"
	 viewBox="0 0 2000 2000" style="enable-background:new 0 0 2000 2000;" xml:space="preserve">
<g id="BACKGROUND">
	<rect style="fill:#FFFFFF;" width="2000" height="2000"/>
</g>
<g id="OBJECTS">
	<g>
		<g style="opacity:0.4;">
			<path style="fill:#E5E5FF;" d="M1867.625,1113.416c25.519-167.323,46.063-349.148-58.728-495.427
				c-31.434-43.878-71.764-87.889-121.928-109.066c-62.978-26.586-129.952-33.358-197.86-32.625
				c-125.946,1.36-251.643,23.771-370.386,66.037c-85.953,30.595-170.193,71.948-261.15,78.25
				c-154.058,10.673-311.515-80.393-457.788-30.582c-77.697,26.459-138.939,90.718-174.99,164.857
				c-36.051,74.139-49.118,157.629-52.326,240.104c-9.748,250.625,55.308,516.035,200.014,720.037h1274.038
				c28.155-49.628,51.042-102.114,70.869-145.256C1783.025,1426.925,1843.857,1269.262,1867.625,1113.416z"/>
		</g>
		<g>
			<path style="fill:#E0E0FF;" d="M1016.438,1311.25H913.545c-4.038,0-7.312-3.274-7.312-7.312v-33.015
				c0-4.038,3.274-7.312,7.312-7.312h102.893c4.038,0,7.312,3.274,7.312,7.312v33.015
				C1023.75,1307.976,1020.476,1311.25,1016.438,1311.25z"/>
			<path style="fill:#E0E0FF;" d="M1152.063,1311.25H1049.17c-4.038,0-7.312-3.274-7.312-7.312v-33.015
				c0-4.038,3.274-7.312,7.312-7.312h102.893c4.038,0,7.312,3.274,7.312,7.312v33.015
				C1159.375,1307.976,1156.101,1311.25,1152.063,1311.25z"/>
			<path style="fill:#E0E0FF;" d="M1213.521,1372.917h-102.893c-4.038,0-7.312-3.274-7.312-7.312v-33.015
				c0-4.038,3.274-7.312,7.312-7.312h102.893c4.038,0,7.312,3.274,7.312,7.312v33.015
				C1220.833,1369.643,1217.56,1372.917,1213.521,1372.917z"/>
			<path style="fill:#E0E0FF;" d="M1077.688,1372.083H974.795c-4.038,0-7.312-3.274-7.312-7.312v-33.015
				c0-4.038,3.274-7.312,7.312-7.312h102.893c4.038,0,7.312,3.274,7.312,7.312v33.015
				C1085,1368.81,1081.726,1372.083,1077.688,1372.083z"/>
			<path style="fill:#E0E0FF;" d="M1016.855,1432.917H913.962c-4.038,0-7.312-3.274-7.312-7.312v-33.015
				c0-4.038,3.274-7.312,7.312-7.312h102.893c4.038,0,7.312,3.274,7.312,7.312v33.015
				C1024.167,1429.643,1020.893,1432.917,1016.855,1432.917z"/>
		</g>
		<g>
			<g>
				<g>
					<rect x="517.275" y="385.205" style="fill:#FFFFFF;" width="862.305" height="626.563"/>
					<path style="fill:#5254CF;" d="M1380.83,1013.018H516.025V383.955h864.805V1013.018z M518.525,1010.518h859.805V386.455
						H518.525V1010.518z"/>
				</g>
				<rect x="518.428" y="385.205" style="opacity:0.6;fill:#E0E0FF;" width="860" height="28.115"/>
				<g>
					<rect x="479.678" y="355" style="fill:#FFFFFF;" width="937.5" height="33.841"/>
					<path style="fill:#5254CF;" d="M1418.428,390.092h-940V353.75h940V390.092z M480.928,387.592h935V356.25h-935V387.592z"/>
				</g>
			</g>
			<g>
				<g>
					<g>
						<path style="fill:#5254CF;" d="M999.587,724.714h-97.319v-33.279c-15.557-13.883-24.465-33.735-24.465-54.56
							c0-40.321,32.804-73.125,73.125-73.125c40.321,0,73.125,32.804,73.125,73.125c0,20.824-8.909,40.676-24.465,54.56V724.714z
							 M904.768,722.214h92.319v-31.907l0.425-0.374c15.278-13.425,24.04-32.765,24.04-53.059c0-38.943-31.682-70.625-70.625-70.625
							c-38.943,0-70.625,31.682-70.625,70.625c0,20.295,8.762,39.634,24.041,53.059l0.425,0.374V722.214z"/>
						<path style="fill:#5254CF;" d="M999.587,754.627h-97.319V738.75h97.319V754.627z M904.768,752.127h92.319V741.25h-92.319
							V752.127z"/>
						<path style="fill:#5254CF;" d="M999.587,777.752h-97.319v-15.877h97.319V777.752z M904.768,775.252h92.319v-10.877h-92.319
							V775.252z"/>
						<path style="fill:#5254CF;" d="M958.367,724.714h-14.878l-5.126-101.666h25.129L958.367,724.714z M945.867,722.214h10.122
							l4.874-96.666h-19.871L945.867,722.214z"/>
					</g>
					<circle style="fill:#CBCBFF;" cx="952.5" cy="538.125" r="5"/>
					<circle style="fill:#CBCBFF;" cx="836.25" cy="657.5" r="5"/>
					<circle style="fill:#CBCBFF;" cx="1065" cy="657.5" r="5"/>
					<circle style="fill:#CBCBFF;" cx="951.875" cy="825" r="5"/>
				</g>
				<g>
					<g>
						<circle style="fill:#CBCBFF;" cx="853.125" cy="573.75" r="5"/>
						<polygon style="fill:#CBCBFF;" points="852.004,574.303 829.222,528.125 737.084,528.125 737.084,525.625 830.778,525.625 
							854.246,573.197 						"/>
					</g>
					<g>
						<rect x="576.875" y="527.526" style="fill:#CBCBFF;" width="19.108" height="37.474"/>
						<rect x="608.192" y="509.235" style="fill:#CBCBFF;" width="19.108" height="55.765"/>
						<rect x="639.508" y="520.194" style="fill:#CBCBFF;" width="19.108" height="44.806"/>
						<rect x="670.825" y="496.219" style="fill:#CBCBFF;" width="19.108" height="68.781"/>
						<rect x="702.141" y="464.91" style="fill:#CBCBFF;" width="19.109" height="100.089"/>
					</g>
				</g>
				<g>
					<g>
						<circle style="fill:#CBCBFF;" cx="1048.125" cy="568.125" r="5"/>
						<polygon style="fill:#CBCBFF;" points="1049.253,568.663 1046.997,567.587 1073.586,511.875 1158.125,511.875 
							1158.125,514.375 1075.164,514.375 						"/>
					</g>
					<g>
						<path style="fill:#CBCBFF;" d="M1298.923,549.281h-116.651c-7.192,0-13.042-5.851-13.042-13.042v-67.744
							c0-7.191,5.85-13.042,13.042-13.042h116.651c7.192,0,13.042,5.851,13.042,13.042v67.744
							C1311.965,543.43,1306.116,549.281,1298.923,549.281z M1182.273,457.953c-5.813,0-10.542,4.729-10.542,10.542v67.744
							c0,5.813,4.729,10.542,10.542,10.542h116.651c5.813,0,10.542-4.729,10.542-10.542v-67.744c0-5.813-4.729-10.542-10.542-10.542
							H1182.273z"/>
						<g>
							<rect x="1190.598" y="475.492" style="fill:#CBCBFF;" width="100" height="2.5"/>
							<rect x="1190.598" y="492.574" style="fill:#CBCBFF;" width="72.083" height="2.5"/>
							<rect x="1190.598" y="509.658" style="fill:#CBCBFF;" width="87.917" height="2.5"/>
							<rect x="1190.598" y="526.742" style="fill:#CBCBFF;" width="100" height="2.5"/>
						</g>
					</g>
				</g>
				<g>
					<g>
						<circle style="fill:#CBCBFF;" cx="1046.458" cy="786.458" r="5"/>
						<polygon style="fill:#CBCBFF;" points="1156.458,842.709 1071.919,842.709 1045.33,786.997 1047.585,785.92 1073.496,840.209 
							1156.458,840.209 						"/>
					</g>
					<g>
						<path style="fill:#CBCBFF;" d="M1257.146,889.202c-9.558,0-19.199-1.893-28.389-5.786
							c-36.797-15.645-54.033-58.298-38.418-95.083c15.635-36.786,58.281-54.011,95.076-38.395
							c19.204,8.138,33.97,24.185,40.51,44.021c5.527,16.719,4.778,34.843-2.112,51.034c-3.75,8.856-9.116,16.748-15.947,23.453
							C1293.999,882.026,1275.742,889.202,1257.146,889.202z M1257.188,746.677c-27.261,0-53.23,16.008-64.548,42.633
							c-15.073,35.516,1.567,76.699,37.095,91.804c26.133,11.071,56.113,5.398,76.382-14.454
							c6.594-6.472,11.775-14.092,15.398-22.644v-0.002c6.65-15.631,7.373-33.129,2.038-49.271
							c-6.316-19.154-20.571-34.645-39.114-42.502C1275.547,748.466,1266.292,746.677,1257.188,746.677z"/>
						<path style="fill:#CBCBFF;" d="M1322.664,844.503c-3.78,8.922-9.155,16.651-15.674,23.05l-49.31-50.184l67.059-23.018
							C1329.977,810.2,1329.707,827.948,1322.664,844.503z"/>
					</g>
				</g>
				<g>
					<g>
						<circle style="fill:#CBCBFF;" cx="852.083" cy="785.833" r="5"/>
						<polygon style="fill:#CBCBFF;" points="826.622,842.084 742.084,842.084 742.084,839.584 825.045,839.584 850.956,785.295 
							853.212,786.372 						"/>
					</g>
					<g>
						<path style="fill:#CBCBFF;" d="M716.25,782.084H589.584v-77.5H716.25V782.084z M592.084,779.584H713.75v-72.5H592.084V779.584
							z"/>
						<g>
							<rect x="603.438" y="724.375" style="fill:#F5F5FF;" width="98.959" height="2.5"/>
							<rect x="603.438" y="742.084" style="fill:#F5F5FF;" width="98.959" height="2.5"/>
							<rect x="603.438" y="759.791" style="fill:#F5F5FF;" width="98.959" height="2.5"/>
						</g>
						<polygon style="fill:#CBCBFF;" points="614.363,767.694 605.553,750.684 600.247,766.339 597.878,765.536 605.072,744.316 
							614.387,762.306 633.92,725.447 646.294,757.001 656.16,733.68 675.072,753.854 695.167,719.063 697.333,720.313 
							675.553,758.021 656.965,738.195 646.206,763.624 633.58,731.428 						"/>
					</g>
					<g>
						<path style="fill:#CBCBFF;" d="M716.25,892.084H589.584v-77.5H716.25V892.084z M592.084,889.584H713.75v-72.5H592.084V889.584
							z"/>
						<g>
							<rect x="603.438" y="834.375" style="fill:#F5F5FF;" width="98.959" height="2.5"/>
							<rect x="603.438" y="852.084" style="fill:#F5F5FF;" width="98.959" height="2.5"/>
							<rect x="603.438" y="869.791" style="fill:#F5F5FF;" width="98.959" height="2.5"/>
						</g>
						<polygon style="fill:#CBCBFF;" points="676.246,872.449 659.382,858.503 643.052,872.273 632.866,852.799 623.859,871.746 
							602.043,834.064 604.207,832.811 623.641,866.379 632.759,847.201 643.823,868.352 659.368,855.247 675.004,868.176 
							686.864,831.606 699.624,870.233 697.251,871.017 686.886,839.644 						"/>
					</g>
				</g>
			</g>
		</g>
		<g>
			<path style="fill:#E0E0FF;" d="M255.087,1024.098c0,0-21.337-39.098,147.413-30.348l93.75,303.75L337.5,1295L255.087,1024.098z"
				/>
			<polygon style="fill:#E0E0FF;" points="311.667,1715.093 287.5,1715.093 345,1301.76 376.667,1301.76 			"/>
			<polygon style="fill:#E0E0FF;" points="593.333,1715.093 617.5,1715.093 560,1301.76 528.333,1301.76 			"/>
			<rect x="350.344" y="1284.167" style="fill:#CBCBFF;" width="241.322" height="25"/>
			<path style="fill:#CBCBFF;" d="M350.344,1284.167l-71.833-266.157c-1.875-6.948-9.363-10.734-16.07-8.126l0,0
				c-5.681,2.21-8.833,8.3-7.354,14.214l65.318,261.274c3.448,13.791,15.725,23.549,29.939,23.795l0,0V1284.167z"/>
		</g>
		<g>
			<g>
				<polygon style="fill:#E0E0FF;" points="1701.422,1715 1724.015,1715 1670.259,1301.667 1640.655,1301.667 				"/>
				<polygon style="fill:#E0E0FF;" points="1438.098,1715 1415.505,1715 1469.26,1301.667 1498.865,1301.667 				"/>
			</g>
			
				<rect x="1401.821" y="1284.074" transform="matrix(-1 -1.224647e-16 1.224647e-16 -1 3139.5198 2593.1475)" style="fill:#CBCBFF;" width="335.877" height="25"/>
			<path style="fill:#E0E0FF;" d="M1737.708,1284.074h-336.042c34.542-65.49,51.481-153.674,59.401-251.96
				c1.816-22.531,20.667-39.878,43.271-39.878h130.611c22.678,0,41.584,17.457,43.288,40.071
				C1685.862,1133.525,1703.18,1221.476,1737.708,1284.074z"/>
		</g>
		<g>
			<g>
				<path style="fill:#1B1B43;" d="M473.438,786.563c0,0-95.104,55.938-37.604,93.438l50.833,19.167L503.333,820
					C498.078,799.544,489.754,785.153,473.438,786.563z"/>
				<path style="fill:#1B1B43;" d="M471.083,792.966c-4.851,1.737-9.613,3.817-14.241,6.1c-4.642,2.264-9.186,4.722-13.547,7.463
					c-8.691,5.468-16.93,11.888-23.082,20.022c-3.065,4.043-5.65,8.457-7.305,13.229c-1.73,4.753-2.269,9.86-2.008,14.892
					c0.272,5.039,1.396,10.081,3.372,14.8c0.808,2.435,2.054,4.69,3.162,7.012c1.17,2.29,2.61,4.44,3.906,6.675l-0.804,0.556
					c-6.044-8.42-11.053-18.18-11.815-28.902c-0.433-5.3,0.174-10.747,1.933-15.798c1.723-5.061,4.352-9.777,7.593-13.97
					c6.522-8.393,14.953-14.998,23.95-20.319c9.017-5.342,18.612-9.59,28.595-12.693L471.083,792.966z"/>
			</g>
			<g>
				<g>
					<g>
						<path style="fill:#1B1B43;" d="M812.04,1653.775c-5.871-5.011-11.633-10.043-17.122-15.481
							c-4.705-4.662-9.275-9.461-13.736-14.356c-1.413-1.55-4.674-4.007-5.388-6.041l-52.2,17.546l18.226,79.557l10.038,0.076
							c0,0,0.916-37.255,0.916-37.255c16.003,7.89,32.718,15.233,50.358,18.504c10.864,2.015,25.048,2.868,35.395-1.589
							C864.43,1683.578,818.969,1659.689,812.04,1653.775z"/>
						<polygon style="fill:#FFBC96;" points="764.419,1585.476 716.302,1603.607 723.594,1635.441 775.794,1617.895 						"/>
					</g>
					<path style="fill:#393A8F;" d="M555,1131.25l120.327,39.777c19.89,6.575,36.592,20.367,46.811,38.654l0,0
						c5.194,9.294,8.567,19.493,9.94,30.051l46.672,359.018l-72.5,12.5l-98.75-365L473.75,1185l23.75-66.25L555,1131.25z"/>
				</g>
				<g>
					<g>
						<path style="fill:#1B1B43;" d="M522.068,1694.855c-18.283-7.391-32.286-56.404-32.286-56.404l-53.169-14.747l-30.465,74.652
							l8.169,5.835l22.173-29.952l54.07,40.844h42.789C533.349,1715.083,540.351,1702.246,522.068,1694.855z"/>
						<polygon style="fill:#FFBC96;" points="499.118,1605.387 449.327,1592.55 436.613,1623.704 489.782,1638.451 						"/>
					</g>
					<path style="fill:#5254CF;" d="M626.975,1287.925l-116.15,328.75l-13.75-4.1l-49.85-14.85l-6.4-1.9l62.5-309.15
						c-70.825,17.5-110.05-1.6-124.15-33.35c-3.975-8.95-5.775-19.325-6.125-30.175c-1.35-43.775,21.125-95.65,21.125-95.65
						l67.075,5l123.375,56c12.225,5.55,22.625,13.95,30.525,24.3c7.9,10.35,13.25,22.625,15.375,35.875
						C632.65,1261.85,631.425,1275.35,626.975,1287.925z"/>
				</g>
				<path style="opacity:0.6;fill:#393A8F;" d="M503.325,1286.675c-70.825,17.5-110.05-1.6-124.15-33.35
					c-3.975-8.95-5.775-19.325-6.125-30.175C409.9,1287.975,503.325,1286.675,503.325,1286.675z"/>
			</g>
			<g>
				<path style="fill:#FFB147;" d="M458.05,859.875l-75.55,174.5l20,31.875c0,0-20.324,46.04-31.875,78.125
					c0,0,133.542,37.708,248.542,8.958L600,1055l-8.125-150.625l-47.925-43.4L458.05,859.875z"/>
				<polygon style="fill:#1B1B43;" points="573.333,1083.333 562.292,1084.792 540.13,999.128 548.852,996.668 				"/>
				<g>
					<path style="fill:#FFB147;" d="M694.284,1042.987c-19.326-2.893-36.784-9.237-36.784-9.237L628.75,919.4
						c-5.45-21.675-21.625-39.025-42.875-45.95l-36.8-10.475c-1.8-0.5-3.5-1.175-5.125-2l33.862,228.088
						c0,0,58.024,5.82,99.688,6.875C676.508,1076.026,684.063,1053.125,694.284,1042.987z"/>
					<path style="fill:#FFBC96;" d="M756.667,1039.167c-20.313-2.5-35.417,4.583-35.417,4.583
						c-8.315,1.202-17.847,0.602-26.966-0.763c-7.722,11.388-21.838,34.602-20.847,54.513c8.714,0.221,31.103-0.559,36.563-0.938
						c31.563-2.188,60.625-34.688,60.625-34.688s23.125,22.813,25,12.188S776.979,1041.667,756.667,1039.167z"/>
				</g>
				<rect x="518.333" y="1082.332" style="fill:#FFFFFF;" width="136.477" height="11.468"/>
				<path style="fill:#FFBC96;" d="M473.75,1093.125c0,0,58.438,8.125,70.313-2.813c0,0,14.063,0.313,17.5-7.813
					c0,0,5.313-3.438,7.813-10.313c0,0,5-8.125,3.438-13.438l-19.688-10c0,0-0.08-0.684-0.257-1.686
					c-0.788-4.456-4.621-7.741-9.145-7.801l-34.036-0.451c-3.097-0.041-6.175,0.493-9.077,1.576l-34.984,13.05L473.75,1093.125z"/>
				<path style="fill:#FFB147;" d="M430,951.875L395,1030l110,8.75c-32.5,15.625-31.25,54.375-31.25,54.375l-99.775,2.6
					c-12.875,0.325-25.275-4.825-34.125-14.175c-8.075-8.55-12.4-19.75-12.4-31.15c0-4.775,0.75-9.575,2.3-14.225l40.925-123.625
					c6.6-19.9,22.825-35.1,43.125-40.35l39.95-10.325c1.5-0.625,2.95-1.3,4.3-2L430,951.875z"/>
				<g>
					<path style="fill:#D28572;" d="M569.138,1072.615c-4.78-2.004-9.357-4.375-13.882-6.839c-4.507-2.496-8.947-5.114-13.149-8.161
						l0.474-0.854c4.808,1.953,9.379,4.336,13.882,6.839c4.486,2.535,8.919,5.165,13.149,8.161L569.138,1072.615z"/>
					<path style="fill:#D28572;" d="M561.38,1082.953c-4.483-1.193-8.809-2.774-13.095-4.455c-4.272-1.715-8.493-3.558-12.53-5.857
						l0.365-0.906c4.504,1.139,8.825,2.733,13.095,4.455c4.256,1.756,8.471,3.612,12.53,5.857L561.38,1082.953z"/>
					<path style="fill:#D28572;" d="M543.848,1090.752c-2.332-0.506-4.48-1.388-6.581-2.368c-2.085-1.012-4.109-2.149-5.919-3.726
						l0.428-0.878c2.357,0.454,4.5,1.348,6.581,2.368c2.066,1.052,4.084,2.201,5.919,3.726L543.848,1090.752z"/>
				</g>
				<path style="fill:#1B1B43;" d="M390.834,1095.833c-0.681,0-1.238-0.544-1.25-1.228c-0.012-0.691,0.538-1.26,1.228-1.272
					l81.672-1.436c-0.128-31.301,19.47-46.824,27.99-52.087l0.065-1.509l-0.125,1.243l-96.587-9.697l24.55-91.421
					c0.181-0.667,0.865-1.061,1.532-0.883c0.667,0.18,1.062,0.864,0.883,1.532l-23.785,88.579l93.657,9.404
					c1.149,0.115,2.057,0.913,2.314,2.034c0.259,1.123-0.209,2.239-1.19,2.847c-8.267,5.105-27.426,20.31-26.787,51.16l0.026,1.255
					l-84.17,1.479C390.848,1095.833,390.841,1095.833,390.834,1095.833z"/>
				<path style="fill:#1B1B43;" d="M606.874,1082.5c-0.642,0-1.189-0.493-1.244-1.145l-12.5-146.874
					c-0.059-0.688,0.452-1.293,1.139-1.351c0.702-0.068,1.293,0.45,1.351,1.139l12.5,146.876c0.059,0.686-0.452,1.292-1.139,1.35
					C606.945,1082.498,606.909,1082.5,606.874,1082.5z"/>
				<path style="fill:#1B1B43;" d="M677.499,1100.625c-0.592,0-1.118-0.422-1.228-1.025c-4.867-26.599,16.105-56.101,17-57.344
					c0.403-0.562,1.184-0.693,1.744-0.283c0.56,0.403,0.687,1.184,0.284,1.743c-0.212,0.295-21.243,29.89-16.57,55.435
					c0.125,0.679-0.325,1.331-1.005,1.455C677.649,1100.618,677.573,1100.625,677.499,1100.625z"/>
				<circle style="fill:#1B1B43;" cx="521.875" cy="924.375" r="6.875"/>
			</g>
			<g>
				<path style="fill:#FFBC96;" d="M543.95,860.975c-3,18.175-15.275,42.175-34.375,32.775c-14.05-6.9-37.35-24.975-51.525-33.875
					c38.775-20.275,19.663-73.25,19.138-74.875l47.388,17.5c0,0,0,0.3,0.025,0.825c0.1,3.75,0.7,19.45,3.45,33.65
					c0.35,1.775,0.725,3.5,1.125,5.2C531.175,850.4,536.6,857.225,543.95,860.975z"/>
				<path style="fill:#D28572;" d="M528.05,836.975c-27.85-6.425-34.6-35.225-34.6-36.025l31.15,2.375
					C524.7,807.075,525.3,822.775,528.05,836.975z"/>
				<path style="fill:#FFBC96;" d="M548.438,755.625c0,0,5,56.563-20.938,61.25c-25.485,4.606-54.063-30.313-54.063-30.313
					l4.375-52.188l29.063-19.063C527.507,723.673,540.949,735.347,548.438,755.625z"/>
				<path style="fill:#1B1B43;" d="M474.688,775.313c13.75-4.688,18.75-16.563,22.188-32.813c5.287-24.992,41.25-5,51.563,13.125
					c0,0,5.625-50.625-46.25-49.688c0,0-60.313,2.188-42.188,65.938L474.688,775.313z"/>
				
					<ellipse transform="matrix(0.828 -0.5607 0.5607 0.828 -355.7569 398.3219)" style="fill:#FFBC96;" cx="471.406" cy="779.063" rx="13.594" ry="17.813"/>
				<g>
					<path style="fill:#1B1B43;" d="M538.542,767.708c0,1.841,1.492,3.333,3.333,3.333s3.333-1.492,3.333-3.333
						c0-1.841-1.492-3.333-3.333-3.333S538.542,765.867,538.542,767.708z"/>
					<path style="fill:#1B1B43;" d="M512.344,768.4c0,1.841,1.492,3.333,3.333,3.333c1.841,0,3.333-1.492,3.333-3.333
						c0-1.841-1.492-3.333-3.333-3.333C513.836,765.067,512.344,766.559,512.344,768.4z"/>
					<path style="fill:#D28572;" d="M530.364,789.003c-0.647,0-1.194-0.498-1.244-1.154c-0.054-0.689,0.461-1.289,1.149-1.343
						c0.991-0.077,3.902-0.526,5.453-1.66c0.558-0.408,0.801-0.884,0.786-1.543c-0.045-2.062-2.626-5.308-6.002-7.551
						c-0.575-0.382-0.731-1.159-0.349-1.733c0.382-0.576,1.157-0.734,1.733-0.349c3.489,2.318,7.042,6.179,7.118,9.578
						c0.033,1.477-0.595,2.728-1.812,3.618c-2.446,1.788-6.563,2.12-6.736,2.134C530.427,789.002,530.396,789.003,530.364,789.003z"
						/>
					<path style="fill:#1B1B43;" d="M547.893,760.401c-1.052-0.273-2.11-0.544-3.089-0.659c-0.991-0.107-1.929-0.161-2.871-0.053
						c-0.937,0.121-1.887,0.273-2.881,0.557c-1.005,0.258-2.022,0.631-3.233,0.917l-0.061,0.014c-0.42,0.099-0.84-0.161-0.94-0.581
						c-0.049-0.207-0.009-0.416,0.092-0.584c0.682-1.125,1.629-2.08,2.792-2.77c1.144-0.727,2.517-1.138,3.922-1.272
						c1.412-0.104,2.859,0.138,4.124,0.715c1.275,0.576,2.359,1.404,3.13,2.631c0.221,0.351,0.115,0.815-0.237,1.036
						c-0.182,0.114-0.394,0.141-0.586,0.092L547.893,760.401z"/>
					<path style="fill:#1B1B43;" d="M507.141,760.298c0.94-1.25,2.135-2.129,3.504-2.813c1.362-0.681,2.925-1.057,4.534-1.073
						c1.608-0.031,3.265,0.414,4.62,1.262c1.402,0.786,2.426,2.03,3.111,3.353c0.193,0.374,0.047,0.833-0.327,1.026
						c-0.205,0.106-0.436,0.11-0.635,0.029l-0.093-0.038c-1.286-0.526-2.339-1.1-3.449-1.387c-1.081-0.336-2.141-0.518-3.247-0.514
						c-2.202-0.06-4.583,0.58-7.115,1.31l-0.088,0.025c-0.401,0.116-0.82-0.116-0.936-0.517
						C506.951,760.726,507.005,760.481,507.141,760.298z"/>
					<ellipse style="opacity:0.4;fill:#FE5B52;" cx="505.686" cy="782.565" rx="8.025" ry="7.964"/>
					<path style="fill:#1B1B43;" d="M526.215,798.84c-4.94,0-7.695-2.473-7.843-2.609c-0.508-0.467-0.54-1.259-0.072-1.766
						c0.466-0.507,1.254-0.541,1.761-0.077c0.166,0.15,3.779,3.289,10.358,1.29c0.664-0.199,1.36,0.175,1.559,0.834
						c0.2,0.66-0.173,1.359-0.834,1.559C529.319,798.624,527.671,798.84,526.215,798.84z"/>
				</g>
				<path style="fill:#1B1B43;" d="M479.376,783.75c-0.482,0-0.941-0.281-1.146-0.75c-0.211-0.482-5.248-11.737-13.477-8.306
					c-0.631,0.265-1.37-0.032-1.636-0.671c-0.266-0.637,0.035-1.37,0.671-1.636c8.395-3.498,14.617,4.756,16.732,9.613
					c0.275,0.632-0.013,1.368-0.646,1.644C479.712,783.716,479.542,783.75,479.376,783.75z"/>
				<path style="fill:#1B1B43;" d="M517.948,897.118c-2.9,0-5.883-0.75-8.925-2.246c-8.907-4.374-21.165-12.964-33.019-21.272
					c-6.876-4.818-13.37-9.37-18.619-12.666c-0.585-0.366-0.762-1.138-0.394-1.722c0.366-0.585,1.139-0.759,1.722-0.394
					c5.304,3.329,11.824,7.898,18.727,12.736c11.776,8.253,23.953,16.787,32.686,21.076c5.144,2.533,10.05,2.632,14.587,0.298
					c9.584-4.928,15.947-19.7,18.004-32.155c0.111-0.68,0.737-1.156,1.437-1.029c0.681,0.112,1.141,0.756,1.029,1.437
					c-2.158,13.071-8.971,28.645-19.327,33.97C523.303,896.461,520.662,897.118,517.948,897.118z"/>
			</g>
		</g>
		<g>
			<g>
				<g>
					<path style="fill:#FFBC96;" d="M1440.625,1171.25c-1.45,14.825-3.125,29.925-4.975,45.25
						c-15.15,126.825-42.8,269.7-75.025,418.5c-46.875,21.05-71.875,11.875-71.875,11.875c33.75-168.75,47.5-463.75,47.5-463.75
						L1440.625,1171.25z"/>
					<path style="fill:#1B1B43;" d="M1288.75,1646.875c0,0-70,40.625-68.75,67.5h93.125l20.625-15.625l5,16.25h27.5
						c0,0,6.25-25-5.625-80C1313.75,1656.042,1288.75,1646.875,1288.75,1646.875z"/>
					<path style="fill:#D28572;" d="M1440.625,1171.25c-1.45,14.825-3.125,29.925-4.975,45.25c-54.1-3.725-99.4-33.375-99.4-33.375
						L1440.625,1171.25z"/>
				</g>
				<path style="fill:#FFBC96;" d="M1609.575,1635L1570,1665l-27.35-18.125c0,0-40.95-334.625-70.825-449.175
					c-2.35-9.025-4.625-16.675-6.825-22.7l96.25,15c2.375,10.85,4.65,21.7,6.775,32.575
					C1595.1,1359.075,1605.025,1496.85,1609.575,1635z"/>
				<path style="fill:#1B1B43;" d="M1542.662,1646.875c0,0-65.163,40.625-63.999,67.5h86.69l19.2-15.625l4.654,16.25h25.6
					c0,0,5.818-25-5.236-80C1565.934,1656.042,1542.662,1646.875,1542.662,1646.875z"/>
				<path style="fill:#D28572;" d="M1568.025,1222.575c-47.45-0.65-95.525-24.45-95.525-24.45l-0.675-0.425
					c-2.35-9.025-4.625-16.675-6.825-22.7l96.25,15C1563.625,1200.85,1565.9,1211.7,1568.025,1222.575z"/>
				<path style="fill:#D28572;" d="M1323.415,1378.1c10.625,1.667,21.25,3.334,31.875,5.001c1.574,0.247,2.252-2.162,0.665-2.411
					c-10.625-1.667-21.25-3.334-31.875-5.001C1322.505,1375.442,1321.827,1377.851,1323.415,1378.1L1323.415,1378.1z"/>
				<path style="fill:#D28572;" d="M1511.248,1395.112c9.792,0.208,19.583,0.416,29.375,0.624c1.609,0.034,1.609-2.466,0-2.5
					c-9.792-0.208-19.583-0.416-29.375-0.624C1509.638,1392.578,1509.638,1395.078,1511.248,1395.112L1511.248,1395.112z"/>
			</g>
			<g>
				<path style="fill:#1B1B43;" d="M1189.375,716.875c0,0,7.917-39.375,68.958-54.375l-30.208,55.625L1189.375,716.875z"/>
				<g>
					<path style="fill:#FFBC96;" d="M1233.496,626.354c-0.944,7.452-3.538,15.625-7.691,15.625c-4.154,0-5.469-6.719-5.128-15.938
						c0.564-15.213,3.025-17.813,7.179-17.813C1232.009,608.229,1235.376,611.51,1233.496,626.354z"/>
					<path style="fill:#1B1B43;" d="M1189.61,589.789l8.448,9.693l86.087,34.687c3.042,1.226,6.501-0.247,7.726-3.288
						c1.225-3.042-0.247-6.501-3.288-7.726l-86.087-34.687L1189.61,589.789z"/>
					<path style="fill:#FFBC96;" d="M1258.325,662.5l-12.5,28.75l-35.4,19.8c-3.65-9.3-6.25-18.475-8.1-26.9
						c-5.075-22.925-4.625-40.4-4.625-40.4l35.225-14.175l0.825-18.325c1.875-25.3,12.1-15.15,14.7,2.8
						C1253.25,647.475,1258.325,662.5,1258.325,662.5z"/>
					<path style="fill:#D28572;" d="M1258.325,662.5l-12.5,28.75l-35.4,19.8c-3.65-9.3-6.25-18.475-8.1-26.9L1258.325,662.5z"/>
					<path style="fill:#FFBC96;" d="M1222.482,629.688c-1.076,7.452-4.032,15.625-8.767,15.625c-4.734,0-6.234-6.719-5.844-15.938
						c0.643-15.213,3.448-17.813,8.182-17.813C1220.787,611.563,1224.625,614.844,1222.482,629.688z"/>
					<path style="fill:#FFBC96;" d="M1211.206,636.875c-1.181,7.452-4.426,15.625-9.623,15.625s-6.843-6.719-6.415-15.938
						c0.706-15.213,3.785-17.813,8.981-17.813S1213.559,622.031,1211.206,636.875z"/>
					<g>
						<path style="fill:#D28572;" d="M1222.483,646.07c-1.692-0.165-3.591-2.161-4.455-9.451c-0.08-0.676,0.296-1.331,0.839-1.462
							c0.551-0.128,1.048,0.311,1.129,0.987c0.584,4.936,1.74,7.681,3.051,7.414c3.094-0.68,7.871-13.313,6.959-23.394
							c-0.062-0.681,0.331-1.319,0.877-1.428c0.554-0.11,1.039,0.357,1.099,1.037c0.947,10.481-3.919,25.196-8.679,26.242
							C1223.039,646.074,1222.765,646.097,1222.483,646.07z"/>
						<path style="fill:#D28572;" d="M1210.8,649.612c-0.581-0.057-1.97-0.36-3.165-1.911c-2.164-2.807-2.467-8.088-0.905-15.696
							c0.139-0.677,0.764-1.121,1.393-0.97c0.63,0.139,1.027,0.799,0.888,1.475c-1.815,8.833-0.543,12.258,0.376,13.512
							c0.784,1.066,1.669,1.099,1.705,1.104c1.453,0.001,2.655-0.564,3.685-1.726c4.421-5,3.758-18.464,3.751-18.599
							c-0.038-0.688,0.455-1.285,1.099-1.334c0.636-0.045,1.193,0.469,1.23,1.159c0.033,0.597,0.721,14.692-4.395,20.478
							c-1.48,1.676-3.298,2.523-5.397,2.521C1211.034,649.625,1210.941,649.626,1210.8,649.612z"/>
						<path style="fill:#D28572;" d="M1197.808,651.175c-0.177-0.017-0.355-0.041-0.536-0.07c-1.08-0.172-2.005-0.802-2.674-1.823
							c-2.628-4.007-0.962-13.562-0.763-14.638c0.124-0.681,0.788-1.11,1.371-1.003c0.633,0.126,1.044,0.776,0.92,1.455
							c-0.486,2.636-1.361,10.064,0.391,12.734c0.311,0.476,0.67,0.731,1.13,0.805c3.56,0.557,6.082-1.781,8.239-7.598
							c0.239-0.644,0.919-0.968,1.517-0.72s0.892,0.97,0.653,1.614C1207.135,644.409,1204.39,651.817,1197.808,651.175z"/>
					</g>
				</g>
				<g>
					<path style="fill:#FFFFFF;" d="M1578.75,775l-84.375-85l-61.875,1.25l-65.95,236.82l214.82,10.511
						C1584.053,877.223,1583.783,821.974,1578.75,775z"/>
					<path style="fill:#FFB147;" d="M1366.55,928.07L1350,987.5c0,75-13.75,195-13.75,195c86.25,31.25,225,7.5,225,7.5
						c8.98-90.493,16.806-175.623,20.12-251.419L1366.55,928.07z"/>
					<path style="fill:#1B1B43;" d="M1465.938,737.123c-10.625,0-21.111-3.109-31.387-9.327c-0.713-0.431-1.45-0.878-1.665-0.952
						c-0.688,0-1.13-0.544-1.13-1.234c0-0.691,0.679-1.234,1.37-1.234c0.603,0,1.135,0.323,2.72,1.282
						c20.283,12.274,41.44,11.908,62.881-1.101c0.588-0.353,1.357-0.169,1.719,0.421c0.356,0.59,0.168,1.359-0.42,1.717
						C1488.562,733.646,1477.17,737.123,1465.938,737.123z"/>
					<path style="fill:#1B1B43;" d="M1461.719,1199.551c-77.705,0-125.222-15.647-125.869-15.867
						c-0.654-0.222-1.006-0.93-0.784-1.584c0.22-0.652,0.935-0.999,1.584-0.784c0.886,0.3,90.059,29.631,224.397,7.451
						c0.667-0.122,1.326,0.349,1.436,1.03c0.112,0.681-0.349,1.323-1.03,1.436
						C1524.524,1197.332,1490.979,1199.551,1461.719,1199.551z"/>
				</g>
				<path style="fill:#5254CF;" d="M1432.5,691.25l-34.127,0.294c-9.349,0.081-18.558,2.28-26.935,6.433L1285,740.833
					l-26.667-78.333l-68.958,54.375l41.403,85.763c6.859,14.209,20.824,23.636,36.567,24.685h0
					c7.874,0.525,15.744-1.085,22.78-4.661l65.501-33.287c0,0,4.375,144.375-27.5,228.75c0,0,66.25,20,112.5-0.625
					C1440.625,1017.5,1471.875,780,1432.5,691.25z"/>
				<path style="fill:#5254CF;" d="M1670.833,962.5c-8.751-85.008-37.193-170.484-50.863-207.901
					c-4.613-12.625-12.521-23.784-22.87-32.359l0,0c-9.054-7.502-19.725-12.802-31.173-15.483L1494.375,690
					c-9.823,98.22,1.59,212.789,15.625,329.375c0,0,107.5-5,141.875-26.25L1670.833,962.5z"/>
				<path style="fill:#1B1B43;" d="M1594.165,853.75c-0.603,0-1.135-0.44-1.233-1.056l-13.335-85
					c-0.108-0.682,0.359-1.322,1.042-1.43c0.669-0.104,1.321,0.358,1.428,1.041l13.335,85c0.107,0.682-0.359,1.322-1.042,1.43
					C1594.294,853.745,1594.231,853.75,1594.165,853.75z"/>
				<g>
					<polygon style="fill:#FFFFFF;" points="1636.72,990.964 1535.898,956.555 1579.813,830.044 1680.635,864.452 					"/>
					<path style="fill:#1B1B43;" d="M1637.493,992.549l-103.186-35.216l0.41-1.188l44.324-127.686l103.186,35.215l-0.41,1.188
						L1637.493,992.549z M1537.49,955.778l98.455,33.602l43.098-124.15l-98.455-33.601L1537.49,955.778z"/>
				</g>
				<g>
					<g>
						<line style="fill:#FFFFFF;" x1="1597.083" y1="873.333" x2="1649.167" y2="890.417"/>
						<path style="fill:#1B1B43;" d="M1649.167,891.666c-0.129,0-0.261-0.02-0.391-0.062l-52.085-17.083
							c-0.654-0.215-1.013-0.922-0.798-1.577c0.215-0.658,0.923-1.016,1.579-0.798l52.085,17.083
							c0.654,0.215,1.013,0.922,0.798,1.577C1650.183,891.333,1649.692,891.666,1649.167,891.666z"/>
					</g>
					<g>
						<line style="fill:#FFFFFF;" x1="1599.375" y1="891.667" x2="1633.542" y2="902.5"/>
						<path style="fill:#1B1B43;" d="M1633.542,903.75c-0.125,0-0.251-0.018-0.378-0.059l-34.167-10.834
							c-0.657-0.209-1.023-0.911-0.813-1.57c0.208-0.658,0.901-1.025,1.57-0.813l34.167,10.834c0.657,0.209,1.023,0.911,0.813,1.57
							C1634.565,903.411,1634.072,903.75,1633.542,903.75z"/>
					</g>
				</g>
				
					<rect x="1618.51" y="839.335" transform="matrix(0.946 0.3241 -0.3241 0.946 363.2005 -484.0416)" style="fill:#1B1B43;" width="32.083" height="17.731"/>
				<path style="fill:#1B1B43;" d="M1326.25,805c-0.44,0-0.864-0.232-1.094-0.644c-0.334-0.603-0.117-1.364,0.488-1.699l57.5-31.875
					c0.601-0.336,1.365-0.117,1.699,0.488c0.334,0.603,0.117,1.364-0.488,1.699l-57.5,31.875
					C1326.665,804.95,1326.455,805,1326.25,805z"/>
				<g>
					<path style="fill:#FFBC96;" d="M1674.583,990.417c0,0,15-38.75-38.333-67.917c0,0-12.917-5-3.333,14.583
						c0,0-20.417-23.333-15.417,3.75c0,0-16.25-16.25-7.917,14.583c0,0-16.25-8.75-6.25,27.917
						C1613.333,1020,1653.333,1034.583,1674.583,990.417z"/>
					<g>
						<path style="fill:#D28572;" d="M1651.667,961.25c-0.403,0-0.798-0.195-1.04-0.557c-6.536-9.801-18.503-22.627-18.623-22.755
							c-0.471-0.504-0.444-1.295,0.059-1.767c0.505-0.473,1.296-0.444,1.768,0.058c0.122,0.131,12.229,13.107,18.877,23.077
							c0.383,0.574,0.227,1.35-0.347,1.733C1652.148,961.182,1651.907,961.25,1651.667,961.25z"/>
						<path style="fill:#D28572;" d="M1632.917,966.25c-0.5,0-0.974-0.303-1.165-0.798c-4.854-12.534-14.656-23.247-14.753-23.354
							c-0.469-0.507-0.437-1.298,0.071-1.766c0.508-0.466,1.299-0.433,1.765,0.071c0.415,0.451,10.22,11.159,15.247,24.147
							c0.251,0.645-0.068,1.368-0.713,1.617C1633.22,966.223,1633.069,966.25,1632.917,966.25z"/>
						<path style="fill:#D28572;" d="M1617.083,974.166c-0.657,0-1.206-0.51-1.248-1.172c-0.391-6.265-7.229-16.788-7.3-16.894
							c-0.376-0.577-0.215-1.351,0.364-1.73c0.571-0.376,1.348-0.217,1.731,0.363c0.295,0.453,7.271,11.189,7.7,18.105
							c0.044,0.69-0.481,1.283-1.169,1.326C1617.134,974.165,1617.107,974.166,1617.083,974.166z"/>
					</g>
				</g>
				<path style="fill:#1B1B43;" d="M1520.415,860.416c-0.627,0-1.169-0.474-1.24-1.113c-0.784-7.129-1.716-14.709-2.671-22.476
					c-3.294-26.788-6.702-54.49-5.669-74.807l0.061-0.327l10.237-31.123l-19.287-32.009c-0.354-0.591-0.164-1.359,0.427-1.715
					c0.589-0.353,1.355-0.169,1.716,0.426l19.878,32.991l-10.544,32.052c-0.994,20.087,2.39,47.598,5.662,74.208
					c0.957,7.777,1.89,15.369,2.676,22.507c0.076,0.686-0.42,1.304-1.106,1.379C1520.508,860.414,1520.461,860.416,1520.415,860.416
					z"/>
				<path style="fill:#1B1B43;" d="M1425.417,861.666c-0.088,0-0.178-0.01-0.269-0.029c-0.674-0.148-1.101-0.814-0.952-1.488
					c6.997-31.913,8.191-64.345,3.367-91.356l-19.827-31.637l19.475-39.376c0.305-0.621,1.064-0.869,1.675-0.566
					c0.618,0.306,0.872,1.056,0.566,1.675l-18.855,38.124l19.382,31.1c4.932,27.377,3.745,60.253-3.342,92.572
					C1426.511,861.268,1425.994,861.666,1425.417,861.666z"/>
			</g>
			<g>
				<path style="fill:#FFBC96;" d="M1494.375,690c-11.25,22.5-40,32.5-61.875,1.25c1.575-6.05,3.45-12.275,5.275-18.65
					c3.45-12.175,6.65-24.925,6.925-38.275c0.05-2.325,0.025-4.675-0.125-7.025l46.675,4.375L1494.375,690z"/>
				<path style="fill:#D28572;" d="M1480.825,639.375c0,0-10.8,24.1-43.05,33.225c3.45-12.175,6.65-24.925,6.925-38.275
					L1480.825,639.375z"/>
				<path style="fill:#FFBC96;" d="M1505,583.325l-15.825,52.5c0,0-26.675,24.675-52.925,12.1c-7.1-3.425-9.9-13.6-10.475-25.525
					c-0.175-3.3-0.175-6.75-0.025-10.225c0.775-20.625,5.925-42.175,5.925-42.175l39.15-19.575L1505,583.325z"/>
				<path style="fill:#1B1B43;" d="M1501.25,614.583c0,0-39.583-23.75-43.333-47.083c0,0-8.438,1.979-27.604,9.063
					c0,0,2.813-34.844,41.25-38.75c35.844-3.643,78.854,25.313,88.438,102.813l-66.667,35.625L1490,617.917L1501.25,614.583z"/>
				<g>
					<path style="fill:#FFBC96;" d="M1502.398,620.43c-4.105,9.507-13.171,14.736-20.248,11.68
						c-7.077-3.056-9.486-13.241-5.381-22.747c4.105-9.507,13.171-14.736,20.248-11.68S1506.503,610.923,1502.398,620.43z"/>
					<path style="fill:#1B1B43;" d="M1484.043,617.534c-0.222,0-0.447-0.059-0.649-0.182c-0.591-0.359-0.776-1.128-0.417-1.717
						c0.061-0.1,6.235-10.029,15.938-7.279c0.664,0.189,1.05,0.88,0.859,1.544c-0.19,0.663-0.874,1.052-1.543,0.861
						c-7.893-2.245-13.069,6.089-13.12,6.173C1484.875,617.321,1484.463,617.534,1484.043,617.534z"/>
				</g>
				<g>
					<path style="fill:#1B1B43;" d="M1436.042,602.396c0,1.841-1.492,3.333-3.333,3.333c-1.841,0-3.333-1.492-3.333-3.333
						s1.492-3.333,3.333-3.333C1434.549,599.063,1436.042,600.555,1436.042,602.396z"/>
					<path style="fill:#1B1B43;" d="M1460,602.917c0,1.841-1.492,3.333-3.333,3.333s-3.333-1.492-3.333-3.333
						s1.492-3.333,3.333-3.333S1460,601.076,1460,602.917z"/>
					<path style="fill:#D28572;" d="M1443.647,623.959c-0.037,0-0.073-0.001-0.11-0.005c-0.176-0.015-4.324-0.396-6.785-2.434
						c-1.182-0.979-1.787-2.34-1.751-3.934c0.088-3.74,3.718-8.151,7.058-10.668c0.547-0.411,1.333-0.308,1.751,0.247
						c0.415,0.551,0.305,1.334-0.247,1.75c-3.401,2.562-6.006,6.315-6.062,8.728c-0.019,0.837,0.249,1.457,0.847,1.953
						c1.853,1.536,5.369,1.864,5.405,1.868c0.686,0.061,1.194,0.668,1.135,1.354
						C1444.831,623.468,1444.287,623.959,1443.647,623.959z"/>
					<path style="fill:#1B1B43;" d="M1442.705,634.271c-0.627,0-1.167-0.471-1.238-1.11c-0.078-0.685,0.415-1.304,1.101-1.383
						c0.068-0.007,7.068-0.867,11.465-6.218c0.444-0.533,1.23-0.609,1.76-0.172c0.535,0.438,0.61,1.226,0.173,1.759
						c-5.059,6.156-12.795,7.08-13.12,7.117C1442.798,634.269,1442.751,634.271,1442.705,634.271z"/>
					<path style="fill:#1B1B43;" d="M1427.007,593.207c0.771-1.227,1.854-2.055,3.13-2.631c1.265-0.577,2.712-0.819,4.124-0.715
						c1.404,0.134,2.778,0.546,3.922,1.272c1.163,0.69,2.11,1.646,2.792,2.77c0.224,0.369,0.106,0.849-0.263,1.073
						c-0.182,0.11-0.39,0.138-0.582,0.093l-0.063-0.015c-1.211-0.286-2.228-0.658-3.233-0.917c-0.995-0.284-1.944-0.436-2.881-0.558
						c-0.943-0.107-1.881-0.053-2.871,0.053c-0.979,0.115-2.037,0.385-3.089,0.659l-0.16,0.042
						c-0.402,0.104-0.812-0.137-0.916-0.538C1426.862,593.588,1426.902,593.376,1427.007,593.207z"/>
					<path style="fill:#1B1B43;" d="M1465.334,595.745c-2.459-0.947-4.776-1.791-6.975-1.922c-1.102-0.099-2.174-0.011-3.279,0.231
						c-1.131,0.189-2.23,0.67-3.557,1.083l-0.093,0.029c-0.401,0.125-0.828-0.099-0.953-0.501c-0.069-0.221-0.03-0.452,0.083-0.633
						c0.796-1.259,1.924-2.41,3.39-3.071c1.424-0.727,3.113-1.028,4.712-0.857c1.602,0.155,3.125,0.666,4.423,1.462
						c1.305,0.8,2.419,1.779,3.247,3.106c0.221,0.354,0.113,0.821-0.241,1.042c-0.208,0.13-0.455,0.146-0.668,0.066
						L1465.334,595.745z"/>
					<path style="opacity:0.4;fill:#FE5B52;" d="M1471.709,615.2c0,2.823-2.306,5.112-5.152,5.112c-2.845,0-5.152-2.289-5.152-5.112
						c0-2.823,2.307-5.112,5.152-5.112C1469.403,610.088,1471.709,612.377,1471.709,615.2z"/>
					<path style="opacity:0.4;fill:#FE5B52;" d="M1430.875,617.275c0,2.8-2.275,5.1-5.1,5.125c-0.175-3.3-0.175-6.75-0.025-10.225
						C1428.6,612.2,1430.875,614.45,1430.875,617.275z"/>
				</g>
				<path style="fill:#1B1B43;" d="M1457.832,559.872c0.118,4.602,0.483,9.223,1.172,13.753c0.751,4.513,1.649,9.027,3.398,13.185
					c1.652,4.154,4.021,8.111,7.591,10.639c3.495,2.654,8.098,3.439,12.644,3.108l0.013-0.001c0.269-0.02,0.504,0.183,0.523,0.452
					c0.018,0.25-0.154,0.469-0.394,0.516c-2.325,0.453-4.743,0.64-7.172,0.328c-2.409-0.387-4.773-1.258-6.853-2.604
					c-4.192-2.744-6.876-7.114-8.653-11.519c-1.731-4.477-2.71-9.152-3.193-13.837c-0.474-4.692-0.538-9.391-0.054-14.078
					c0.028-0.269,0.268-0.464,0.537-0.436c0.247,0.026,0.433,0.232,0.438,0.474L1457.832,559.872z"/>
				<path style="fill:#1B1B43;" d="M1489.142,538.893c11.106,2.214,21.362,7.268,30.697,13.513
					c9.359,6.271,17.552,14.129,24.851,22.667l5.183,6.652c1.741,2.208,3.124,4.667,4.703,6.987
					c3.226,4.611,5.728,9.648,8.388,14.583c1.405,2.433,2.367,5.079,3.518,7.631l3.332,7.711c1.86,5.28,3.559,10.613,5.34,15.902
					c0.086,0.255-0.051,0.532-0.307,0.618c-0.248,0.083-0.516-0.043-0.61-0.284l-0.015-0.038c-2.017-5.188-3.958-10.396-6.027-15.54
					l-3.5-7.549c-1.204-2.495-2.22-5.084-3.672-7.45c-2.761-4.799-5.202-9.784-8.44-14.282c-1.574-2.27-2.954-4.682-4.685-6.836
					l-5.111-6.522c-7.075-8.474-15.134-16.129-24.144-22.512c-2.26-1.584-4.519-3.176-6.934-4.517
					c-1.194-0.691-2.36-1.437-3.578-2.085l-3.69-1.88c-4.942-2.425-10.117-4.563-15.457-5.806l-0.046-0.011
					c-0.262-0.061-0.426-0.323-0.365-0.586C1488.632,539.004,1488.885,538.842,1489.142,538.893z"/>
			</g>
		</g>
		<g>
			
				<rect x="700.247" y="1072.5" transform="matrix(-1 -1.224647e-16 1.224647e-16 -1 1495.4938 2166.25)" style="fill:#1B1B43;" width="95" height="21.25"/>
			<path style="fill:#CBCBFF;" d="M936.75,968.725l-14.4,35.45l-33.35,82.15c-1.875,4.625-5.95,7.6-10.45,7.6h-133.7l49.7-122.475
				c5.25-12.925,16.675-21.225,29.25-21.225h102.475C934.675,950.225,940.25,960.075,936.75,968.725z"/>
			<path style="opacity:0.1;fill:#1B1B43;" d="M922.35,1004.175l-33.35,82.15c-1.875,4.625-5.95,7.6-10.45,7.6h-87.375
				C856.875,1072.05,897.7,1035.8,922.35,1004.175z"/>
		</g>
		<g>
			<rect x="1197.805" y="1072.5" style="fill:#1B1B43;" width="95" height="21.25"/>
			<path style="fill:#CBCBFF;" d="M1248.2,1093.925h-133.7c-4.5,0-8.575-2.975-10.45-7.6l-30.5-75.125l-17.25-42.475
				c-3.5-8.65,2.075-18.5,10.475-18.5h102.5c12.55,0,23.975,8.3,29.225,21.225L1248.2,1093.925z"/>
			<path style="opacity:0.1;fill:#1B1B43;" d="M1182.775,1093.925H1114.5c-4.5,0-8.575-2.975-10.45-7.6l-30.5-75.125
				C1097.15,1038.9,1136,1076.875,1182.775,1093.925z"/>
		</g>
		<g>
			<g>
				<g>
					<rect x="609.23" y="1110.872" style="fill:#FFFFFF;" width="28.623" height="604.128"/>
					<path style="fill:#1B1B43;" d="M639.103,1716.25H607.98v-606.628h31.123V1716.25z M610.48,1713.75h26.123v-601.628H610.48
						V1713.75z"/>
				</g>
				<g>
					<rect x="1260.897" y="1110.872" style="fill:#FFFFFF;" width="28.623" height="604.128"/>
					<path style="fill:#1B1B43;" d="M1290.769,1716.25h-31.123v-606.628h31.123V1716.25z M1262.146,1713.75h26.123v-601.628h-26.123
						V1713.75z"/>
				</g>
			</g>
			<g>
				<rect x="437.5" y="1093.502" style="fill:#FFFFFF;" width="1023.75" height="23.75"/>
				<path style="fill:#1B1B43;" d="M1462.5,1118.503H436.25v-26.25H1462.5V1118.503z M438.75,1116.003H1460v-21.25H438.75V1116.003z
					"/>
			</g>
		</g>
		<rect x="170" y="1713.75" style="fill:#1B1B43;" width="1665" height="2.5"/>
	</g>
</g>
</svg>
