<?xml version="1.0" encoding="utf-8"?>
<!-- Generator: Adobe Illustrator 27.5.0, SVG Export Plug-In . SVG Version: 6.00 Build 0)  -->
<svg version="1.1" xmlns="http://www.w3.org/2000/svg" xmlns:xlink="http://www.w3.org/1999/xlink" x="0px" y="0px"
	 viewBox="0 0 750 500" style="enable-background:new 0 0 750 500;" xml:space="preserve">
<g id="BACKGROUND">
	<rect style="fill:#FFFFFF;" width="750" height="500"/>
	<path style="fill:#F5DECF;" d="M504.119,56.571c-58.151-6.313-116.654-12.636-175.021-8.798
		c-58.367,3.839-117.173,18.414-165.873,50.814c-48.7,32.4-86.262,84.218-92.958,142.327
		c-7.305,63.396,23.439,127.931,72.406,168.853c48.967,40.924,114.002,59.67,177.816,59.89
		c63.816,0.22,126.67-16.972,185.631-41.388c40.417-16.738,79.806-37.18,112.886-65.807c33.078-28.624,59.655-66.057,69.835-108.601
		c10.18-42.544,2.45-90.285-25.381-124.035C626.412,84.901,565.164,63.198,504.119,56.571z"/>
	<g>
		<path style="fill:#FFFFFF;" d="M163.779,168.508c-16.522-0.378-33.043-0.79-49.564-1.234c-9.252-0.249-18.57-0.517-27.607-2.516
			c-1.574-0.349-3.183-0.771-4.466-1.747c-1.283-0.976-2.169-2.639-1.779-4.203c0.482-1.928,2.647-2.96,4.63-3.101
			c2.849-0.202,5.621,0.867,8.454,1.234c2.833,0.367,6.186-0.254,7.578-2.748c1.184-2.123,0.51-4.743,0.032-7.127
			c-0.974-4.875-0.893-10.24,1.752-14.45c2.645-4.211,8.423-6.678,11.706-3.887c2.388-6.817,6.149-13.31,11.718-17.909
			c5.57-4.599,13.103-7.11,20.179-5.652c7.076,1.456,13.322,7.32,15.515,16.247c3.767-1.876,8.392-1.929,12.199-0.137
			c3.808,1.792,6.717,5.389,7.672,9.488c0.499,2.143,0.727,4.759,2.676,5.783c1.527,0.801,3.366,0.183,5.072-0.07
			c4.196-0.626,8.671,1.304,11.097,4.785c2.426,3.48,2.688,8.346,1.096,14.79c1.657-1.517,4.289-1.274,6.361-0.408
			c2.073,0.867,3.934,2.25,6.108,2.818c2.64,0.69,5.459,0.103,8.147,0.574c2.689,0.472,5.499,2.81,4.819,5.453
			c-0.707,2.75-4.297,3.332-7.137,3.363C202.132,168.048,184.223,168.976,163.779,168.508z"/>
		<path style="fill:#FFFFFF;" d="M394.72,305.014c16.526,0.138,33.052,0.242,49.579,0.314c9.256,0.04,18.577,0.063,27.672-1.654
			c1.584-0.299,3.205-0.672,4.519-1.606c1.312-0.936,2.25-2.571,1.91-4.146c-0.421-1.942-2.553-3.042-4.531-3.244
			c-2.841-0.291-5.645,0.691-8.488,0.969c-2.843,0.279-6.175-0.446-7.488-2.983c-1.117-2.159-0.361-4.756,0.19-7.125
			c1.126-4.842,1.212-10.207-1.301-14.497c-2.513-4.291-8.21-6.938-11.579-4.251c-2.174-6.888-5.73-13.495-11.153-18.266
			c-5.424-4.771-12.875-7.515-19.992-6.28c-7.117,1.235-13.544,6.9-16.014,15.755c-3.706-1.993-8.328-2.19-12.189-0.518
			c-3.862,1.672-6.882,5.177-7.964,9.244c-0.566,2.126-0.875,4.734-2.855,5.697c-1.551,0.753-3.371,0.078-5.068-0.229
			c-4.174-0.757-8.707,1.032-11.241,4.436c-2.533,3.403-2.947,8.258-1.557,14.749c-1.608-1.568-4.247-1.407-6.346-0.606
			c-2.099,0.802-4.003,2.126-6.194,2.626c-2.66,0.607-5.46-0.067-8.161,0.32c-2.702,0.388-5.584,2.637-4.987,5.3
			c0.621,2.771,4.191,3.465,7.028,3.584C356.4,303.357,374.272,304.844,394.72,305.014z"/>
		<path style="fill:#FFFFFF;" d="M599.835,197.6c-25.943,0.605-51.934,1.209-77.816-0.673c-3.146-0.229-6.499-0.575-8.946-2.566
			c-2.446-1.99-3.28-6.239-0.815-8.207c3.105-2.48,8.108,0.54,11.557-1.432c2.693-1.541,3.021-5.19,3.483-8.259
			c0.938-6.213,3.928-12.342,9.105-15.902c5.178-3.559,12.697-3.966,17.412,1.476c2.217-4.694,4.478-9.453,7.882-13.373
			c3.405-3.919,8.161-6.961,13.35-7.14c6.998-0.241,13.134,4.625,16.93,8.577c3.714-4.16,8.035-8.105,13.396-9.644
			c5.36-1.54,11.945-0.004,14.786,4.797c1.693,2.862,1.834,6.437,1.071,9.674c-0.763,3.238-2.351,6.211-3.972,9.115
			c-1.207,2.161-2.391,5.03-0.768,6.899c1.201,1.384,3.403,1.377,5.1,0.686c1.697-0.692,3.124-1.917,4.773-2.717
			c3.264-1.585,7.354-1.313,10.379,0.689c3.027,2.001,4.877,5.659,3.982,10.067c2.802-3.902,8.618-5.258,12.858-2.998
			c4.239,2.261,6.355,7.846,4.31,14.303c2.66,0.333,5.286-0.885,7.967-0.877c2.682,0.01,5.774,2.392,4.746,4.868
			c-0.803,1.934-3.366,2.242-5.46,2.253C643.484,197.332,621.816,197.087,599.835,197.6z"/>
	</g>
</g>
<g id="OBJECTS">
	<g>
		<g>
			<path style="opacity:0.15;fill:#2E2854;" d="M590.373,138.364c-0.115-0.807-0.631-1.61-1.418-1.817
				c-1.227-0.325-2.299,0.836-3.037,1.869c-0.657,0.921-1.341,1.815-2.023,2.711c1.976-4.74,3.372-9.722,4.121-14.802
				c0.135-0.915,0.247-1.863-0.008-2.751c-0.254-0.888-0.969-1.709-1.888-1.804c-1.509-0.157-2.487,1.506-3.061,2.909
				c-1.931,4.724-3.861,9.447-5.791,14.171c1.684-5.56,2.779-11.296,3.258-17.086c5.274-18.457,8.545-37.486,9.678-56.648
				c0,0-28.432-3.352-28.845-2.554c-0.913,19.618-5.13,39.079-12.544,58.243c2.045,0.611,4.108,1.166,6.183,1.68
				c-1.528,4.808-2.807,9.697-4.506,14.447c-1.286,3.598-2.846,7.147-4.866,10.38l0,0c-0.139,0.223-0.289,0.438-0.433,0.658
				c-0.24,0.366-0.482,0.731-0.734,1.088c-0.162,0.229-0.329,0.454-0.496,0.679c-0.241,0.323-0.49,0.64-0.742,0.955
				c-5.869-0.695-12.149,1.439-17.2,4.766c-6.622,4.361-11.821,10.527-17.821,15.711c-15.351,13.266-36.301,19.831-56.478,17.695
				c-20.055-2.122-38.23-12.194-56.872-19.891c-12.074-4.985-24.919-8.981-37.905-11.152c-8.928-1.492-17.921-2.108-26.777-1.603
				c0.113-1.944-0.325-3.866-1.471-5.46c-2.042-2.838-5.823-3.991-9.312-3.766c-3.49,0.226-6.784,1.613-10.001,2.985
				c-1.359,0.58-2.75,1.107-4.206,1.62l-3.603-11.396c3.388-1.254,6.585-2.946,9.374-5.237c0.841-0.691,1.627-1.435,2.375-2.213
				c2.858,0.154,5.754-0.53,8.392-1.683c2.46-1.073,4.843-2.64,6.119-5.001c1.863-3.447,0.962-7.635-0.109-11.442
				c2.365-0.649,4.587-1.812,6.418-3.446c3.943-3.518,5.958-9.074,5.186-14.302c-0.438-2.97-1.774-5.865-4.024-7.853
				c-0.616-0.545-1.298-1.011-2.024-1.396c2.259-5.819,3.871-11.93,3.245-18.091c-0.761-7.487-5.645-15.011-12.983-16.674
				c0.325-8.593-3.969-16.577-10.837-20.111c-6.868-3.536-15.861-2.391-21.625,2.751c-5.128-2.896-10.916-2.268-15.789-0.054
				c-4.872,2.215-8.946,5.876-12.571,9.814c-7.16-4.111-16.798-3.109-23.077,2.249c-6.278,5.357-8.787,14.716-6.027,22.495
				c-7.401,2.801-12.594,9.826-13.493,17.498c-0.76,6.489,1.585,13.23,6.05,17.977c-0.626,0.452-1.217,0.953-1.759,1.508
				c-4.535,4.643-5.524,12.277-2.566,18.053c2.958,5.777,9.533,9.407,16.018,9.116c1.389-0.063,2.758-0.308,4.087-0.695
				c0.976,1.934,2.226,3.736,3.684,5.338c3.027,3.324,7.051,5.873,11.498,6.536c4.093,0.61,9.718-0.924,12.888-3.817
				c4.504,1.296,9.274,1.848,14.034,1.776c0.489,3.857,0.979,7.713,1.468,11.57c-2.416,0.055-4.827,0.211-7.17,0.78
				c-3.325,0.807-6.56,2.548-8.44,5.405c-1.656,2.516-2.012,5.982-0.589,8.577c-8.243,3.419-15.947,8.089-22.801,13.793
				c-10.02,8.339-18.237,18.85-23.714,30.742c-7.302,15.853-9.92,33.511-16.88,49.518c-3.284,7.553-7.682,14.875-14.239,19.858
				c-6.558,4.983-15.603,7.257-23.249,4.198c-16.461-6.585-18.063-32.285-34.459-39.031c-1.398-0.575-2.839-0.956-4.298-1.171
				c0.805-2.779,1.743-5.531,2.344-8.361c0.989-4.659,0.922-9.904-1.931-13.716c-1.761-2.353-4.389-3.896-7.052-5.138
				c-1.627-0.759-3.297-1.42-4.997-1.998c-2.035-5.154-4.07-10.309-6.105-15.463c-0.394-0.997-0.801-2.016-1.519-2.811
				c-0.717-0.796-1.821-1.332-2.863-1.082c-1.116,0.269-1.872,1.374-2.08,2.503c-0.207,1.129,0.027,2.287,0.266,3.41
				c1.247,5.848,2.174,9.979,3.49,14.825c-0.146-0.1-0.296-0.19-0.458-0.26c-1.022-0.438-2.259-0.339-3.199,0.257
				c-0.903,0.573-1.44,1.506-1.723,2.548c-0.598-1.075-1.011-1.553-1.68-1.723c-1.059-0.271-2.248,0.03-3.051,0.771
				c-0.639,0.589-0.984,1.368-1.155,2.216c-0.221-0.198-0.455-0.326-0.733-0.397c-1.059-0.271-2.248,0.03-3.051,0.771
				c-1.279,1.178-1.411,3.101-1.231,4.859c-0.563-0.346-1.251-0.501-1.922-0.305c-0.988,0.29-2.638,1.504-2.519,5.161
				c0.086,2.604,0.695,5.149,1.788,7.452c0.536,1.134,1.473,2.349,2.809,2.174c0.674-0.088,1.261-0.542,1.657-1.11
				c2.302,7.658,5.631,15.246,9.351,21.39c-3.617,9.13-2.548,19.86,1.264,29.027c4.282,10.295,11.603,19.005,19.515,27.271
				c13.441,14.041,33.544,20.846,52.953,19.808c19.41-1.04,38.034-9.519,52.863-22.084c10.534-8.926,19.225-19.833,26.266-31.741
				c2.698,14.847,4.246,29.902,4.611,44.988c0.136,5.6,0.119,11.273,1.531,16.692c0.934,3.583,2.594,7.088,5.021,9.843l0.372,65.156
				c0,0,142.24,1.472,142.899-0.397c1.739-29.642-0.384-59.481-6.31-88.74c2.893-6.831,3.305-14.636,2.253-22.032
				c-1.217-8.557-4.248-16.734-7.13-24.883c-6.595-18.651-12.497-37.546-17.721-56.628c24.883,10.676,53.098,13.16,79.959,9.08
				c30.572-4.642,59.502-17.391,85.603-33.969c5.657-3.592,11.473-7.689,14.169-13.823c2.025-4.608,1.99-9.71,0.974-14.709
				c5.968-5.751,23.232-22.752,26.84-35.6C590.281,139.984,590.488,139.171,590.373,138.364z M572.98,125.276
				c-0.403,1.223-0.806,2.446-1.208,3.67c0.244-1.227,0.454-2.46,0.632-3.698C572.594,125.259,572.788,125.265,572.98,125.276z
				 M563.847,124.307c-0.315,1.376-0.629,2.753-0.944,4.129c0.087-1.446,0.139-2.864,0.152-4.268
				C563.32,124.213,563.582,124.265,563.847,124.307z"/>
			<g>
				<path style="fill:#6978C9;" d="M263.932,349.046l2.096,67.935c0,0,142.232-2.102,142.844-3.987
					c0.995-29.719-1.885-59.538-8.565-88.679L263.932,349.046z"/>
				<path style="opacity:0.15;fill:#2E2854;" d="M400.307,324.315l-136.375,24.731l0.336,10.876
					c19.697,1.368,108.958,5.841,138.728-22.717C402.178,332.896,401.288,328.597,400.307,324.315z"/>
				<path style="fill:none;stroke:#2E2854;stroke-linecap:round;stroke-linejoin:round;stroke-miterlimit:10;" d="M284.769,357.769
					c0,0,5.823,17.292-14.325,19.243"/>
				<path style="fill:none;stroke:#2E2854;stroke-linecap:round;stroke-linejoin:round;stroke-miterlimit:10;" d="M386.369,344.132
					c0,0-6.343,12.9,10.028,19.499"/>
			</g>
			<g>
				<g>
					<path style="fill:#E8614E;" d="M274.394,136.489c0.854,5.603,1.709,11.207,2.563,16.81c0,0,19.015-4.751,20.014-4.819
						l-6.205-18.037L274.394,136.489z"/>
					<path style="fill:#D15046;" d="M290.765,130.443l-16.372,6.046c0.286,1.872,0.571,3.744,0.856,5.616
						c7.925,0.229,14.025-1.676,18.243-3.732L290.765,130.443z"/>
				</g>
				<path style="fill:#2E2854;" d="M261.228,135.287c-2.862,3.468-9.079,5.489-13.541,4.938c-4.462-0.551-8.549-2.998-11.658-6.245
					c-3.068-3.203-5.303-7.26-6.044-11.632c0,0-10.434-18.166-11.553-18.865c-6.275-4.504-9.903-12.451-9.198-20.143
					c0.706-7.693,5.721-14.846,13.049-17.832c-2.954-7.707-0.682-17.127,5.46-22.639c6.143-5.514,15.752-6.758,23.013-2.828
					c3.525-4.028,7.505-7.79,12.32-10.127c4.815-2.336,10.586-3.109,15.785-0.343c5.633-5.285,14.594-6.656,21.549-3.293
					c6.955,3.361,11.447,11.234,11.339,19.833c7.378,1.479,12.449,8.877,13.398,16.343c0.948,7.464-1.406,14.94-4.227,21.917
					c0,0-3.679,20.781-3.618,22.802c1.236,3.927,2.441,8.34,0.575,12.01c-1.217,2.393-3.559,4.019-5.992,5.153
					c-3.156,1.474-6.706,2.293-10.143,1.739L261.228,135.287z"/>
				<g>
					<g>
						<path style="fill:#E8614E;" d="M231.818,99.918c-5.603-3.276-13.388-1.962-17.806,2.793
							c-4.416,4.756-5.214,12.412-2.111,18.112c3.103,5.701,9.766,9.164,16.242,8.711c6.475-0.455,12.484-4.667,15.382-10.474
							L231.818,99.918z"/>
						<g>
							<path style="fill:none;stroke:#2E2854;stroke-linecap:round;stroke-linejoin:round;stroke-miterlimit:10;" d="
								M218.658,117.132c0.368-4.524,3.963-8.595,8.407-9.519"/>
							<path style="fill:none;stroke:#2E2854;stroke-linecap:round;stroke-linejoin:round;stroke-miterlimit:10;" d="
								M222.197,110.15c1.397,3.034,3.882,5.558,6.926,6.955"/>
						</g>
					</g>
					<path style="fill:#E8614E;" d="M307.663,85.913c1.324-3.053,4.146-5.413,7.385-6.177c3.238-0.764,6.818,0.088,9.366,2.228
						c2.299,1.93,3.708,4.791,4.22,7.749c0.904,5.206-0.972,10.812-4.825,14.428c-3.853,3.615-9.567,5.129-14.705,3.897
						L307.663,85.913z"/>
					<g>
						<path style="fill:#E8614E;" d="M307.619,73.104c2.768,9.45,5.232,19.159,4.888,29c-0.345,9.841-3.839,19.957-11.287,26.397
							c-5.27,4.556-12.102,6.954-18.96,8.175c-12.165,2.165-25.609,0.588-35.205-7.197c-9.028-7.323-13.332-18.834-17.248-29.778
							c4.702-7.057,8.139-16.127,9.531-24.798c4.108,3.406,10.395,2.978,15.056,0.378c4.66-2.6,8.05-6.948,13.355-10.766
							c4.944,5.587,11.716,9.532,19.015,11.075C294.061,77.133,301.849,76.269,307.619,73.104z"/>
						<g>
							<path style="fill:#D15046;" d="M247.054,129.479c2.992,2.427,6.358,4.25,9.942,5.545c0.918-0.543,1.742-1.237,2.4-2.09
								c2.871-3.72,2.569-10.203-2.344-13.319c-3.968-2.517-9.839-1.297-12.476,2.591c-0.734,1.082-1.173,2.321-1.357,3.604
								C244.4,127.118,245.665,128.353,247.054,129.479z"/>
							<path style="fill:#D15046;" d="M310.911,106.118c-3.968-2.517-9.84-1.298-12.477,2.591c-2.636,3.889-1.597,9.796,2.209,12.55
								c1.601,1.159,3.58,1.671,5.548,1.607c3.155-4.657,5.059-10.198,5.872-15.867
								C311.708,106.686,311.333,106.386,310.911,106.118z"/>
						</g>
						<g>
							<path style="fill:none;stroke:#2E2854;stroke-linecap:round;stroke-linejoin:round;stroke-miterlimit:10;" d="M247.65,96.142
								c1.217-2.136,3.297-3.761,5.664-4.424c2.366-0.664,4.989-0.357,7.139,0.833"/>
							<path style="fill:none;stroke:#2E2854;stroke-linecap:round;stroke-linejoin:round;stroke-miterlimit:10;" d="M279.654,87.4
								c2.057,1.432,4.113,2.865,6.02,5.023c-1.394,0.872-2.788,1.743-4.181,2.613"/>
							<path style="fill:none;stroke:#2E2854;stroke-linecap:round;stroke-linejoin:round;stroke-miterlimit:10;" d="
								M288.798,86.717c1.197-2.034,3.232-3.557,5.521-4.131c2.289-0.575,4.803-0.193,6.818,1.035"/>
						</g>
						<g>
							<path style="fill:#2E2854;" d="M291.65,99.883c-10.295,2.598-20.462,5.701-30.604,10.189
								c3.807,5.938,11.735,8.873,18.49,6.846C286.292,114.892,291.294,108.076,291.65,99.883z"/>
							<path style="fill:#D14B56;" d="M278.423,110.46c-2.743,1.033-4.709,3.78-4.842,7.013c1.999,0.186,4.024,0.024,5.954-0.555
								c2.732-0.819,5.168-2.431,7.135-4.591C284.579,110.223,281.216,109.408,278.423,110.46z"/>
							<path style="fill:#FFFFFF;" d="M261.046,110.073c0.713,1.113,1.571,2.12,2.539,3.009c8.654-4.537,18.055-8.048,27.756-10.442
								c0.159-0.898,0.268-1.817,0.308-2.756C281.354,102.481,271.188,105.585,261.046,110.073z"/>
						</g>
					</g>
				</g>
			</g>
			<g>
				<g>
					<g>
						<g>
							<path style="fill:#E8614E;" d="M559.044,125.086c1.961-6.502,3.923-13.004,5.885-19.507c0.381-1.261,0.949-2.711,2.221-3.047
								c1.144-0.301,2.344,0.532,2.851,1.6c0.508,1.067,0.489,2.302,0.434,3.483c-0.341,7.374-1.68,14.699-3.968,21.717
								L559.044,125.086z"/>
							<path style="fill:none;stroke:#2E2854;stroke-linecap:round;stroke-linejoin:round;stroke-miterlimit:10;" d="
								M559.044,125.086c1.961-6.502,3.923-13.004,5.885-19.507c0.381-1.261,0.949-2.711,2.221-3.047
								c1.144-0.301,2.344,0.532,2.851,1.6c0.508,1.067,0.489,2.302,0.434,3.483c-0.341,7.374-1.68,14.699-3.968,21.717
								L559.044,125.086z"/>
						</g>
						<g>
							<path style="fill:#E8614E;" d="M566.126,129.445c2.285-6.02,4.571-12.041,6.857-18.061c0.538-1.417,1.475-3.105,2.987-2.985
								c0.921,0.072,1.656,0.875,1.932,1.756c0.277,0.881,0.189,1.832,0.077,2.75c-0.859,7.044-2.94,13.938-6.123,20.281
								L566.126,129.445z"/>
							<path style="fill:none;stroke:#2E2854;stroke-linecap:round;stroke-linejoin:round;stroke-miterlimit:10;" d="
								M566.126,129.445c2.285-6.02,4.571-12.041,6.857-18.061c0.538-1.417,1.475-3.105,2.987-2.985
								c0.921,0.072,1.656,0.875,1.932,1.756c0.277,0.881,0.189,1.832,0.077,2.75c-0.859,7.044-2.94,13.938-6.123,20.281
								L566.126,129.445z"/>
						</g>
						<g>
							<path style="fill:#61C9BB;" d="M538.654,108.371c9.835,2.67,19.938,4.353,30.776,3.827c5.411-19.729,8.506-40.093,9.2-60.539
								c0,0-28.508-2.637-28.9-1.828C549.31,69.466,545.583,89.027,538.654,108.371z"/>
							<g>
								<path style="fill:#8CDED3;" d="M541.368,100.236c-0.844,2.715-1.744,5.428-2.714,8.135
									c9.835,2.67,19.938,4.353,30.776,3.827c0.826-3.01,1.578-6.04,2.296-9.078C561.542,103.196,551.355,102.227,541.368,100.236
									z"/>
								<path style="fill:#8CDED3;" d="M549.73,49.831c-0.064,2.984-0.214,5.967-0.43,8.947c9.577,1.236,19.257,1.644,28.904,1.218
									c0.183-2.777,0.331-5.555,0.425-8.336C578.63,51.659,550.122,49.022,549.73,49.831z"/>
								<path style="fill:#8CDED3;" d="M568.334,82.869c0.461-4.087-2.802-8.232-6.882-8.744c-4.468-0.56-8.511,3.064-8.872,7.161
									c-0.36,4.098,3.003,8.161,7.095,8.572C563.768,90.27,567.873,86.956,568.334,82.869z"/>
							</g>
						</g>
						<g>
							<path style="fill:#E8614E;" d="M552.458,165.611c-0.214-0.1,23.924-22.556,27.928-38.318c0.2-0.79,0.386-1.609,0.251-2.412
								c-0.135-0.803-0.671-1.593-1.463-1.781c-1.235-0.294-2.277,0.894-2.989,1.945c-1.544,2.282-3.214,4.443-4.761,6.716
								l-20.886-10.972c0,0-14.088,16.167-18.616,19.87L552.458,165.611z"/>
							<path style="fill:none;stroke:#2E2854;stroke-linecap:round;stroke-linejoin:round;stroke-miterlimit:10;" d="
								M576.093,137.035c1.974-3.358,3.514-6.677,4.293-9.742c0.2-0.79,0.386-1.609,0.251-2.412
								c-0.135-0.803-0.671-1.593-1.463-1.781c-1.235-0.294-2.277,0.894-2.989,1.945c-1.544,2.282-3.214,4.443-4.761,6.716"/>
							<path style="fill:#D15046;" d="M552.458,165.611c-0.062-0.029,1.906-1.923,4.827-4.972
								c-2.039-17.531-13.021-23.356-19.872-25.35c-2.23,2.343-4.23,4.339-5.49,5.369L552.458,165.611z"/>
						</g>
						<g>
							<path style="fill:#E8614E;" d="M551.489,122.754c1.423-7.031,2.844-14.062,4.267-21.092c0.257-1.273,0.532-2.587,1.278-3.651
								c0.747-1.062,2.1-1.814,3.348-1.455c1.828,0.525,2.316,2.853,2.395,4.753c0.351,8.447-0.87,16.957-3.582,24.965
								L551.489,122.754z"/>
							<path style="fill:none;stroke:#2E2854;stroke-linecap:round;stroke-linejoin:round;stroke-miterlimit:10;" d="
								M551.489,122.754c1.423-7.031,2.844-14.062,4.267-21.092c0.257-1.273,0.532-2.587,1.278-3.651
								c0.747-1.062,2.1-1.814,3.348-1.455c1.828,0.525,2.316,2.853,2.395,4.753c0.351,8.447-0.87,16.957-3.582,24.965
								L551.489,122.754z"/>
						</g>
						<g>
							<path style="fill:#E8614E;" d="M531.923,140.659c4.221-4.539,6.874-10.321,8.813-16.209c1.94-5.886,3.235-11.969,5.15-17.866
								c0.34-1.044,0.713-2.11,1.425-2.946c0.712-0.836,1.843-1.404,2.911-1.151c1.746,0.415,2.339,2.57,2.511,4.357
								c0.439,4.559,0.243,9.18-0.097,14.23c7.354,1.336,14.204,5.286,19.044,10.981"/>
							<path style="fill:#D15046;" d="M531.923,140.659l11.976-2.592c-2.828-1.658-5.595-2.588-7.766-3.119
								C534.927,136.992,533.542,138.918,531.923,140.659z"/>
							<path style="fill:none;stroke:#2E2854;stroke-linecap:round;stroke-linejoin:round;stroke-miterlimit:10;" d="
								M540.11,126.273c0.217-0.605,0.425-1.213,0.626-1.823c1.94-5.886,3.235-11.969,5.15-17.866
								c0.34-1.044,0.713-2.11,1.425-2.946c0.712-0.836,1.843-1.404,2.911-1.151c1.746,0.415,2.339,2.57,2.511,4.357
								c0.439,4.559,0.243,9.18-0.097,14.23c7.354,1.336,14.204,5.286,19.044,10.981"/>
						</g>
					</g>
					<g>
						<path style="fill:#6F4D94;" d="M364.915,216.861c27.533,14.074,59.945,17.116,90.39,11.706
							c30.446-5.409,59.046-18.88,84.722-36.109c5.565-3.733,11.276-7.975,13.817-14.174c2.945-7.185,0.972-15.422-1.942-22.619
							c-2.614-6.458-6.398-13.041-12.752-15.9c-7.232-3.252-15.904-0.706-22.414,3.82c-6.511,4.526-11.553,10.82-17.421,16.154
							c-15.013,13.647-35.792,20.736-56.015,19.108c-20.102-1.617-38.525-11.23-57.353-18.456
							c-12.195-4.68-25.137-8.352-38.174-10.196L364.915,216.861z"/>
						<path style="opacity:0.15;fill:#2E2854;" d="M540.027,192.458c2.076-1.393,4.172-2.856,6.117-4.466
							c-103.251,42.293-177.892,9.326-177.892,9.326l-7.585,3.026l4.247,16.516c27.533,14.074,59.945,17.116,90.39,11.706
							C485.751,223.158,514.351,209.687,540.027,192.458z"/>
						<path style="fill:none;stroke:#2E2854;stroke-linecap:round;stroke-linejoin:round;stroke-miterlimit:10;" d="
							M364.915,216.861c27.533,14.074,59.945,17.116,90.39,11.706c30.446-5.409,59.046-18.88,84.722-36.109
							c5.565-3.733,11.276-7.975,13.817-14.174"/>
					</g>
				</g>
				<g>
					<g>
						<g>
							<path style="fill:#E8614E;" d="M102.233,268.42c-7.023-8.219-13.769-22.451-16.678-35.451c0,0,17.353-9.374,17.978-8.845
								c-2.548-7.817-3.773-12.577-5.69-20.573c-0.267-1.117-0.53-2.269-0.352-3.402c0.179-1.134,0.907-2.258,2.016-2.555
								c1.035-0.277,2.152,0.232,2.889,1.01c0.738,0.777,1.17,1.786,1.589,2.772c3.174,7.483,6.348,14.965,9.522,22.448
								l7.382,30.472L102.233,268.42z"/>
							<path style="fill:#D15046;" d="M117.886,241.892c-14.646,0.837-20.476,12.047-22.301,16.826
								c2.106,3.703,4.361,7.025,6.649,9.702l18.657-14.124L117.886,241.892z"/>
							<path style="fill:none;stroke:#2E2854;stroke-linecap:round;stroke-linejoin:round;stroke-miterlimit:10;" d="
								M103.534,224.124c-2.548-7.817-3.773-12.577-5.69-20.573c-0.267-1.117-0.53-2.269-0.352-3.402
								c0.179-1.134,0.907-2.258,2.016-2.555c1.035-0.277,2.152,0.232,2.889,1.01c0.738,0.777,1.17,1.786,1.589,2.772
								c3.174,7.483,6.348,14.965,9.522,22.448"/>
						</g>
						<g>
							<path style="fill:#E8614E;" d="M81.338,232.698c0.151,2.601,0.824,5.13,1.974,7.404c0.565,1.12,1.531,2.312,2.863,2.103
								c0.862-0.135,1.577-0.865,1.909-1.662s0.35-1.658,0.333-2.489c-0.049-2.428-0.359-4.829-0.922-7.153
								c-0.225-0.93-0.505-1.874-1.126-2.589c-0.62-0.714-1.663-1.152-2.643-0.837C82.746,227.789,81.127,229.044,81.338,232.698z"
								/>
							<path style="fill:none;stroke:#2E2854;stroke-linecap:round;stroke-linejoin:round;stroke-miterlimit:10;" d="
								M81.338,232.698c0.151,2.601,0.824,5.13,1.974,7.404c0.565,1.12,1.531,2.312,2.863,2.103
								c0.862-0.135,1.577-0.865,1.909-1.662s0.35-1.658,0.333-2.489c-0.049-2.428-0.359-4.829-0.922-7.153
								c-0.225-0.93-0.505-1.874-1.126-2.589c-0.62-0.714-1.663-1.152-2.643-0.837C82.746,227.789,81.127,229.044,81.338,232.698z"
								/>
						</g>
						<g>
							<path style="fill:#E8614E;" d="M92.914,226.205c1.658,3.024,2.488,6.497,2.377,9.944c-0.03,0.912-0.13,1.844-0.529,2.665
								c-0.4,0.821-1.148,1.518-2.052,1.644c-1.596,0.223-2.864-1.287-3.656-2.69c-1.671-2.962-2.808-6.223-3.339-9.583
								c-0.295-1.866-0.309-4.028,1.048-5.343c0.784-0.761,1.966-1.091,3.031-0.847C90.863,222.239,91.303,223.264,92.914,226.205z"
								/>
							<path style="fill:none;stroke:#2E2854;stroke-linecap:round;stroke-linejoin:round;stroke-miterlimit:10;" d="
								M92.914,226.205c1.658,3.024,2.488,6.497,2.377,9.944c-0.03,0.912-0.13,1.844-0.529,2.665
								c-0.4,0.821-1.148,1.518-2.052,1.644c-1.596,0.223-2.864-1.287-3.656-2.69c-1.671-2.962-2.808-6.223-3.339-9.583
								c-0.295-1.866-0.309-4.028,1.048-5.343c0.784-0.761,1.966-1.091,3.031-0.847C90.863,222.239,91.303,223.264,92.914,226.205z"
								/>
						</g>
						<g>
							<path style="fill:#E8614E;" d="M97.787,223.493c1.658,3.024,2.488,6.497,2.377,9.944c-0.03,0.912-0.13,1.844-0.529,2.665
								c-0.4,0.821-1.148,1.518-2.052,1.644c-1.596,0.223-2.863-1.287-3.656-2.69c-1.671-2.961-2.808-6.223-3.339-9.583
								c-0.295-1.866-0.309-4.028,1.048-5.343c0.784-0.761,1.965-1.091,3.031-0.847C95.736,219.527,96.175,220.552,97.787,223.493z"
								/>
							<path style="fill:none;stroke:#2E2854;stroke-linecap:round;stroke-linejoin:round;stroke-miterlimit:10;" d="
								M97.787,223.493c1.658,3.024,2.488,6.497,2.377,9.944c-0.03,0.912-0.13,1.844-0.529,2.665
								c-0.4,0.821-1.148,1.518-2.052,1.644c-1.596,0.223-2.863-1.287-3.656-2.69c-1.671-2.961-2.808-6.223-3.339-9.583
								c-0.295-1.866-0.309-4.028,1.048-5.343c0.784-0.761,1.965-1.091,3.031-0.847C95.736,219.527,96.175,220.552,97.787,223.493z"
								/>
						</g>
						<g>
							<path style="fill:#E8614E;" d="M103.964,221.505c1.66,3.377,3.362,6.95,3.131,10.707c-0.08,1.308-0.502,2.743-1.639,3.394
								c-1.087,0.62-2.515,0.298-3.515-0.455c-1-0.753-1.662-1.86-2.29-2.943c-1.577-2.724-3.126-5.585-3.426-8.717
								c-0.183-1.895,0.245-4.057,1.825-5.117c0.925-0.619,2.159-0.749,3.191-0.337C102.274,218.45,102.954,219.451,103.964,221.505
								z"/>
							<path style="fill:none;stroke:#2E2854;stroke-linecap:round;stroke-linejoin:round;stroke-miterlimit:10;" d="
								M103.964,221.505c1.66,3.377,3.362,6.95,3.131,10.707c-0.08,1.308-0.502,2.743-1.639,3.394
								c-1.087,0.62-2.515,0.298-3.515-0.455c-1-0.753-1.662-1.86-2.29-2.943c-1.577-2.724-3.126-5.585-3.426-8.717
								c-0.183-1.895,0.245-4.057,1.825-5.117c0.925-0.619,2.159-0.749,3.191-0.337C102.274,218.45,102.954,219.451,103.964,221.505
								z"/>
						</g>
						<g>
							<path style="fill:#E8614E;" d="M107.631,241.494c-1.128-5.894,0.721-12.281,4.287-16.432c-2.669-1.519-5.04-3.56-6.938-5.973
								c-0.478-0.606-0.949-1.343-0.776-2.095c0.318-1.378,2.264-1.415,3.635-1.068c2.628,0.665,5.201,1.544,7.685,2.628
								c2.694,1.174,5.36,2.651,7.179,4.959c2.949,3.739,3.147,8.98,2.275,13.663c-0.872,4.681-2.666,9.173-3.262,13.898"/>
							<path style="fill:#D15046;" d="M123.795,242.105c-5.346-0.637-9.754-0.037-13.371,1.288l11.293,7.68
								C122.1,248.024,122.982,245.073,123.795,242.105z"/>
							<path style="fill:none;stroke:#2E2854;stroke-linecap:round;stroke-linejoin:round;stroke-miterlimit:10;" d="
								M107.631,241.494c-1.128-5.894,0.721-12.281,4.287-16.432c-2.669-1.519-5.04-3.56-6.938-5.973
								c-0.478-0.606-0.949-1.343-0.776-2.095c0.318-1.378,2.264-1.415,3.635-1.068c2.628,0.665,5.201,1.544,7.685,2.628
								c2.694,1.174,5.36,2.651,7.179,4.959c2.949,3.739,3.147,8.98,2.275,13.663c-0.872,4.681-2.666,9.173-3.262,13.898"/>
						</g>
					</g>
					<g>
						<path style="fill:#6F4D94;" d="M258.489,265.447c-7.601,17.89-18.379,34.645-32.888,47.579
							c-14.509,12.934-32.914,21.879-52.292,23.405c-19.377,1.526-39.645-4.773-53.434-18.471
							c-8.117-8.064-15.655-16.587-20.194-26.772c-4.539-10.186-5.685-22.434-0.535-32.324c5.15-9.89,17.608-16.191,28.023-12.209
							c16.56,6.331,18.808,31.983,35.429,38.153c7.721,2.866,16.706,0.365,23.137-4.781c6.43-5.146,10.643-12.576,13.736-20.209
							c6.556-16.177,8.729-33.895,15.631-49.927c5.177-12.026,13.126-22.74,22.934-31.328L258.489,265.447z"/>
						<path style="opacity:0.15;fill:#2E2854;" d="M173.31,336.431c19.378-1.527,37.783-10.471,52.292-23.405
							c14.509-12.935,25.286-29.69,32.888-47.579l-7.645-32.478c-6.387,2.123-12.387,4.236-12.387,4.236
							s-7.516,77.188-58.105,84.744c-35.78,5.344-63.696-12.753-76.976-23.807c4.445,7.23,10.302,13.659,16.501,19.817
							C133.665,331.658,153.933,337.957,173.31,336.431z"/>
						<path style="fill:none;stroke:#2E2854;stroke-linecap:round;stroke-linejoin:round;stroke-miterlimit:10;" d="
							M258.489,265.447c-7.601,17.89-18.379,34.645-32.888,47.579c-14.509,12.934-32.914,21.879-52.292,23.405
							c-19.377,1.526-39.645-4.773-53.434-18.471c-8.117-8.064-15.655-16.587-20.194-26.772"/>
					</g>
				</g>
				<g>
					<path style="fill:#6F4D94;" d="M368.253,197.319c7.282,27.207,15.975,54.036,26.028,80.345
						c3.085,8.074,6.321,16.172,7.752,24.696c1.431,8.524,0.926,17.648-3.165,25.261c-5.24,9.751-15.572,15.722-26.03,19.352
						c-15.327,5.322-31.71,6.651-47.895,7.769c-13.386,0.923-26.782,1.728-40.176,2.533c-5.541,0.333-11.4,0.602-16.316-1.976
						c-4.96-2.603-8.151-7.775-9.7-13.158c-1.548-5.382-1.673-11.053-1.95-16.648c-1.488-30.142-7.702-60.048-18.345-88.288
						l-0.419-58.643c14.457-12.659,32.952-20.7,52.555-21.515c17.798-8.266,37.596-9.623,57.181-6.853L368.253,197.319z"/>
					<path style="fill:none;stroke:#2E2854;stroke-linecap:round;stroke-linejoin:round;stroke-miterlimit:10;" d="M368.253,197.319
						c7.282,27.207,15.975,54.036,26.028,80.345c3.085,8.074,6.321,16.172,7.752,24.696c1.431,8.524,0.926,17.648-3.165,25.261
						c-5.24,9.751-15.572,15.722-26.03,19.352c-15.327,5.322-31.71,6.651-47.895,7.769c-13.386,0.923-26.782,1.728-40.176,2.533
						c-5.541,0.333-11.4,0.602-16.316-1.976c-4.96-2.603-8.151-7.775-9.7-13.158c-1.548-5.382-1.673-11.053-1.95-16.648
						c-1.488-30.142-7.702-60.048-18.345-88.288"/>
					<path style="opacity:0.15;fill:#2E2854;" d="M290.592,157.048c-11.519,0.479-22.646,3.468-32.805,8.407
						c-0.441,3.376,0.812,9.069,13.899,9.896c18.776,1.187,45.677-5.67,51.743-17.67c1.702-3.367,2.448-6.276,2.642-8.721
						C313.82,149.378,301.809,151.839,290.592,157.048z"/>
				</g>
				<g>
					<path style="fill:#6F4D94;" d="M289.47,147.533c-3.241,1.094-6.711,1.273-10.131,1.389c-3.419,0.116-6.879,0.184-10.181,1.075
						c-3.304,0.89-6.493,2.712-8.301,5.615c-1.809,2.904-1.915,6.994,0.327,9.579c1.927,2.223,5.048,2.928,7.967,3.306
						c12.793,1.656,25.897-0.603,37.955-5.185c4.181-1.588,8.417-3.573,11.221-7.058c2.804-3.484,3.733-8.844,1.03-12.409
						c-2.112-2.786-5.921-3.843-9.403-3.531c-3.483,0.313-6.742,1.783-9.923,3.236C296.851,145.002,293.505,146.171,289.47,147.533z
						"/>
					<path style="fill:none;stroke:#2E2854;stroke-linecap:round;stroke-linejoin:round;stroke-miterlimit:10;" d="M289.47,147.533
						c-3.241,1.094-6.711,1.273-10.131,1.389c-3.419,0.116-6.879,0.184-10.181,1.075c-3.304,0.89-6.493,2.712-8.301,5.615
						c-1.809,2.904-1.915,6.994,0.327,9.579c1.927,2.223,5.048,2.928,7.967,3.306c12.793,1.656,25.897-0.603,37.955-5.185
						c4.181-1.588,8.417-3.573,11.221-7.058c2.804-3.484,3.733-8.844,1.03-12.409c-2.112-2.786-5.921-3.843-9.403-3.531
						c-3.483,0.313-6.742,1.783-9.923,3.236C296.851,145.002,293.505,146.171,289.47,147.533z"/>
				</g>
			</g>
		</g>
		<g>
			<g>
				<g>
					<g>
						<path style="opacity:0.15;fill:#2E2854;" d="M208.667,407.16c-6.647-25.479-29.797-45.996-55.424-54.947
							c7.87,4.408,9.443,14.742,12.576,23.2C171.766,391.473,189.761,402.826,208.667,407.16z"/>
						<path style="fill:#FF7D5C;" d="M208.667,407.16c-5.444-25.763-27.453-49.632-52.632-59.775
							c7.655,4.772,8.741,15.168,11.473,23.765C172.696,387.471,189.985,401.943,208.667,407.16z"/>
						<path style="fill:none;stroke:#2E2854;stroke-linecap:round;stroke-linejoin:round;stroke-miterlimit:10;" d="
							M173.598,365.649c10.876,12.179,25.629,28.189,35.068,41.511"/>
					</g>
					<g>
						<path style="opacity:0.15;fill:#2E2854;" d="M208.375,414.177c1.329-12.604,9.63-24.744,19.9-32.17
							c10.27-7.428,22.473-11.658,33.971-14.76C254.39,390.822,233.084,410.457,208.375,414.177z"/>
						<path style="fill:#F7A145;" d="M208.375,414.177c-0.199-12.673,6.82-25.179,16.12-33.788
							c9.3-8.612,20.905-14.28,31.946-18.746C251.481,385.993,232.456,407.507,208.375,414.177z"/>
						<path style="fill:none;stroke:#2E2854;stroke-linecap:round;stroke-linejoin:round;stroke-miterlimit:10;" d="M240.103,378.54
							c-9.914,12.498-20.475,24.329-31.728,35.637"/>
					</g>
					<g>
						<path style="fill:none;stroke:#2E2854;stroke-linecap:round;stroke-linejoin:round;stroke-miterlimit:10;" d="M193.6,289.281
							c13.172,44.653,17.899,91.781,13.859,138.161"/>
						<g>
							<path style="opacity:0.15;fill:#2E2854;" d="M210.108,306.965c-9.325,5.633-19.394,10.031-29.864,13.044
								c-5.361-21.192-14.866-41.165-28.488-58.018c10.222-5.767,20.856-10.804,32.324-13.483
								C197.966,264.32,207.38,284.02,210.108,306.965z"/>
							<path style="fill:#61C9BB;" d="M212.403,300.299c-9.325,5.633-19.394,10.031-29.864,13.044
								c-5.361-21.192-14.866-41.165-28.488-58.018c10.222-5.767,20.857-10.804,32.324-13.483
								C200.261,257.654,209.675,277.354,212.403,300.299z"/>
							<g>
								<path style="fill:#8CDED3;" d="M191.775,248.51c-1.716-2.291-3.513-4.518-5.4-6.667
									c-11.467,2.679-22.102,7.716-32.324,13.483c2.017,2.496,3.933,5.068,5.77,7.694
									C171.195,259.187,181.755,254.289,191.775,248.51z"/>
								<path style="fill:#8CDED3;" d="M180.581,272.696c-1.717,3.737,0.084,8.695,3.8,10.459c3.715,1.764,8.695,0.022,10.504-3.671
									c1.808-3.694,0.22-8.887-3.893-10.716C187.234,267.098,182.299,268.959,180.581,272.696z"/>
								<path style="fill:#8CDED3;" d="M212.403,300.299c-0.425-3.573-1.03-7.057-1.771-10.47
									c-10.457,3.535-20.667,7.99-31.077,13.196c1.102,3.403,2.105,6.842,2.984,10.319
									C193.009,310.33,203.078,305.932,212.403,300.299z"/>
							</g>
						</g>
					</g>
					<g>
						<path style="fill:none;stroke:#2E2854;stroke-linecap:round;stroke-linejoin:round;stroke-miterlimit:10;" d="
							M237.628,320.715c-13.143,12.594-23.43,28.146-29.916,45.153"/>
						<g>
							<path style="opacity:0.15;fill:#2E2854;" d="M218.044,326.935c5.825,9.207,12.867,17.64,20.886,25.015
								c14.266-16.562,31.694-30.182,51.414-39.171c-6.568-9.727-13.83-18.986-22.893-26.507
								C247.963,294.212,230.738,307.628,218.044,326.935z"/>
							<path style="fill:#61C9BB;" d="M218.044,322.485c5.825,9.207,12.867,17.64,20.886,25.015
								c14.266-16.562,31.694-30.182,51.414-39.171c-6.568-9.727-13.83-18.986-22.893-26.507
								C247.963,289.762,230.738,303.178,218.044,322.485z"/>
							<g>
								<path style="fill:#8CDED3;" d="M267.451,281.822c-2.649,1.079-5.251,2.269-7.81,3.551
									c6.381,9.648,13.639,18.748,22.102,27.261c2.817-1.529,5.681-2.974,8.601-4.305
									C283.776,298.602,276.514,289.343,267.451,281.822z"/>
								<path style="fill:#8CDED3;" d="M224.307,313.91c-2.188,2.722-4.287,5.569-6.263,8.575
									c5.825,9.207,12.867,17.64,20.886,25.015c2.34-2.717,4.774-5.346,7.281-7.897
									C239.225,330.294,232.082,321.745,224.307,313.91z"/>
								<path style="fill:#8CDED3;" d="M250.773,319.671c4.112,0.083,7.94-3.548,8.073-7.658c0.134-4.111-3.449-7.983-7.558-8.167
									c-4.497-0.202-8.239,3.733-8.271,7.846C242.984,315.805,246.661,319.588,250.773,319.671z"/>
							</g>
						</g>
					</g>
				</g>
				<g>
					<g>
						<path style="opacity:0.15;fill:#2E2854;" d="M544.632,401.331c11.952-23.464,39.521-39.342,66.471-42.594
							c-8.632,2.619-12.382,12.376-17.255,19.967C584.599,393.116,564.028,401.148,544.632,401.331z"/>
						<path style="fill:#FF7D5C;" d="M544.632,401.331c10.282-24.242,36.458-43.449,63.114-48.577
							c-8.428,3.216-11.486,13.212-15.816,21.124C583.711,388.902,563.967,399.792,544.632,401.331z"/>
						<path style="fill:none;stroke:#2E2854;stroke-linecap:round;stroke-linejoin:round;stroke-miterlimit:10;" d="
							M587.008,367.312c-13.009,9.868-30.558,22.753-42.375,34.019"/>
					</g>
					<g>
						<path style="opacity:0.15;fill:#2E2854;" d="M543.574,408.274c1.83-12.542-3.501-24.618-11.616-34.354
							c-8.114-9.738-18.892-16.853-29.265-22.704C504.474,376.003,520.553,398.558,543.574,408.274z"/>
						<path style="fill:#F7A145;" d="M543.574,408.274c2.625-12.399-1.867-26.019-9.344-36.252
							c-7.477-10.235-17.78-18.023-27.76-24.522C506.669,372.349,521.218,397.111,543.574,408.274z"/>
						<path style="fill:none;stroke:#2E2854;stroke-linecap:round;stroke-linejoin:round;stroke-miterlimit:10;" d="
							M519.266,367.216c7.334,14.167,15.432,27.803,24.308,41.058"/>
					</g>
					<g>
						<path style="fill:none;stroke:#2E2854;stroke-linecap:round;stroke-linejoin:round;stroke-miterlimit:10;" d="
							M582.016,288.526c-21.487,41.3-35.161,86.648-40.087,132.942"/>
						<g>
							<path style="opacity:0.15;fill:#2E2854;" d="M563.823,300.912c8.073,7.316,17.112,13.563,26.81,18.527
								c9.323-19.771,22.481-37.552,39.082-51.481c-8.927-7.62-18.399-14.602-29.14-19.429
								C583.915,261.386,570.899,278.916,563.823,300.912z"/>
							<path style="fill:#61C9BB;" d="M561.45,295.735c8.073,7.316,17.112,13.563,26.81,18.527
								c9.323-19.771,22.481-37.552,39.082-51.481c-8.927-7.62-18.399-14.601-29.14-19.429
								C581.541,256.209,568.526,273.739,561.45,295.735z"/>
							<g>
								<path style="fill:#8CDED3;" d="M591.623,248.861c2.124-1.92,4.314-3.761,6.578-5.508
									c10.741,4.827,20.213,11.809,29.14,19.429c-2.458,2.063-4.832,4.22-7.138,6.446
									C609.774,263.285,600.349,256.453,591.623,248.861z"/>
								<path style="fill:#8CDED3;" d="M597.973,274.744c0.969,3.997-1.749,8.518-5.734,9.537c-3.984,1.019-8.538-1.645-9.606-5.616
									c-1.066-3.972,1.488-8.764,5.875-9.771C592.516,267.974,597.003,270.747,597.973,274.744z"/>
								<path style="fill:#8CDED3;" d="M561.45,295.735c1.102-3.425,2.364-6.729,3.745-9.937
									c9.585,5.473,18.752,11.804,27.971,18.908c-1.734,3.128-3.377,6.312-4.907,9.555
									C578.561,309.298,569.522,303.051,561.45,295.735z"/>
							</g>
						</g>
					</g>
					<g>
						<path style="fill:none;stroke:#2E2854;stroke-linecap:round;stroke-linejoin:round;stroke-miterlimit:10;" d="
							M532.779,310.938c10.485,14.88,17.6,32.116,20.705,50.05"/>
						<g>
							<path style="opacity:0.15;fill:#2E2854;" d="M551.661,321.913c-7.482,7.92-16.01,14.846-25.294,20.547
								c-10.826-18.99-25.321-35.698-42.952-48.3c8.311-8.287,17.213-15.982,27.549-21.627
								C528.569,284.061,542.903,300.531,551.661,321.913z"/>
							<path style="fill:#61C9BB;" d="M551.661,316.428c-7.482,7.92-16.01,14.847-25.294,20.547
								c-10.826-18.99-25.321-35.698-42.952-48.3c8.311-8.288,17.213-15.983,27.549-21.627
								C528.569,278.577,542.903,295.047,551.661,316.428z"/>
							<g>
								<path style="fill:#8CDED3;" d="M510.964,267.048c2.393,1.567,4.719,3.233,6.985,4.982
									c-8.112,8.246-16.979,15.786-26.918,22.519c-2.472-2.041-5.005-4.008-7.617-5.874
									C491.726,280.388,500.628,272.693,510.964,267.048z"/>
								<path style="fill:#8CDED3;" d="M547.157,306.812c1.625,3.091,3.14,6.287,4.503,9.617
									c-7.482,7.92-16.01,14.846-25.294,20.547c-1.776-3.115-3.661-6.162-5.632-9.147
									C529.375,320.033,538.025,313.011,547.157,306.812z"/>
								<path style="fill:#8CDED3;" d="M520.078,307.393c-4.052-0.707-7.113-5.004-6.455-9.063c0.657-4.061,4.916-7.174,8.983-6.566
									c4.453,0.664,7.37,5.243,6.614,9.286C528.463,305.091,524.13,308.099,520.078,307.393z"/>
							</g>
						</g>
					</g>
				</g>
				<g>
					<g>
						<path style="opacity:0.15;fill:#2E2854;" d="M310.127,405.688c-2.821-23.237-20.682-45.337-41.225-55.073
							c1.501,7.959,2.551,16.023,4.751,23.819c2.198,7.795,5.644,15.421,11.276,21.241
							C290.561,401.496,300.363,406.265,310.127,405.688z"/>
						<path style="fill:#F7A145;" d="M310.127,405.688c-1.44-23.363-17.903-47.258-37.833-58.193
							c1.027,8.034,1.598,16.146,3.332,24.058c1.733,7.911,4.721,15.728,9.999,21.872
							C290.902,399.569,300.346,405.686,310.127,405.688z"/>
						<path style="fill:none;stroke:#2E2854;stroke-linecap:round;stroke-linejoin:round;stroke-miterlimit:10;" d="M285.056,370.47
							c4.982,12.624,14.758,26.395,25.071,35.217"/>
					</g>
					<g>
						<path style="opacity:0.15;fill:#2E2854;" d="M349.871,343.38c-1.81,7.849-7.398,14.273-13.427,19.615
							c-6.028,5.342-12.727,10.006-17.921,16.162c-5.194,6.156-9.004,11.519-8.284,20.965c13.746,0.359,27.665-3.921,35.318-15.346
							C353.207,373.349,354.546,357.964,349.871,343.38z"/>
						<path style="fill:#F7A145;" d="M346.987,340.33c-1.444,7.925-6.727,14.601-12.502,20.217
							c-5.774,5.616-12.249,10.586-17.152,16.976c-4.903,6.39-8.252,12.635-7.095,22.037c13.748-0.279,27.246-5.911,34.36-17.679
							C351.711,370.112,352.334,354.682,346.987,340.33z"/>
						<path style="fill:none;stroke:#2E2854;stroke-linecap:round;stroke-linejoin:round;stroke-miterlimit:10;" d="M310.238,399.56
							c4.704-8.244,13.138-10.763,20.245-17.054c7.107-6.292,13.725-14.558,13.439-24.046"/>
					</g>
					<g>
						<path style="fill:none;stroke:#2E2854;stroke-linecap:round;stroke-linejoin:round;stroke-miterlimit:10;" d="
							M331.921,231.787c-13.111,29.918-22.907,61.289-29.152,93.352"/>
						<g>
							<path style="opacity:0.15;fill:#2E2854;" d="M312.938,243.413c8.687,6.575,18.241,12,28.339,16.089
								c7.543-20.517,19.081-39.389,34.387-54.729c-9.565-6.802-19.615-12.921-30.741-16.782
								C329.462,202.27,318.045,220.878,312.938,243.413z"/>
							<path style="fill:#61C9BB;" d="M311.917,239.117c8.687,6.575,18.241,12,28.339,16.089
								c7.543-20.516,19.081-39.389,34.387-54.729c-9.565-6.802-19.615-12.921-30.741-16.782
								C328.441,197.973,317.024,216.582,311.917,239.117z"/>
							<g>
								<path style="fill:#8CDED3;" d="M314.77,228.889c-1.093,3.317-2.058,6.719-2.854,10.228c8.687,6.575,18.241,12,28.339,16.089
									c1.238-3.366,2.594-6.682,4.045-9.951C334.492,238.992,324.802,233.496,314.77,228.889z"/>
								<path style="fill:#8CDED3;" d="M343.903,183.696c-2.101,1.94-4.121,3.968-6.067,6.067
									c9.362,6.793,19.352,12.766,30.266,17.765c2.101-2.421,4.275-4.779,6.541-7.051
									C365.078,193.676,355.028,187.557,343.903,183.696z"/>
								<path style="fill:#8CDED3;" d="M331.51,220.244c1.414,3.862,6.185,6.113,10.064,4.747c3.879-1.366,6.189-6.109,4.871-10.004
									c-1.318-3.896-6.033-6.263-9.945-4.994C332.219,211.383,330.097,216.382,331.51,220.244z"/>
							</g>
						</g>
					</g>
					<path style="fill:none;stroke:#2E2854;stroke-linecap:round;stroke-linejoin:round;stroke-miterlimit:10;" d="M282.622,250.628
						c18.764,51.744,28.188,106.859,27.68,161.898"/>
					<g>
						<path style="opacity:0.15;fill:#2E2854;" d="M272.085,291.25c20.99,12.238,34.825,37.951,34.955,62.158
							c-8.486-5.74-17.242-13.67-22.965-22.168C277.056,320.819,275.331,307.828,272.085,291.25z"/>
						<path style="fill:#FF7D5C;" d="M278.727,286.862c19.364,14.675,31.096,42.5,28.313,66.547
							c-7.733-6.72-16.564-16.28-21.222-25.405C280.104,316.813,279.955,303.709,278.727,286.862z"/>
						<path style="fill:none;stroke:#2E2854;stroke-linecap:round;stroke-linejoin:round;stroke-miterlimit:10;" d="
							M286.996,304.017c0,0,16.748,32.42,20.044,49.391"/>
					</g>
					<g>
						<path style="opacity:0.15;fill:#2E2854;" d="M300.408,264.638c-8.323-19.247-28.794-35.883-52.366-39.594
							c-0.98-0.171-1.557-0.234-1.557-0.234c-3.822-0.548-7.706-0.206-11.263,1.25c1.714,7.256,3.428,14.512,5.62,22.583
							c11.583-1.393,23.596,1.311,33.523,7.424c1.537,6.776,2.067,13.882,2.236,21.526
							C285.657,275.356,294.154,270.892,300.408,264.638z"/>
						<g>
							<path style="fill:#40A89A;" d="M277.907,254.207c-10.524-7.784-24.069-11.367-37.065-9.804
								c-2.191-8.071-3.906-15.326-5.62-22.583c3.557-1.456,7.441-1.798,11.263-1.251c0,0,18.654,2,26.962,15.328
								C281.754,249.226,277.907,254.207,277.907,254.207z"/>
							<g>
								<path style="fill:#67CFC1;" d="M245.045,220.406c-3.351-0.281-6.712,0.14-9.823,1.414c1.714,7.256,3.428,14.511,5.62,22.583
									c2.944-0.354,5.915-0.431,8.873-0.268C248.158,236.225,246.602,228.316,245.045,220.406z"/>
								<path style="fill:#67CFC1;" d="M271.207,236.081c-2.294-0.676-5.005,0.585-5.932,2.79c-0.927,2.206,0.092,5.049,2.225,6.132
									c2.133,1.083,5.055,0.205,6.207-1.891C274.859,241.016,274.495,237.051,271.207,236.081z"/>
							</g>
						</g>
						<g>
							<path style="fill:#61C9BB;" d="M246.485,220.57c4.574,0.605,9.044,2.579,12.768,5.39
								c6.838,5.163,11.334,12.963,13.871,21.146c2.537,8.185,3.268,16.81,3.477,26.247c9.056-2.237,17.552-6.701,23.807-12.955
								C291.901,240.728,270.71,223.776,246.485,220.57z"/>
							<path style="fill:#8CDED3;" d="M276.208,264.824c0.202,2.775,0.328,5.609,0.393,8.528
								c9.056-2.237,17.552-6.701,23.807-12.955c-0.974-2.253-2.123-4.468-3.416-6.633
								C290.586,258.338,283.582,262.068,276.208,264.824z"/>
						</g>
					</g>
					<g>
						<path style="fill:none;stroke:#2E2854;stroke-linecap:round;stroke-linejoin:round;stroke-miterlimit:10;" d="
							M341.299,308.715c-3.658,22.353-15.577,43.241-32.874,57.849"/>
						<g>
							<path style="opacity:0.15;fill:#2E2854;" d="M325.48,329.927c10.017,1.877,20.222,2.749,30.983,1.359
								c3.82-20.098,5.28-40.643,4.341-61.079c0,0-28.625-0.354-28.953,0.483C332.998,290.295,330.845,310.091,325.48,329.927z"/>
							<path style="fill:#61C9BB;" d="M321.661,327.436c10.017,1.877,20.222,2.749,30.983,1.359
								c3.82-20.097,5.28-40.643,4.34-61.079c0,0-28.625-0.354-28.953,0.483C329.18,287.805,327.027,307.601,321.661,327.436z"/>
							<g>
								<path style="fill:#8CDED3;" d="M323.718,319.111c-0.625,2.774-1.306,5.549-2.057,8.325
									c10.017,1.877,20.222,2.749,30.983,1.359c0.583-3.067,1.092-6.146,1.565-9.232
									C344.065,320.451,333.832,320.298,323.718,319.111z"/>
								<path style="fill:#8CDED3;" d="M356.985,267.716c0,0-28.625-0.354-28.953,0.483c0.174,2.98,0.263,5.965,0.285,8.953
									c9.645,0.468,19.327,0.102,28.909-1.092C357.187,273.277,357.113,270.496,356.985,267.716z"/>
								<path style="fill:#8CDED3;" d="M341.654,291.481c-4.496-0.201-8.239,3.734-8.271,7.847
									c-0.033,4.112,3.644,7.895,7.756,7.979c4.112,0.083,7.94-3.548,8.074-7.658
									C349.346,295.538,345.764,291.665,341.654,291.481z"/>
							</g>
						</g>
					</g>
				</g>
				<g>
					<g>
						<path style="opacity:0.15;fill:#2E2854;" d="M436.431,408.395c-0.893-28.48-20.11-57.389-44.279-70.782
							c3.585,10.367,1.745,21.817,3.808,32.591C399.508,388.74,418.717,405.501,436.431,408.395z"/>
						<path style="fill:#FF7D5C;" d="M436.431,408.395c3.904-28.225-10.451-60.564-32.027-77.827
							c1.793,10.822-1.945,21.8-1.721,32.767C403.066,382.204,419.455,402.566,436.431,408.395z"/>
						<path style="fill:none;stroke:#2E2854;stroke-linecap:round;stroke-linejoin:round;stroke-miterlimit:10;" d="
							M415.277,356.471c3.273,16.845,13.222,36.706,21.155,51.924"/>
					</g>
					<g>
						<path style="opacity:0.15;fill:#2E2854;" d="M437.03,404.109c1.572-13.605,8.408-26.405,17.35-36.778
							c8.942-10.374,21.047-17.983,34.534-20.86c-5.72,6.458-6.837,15.625-9.723,23.756
							C473.289,386.859,457.604,399.834,437.03,404.109z"/>
						<path style="fill:#F7A145;" d="M437.03,404.109c0.58-13.683,6.38-27.16,14.545-38.156
							c8.165-10.996,19.685-19.465,32.928-23.313c-5.235,6.856-5.684,16.081-7.972,24.399
							C471.852,384.057,457.239,398.351,437.03,404.109z"/>
						<path style="fill:none;stroke:#2E2854;stroke-linecap:round;stroke-linejoin:round;stroke-miterlimit:10;" d="M465.938,364.16
							c-8.031,14.284-18.807,27.045-28.908,39.949"/>
					</g>
					<g>
						<path style="opacity:0.15;fill:#2E2854;" d="M400.981,205.677c22.623,14.044,38.27,40.452,40.762,68.271
							c-12.061-5.393-22.881-15.558-29.787-26.821C405.051,235.863,401.641,222.489,400.981,205.677z"/>
						<path style="fill:#F7A145;" d="M404.36,202.414c21.883,15.171,36.303,43.624,37.383,71.534
							c-11.773-5.996-22.195-17.983-28.521-29.581C406.896,232.767,404.167,219.238,404.36,202.414z"/>
						<path style="fill:none;stroke:#2E2854;stroke-linecap:round;stroke-linejoin:round;stroke-miterlimit:10;" d="
							M417.176,227.972c6.321,16.381,14.077,31.896,24.567,45.976"/>
					</g>
					<path style="fill:none;stroke:#2E2854;stroke-linecap:round;stroke-linejoin:round;stroke-miterlimit:10;" d="M448.597,132.567
						c-15.833,93.762,2.091,190.747-13.52,284.545"/>
					<g>
						<path style="fill:none;stroke:#2E2854;stroke-linecap:round;stroke-linejoin:round;stroke-miterlimit:10;" d="
							M473.047,183.553c-12.761,11.088-23.472,24.52-31.48,39.405"/>
						<g>
							<path style="opacity:0.15;fill:#2E2854;" d="M456.072,188.373c6.339,8.86,13.851,16.88,22.275,23.786
								c13.302-17.346,29.927-31.936,49.103-42.032c-7.111-9.338-14.887-18.169-24.363-25.161
								C484.08,154.001,467.647,168.375,456.072,188.373z"/>
							<path style="fill:#61C9BB;" d="M454.294,183.408c6.339,8.86,13.851,16.88,22.275,23.786
								c13.302-17.346,29.926-31.936,49.103-42.032c-7.111-9.338-14.887-18.169-24.363-25.161
								C482.303,149.036,465.87,163.41,454.294,183.408z"/>
							<g>
								<path style="fill:#8CDED3;" d="M476.57,207.194c2.182-2.846,4.463-5.609,6.821-8.299
									c-7.505-8.896-15.122-17.024-23.331-24.405c-2.029,2.842-3.963,5.804-5.765,8.918
									C460.633,192.269,468.145,200.289,476.57,207.194z"/>
								<path style="fill:#8CDED3;" d="M501.31,140.001c-2.583,1.228-5.114,2.564-7.596,3.99
									c6.919,9.269,14.683,17.942,23.617,25.959c2.726-1.687,5.503-3.292,8.343-4.787
									C518.562,155.825,510.786,146.993,501.31,140.001z"/>
								<path style="fill:#8CDED3;" d="M486.81,178.737c4.111-0.151,7.725-3.993,7.625-8.105c-0.1-4.111-3.897-7.773-8.01-7.723
									c-4.501,0.055-8.012,4.196-7.811,8.304C478.814,175.32,482.701,178.887,486.81,178.737z"/>
							</g>
						</g>
					</g>
					<g>
						<path style="fill:none;stroke:#2E2854;stroke-linecap:round;stroke-linejoin:round;stroke-miterlimit:10;" d="
							M404.874,279.162c17.046,3.481,31.612,16.744,37.173,33.159"/>
						<g>
							<path style="opacity:0.15;fill:#2E2854;" d="M386.212,315.94c1.758-6.595,6.619-12.289,12.856-15.061
								c6.235-2.771,13.721-2.564,19.794,0.549c0,0,12.44-23.71,11.729-22.826c-10.29-8.335-25.053-10.768-37.476-6.179
								c-12.422,4.59-22.056,16.037-24.456,29.061L386.212,315.94z"/>
							<path style="fill:#61C9BB;" d="M383.311,312.323c1.758-6.594,6.62-12.289,12.856-15.061
								c6.235-2.771,13.721-2.564,19.794,0.549c0,0,12.44-23.71,11.729-22.826c-10.29-8.335-25.053-10.768-37.476-6.179
								c-12.422,4.59-22.056,16.037-24.456,29.061L383.311,312.323z"/>
							<g>
								<path style="fill:#8CDED3;" d="M407.938,295.458c2.789,0.293,5.526,1.073,8.023,2.353c0,0,12.44-23.71,11.729-22.826
									c-2.392-1.938-5.033-3.542-7.823-4.827C415.191,278.237,411.201,286.711,407.938,295.458z"/>
								<path style="fill:#8CDED3;" d="M368.314,289.676c-1.156,2.623-2.035,5.366-2.556,8.191l17.553,14.457
									c0.684-2.565,1.842-4.991,3.363-7.164C380.555,299.998,374.434,294.837,368.314,289.676z"/>
								<path style="fill:#8CDED3;" d="M401.891,281.725c-1.318-3.896-6.032-6.264-9.944-4.994
									c-4.282,1.389-6.404,6.387-4.991,10.251c1.413,3.862,6.184,6.112,10.064,4.746S403.209,285.621,401.891,281.725z"/>
							</g>
						</g>
					</g>
					<g>
						<g>
							<path style="opacity:0.15;fill:#2E2854;" d="M504.016,296.706c-6.321,8.528-16.893,12.499-26.653,16.675
								c-9.761,4.173-22.536,10.229-25.87,20.962c11.334,4.143,27.144,1.954,37.057-4.93
								C498.464,322.528,504.72,310.663,504.016,296.706z"/>
							<path style="fill:#FF7D5C;" d="M500.404,291.939c-5.447,9.111-15.575,14.108-24.874,19.228
								c-9.3,5.118-21.78,12.166-24.036,23.176c11.688,3.002,27.569-0.497,36.754-8.328
								C497.431,318.184,502.483,305.758,500.404,291.939z"/>
							<path style="fill:none;stroke:#2E2854;stroke-linecap:round;stroke-linejoin:round;stroke-miterlimit:10;" d="
								M451.493,334.342c5.581-4.999,16.609-7.682,23.369-10.913c6.76-3.233,13.559-7.465,16.898-14.173"/>
						</g>
						<path style="fill:none;stroke:#2E2854;stroke-linecap:round;stroke-linejoin:round;stroke-miterlimit:10;" d="
							M441.239,354.522c6.194-14.612,15.183-28.149,23.012-42.065c10.4-18.486,19.119-39.434,15.781-60.379"/>
						<g>
							<path style="opacity:0.15;fill:#2E2854;" d="M496.673,284.709c-10.059-1.631-19.956-4.274-29.608-9.23
								c3.223-20.202,8.82-40.025,16.634-58.931c0,0,27.049,9.377,27.073,10.275C503.043,244.877,498.354,264.23,496.673,284.709z"
								/>
							<path style="fill:#61C9BB;" d="M493.237,282.293c-10.059-1.631-19.956-4.274-29.608-9.23
								c3.223-20.203,8.819-40.025,16.634-58.931c0,0,27.049,9.377,27.073,10.275C499.607,242.461,494.918,261.814,493.237,282.293z
								"/>
							<g>
								<path style="fill:#8CDED3;" d="M465.288,263.848c-0.602,3.063-1.168,6.133-1.659,9.215
									c9.652,4.956,19.548,7.599,29.608,9.23c0.235-2.866,0.536-5.707,0.889-8.529
									C484.209,271.45,474.531,268.123,465.288,263.848z"/>
								<path style="fill:#8CDED3;" d="M481.742,256.75c3.896,1.316,8.638-0.994,10.001-4.875c1.364-3.88-0.82-8.85-5.119-10.186
									c-3.928-1.22-8.612,1.206-9.881,5.119C475.476,250.72,477.844,255.433,481.742,256.75z"/>
								<path style="fill:#8CDED3;" d="M480.263,214.132c-1.063,2.572-2.076,5.163-3.057,7.767
									c8.609,4.374,17.594,8.002,26.825,10.834c1.035-2.804,2.131-5.582,3.305-8.326
									C507.313,223.509,480.263,214.132,480.263,214.132z"/>
							</g>
						</g>
					</g>
					<g>
						<path style="fill:none;stroke:#2E2854;stroke-linecap:round;stroke-linejoin:round;stroke-miterlimit:10;" d="
							M410.063,158.376c15.136,22.369,25.845,47.711,31.427,74.132"/>
						<g>
							<path style="opacity:0.15;fill:#2E2854;" d="M407.358,191.648c8.198-6.054,15.789-12.931,22.102-21.755
								c-12.11-16.488-26.156-31.553-41.756-44.788c0,0-19.76,20.715-19.371,21.524
								C383.467,159.147,396.492,174.208,407.358,191.648z"/>
							<path style="fill:#61C9BB;" d="M408.317,186.27c8.198-6.054,15.789-12.931,22.102-21.755
								c-12.11-16.488-26.156-31.554-41.756-44.788c0,0-19.76,20.715-19.371,21.524C384.426,153.769,397.451,168.831,408.317,186.27
								z"/>
							<g>
								<path style="fill:#8CDED3;" d="M369.291,141.251c2.3,1.903,4.546,3.871,6.749,5.891c6.913-6.742,13.24-14.08,18.895-21.908
									c-2.063-1.867-4.15-3.707-6.272-5.507C388.662,119.727,368.902,140.442,369.291,141.251z"/>
								<path style="fill:#8CDED3;" d="M395.616,147.14c-3.21,3.155-2.879,8.574,0.109,11.4c2.989,2.826,8.263,2.711,11.125-0.243
									c2.863-2.953,2.813-8.228-0.105-11.127C403.825,144.272,398.55,144.258,395.616,147.14z"/>
								<path style="fill:#8CDED3;" d="M403.623,179.093c1.605,2.347,3.173,4.736,4.693,7.177
									c8.198-6.054,15.789-12.931,22.102-21.755c-1.848-2.516-3.756-4.986-5.692-7.434
									C418.465,165.111,411.383,172.498,403.623,179.093z"/>
							</g>
						</g>
					</g>
				</g>
				<g>
					<path style="fill:#D24D84;" d="M183.056,469.44h407.478c6.856-2.448,12.117-8.369,13.482-15.834
						c2.315-12.646,4.471-26.675,4.732-38.033c-146.176-9.947-294.831-7.474-442.718,6.651c1.513,11.068,3.398,22.086,6.359,33.812
						C173.89,461.977,177.871,466.768,183.056,469.44z"/>
					<path style="opacity:0.15;fill:#2E2854;" d="M522.696,458.231c-75.509-0.666-292.903-0.178-349.634-0.036
						c1.837,4.939,5.453,8.905,9.994,11.244h407.478c6.856-2.448,12.117-8.369,13.482-15.834c0.535-2.925,1.061-5.924,1.558-8.947
						C589.401,451.897,563.389,458.59,522.696,458.231z"/>
					<path style="fill:none;stroke:#2E2854;stroke-linecap:round;stroke-linejoin:round;stroke-miterlimit:10;" d="M173.062,431.221
						c0,0,249.445-23.241,435.686-3.797"/>
				</g>
			</g>
			
				<line style="fill:none;stroke:#2E2854;stroke-linecap:round;stroke-linejoin:round;stroke-miterlimit:10;" x1="100.351" y1="469.44" x2="649.649" y2="469.44"/>
		</g>
	</g>
	<path style="fill:#F5DECF;" d="M43.133,199.478c-1.207-1.037-3.414-0.354-3.824,1.183c-0.41,1.538,1.163,3.23,2.727,2.932
		C43.598,203.294,44.736,200.857,43.133,199.478z"/>
	<g>
		<path style="fill:#F5DECF;" d="M690.064,313.344c-1.912-1.643-5.408-0.561-6.058,1.873c-0.65,2.436,1.843,5.116,4.319,4.644
			C690.802,319.388,692.604,315.529,690.064,313.344z"/>
		<path style="fill:#F5DECF;" d="M56.938,170.311c-1.912-1.643-5.408-0.561-6.058,1.874c-0.65,2.436,1.843,5.115,4.319,4.644
			C57.676,176.355,59.479,172.496,56.938,170.311z"/>
		<path style="fill:#F5DECF;" d="M80.469,363.67c-1.912-1.643-5.408-0.561-6.058,1.874c-0.65,2.436,1.843,5.115,4.319,4.644
			C81.207,369.714,83.009,365.855,80.469,363.67z"/>
		<path style="fill:#F5DECF;" d="M96.132,408.302c-1.912-1.643-5.408-0.561-6.058,1.873c-0.65,2.436,1.843,5.116,4.319,4.644
			C96.87,414.346,98.672,410.486,96.132,408.302z"/>
		<path style="fill:#F5DECF;" d="M480.936,35.591c-1.912-1.643-5.408-0.561-6.058,1.873c-0.65,2.436,1.843,5.116,4.319,4.644
			C481.674,41.635,483.477,37.776,480.936,35.591z"/>
		<path style="fill:#F5DECF;" d="M650.407,81.628c-1.912-1.643-5.408-0.561-6.058,1.873c-0.65,2.436,1.843,5.116,4.319,4.644
			C651.145,87.672,652.947,83.812,650.407,81.628z"/>
		<path style="fill:#FFFFFF;" d="M492.45,127.55c-1.912-1.643-5.408-0.561-6.058,1.873c-0.65,2.436,1.843,5.116,4.319,4.644
			C493.188,133.594,494.99,129.734,492.45,127.55z"/>
		<path style="fill:#F5DECF;" d="M689.472,375.352c-1.207-1.037-3.414-0.354-3.825,1.183c-0.41,1.538,1.163,3.23,2.727,2.932
			C689.938,379.168,691.076,376.732,689.472,375.352z"/>
		<path style="fill:#F5DECF;" d="M676.058,93.21c-1.207-1.037-3.414-0.354-3.824,1.183c-0.41,1.538,1.163,3.23,2.727,2.932
			C676.524,97.026,677.662,94.589,676.058,93.21z"/>
		<path style="fill:#F5DECF;" d="M122.448,55.732c-1.207-1.037-3.414-0.354-3.824,1.183c-0.41,1.538,1.163,3.229,2.727,2.932
			C122.914,59.548,124.052,57.111,122.448,55.732z"/>
		<path style="fill:#F5DECF;" d="M432.177,34.335c-1.207-1.037-3.414-0.354-3.824,1.183c-0.41,1.538,1.163,3.229,2.727,2.932
			C432.643,38.151,433.781,35.714,432.177,34.335z"/>
		<path style="fill:#F5DECF;" d="M664.373,58.055c-1.207-1.037-3.414-0.354-3.825,1.183c-0.41,1.538,1.163,3.229,2.727,2.932
			C664.838,61.87,665.977,59.434,664.373,58.055z"/>
		<path style="fill:#F5DECF;" d="M625.194,395.461c-1.207-1.037-3.414-0.354-3.824,1.183c-0.41,1.538,1.163,3.23,2.727,2.932
			C625.66,399.276,626.798,396.84,625.194,395.461z"/>
		<path style="fill:#FFFFFF;" d="M395.95,89.547c-1.207-1.037-3.414-0.354-3.824,1.183c-0.41,1.538,1.163,3.23,2.727,2.932
			C396.416,93.363,397.554,90.927,395.95,89.547z"/>
		<path style="fill:#FFFFFF;" d="M508.894,71.512c-1.207-1.037-3.414-0.354-3.824,1.183c-0.41,1.538,1.163,3.23,2.727,2.932
			C509.36,75.328,510.498,72.891,508.894,71.512z"/>
		<g>
			<path style="fill:none;stroke:#2E2854;stroke-linecap:round;stroke-linejoin:round;stroke-miterlimit:10;" d="M419.877,114.863
				c0.033,2.291,0.066,4.582,0.099,6.874"/>
			<path style="fill:none;stroke:#2E2854;stroke-linecap:round;stroke-linejoin:round;stroke-miterlimit:10;" d="M416.682,118.525
				c2.127-0.049,4.253-0.098,6.381-0.148"/>
		</g>
		<g>
			<path style="fill:none;stroke:#2E2854;stroke-linecap:round;stroke-linejoin:round;stroke-miterlimit:10;" d="M603.754,98.99
				c0.033,2.291,0.066,4.582,0.099,6.874"/>
			<path style="fill:none;stroke:#2E2854;stroke-linecap:round;stroke-linejoin:round;stroke-miterlimit:10;" d="M600.558,102.653
				c2.127-0.049,4.253-0.098,6.381-0.148"/>
		</g>
		<g>
			<path style="fill:none;stroke:#2E2854;stroke-linecap:round;stroke-linejoin:round;stroke-miterlimit:10;" d="M156.04,70.942
				c0.033,2.291,0.066,4.582,0.099,6.874"/>
			<path style="fill:none;stroke:#2E2854;stroke-linecap:round;stroke-linejoin:round;stroke-miterlimit:10;" d="M152.845,74.604
				c2.127-0.049,4.253-0.098,6.381-0.148"/>
		</g>
		<g>
			<path style="fill:none;stroke:#2E2854;stroke-linecap:round;stroke-linejoin:round;stroke-miterlimit:10;" d="M649.654,391.599
				c0.033,2.291,0.066,4.582,0.099,6.874"/>
			<path style="fill:none;stroke:#2E2854;stroke-linecap:round;stroke-linejoin:round;stroke-miterlimit:10;" d="M646.459,395.262
				c2.127-0.049,4.253-0.098,6.381-0.147"/>
		</g>
		<g>
			<path style="fill:none;stroke:#2E2854;stroke-linecap:round;stroke-linejoin:round;stroke-miterlimit:10;" d="M558.647,256.066
				c0.033,2.291,0.066,4.582,0.099,6.874"/>
			<path style="fill:none;stroke:#2E2854;stroke-linecap:round;stroke-linejoin:round;stroke-miterlimit:10;" d="M555.451,259.728
				c2.127-0.049,4.253-0.098,6.381-0.148"/>
		</g>
		<g>
			<path style="fill:none;stroke:#2E2854;stroke-linecap:round;stroke-linejoin:round;stroke-miterlimit:10;" d="M494.443,343.771
				c0.033,2.291,0.066,4.582,0.099,6.874"/>
			<path style="fill:none;stroke:#2E2854;stroke-linecap:round;stroke-linejoin:round;stroke-miterlimit:10;" d="M491.247,347.433
				c2.127-0.049,4.253-0.098,6.381-0.147"/>
		</g>
		<g>
			<path style="fill:none;stroke:#2E2854;stroke-linecap:round;stroke-linejoin:round;stroke-miterlimit:10;" d="M172.918,221.126
				c0.033,2.291,0.066,4.582,0.099,6.874"/>
			<path style="fill:none;stroke:#2E2854;stroke-linecap:round;stroke-linejoin:round;stroke-miterlimit:10;" d="M169.722,224.789
				c2.127-0.049,4.253-0.098,6.381-0.148"/>
		</g>
		<g>
			<path style="fill:none;stroke:#2E2854;stroke-linecap:round;stroke-linejoin:round;stroke-miterlimit:10;" d="M145.585,365.088
				c0.033,2.291,0.066,4.582,0.099,6.874"/>
			<path style="fill:none;stroke:#2E2854;stroke-linecap:round;stroke-linejoin:round;stroke-miterlimit:10;" d="M142.39,368.75
				c2.127-0.049,4.253-0.098,6.381-0.148"/>
		</g>
		<g>
			<path style="fill:none;stroke:#2E2854;stroke-linecap:round;stroke-linejoin:round;stroke-miterlimit:10;" d="M373.516,384.308
				c0.033,2.291,0.066,4.582,0.099,6.874"/>
			<path style="fill:none;stroke:#2E2854;stroke-linecap:round;stroke-linejoin:round;stroke-miterlimit:10;" d="M370.321,387.97
				c2.127-0.049,4.253-0.098,6.381-0.148"/>
		</g>
		<g>
			<path style="fill:none;stroke:#2E2854;stroke-linecap:round;stroke-linejoin:round;stroke-miterlimit:10;" d="M84.242,228.64
				c0.033,2.291,0.066,4.582,0.099,6.874"/>
			<path style="fill:none;stroke:#2E2854;stroke-linecap:round;stroke-linejoin:round;stroke-miterlimit:10;" d="M81.046,232.303
				c2.127-0.049,4.253-0.098,6.381-0.148"/>
		</g>
		<path style="fill:#FFFFFF;" d="M131.18,343.711c4.277,2.974,5.515,9.532,2.615,13.86c-2.899,4.328-9.434,5.681-13.812,2.858
			c-4.38-2.823-5.846-9.332-3.101-13.76C119.628,342.242,126.323,340.334,131.18,343.711z"/>
		<path style="fill:#FFFFFF;" d="M578.729,222.847c4.277,2.974,5.515,9.532,2.615,13.86c-2.899,4.328-9.434,5.681-13.812,2.858
			c-4.38-2.822-5.846-9.332-3.101-13.76C567.177,221.377,573.871,219.469,578.729,222.847z"/>
		<path style="fill:#F5DECF;" d="M185.676,49.32c4.277,2.974,5.515,9.532,2.615,13.86c-2.899,4.328-9.434,5.681-13.812,2.858
			c-4.38-2.823-5.846-9.332-3.101-13.76C174.124,47.851,180.819,45.942,185.676,49.32z"/>
		<path style="fill:#F5DECF;" d="M666.658,359.862c4.277,2.974,5.515,9.532,2.615,13.86c-2.899,4.328-9.434,5.681-13.812,2.858
			c-4.38-2.823-5.846-9.332-3.101-13.76C655.106,358.393,661.8,356.485,666.658,359.862z"/>
		<g>
			<path style="fill:none;stroke:#2E2854;stroke-linecap:round;stroke-linejoin:round;stroke-miterlimit:10;" d="M288.803,192.175
				c0.033,2.291,0.066,4.582,0.099,6.874"/>
			<path style="fill:none;stroke:#2E2854;stroke-linecap:round;stroke-linejoin:round;stroke-miterlimit:10;" d="M285.608,195.838
				c2.127-0.049,4.253-0.098,6.381-0.147"/>
		</g>
		<g>
			<path style="fill:none;stroke:#2E2854;stroke-linecap:round;stroke-linejoin:round;stroke-miterlimit:10;" d="M370.326,251.719
				c0.033,2.291,0.066,4.582,0.099,6.874"/>
			<path style="fill:none;stroke:#2E2854;stroke-linecap:round;stroke-linejoin:round;stroke-miterlimit:10;" d="M367.13,255.381
				c2.127-0.049,4.253-0.098,6.381-0.148"/>
		</g>
	</g>
</g>
</svg>
