<?xml version="1.0" encoding="utf-8"?>
<!-- Generator: Adobe Illustrator 27.5.0, SVG Export Plug-In . SVG Version: 6.00 Build 0)  -->
<svg version="1.1" xmlns="http://www.w3.org/2000/svg" xmlns:xlink="http://www.w3.org/1999/xlink" x="0px" y="0px"
	 viewBox="0 0 500 500" style="enable-background:new 0 0 500 500;" xml:space="preserve">
<g id="BACKGROUND">
	<g>
		<g>
			<g>
				<g>
					<g>
						<g>
							<rect x="0.004" y="-0.004" style="fill:#FFFFFF;" width="500" height="500"/>
						</g>
					</g>
				</g>
			</g>
		</g>
	</g>
</g>
<g id="OBJECTS">
	<g>
		<g>
			<path style="fill:#FFFFFF;" d="M363.005,55.274v398.798c0,10.589-8.603,19.192-19.192,19.192H156.187
				c-10.589,0-19.192-8.603-19.192-19.192V55.274c0-10.572,8.603-19.192,19.192-19.192h187.626
				C354.401,36.082,363.005,44.702,363.005,55.274z M356.217,454.072V55.274c0-6.839-5.566-12.404-12.404-12.404H156.187
				c-6.855,0-12.404,5.566-12.404,12.404v398.798c0,6.839,5.549,12.404,12.404,12.404h187.626
				C350.651,466.477,356.217,460.911,356.217,454.072z"/>
		</g>
		<g>
			<path style="fill:#292953;" d="M356.217,55.274v398.798c0,6.839-5.566,12.404-12.404,12.404H156.187
				c-6.855,0-12.404-5.566-12.404-12.404V55.274c0-6.839,5.549-12.404,12.404-12.404h187.626
				C350.651,42.869,356.217,48.435,356.217,55.274z M347.733,454.072V55.274c0-2.155-1.765-3.92-3.92-3.92H324.96
				c-2.817,0-5.447,1.001-7.483,2.698c-2.053,1.697-3.53,4.09-4.073,6.855c-1.069,5.532-5.922,9.537-11.556,9.537H198.117
				c-2.817,0-5.43-1.001-7.483-2.698c-2.053-1.697-3.546-4.073-4.073-6.839c-1.069-5.549-5.922-9.553-11.556-9.553h-18.819
				c-2.138,0-3.92,1.799-3.92,3.92v398.798c0,2.121,1.782,3.92,3.92,3.92h187.626C345.968,457.992,347.733,456.227,347.733,454.072z
				 M290.802,58.583c0-2.715-2.24-4.955-4.955-4.955h-71.711c-1.358,0-2.596,0.56-3.496,1.459c-0.899,0.899-1.459,2.138-1.459,3.496
				c0,2.732,2.24,4.955,4.955,4.955h71.711c1.357,0,2.596-0.56,3.496-1.459C290.242,61.196,290.802,59.94,290.802,58.583z"/>
		</g>
		<g>
			<path style="fill:#AFDBD5;" d="M347.733,55.274v398.798c0,2.155-1.765,3.92-3.92,3.92H156.187c-2.138,0-3.92-1.799-3.92-3.92
				V55.274c0-2.121,1.782-3.92,3.92-3.92h18.819c5.634,0,10.487,4.005,11.556,9.553c0.526,2.766,2.019,5.142,4.073,6.839
				c2.053,1.697,4.666,2.698,7.483,2.698h103.731c5.634,0,10.487-4.005,11.556-9.537c0.543-2.766,2.019-5.159,4.073-6.855
				c2.036-1.697,4.667-2.698,7.483-2.698h18.853C345.968,51.354,347.733,53.119,347.733,55.274z"/>
		</g>
		<g>
			<path style="fill:#AFDBD5;" d="M285.847,53.628c2.715,0,4.955,2.24,4.955,4.955c0,1.358-0.56,2.613-1.459,3.496
				c-0.899,0.899-2.138,1.459-3.496,1.459h-71.711c-2.715,0-4.955-2.223-4.955-4.955c0-1.358,0.56-2.596,1.459-3.496
				c0.899-0.899,2.138-1.459,3.496-1.459H285.847z"/>
		</g>
		<g>
			<path style="fill:#292953;" d="M343.813,474.014H156.187c-10.996,0-19.942-8.946-19.942-19.942V55.274
				c0-10.996,8.946-19.942,19.942-19.942h187.626c10.996,0,19.942,8.946,19.942,19.942v398.798
				C363.755,465.068,354.809,474.014,343.813,474.014z M156.187,36.832c-10.169,0-18.442,8.273-18.442,18.442v398.798
				c0,10.169,8.273,18.442,18.442,18.442h187.626c10.169,0,18.442-8.273,18.442-18.442V55.274c0-10.169-8.274-18.442-18.442-18.442
				H156.187z M343.813,467.226H156.187c-7.253,0-13.154-5.901-13.154-13.154V55.274c0-7.253,5.901-13.154,13.154-13.154h187.626
				c7.253,0,13.154,5.901,13.154,13.154v398.798C356.967,461.325,351.065,467.226,343.813,467.226z M156.187,43.619
				c-6.426,0-11.654,5.228-11.654,11.654v398.798c0,6.426,5.228,11.654,11.654,11.654h187.626c6.426,0,11.654-5.228,11.654-11.654
				V55.274c0-6.426-5.229-11.654-11.654-11.654H156.187z"/>
		</g>
		<g>
			<path style="fill:#292953;" d="M343.813,467.226H156.187c-7.253,0-13.154-5.901-13.154-13.154V55.274
				c0-7.253,5.901-13.154,13.154-13.154h187.626c7.253,0,13.154,5.901,13.154,13.154v398.798
				C356.967,461.325,351.065,467.226,343.813,467.226z M156.187,43.619c-6.426,0-11.654,5.228-11.654,11.654v398.798
				c0,6.426,5.228,11.654,11.654,11.654h187.626c6.426,0,11.654-5.228,11.654-11.654V55.274c0-6.426-5.229-11.654-11.654-11.654
				H156.187z M343.813,458.742H156.187c-2.531,0-4.67-2.139-4.67-4.67V55.274c0-2.531,2.139-4.67,4.67-4.67h18.818
				c5.988,0,11.158,4.273,12.292,10.162c0.473,2.488,1.827,4.761,3.814,6.402c1.971,1.629,4.459,2.526,7.006,2.526h103.731
				c5.269,0,9.819-3.755,10.819-8.929c0.56-2.857,2.099-5.446,4.331-7.291c2.221-1.85,5.049-2.87,7.961-2.87h18.853
				c2.575,0,4.67,2.095,4.67,4.67v398.798C348.482,456.647,346.388,458.742,343.813,458.742z M156.187,52.104
				c-1.718,0-3.17,1.452-3.17,3.17v398.798c0,1.718,1.452,3.17,3.17,3.17h187.626c1.748,0,3.17-1.422,3.17-3.17V55.274
				c0-1.748-1.422-3.17-3.17-3.17H324.96c-2.562,0-5.049,0.896-7.003,2.524c-1.968,1.627-3.323,3.907-3.816,6.424
				c-1.137,5.876-6.306,10.142-12.292,10.142H198.117c-2.895,0-5.722-1.02-7.961-2.87c-2.255-1.864-3.794-4.448-4.331-7.276
				c-0.998-5.182-5.549-8.944-10.819-8.944H156.187z M285.847,64.288h-71.711c-3.146,0-5.705-2.559-5.705-5.705
				c0-1.514,0.596-2.943,1.679-4.026c1.082-1.083,2.513-1.679,4.026-1.679h71.711c3.146,0,5.705,2.559,5.705,5.705
				c0,1.512-0.613,2.981-1.684,4.031C288.79,63.692,287.36,64.288,285.847,64.288z M214.136,54.378c-1.113,0-2.166,0.44-2.965,1.24
				c-0.799,0.799-1.239,1.853-1.239,2.965c0,2.319,1.886,4.205,4.205,4.205h71.711c1.113,0,2.166-0.44,2.966-1.24
				c0.789-0.774,1.239-1.854,1.239-2.965c0-2.319-1.887-4.205-4.205-4.205H214.136z"/>
		</g>
		<g>
			<path style="fill:#292953;" d="M343.813,458.742H156.187c-2.531,0-4.67-2.139-4.67-4.67V55.274c0-2.531,2.139-4.67,4.67-4.67
				h18.818c5.988,0,11.158,4.273,12.292,10.162c0.473,2.488,1.827,4.761,3.814,6.402c1.971,1.629,4.458,2.526,7.005,2.526h103.731
				c5.269,0,9.819-3.755,10.819-8.929c0.56-2.857,2.099-5.446,4.331-7.291c2.221-1.85,5.049-2.87,7.961-2.87h18.853
				c2.575,0,4.67,2.095,4.67,4.67v398.798C348.482,456.647,346.388,458.742,343.813,458.742z M156.187,52.104
				c-1.718,0-3.17,1.452-3.17,3.17v398.798c0,1.719,1.452,3.17,3.17,3.17h187.626c1.748,0,3.17-1.422,3.17-3.17V55.274
				c0-1.748-1.422-3.17-3.17-3.17H324.96c-2.562,0-5.049,0.896-7.003,2.524c-1.968,1.626-3.323,3.907-3.816,6.424
				c-1.136,5.876-6.306,10.142-12.292,10.142H198.117c-2.895,0-5.722-1.02-7.961-2.87c-2.255-1.864-3.794-4.448-4.331-7.276
				c-0.998-5.182-5.549-8.944-10.819-8.944H156.187z"/>
		</g>
		<g>
			<path style="fill:#292953;" d="M285.847,64.288h-71.711c-3.146,0-5.705-2.559-5.705-5.705c0-1.514,0.596-2.943,1.679-4.026
				c1.082-1.083,2.513-1.679,4.026-1.679h71.711c3.146,0,5.705,2.559,5.705,5.705c0,1.512-0.613,2.981-1.684,4.031
				C288.79,63.692,287.36,64.288,285.847,64.288z M214.136,54.378c-1.113,0-2.166,0.44-2.965,1.24
				c-0.799,0.799-1.239,1.853-1.239,2.965c0,2.319,1.886,4.205,4.205,4.205h71.711c1.113,0,2.166-0.44,2.966-1.24
				c0.789-0.774,1.239-1.854,1.239-2.965c0-2.319-1.887-4.205-4.205-4.205H214.136z"/>
		</g>
	</g>
	<g>
		<g>
			<path style="fill:#292953;" d="M177.423,144.02c-3.254,0.001-5.828-0.742-6.953-2.702c-2.694-4.694,4.832-13.041,11.621-19.217
				c9.347-8.504,22.821-17.967,37.938-26.644c15.118-8.678,30.084-15.54,42.142-19.322c8.758-2.746,19.762-5.034,22.455-0.342l0,0
				c2.694,4.694-4.832,13.041-11.62,19.217c-9.348,8.504-22.821,17.967-37.939,26.645c-15.118,8.678-30.084,15.539-42.142,19.322
				C187.825,142.575,181.962,144.02,177.423,144.02z M277.707,74.606c-3.648,0-8.82,0.993-15.087,2.959
				c-11.957,3.75-26.817,10.566-41.844,19.191c-15.027,8.626-28.407,18.02-37.676,26.453c-8.759,7.97-12.995,14.459-11.329,17.361
				c1.665,2.901,9.406,2.518,20.705-1.026c11.957-3.751,26.817-10.566,41.844-19.191c15.026-8.625,28.407-18.02,37.676-26.453
				c8.76-7.969,12.994-14.459,11.329-17.361l0,0C282.583,75.247,280.636,74.606,277.707,74.606z"/>
		</g>
		<g>
			<path style="fill:#292953;" d="M218.838,123.801c-29.209,0-56.787-4.541-57.067-13.095c-0.177-5.409,10.386-9.249,19.278-11.518
				c12.245-3.125,28.583-5.159,46.005-5.729c17.426-0.571,33.858,0.393,46.281,2.71c9.021,1.683,19.813,4.825,19.99,10.234
				c0.309,9.449-32.951,16.19-65.284,17.247C224.977,123.751,221.896,123.801,218.838,123.801z M236.762,94.799
				c-3.172,0-6.396,0.053-9.659,0.159c-17.317,0.566-33.54,2.585-45.683,5.683c-11.475,2.928-18.26,6.672-18.15,10.016
				c0.214,6.566,26.275,12.748,64.723,11.494c38.449-1.258,64.048-9.133,63.833-15.7c-0.108-3.344-7.124-6.636-18.766-8.808
				C263.062,95.779,250.425,94.799,236.762,94.799z"/>
		</g>
		<g>
			<path style="fill:#FFFFFF;" d="M189.555,98.772c-7.214,4.876-5.006,14.373-4.778,15.26c-0.211-0.823-2.82-10.27-11.526-11.084
				c7.239-4.916,4.989-14.437,4.778-15.26C178.257,88.576,180.882,97.95,189.555,98.772z"/>
			<path style="fill:#292953;" d="M184.777,114.783c-0.334,0-0.639-0.225-0.726-0.564l0,0c-0.255-0.997-2.73-9.762-10.869-10.523
				c-0.315-0.029-0.578-0.254-0.657-0.56c-0.079-0.306,0.043-0.629,0.305-0.807c6.764-4.594,4.727-13.459,4.473-14.455
				c-0.103-0.401,0.14-0.81,0.541-0.912c0.399-0.104,0.81,0.139,0.912,0.541c0.254,0.996,2.722,9.75,10.87,10.523
				c0.315,0.03,0.578,0.254,0.656,0.561c0.079,0.307-0.044,0.63-0.307,0.807c-6.773,4.577-4.727,13.455-4.471,14.453l0,0
				c0.103,0.401-0.139,0.81-0.54,0.913C184.901,114.775,184.839,114.783,184.777,114.783z M175.06,102.484
				c4.255,0.997,6.902,3.998,8.469,6.68c0.085-3.105,0.963-7.01,4.215-9.929c-4.259-1.002-6.905-4.003-8.471-6.684
				C179.187,95.655,178.309,99.558,175.06,102.484z"/>
		</g>
		<g>
			<path style="fill:#FFFFFF;" d="M222.125,120.528c-7.214,4.876-5.005,14.373-4.778,15.261c-0.211-0.823-2.82-10.27-11.526-11.084
				c7.239-4.916,4.989-14.437,4.778-15.26C210.827,110.332,213.451,119.705,222.125,120.528z"/>
			<path style="fill:#292953;" d="M217.347,136.539c-0.335,0-0.639-0.225-0.726-0.564l0,0c-0.255-0.997-2.73-9.762-10.869-10.523
				c-0.315-0.029-0.578-0.253-0.657-0.56c-0.079-0.307,0.043-0.629,0.305-0.808c6.755-4.588,4.736-13.422,4.474-14.448
				c-0.001-0.002-0.001-0.004-0.001-0.006c-0.103-0.401,0.139-0.81,0.541-0.913c0.402-0.105,0.81,0.139,0.913,0.541l0,0l0,0
				c0.255,0.996,2.724,9.75,10.87,10.523c0.315,0.03,0.578,0.254,0.656,0.561c0.079,0.307-0.044,0.63-0.307,0.807
				c-6.773,4.578-4.727,13.456-4.471,14.453l0,0c0.103,0.401-0.139,0.81-0.54,0.913
				C217.471,136.531,217.408,136.539,217.347,136.539z M207.63,124.24c4.254,0.998,6.902,3.999,8.469,6.68
				c0.085-3.105,0.963-7.01,4.215-9.929c-4.257-1.002-6.903-4.002-8.469-6.681C211.758,117.412,210.88,121.314,207.63,124.24z"/>
		</g>
		<g>
			<path style="fill:#FFFFFF;" d="M278.043,94.709c-7.214,4.876-5.005,14.373-4.778,15.261c-0.211-0.823-2.82-10.27-11.526-11.084
				c7.239-4.916,4.989-14.437,4.778-15.26C266.744,84.513,269.369,93.886,278.043,94.709z"/>
			<path style="fill:#292953;" d="M273.264,110.72c-0.334,0-0.639-0.225-0.725-0.564l0,0c-0.256-0.997-2.73-9.762-10.87-10.523
				c-0.314-0.029-0.577-0.253-0.656-0.56c-0.078-0.307,0.043-0.629,0.305-0.808c6.753-4.586,4.737-13.417,4.475-14.447
				c-0.001-0.002-0.001-0.005-0.002-0.007l0,0c-0.103-0.401,0.139-0.81,0.54-0.913c0.396-0.103,0.809,0.138,0.913,0.541l0,0
				c0,0.001,0.001,0.002,0.001,0.003c0.26,1.012,2.737,9.749,10.87,10.521c0.314,0.03,0.577,0.254,0.655,0.561
				c0.078,0.307-0.044,0.63-0.307,0.807c-6.764,4.571-4.732,13.432-4.472,14.448c0,0.001,0.001,0.003,0.001,0.004
				c0.102,0.401-0.139,0.81-0.54,0.913C273.389,110.713,273.327,110.72,273.264,110.72z M263.548,98.421
				c4.256,0.997,6.902,3.998,8.47,6.68c0.085-3.105,0.963-7.01,4.215-9.929c-4.257-1.002-6.903-4.004-8.47-6.684
				C267.676,91.59,266.798,95.494,263.548,98.421z"/>
		</g>
		<g>
			
				<ellipse transform="matrix(0.7946 -0.6071 0.6071 0.7946 -13.4163 138.433)" style="fill:#7770FA;" cx="197.912" cy="89.047" rx="4.517" ry="4.517"/>
		</g>
		<g>
			<path style="fill:#7770FA;" d="M167.873,125.246c-0.285,2.058-2.184,3.494-4.241,3.209c-2.057-0.285-3.494-2.184-3.209-4.241
				c0.285-2.057,2.184-3.494,4.241-3.209C166.721,121.289,168.158,123.188,167.873,125.246z"/>
		</g>
		<g>
			<path style="fill:#7770FA;" d="M241.136,107.328c-0.183,1.319-1.4,2.241-2.72,2.058c-1.319-0.183-2.241-1.4-2.058-2.72
				c0.183-1.319,1.4-2.24,2.719-2.058C240.397,104.791,241.319,106.009,241.136,107.328z"/>
		</g>
		<g>
			<path style="fill:#7770FA;" d="M293.488,89.774c-0.31,2.239-2.376,3.802-4.615,3.492c-2.239-0.31-3.802-2.376-3.492-4.615
				c0.31-2.238,2.376-3.802,4.615-3.492C292.234,85.469,293.798,87.535,293.488,89.774z"/>
		</g>
		<g>
			<path style="fill:#7770FA;" d="M215.367,88.038c-0.193,1.394-1.479,2.367-2.873,2.174c-1.394-0.193-2.367-1.479-2.174-2.873
				c0.193-1.394,1.48-2.367,2.873-2.174C214.587,85.358,215.56,86.644,215.367,88.038z"/>
		</g>
	</g>
	<g>
		<g>
			<path style="fill:#FFFFFF;" d="M451.581,260.564v99.026c0,2.237-1.813,4.049-4.049,4.049H277.433
				c-2.237,0-4.049-1.813-4.049-4.049v-99.026H451.581z"/>
		</g>
		<g>
			<path style="fill:#9CD9D3;" d="M451.579,252.68v7.886H273.382v-7.886c0-2.238,1.818-4.048,4.048-4.048h170.101
				C449.769,248.632,451.579,250.442,451.579,252.68z"/>
		</g>
		<g>
			<path style="fill:#FFFFFF;" d="M437.692,250.621c2.063,0,3.741,1.677,3.741,3.741c0,2.07-1.677,3.741-3.741,3.741
				c-2.07,0-3.747-1.671-3.747-3.741C433.945,252.299,435.622,250.621,437.692,250.621z"/>
		</g>
		<g>
			<path style="fill:#292953;" d="M422.575,250.621c2.07,0,3.747,1.677,3.747,3.741c0,2.07-1.678,3.741-3.747,3.741
				c-2.063,0-3.741-1.671-3.741-3.741C418.834,252.299,420.511,250.621,422.575,250.621z"/>
		</g>
		<g>
			<path style="fill:#ABABFB;" d="M407.464,250.621c2.07,0,3.747,1.677,3.747,3.741c0,2.07-1.677,3.741-3.747,3.741
				c-2.063,0-3.741-1.671-3.741-3.741C403.723,252.299,405.401,250.621,407.464,250.621z"/>
		</g>
		<g>
			<path style="fill:#292953;" d="M447.532,364.389H277.433c-2.646,0-4.8-2.152-4.8-4.799V252.678c0-2.646,2.153-4.8,4.8-4.8
				h170.099c2.646,0,4.799,2.153,4.799,4.8v106.912C452.331,362.237,450.178,364.389,447.532,364.389z M277.433,249.379
				c-1.819,0-3.3,1.48-3.3,3.3v106.912c0,1.819,1.48,3.299,3.3,3.299h170.099c1.819,0,3.299-1.48,3.299-3.299V252.678
				c0-1.819-1.479-3.3-3.299-3.3H277.433z"/>
		</g>
	</g>
	<g>
		<g>
			<path style="fill:#FFFFFF;" d="M173.647,176.157v96.802c0,2.186-1.772,3.958-3.958,3.958H52.963
				c-2.186,0-3.958-1.772-3.958-3.958v-96.802H173.647z"/>
		</g>
		<g>
			<path style="fill:#9CD9D3;" d="M173.646,168.445v7.709H49.005v-7.709c0-2.188,1.77-3.957,3.957-3.957h116.727
				C171.877,164.488,173.646,166.258,173.646,168.445z"/>
		</g>
		<g>
			<path style="fill:#FFFFFF;" d="M160.069,166.437c2.017,0,3.657,1.64,3.657,3.657c0,2.023-1.64,3.657-3.657,3.657
				c-2.023,0-3.663-1.634-3.663-3.657C156.406,168.077,158.046,166.437,160.069,166.437z"/>
		</g>
		<g>
			<path style="fill:#292953;" d="M145.292,166.437c2.023,0,3.663,1.64,3.663,3.657c0,2.023-1.64,3.657-3.663,3.657
				c-2.017,0-3.657-1.634-3.657-3.657C141.635,168.077,143.275,166.437,145.292,166.437z"/>
		</g>
		<g>
			<path style="fill:#ABABFB;" d="M130.52,166.437c2.023,0,3.663,1.64,3.663,3.657c0,2.023-1.64,3.657-3.663,3.657
				c-2.017,0-3.657-1.634-3.657-3.657C126.864,168.077,128.504,166.437,130.52,166.437z"/>
		</g>
		<g>
			<path style="fill:#292953;" d="M169.689,277.667H52.964c-2.596,0-4.708-2.112-4.708-4.708V168.447
				c0-2.596,2.112-4.708,4.708-4.708h116.725c2.596,0,4.708,2.112,4.708,4.708v104.511
				C174.397,275.554,172.285,277.667,169.689,277.667z M52.964,165.239c-1.769,0-3.208,1.439-3.208,3.208v104.511
				c0,1.769,1.439,3.208,3.208,3.208h116.725c1.769,0,3.208-1.439,3.208-3.208V168.447c0-1.769-1.439-3.208-3.208-3.208H52.964z"/>
		</g>
	</g>
	<g>
		<g>
			<rect x="64.071" y="191.049" style="fill:#7770FA;" width="33.193" height="33.192"/>
		</g>
		<g>
			<rect x="104.741" y="191.049" style="fill:#ABABFB;" width="33.193" height="33.192"/>
		</g>
		<g>
			<rect x="104.741" y="231.678" style="fill:#7770FA;" width="33.193" height="33.192"/>
		</g>
		<g>
			<rect x="64.071" y="231.678" style="fill:#ABABFB;" width="33.193" height="33.192"/>
		</g>
	</g>
	<g>
		<g>
			<path style="fill:#292953;" d="M333.543,457.871h-157.71c0.29-24.21,10.87-42.89,15.66-50.11c8.14,4.44,19.46,7.79,26.03,8.97
				c10.85,1.95,40.04-15.94,40.04-15.94s21.22,11.68,28.54,14.09c3.15,1.04,10.36-1.43,17.54-4.58c0.09-0.04,0.18-0.08,0.27-0.12
				c9.39-4.15,18.65-9.39,18.65-9.39c0.06,0.3,0.22,0.64,0.44,1.01c0.87,1.38,2.81,3.17,5.08,5.11
				C330.383,424.461,333.543,457.871,333.543,457.871z"/>
		</g>
		<g>
			<path style="fill:#292953;" d="M314.403,236.371c1.22-6.88,0.78-14.04-1.26-20.72c-0.32,11.26-6.88,22.14-16.69,27.68
				c-1.69,0.96-3.62,1.78-5.53,1.88c-3.88-1.59-6.6-2.55-7.23-2.56c-2.51-0.05-5.96,1.04-5.96,1.04l-3.88-1.54l-1.86-11.45
				c0,0,5.74-13.99,9.47-29.77c3.44-14.64,5.15-30.82-1.06-38.84c-7.45-9.62-16.52-15.69-25.23-19.06c0.19-2.88,2.31-5.48,4.78-7.09
				c6.99-4.55,16.83-2.89,23.25,2.44c6.42,5.33,9.8,13.6,11.03,21.85c0.87,5.8,0.89,12.02,4.06,16.96
				c2.79,4.34,7.57,6.96,11.04,10.78c2.96,3.28,4.88,7.36,6.35,11.53c4.2,11.94,4.81,25.68-1.04,36.91L314.403,236.371z"/>
		</g>
		<g>
			<path style="fill:#292953;" d="M279.943,200.581c0.44-1.87,0.58-3.82,0.37-5.74c-0.31-2.82-1.38-5.61-3.29-7.73
				c-1.91-2.12-4.68-3.53-7.53-3.53c-1.26,0.02-2.53,0.3-3.67,0.84c-40.57,4.16-52-15.56-52-15.56v-0.01
				c-0.19-2.13-0.98-3.89-0.98-3.89s3.48-4.49,3.39-5.84c-0.05-0.67-0.78-1.76-1.51-2.7c-0.73-0.95-1.46-1.74-1.46-1.74
				s1.72-3.57,0.74-5.56c0,0,11.03-9.18,23.35-9.46c5.22-0.11,11.42,0.9,17.82,3.37c8.71,3.37,17.78,9.44,25.23,19.06
				c6.21,8.02,4.5,24.2,1.06,38.84L279.943,200.581z"/>
		</g>
		<g>
			<path style="fill:#292953;" d="M281.463,200.931c-3.73,15.78-9.47,29.77-9.47,29.77l-2.95-18.14c3.25-1.09,6.14-3.2,8.13-5.96
				c1.31-1.8,2.25-3.86,2.77-6.02L281.463,200.931z"/>
		</g>
		<g>
			<path style="fill:#FFFFFF;" d="M269.043,212.561l2.95,18.14l1.86,11.45l3.88,1.54l2.67,1.06c0,0-18.66,27.42-35.67,27.98
				s-22.94-20.57-22.94-20.57l3.08-0.74c0.24,0.27,0.47,0.53,0.71,0.78c4.43,4.66,11.07,6.47,17.38,5.23c25.4-4.96,25.4-35,25.4-35
				C269.033,219.411,269.313,216.121,269.043,212.561z"/>
		</g>
		<g>
			<path style="fill:#292953;" d="M268.363,222.431c0,0,0,30.04-25.4,35c-6.31,1.24-12.95-0.57-17.38-5.23
				c-0.24-0.25-0.47-0.51-0.71-0.78l2.07-7.79c3.94,3.04,7.5,5.33,9.09,6.04c3.99,1.78,10.43-1.02,14.93-3.54
				C253.673,244.601,265.243,236.551,268.363,222.431z"/>
		</g>
		<g>
			<path style="fill:#FFFFFF;" d="M280.313,194.841c0.21,1.92,0.07,3.87-0.37,5.74c-0.52,2.16-1.46,4.22-2.77,6.02
				c-1.99,2.76-4.88,4.87-8.13,5.96c0.27,3.56-0.01,6.85-0.68,9.87c-3.12,14.12-14.69,22.17-17.4,23.7
				c-4.5,2.52-10.94,5.32-14.93,3.54c-1.59-0.71-5.15-3-9.09-6.04c-5.92-4.55-12.69-10.77-14.9-15.77
				c-1.32-2.98-2.84-8.75-4.25-14.95c0.34-1.7,0.6-3.25,0.65-4.12c0.14-2.64-2.31-15.29-2.31-15.29s7.85-22.45,7.69-24.64
				c0,0,11.43,19.72,52,15.56c1.14-0.54,2.41-0.82,3.67-0.84c2.85,0,5.62,1.41,7.53,3.53
				C278.933,189.231,280.003,192.021,280.313,194.841z"/>
		</g>
		<g>
			<path style="fill:#FFFFFF;" d="M213.823,168.861c0.16,2.19-7.69,24.64-7.69,24.64s2.45,12.65,2.31,15.29
				c-0.05,0.87-0.31,2.42-0.65,4.12c-0.68,3.48-1.66,7.56-1.66,7.56s-4.45,14.66-9.63,32.01c-0.01,0-0.01,0-0.01,0
				c-6.97,23.37-15.29,51.65-15.85,55.56c-0.97,6.81-15.56,20.57-28.63,21.12c-8,0.34-13.75-6.04-16.61-14.71c0-0.01,0-0.01,0-0.01
				c-1.8-5.49-2.44-11.89-1.74-18.08c1.81-15.98,50.21-78.3,50.21-78.3s0.34-28.5,0.02-32.62c-0.33-4.12,5.05-20.34,6.02-22.89
				c0.97-2.55,13.16-14.31,14.92-14.27c1.76,0.05,1.67,3.06,1.67,3.06c3.66-4.26,6.53-4.22,7.5-2.22c0.98,1.99-0.74,5.56-0.74,5.56
				s0.73,0.79,1.46,1.74c0.73,0.94,1.46,2.03,1.51,2.7c0.09,1.35-3.39,5.84-3.39,5.84s0.79,1.76,0.98,3.89V168.861z"/>
		</g>
		<g>
			<path style="fill:#7770FA;" d="M363.983,407.761c-0.93,2.59-10.98,16.75-23.65,12.46l-0.24-0.08c1.13-2.82-6.45-8.48-12.01-13.23
				c-2.27-1.94-4.21-3.73-5.08-5.11c-0.22-0.37-0.38-0.71-0.44-1.01c0,0-9.26,5.24-18.65,9.39c-0.09,0.04-0.18,0.08-0.27,0.12
				c-7.18,3.15-14.39,5.62-17.54,4.58c-7.32-2.41-28.54-14.09-28.54-14.09s-29.19,17.89-40.04,15.94
				c-6.57-1.18-17.89-4.53-26.03-8.97c-5.3-2.89-9.24-6.24-9.65-9.75c-1.03-8.89,6.03-23.91,5.89-24.83
				c-0.15-0.93-1.71-25.58-1.71-25.58s-1.56-8.88-2.92-16.84c-1.25,7.25-16.91,5.72-16.91,5.72s-6.67,4.45-19.65-3.73
				c-12.7-8.01-11.21-17.89-11.14-18.3c2.86,8.67,8.61,15.05,16.61,14.71c13.07-0.55,27.66-14.31,28.63-21.12
				c0.56-3.91,8.88-32.19,15.85-55.56c0,0,0,0,0.01,0c0.56-0.12,21.23-4.58,23.02-4.21c1.81,0.37,5.35,3.15,5.35,3.15l-3.08,0.74
				c0,0,5.93,21.13,22.94,20.57s35.67-27.98,35.67-27.98l-2.67-1.06c0,0,3.45-1.09,5.96-1.04c0.63,0.01,3.35,0.97,7.23,2.56
				c11.64,4.77,33.72,15.19,40.95,22.7c9.64,10.01,20.48,84.05,22.98,90.63c2.5,6.58,7.6,11.3,7.6,13.71
				c0,2.41-3.52,13.35-3.52,13.35S364.913,405.161,363.983,407.761z"/>
		</g>
		<g>
			<path style="fill:#292953;" d="M290.923,245.961c-0.098,0-0.194-0.019-0.284-0.056c-4.77-1.954-6.638-2.492-6.959-2.504
				c-2.367-0.044-5.688,0.995-5.722,1.005c-0.163,0.052-0.342,0.046-0.502-0.018l-3.88-1.54c-0.245-0.098-0.422-0.316-0.464-0.577
				l-1.86-11.45c-0.022-0.137-0.006-0.276,0.046-0.405c0.058-0.139,5.762-14.12,9.436-29.657
				c4.364-18.578,4.045-31.791-0.924-38.208c-6.642-8.577-15.256-15.085-24.907-18.819c-0.306-0.119-0.499-0.422-0.478-0.749
				c0.187-2.835,2.1-5.701,5.118-7.669c6.864-4.469,17.015-3.422,24.139,2.491c5.862,4.867,9.873,12.792,11.293,22.317
				c0.187,1.249,0.335,2.518,0.484,3.789c0.524,4.493,1.067,9.139,3.465,12.876c1.601,2.489,3.863,4.376,6.259,6.374
				c1.606,1.34,3.268,2.725,4.705,4.307c2.63,2.913,4.695,6.658,6.502,11.785c4.728,13.439,4.333,27.109-1.082,37.506
				c-0.15,0.288-0.472,0.448-0.788,0.393l-0.24-0.04c-0.198-0.033-0.374-0.144-0.489-0.308c-0.116-0.163-0.161-0.366-0.126-0.564
				c0.949-5.352,0.877-10.89-0.194-16.23c-1.651,9.91-7.874,19.02-16.648,23.975c-2.178,1.237-4.095,1.884-5.859,1.976
				C290.95,245.961,290.936,245.961,290.923,245.961z M283.524,241.899c0.062,0,0.123,0.001,0.184,0.002
				c0.941,0.015,4.476,1.379,7.341,2.55c1.483-0.111,3.133-0.691,5.034-1.772c9.596-5.419,15.998-16.035,16.311-27.049
				c0.011-0.367,0.286-0.673,0.649-0.722c0.361-0.05,0.71,0.171,0.818,0.524c1.654,5.419,2.272,11.146,1.828,16.783
				c3.528-9.441,3.311-21.024-0.713-32.464c-1.739-4.934-3.709-8.517-6.199-11.277c-1.366-1.503-2.987-2.855-4.555-4.162
				c-2.377-1.982-4.835-4.032-6.56-6.714c-2.585-4.029-3.148-8.85-3.693-13.512c-0.146-1.255-0.293-2.508-0.477-3.742
				c-1.365-9.159-5.19-16.753-10.769-21.384c-6.628-5.504-16.033-6.509-22.361-2.389c-1.895,1.235-3.968,3.417-4.379,5.974
				c9.688,3.864,18.327,10.455,25.013,19.089c5.331,6.884,5.733,20.164,1.198,39.47c-3.463,14.647-8.717,27.919-9.427,29.686
				l1.758,10.823l3.241,1.286C278.612,242.647,281.329,241.899,283.524,241.899z"/>
		</g>
		<g>
			<path style="fill:#292953;" d="M281.465,201.681c-0.056,0-0.112-0.006-0.169-0.019l-1.521-0.35
				c-0.194-0.045-0.363-0.165-0.469-0.334c-0.105-0.169-0.139-0.374-0.094-0.568c0.433-1.837,0.553-3.683,0.355-5.487
				c-0.313-2.839-1.414-5.436-3.103-7.31c-1.851-2.055-4.458-3.282-6.973-3.282c-1.164,0.018-2.326,0.284-3.349,0.768
				c-0.077,0.037-0.16,0.059-0.245,0.068c-40.582,4.164-52.247-15.107-52.725-15.93c-0.066-0.114-0.101-0.244-0.101-0.376
				c-0.173-1.913-0.907-3.577-0.914-3.593c-0.113-0.252-0.078-0.547,0.092-0.766c1.786-2.305,3.267-4.746,3.234-5.331
				c-0.01-0.137-0.139-0.726-1.354-2.29c-0.702-0.913-1.412-1.684-1.418-1.691c-0.209-0.226-0.258-0.557-0.125-0.834
				c0.433-0.903,1.412-3.545,0.743-4.903c-0.153-0.311-0.073-0.687,0.193-0.908c0.459-0.381,11.374-9.35,23.813-9.633
				c5.716-0.118,11.995,1.062,18.107,3.42c9.907,3.833,18.743,10.507,25.553,19.301c5.331,6.884,5.733,20.164,1.198,39.47
				C282.113,201.448,281.804,201.681,281.465,201.681z M280.831,200.016l0.071,0.017c4.187-18.196,3.812-31.149-1.092-37.482
				c-6.642-8.577-15.256-15.085-24.907-18.82c-5.931-2.288-11.988-3.436-17.534-3.319c-10.596,0.241-20.373,7.338-22.473,8.96
				c0.509,1.818-0.325,4.162-0.75,5.172c0.289,0.329,0.728,0.844,1.172,1.421c1.419,1.828,1.629,2.645,1.663,3.101
				c0.093,1.39-2.225,4.62-3.281,6.012c0.248,0.652,0.693,1.986,0.854,3.537c1.101,1.686,13.359,18.901,51.068,15.074
				c1.185-0.54,2.517-0.835,3.859-0.856c2.944,0,5.968,1.412,8.1,3.778c1.896,2.106,3.132,5,3.478,8.15
				C281.248,196.491,281.172,198.256,280.831,200.016z"/>
		</g>
		<g>
			<path style="fill:#292953;" d="M271.993,231.451c-0.028,0-0.057-0.002-0.085-0.005c-0.334-0.038-0.602-0.293-0.655-0.625
				l-2.949-18.14c-0.059-0.362,0.153-0.714,0.502-0.831c3.112-1.044,5.868-3.064,7.76-5.688c1.236-1.699,2.151-3.688,2.648-5.756
				c0.097-0.4,0.496-0.651,0.897-0.556l1.521,0.35c0.194,0.045,0.363,0.165,0.469,0.335c0.105,0.169,0.139,0.374,0.093,0.568
				c-3.701,15.657-9.448,29.742-9.506,29.883C272.57,231.269,272.295,231.451,271.993,231.451z M269.884,213.058l2.409,14.818
				c1.768-4.638,5.528-15.04,8.265-26.383l-0.075-0.018c-0.571,1.999-1.498,3.911-2.703,5.567
				C275.831,209.745,273.044,211.864,269.884,213.058z"/>
		</g>
		<g>
			<path style="fill:#292953;" d="M239.011,258.569c-5.341,0-10.37-2.063-13.972-5.852c-0.144-0.15-0.285-0.305-0.428-0.463
				l-2.644,0.636c-0.4,0.097-0.807-0.15-0.904-0.555c-0.097-0.402,0.151-0.808,0.554-0.904l3.08-0.74
				c0.268-0.064,0.552,0.024,0.736,0.231c0.251,0.282,0.466,0.525,0.691,0.759c4.16,4.377,10.399,6.25,16.694,5.014
				c24.488-4.781,24.794-33.97,24.794-34.264c0-0.055,0.006-0.109,0.018-0.162c0.69-3.113,0.914-6.36,0.665-9.651
				c-0.03-0.4,0.261-0.754,0.659-0.801c0.403-0.052,0.765,0.228,0.829,0.624l4.741,29.17l6.154,2.442
				c0.386,0.153,0.573,0.589,0.421,0.974c-0.153,0.386-0.587,0.575-0.974,0.421l-6.55-2.6c-0.245-0.098-0.422-0.316-0.464-0.577
				l-3.583-22.042c-0.112,0.77-0.252,1.533-0.418,2.289c-0.032,1.813-0.978,30.762-26.005,35.649
				C241.734,258.437,240.363,258.569,239.011,258.569z"/>
		</g>
		<g>
			<path style="fill:#292953;" d="M239.011,258.569c-5.341,0-10.37-2.063-13.972-5.852c-0.235-0.245-0.463-0.502-0.701-0.769
				c-0.167-0.188-0.255-0.478-0.191-0.721l2.07-7.79c0.064-0.243,0.246-0.438,0.484-0.518c0.237-0.083,0.5-0.037,0.699,0.116
				c4.14,3.193,7.535,5.322,8.938,5.949c2.869,1.28,7.933,0.032,14.259-3.51c0.134-0.075,13.641-7.854,17.033-23.207
				c0.083-0.374,0.442-0.634,0.813-0.583c0.381,0.041,0.669,0.362,0.669,0.745c0,0.307-0.298,30.716-26.006,35.736
				C241.734,258.437,240.363,258.569,239.011,258.569z M225.702,251.223c0.145,0.161,0.282,0.312,0.423,0.458
				c4.16,4.377,10.399,6.25,16.694,5.014c16.952-3.311,22.315-18.316,24.011-27.336c-5.239,11.52-15.377,17.357-15.498,17.425
				c-4.777,2.676-11.358,5.468-15.605,3.571c-1.69-0.755-4.965-2.897-8.347-5.448L225.702,251.223z"/>
		</g>
		<g>
			<path style="fill:#292953;" d="M238.963,250.977c-1.168,0-2.263-0.188-3.235-0.622c-1.84-0.821-5.554-3.285-9.242-6.131
				c-3.655-2.81-12.449-10-15.128-16.061c-1.179-2.661-2.624-7.737-4.295-15.086c-0.023-0.103-0.025-0.21-0.004-0.314
				c0.367-1.834,0.593-3.26,0.637-4.015c0.11-2.087-1.621-11.611-2.297-15.104c-0.025-0.13-0.016-0.265,0.028-0.39
				c3.015-8.623,7.758-22.856,7.65-24.338c-0.025-0.348,0.193-0.667,0.526-0.77c0.333-0.102,0.694,0.037,0.87,0.338
				c0.112,0.193,11.714,19.208,51.15,15.204c1.185-0.54,2.517-0.835,3.859-0.856c2.944,0,5.968,1.412,8.1,3.778
				c1.896,2.105,3.132,5,3.478,8.15c0,0.001,0,0.001,0,0.001c0.216,1.974,0.087,3.991-0.385,5.994
				c-0.545,2.262-1.545,4.435-2.893,6.289c-1.96,2.718-4.768,4.846-7.949,6.036c0.193,3.242-0.054,6.44-0.735,9.516
				c-3.535,15.999-17.621,24.11-17.764,24.19C247.649,248.846,242.893,250.977,238.963,250.977z M208.56,212.9
				c1.635,7.17,3.038,12.101,4.169,14.657c2.54,5.745,11.106,12.738,14.671,15.479c4.141,3.194,7.536,5.323,8.938,5.95
				c2.869,1.28,7.933,0.032,14.259-3.51c0.134-0.075,13.641-7.854,17.033-23.207c0.69-3.113,0.914-6.36,0.665-9.651
				c-0.025-0.342,0.184-0.659,0.51-0.768c3.112-1.044,5.868-3.064,7.76-5.688c1.236-1.699,2.151-3.688,2.648-5.756
				c0.432-1.833,0.552-3.679,0.354-5.483l0,0c-0.313-2.84-1.414-5.436-3.103-7.31c-1.851-2.055-4.458-3.282-6.973-3.282
				c-1.164,0.018-2.326,0.284-3.349,0.768c-0.077,0.037-0.16,0.059-0.245,0.068c-34.362,3.523-47.993-9.751-51.653-14.402
				c-1.302,5.398-6.096,19.236-7.338,22.792c0.323,1.686,2.419,12.726,2.284,15.273C209.134,209.848,208.823,211.574,208.56,212.9z"
				/>
		</g>
		<g>
			<path style="fill:#292953;" d="M151.43,329.923c-7.349,0-13.576-5.647-16.739-15.237c-0.007-0.022-0.013-0.045-0.019-0.067
				c-1.833-5.622-2.457-12.134-1.754-18.342c1.779-15.711,46.679-73.923,50.208-78.477c0.033-2.831,0.317-28.466,0.02-32.301
				c-0.366-4.566,5.513-21.759,6.066-23.215c1.002-2.632,13.267-14.753,15.623-14.753c0.005,0,0.01,0,0.015,0
				c0.569,0.017,1.073,0.243,1.461,0.655c0.381,0.404,0.609,0.944,0.745,1.465c1.906-1.862,3.757-2.764,5.308-2.563
				c1.023,0.133,1.844,0.738,2.313,1.705c0.917,1.862-0.06,4.627-0.532,5.749c0.289,0.329,0.728,0.844,1.172,1.421
				c1.419,1.828,1.629,2.645,1.663,3.101c0.093,1.39-2.225,4.62-3.281,6.012c0.257,0.675,0.726,2.083,0.871,3.708
				c0.001,0.004,0.001,0.018,0.001,0.022c0.16,2.197-6.204,20.572-7.663,24.751c0.323,1.686,2.419,12.726,2.284,15.273
				c-0.061,1.059-0.395,2.883-0.664,4.228c-0.674,3.452-1.656,7.547-1.665,7.588c-0.056,0.189-4.521,14.899-9.641,32.05
				c-0.012,0.038-0.026,0.075-0.043,0.11c-10.044,33.676-15.357,52.296-15.794,55.341c-1.054,7.402-16.248,21.212-29.34,21.763
				C151.839,329.919,151.634,329.923,151.43,329.923z M136.134,314.271c3.079,9.285,8.856,14.435,15.848,14.141
				c12.992-0.547,27.055-14.411,27.919-20.477c0.447-3.122,5.788-21.852,15.874-55.668c0.012-0.039,0.026-0.076,0.043-0.111
				c5.107-17.106,9.554-31.756,9.598-31.902l0,0c-0.001,0,0.973-4.064,1.641-7.486c0.368-1.838,0.594-3.264,0.637-4.019
				c0.111-2.087-1.621-11.611-2.297-15.104c-0.025-0.13-0.016-0.265,0.028-0.39c3.015-8.623,7.758-22.856,7.65-24.338
				c-0.001-0.018-0.002-0.037-0.002-0.055v-0.01c-0.174-1.914-0.907-3.566-0.914-3.582c-0.114-0.253-0.079-0.547,0.091-0.767
				c1.786-2.305,3.267-4.746,3.234-5.331c-0.01-0.137-0.139-0.726-1.354-2.29c-0.702-0.913-1.412-1.684-1.418-1.691
				c-0.209-0.226-0.258-0.557-0.125-0.834c0.433-0.903,1.412-3.545,0.743-4.903c-0.25-0.516-0.639-0.809-1.159-0.876
				c-0.624-0.084-2.368,0.075-5.1,3.254c-0.207,0.24-0.542,0.323-0.839,0.211c-0.296-0.114-0.488-0.403-0.479-0.72
				c0.012-0.478-0.111-2.266-0.942-2.29c-1.759,0.326-13.342,11.538-14.197,13.787c-1.227,3.226-6.276,18.783-5.974,22.563
				c0.319,4.108-0.004,31.524-0.018,32.689c-0.002,0.164-0.057,0.322-0.158,0.451c-0.482,0.622-48.291,62.334-50.057,77.924
				c-0.681,6.02-0.074,12.328,1.708,17.763C136.123,314.228,136.129,314.25,136.134,314.271z"/>
		</g>
		<g>
			<g>
				<path style="fill:#AFDBD5;" d="M224.781,202.988c0,0,3.438,3.735,4.983,9.129c1.544,5.394-1.043,9.907-3.162,10.254
					c-2.119,0.347-6.572-0.854-7.078-3.738c0,0,0.237-2.131,1.36-4.118C222.006,212.528,224.781,202.988,224.781,202.988z"/>
			</g>
			<g>
				<path style="fill:#292953;" d="M228.924,223.272c-2.987,0-5.881-0.695-8.394-2.02c-1.661-0.874-2.253-2.825-1.408-4.637
					c2.395-5.134,4.213-10.453,5.405-15.809c0.089-0.404,0.485-0.658,0.895-0.569c0.404,0.09,0.659,0.491,0.569,0.895
					c-1.215,5.461-3.069,10.884-5.51,16.117c-0.503,1.079-0.195,2.18,0.748,2.677c2.397,1.263,5.183,1.916,8.053,1.842
					c0.426,0.003,0.757,0.32,0.765,0.735c0.008,0.414-0.321,0.756-0.735,0.765C229.184,223.271,229.054,223.272,228.924,223.272z"/>
			</g>
			<g>
				<path style="fill:#292953;" d="M236.427,197.868c0.617,2.588,2.943,4.251,5.195,3.715c2.252-0.537,3.577-3.071,2.96-5.659
					c-0.617-2.589-2.943-4.252-5.195-3.715C237.135,192.746,235.81,195.28,236.427,197.868z"/>
			</g>
			<g>
				<path style="fill:#292953;" d="M210.769,203.984c0.617,2.589,2.943,4.252,5.195,3.715c2.252-0.537,3.578-3.07,2.961-5.659
					c-0.617-2.589-2.943-4.252-5.195-3.715C211.478,198.863,210.152,201.396,210.769,203.984z"/>
			</g>
			<g>
				<path style="fill:#292953;" d="M244.364,194.402c-2.88,0.436-5.718,0.356-8.569-0.235c-0.514-0.106-1.051-0.606-1.294-1.049
					c-0.264-0.481-0.364-1.181-0.178-1.708c0.186-0.529,0.531-1.038,1.049-1.294c0.56-0.276,1.098-0.305,1.708-0.178
					c0.153,0.032,0.307,0.058,0.461,0.086c1.714,0.265,3.448,0.317,5.175,0.159c0.208-0.026,0.416-0.049,0.623-0.08
					c0.591-0.089,1.147-0.055,1.67,0.267c0.462,0.284,0.888,0.829,0.992,1.37C246.211,192.836,245.588,194.217,244.364,194.402z"/>
			</g>
			<g>
				<path style="fill:#292953;" d="M210.094,202.122c2.767-0.91,5.264-2.262,7.542-4.076c0.411-0.327,0.664-1.015,0.682-1.52
					c0.019-0.548-0.208-1.218-0.612-1.605c-0.405-0.388-0.942-0.688-1.52-0.682c-0.625,0.006-1.117,0.223-1.605,0.612
					c-0.122,0.097-0.248,0.19-0.373,0.285c-1.41,1.01-2.934,1.838-4.546,2.477c-0.197,0.071-0.393,0.144-0.592,0.21
					c-0.567,0.187-1.048,0.468-1.37,0.992c-0.284,0.462-0.419,1.14-0.267,1.67C207.74,201.557,208.919,202.509,210.094,202.122z"/>
			</g>
			<g>
				<path style="fill:#292953;" d="M269.363,208.477c-0.367,0-0.688-0.27-0.741-0.643c-0.858-5.958,0.879-12.316,4.648-17.01
					c0.261-0.324,0.732-0.372,1.055-0.115c0.323,0.26,0.374,0.731,0.115,1.055c-3.514,4.375-5.134,10.303-4.334,15.857
					c0.06,0.41-0.225,0.79-0.635,0.849C269.434,208.475,269.398,208.477,269.363,208.477z"/>
			</g>
			<g>
				<path style="fill:#292953;" d="M232.082,236.47c-1.811,0-3.146-0.633-4.376-3.164c-0.896-1.844-0.922-3.718-0.076-5.274
					c0.897-1.65,2.715-2.757,4.989-3.037c4.376-0.544,9.419,2.076,11.243,5.831c0.507,1.045,0.551,1.961,0.131,2.725
					c-0.937,1.702-3.831,2.028-6.896,2.374c-0.403,0.046-0.805,0.092-1.198,0.14c-0.418,0.052-0.811,0.104-1.18,0.154
					C233.732,236.352,232.863,236.47,232.082,236.47z M233.821,226.421c-0.342,0-0.683,0.021-1.019,0.062
					c-1.813,0.224-3.182,1.028-3.854,2.266c-0.609,1.12-0.571,2.506,0.107,3.903c1.286,2.646,2.256,2.516,5.464,2.08
					c0.374-0.051,0.772-0.105,1.196-0.156c0.398-0.05,0.806-0.096,1.214-0.142c2.312-0.261,5.188-0.585,5.749-1.607
					c0.065-0.116,0.259-0.47-0.166-1.345C241.086,228.545,237.341,226.421,233.821,226.421z"/>
			</g>
			<g>
				<circle style="fill:#AFDBD5;" cx="251.749" cy="211.209" r="8.222"/>
			</g>
		</g>
		<g>
			<path style="fill:#292953;" d="M199.273,187.211c-0.087,0-0.177-0.015-0.263-0.048c-0.388-0.145-0.585-0.578-0.439-0.965
				l2.502-6.672c0.319-0.627,6.975-13.441,8.056-14.994c0.374-0.538,0.895-0.874,1.505-0.972c1.279-0.206,2.524,0.697,2.662,0.801
				c0.331,0.249,0.397,0.719,0.148,1.05c-0.249,0.33-0.717,0.397-1.048,0.149l0,0c-0.22-0.164-0.972-0.609-1.527-0.52
				c-0.129,0.021-0.322,0.081-0.508,0.347c-0.821,1.18-5.54,10.161-7.919,14.746l-2.465,6.589
				C199.862,187.025,199.576,187.211,199.273,187.211z"/>
		</g>
		<g>
			<path style="fill:#292953;" d="M194.454,181.373c-0.092,0-0.185-0.017-0.275-0.052c-0.385-0.152-0.575-0.587-0.423-0.973
				c0.195-0.496,4.811-12.172,7.39-14.799c2.479-2.525,11.502-11.317,11.593-11.406c0.298-0.289,0.772-0.282,1.061,0.014
				c0.289,0.297,0.283,0.771-0.014,1.061c-0.091,0.088-9.102,8.869-11.57,11.382c-1.964,2.001-5.766,11-7.065,14.298
				C195.036,181.193,194.753,181.373,194.454,181.373z"/>
		</g>
		<g>
			<path style="fill:#292953;" d="M190.562,176.121c-0.103,0-0.207-0.021-0.308-0.066c-0.377-0.17-0.546-0.614-0.375-0.992
				c0.195-0.433,4.785-10.621,5.658-12.46c0.907-1.91,9.456-10.778,10.427-11.783c0.288-0.296,0.763-0.305,1.061-0.018
				c0.298,0.288,0.306,0.763,0.018,1.061c-3.748,3.875-9.543,10.105-10.15,11.384c-0.866,1.825-5.598,12.327-5.646,12.433
				C191.121,175.957,190.848,176.121,190.562,176.121z"/>
		</g>
		<g>
			<path style="fill:#292953;" d="M257.563,401.541c-0.191,0-0.383-0.073-0.529-0.219c-0.294-0.293-0.294-0.768-0.002-1.06
				l20.521-20.576c0.292-0.294,0.767-0.294,1.061-0.002c0.294,0.293,0.294,0.768,0.002,1.061l-20.521,20.576
				C257.948,401.467,257.756,401.541,257.563,401.541z"/>
		</g>
		<g>
			<path style="fill:#292953;" d="M264.323,399.62c-0.313,0-0.605-0.197-0.711-0.511c-0.132-0.393,0.079-0.817,0.472-0.95
				l13.761-4.639c0.394-0.13,0.818,0.079,0.95,0.472c0.132,0.393-0.079,0.817-0.472,0.95l-13.761,4.639
				C264.483,399.607,264.402,399.62,264.323,399.62z"/>
		</g>
		<g>
			<path style="fill:#292953;" d="M183.103,331.511c-0.396,0-0.727-0.31-0.748-0.709c-1.248-22.996,11.587-47.155,11.717-47.396
				c0.197-0.364,0.652-0.503,1.016-0.305c0.365,0.195,0.501,0.65,0.306,1.016c-0.128,0.237-12.765,24.035-11.541,46.604
				c0.023,0.414-0.295,0.768-0.708,0.79C183.13,331.511,183.116,331.511,183.103,331.511z"/>
		</g>
		<g>
			<path style="fill:#292953;" d="M166.193,337.231c-0.267,0-0.526-0.144-0.662-0.396c-0.195-0.365-0.058-0.819,0.307-1.016
				c0.088-0.047,8.799-4.773,11.531-10.767c0.173-0.376,0.619-0.543,0.994-0.371c0.377,0.172,0.543,0.617,0.372,0.994
				c-2.944,6.456-11.812,11.265-12.188,11.466C166.435,337.203,166.313,337.231,166.193,337.231z"/>
		</g>
		<g>
			<path style="fill:#292953;" d="M351.141,385.99c-2.331,0-8.21-0.232-10.58-2.463c-0.709-0.668-1.078-1.464-1.097-2.363
				c-0.097-4.733,11.677-16.137,13.02-17.422c0.299-0.286,0.773-0.277,1.06,0.023c0.286,0.3,0.275,0.774-0.023,1.061
				c-3.517,3.365-12.627,12.853-12.557,16.307c0.01,0.489,0.215,0.915,0.626,1.303c2.05,1.932,8.242,2.125,10.456,2.041
				c0.384-0.031,0.763,0.305,0.778,0.72c0.017,0.414-0.306,0.763-0.72,0.778C352.039,385.977,351.687,385.99,351.141,385.99z"/>
		</g>
		<g>
			<path style="fill:#292953;" d="M247.089,346.872c-0.061,0-0.122-0.007-0.183-0.022c-19.667-4.916-44.555-3.33-44.804-3.315
				c-0.421,0.027-0.77-0.285-0.798-0.698c-0.027-0.413,0.285-0.771,0.699-0.798c0.251-0.017,25.368-1.618,45.267,3.357
				c0.402,0.101,0.646,0.508,0.546,0.909C247.73,346.644,247.424,346.872,247.089,346.872z"/>
		</g>
		<g>
			<path style="fill:#FFFFFF;" d="M292.911,292.255c1.497,0.625,2.192,2.336,1.565,3.824l-6.486,15.402
				c-0.625,1.497-2.336,2.192-3.824,1.565l-8.201-3.455c-1.488-0.627-2.182-2.337-1.556-3.826l6.477-15.4
				c0.627-1.488,2.347-2.184,3.824-1.565L292.911,292.255z"/>
		</g>
		<g>
			<path style="fill:#D8D8D8;" d="M281.32,285.179c0.458-0.08,0.947-0.04,1.406,0.159
				C282.269,285.148,281.778,285.099,281.32,285.179z"/>
		</g>
		<g>
			<path style="fill:#292953;" d="M292.911,292.255l-8.201-3.455c-1.477-0.619-3.197,0.077-3.824,1.565l-6.477,15.4
				c-0.627,1.488,0.067,3.199,1.556,3.826l8.201,3.455c1.488,0.627,3.199-0.067,3.824-1.565l6.486-15.402
				C295.102,294.59,294.408,292.88,292.911,292.255z M286.733,326.691c3.003,3.891,11.924,7.383,11.924,7.383l3.887,4.479
				c-0.917-0.447-30.292-14.845-32.473-15.737c-2.213-0.915-5.703,3.445-1.867,7.74c3.618,4.044,16.213,10.741,17.616,11.488
				c-1.659-0.722-19.456-8.448-21.31-8.076c-1.938,0.387-2.76,5.168,2.16,9.273c4.603,3.833,22.103,12.006,24.308,13.038
				c-2.344-0.892-21.92-8.365-23.67-7.345c-1.863,1.087-1.676,5.248,2.523,8.313c4.199,3.065,10.953,5.413,10.953,5.413l5.369,5.675
				c0,0-0.196,3.678,2.881,6.611c-0.683,0.891-1.895,1.238-2.976,0.79l-35.141-14.789c-1.291-0.546-1.886-2.023-1.348-3.302
				l29.864-70.96c0.04-0.103,0.091-0.199,0.151-0.296c0.377-0.654,1.025-1.085,1.736-1.21c0.458-0.08,0.949-0.031,1.406,0.159
				l35.151,14.787c1.28,0.538,1.886,2.023,1.348,3.302l-10.244,24.35c-5.631-2.93-17.951-7.998-20.203-8.858
				C285.949,317.843,283.728,322.791,286.733,326.691z"/>
		</g>
		<g>
			<path style="fill:#FFFFFF;" d="M288.778,318.92c2.252,0.86,14.572,5.928,20.203,8.858c0.455,0.229,0.859,0.447,1.214,0.655
				c0.761,0.436,1.294,0.786,1.502,1.039c1.573,1.827,5.181,9.458,4.965,13.073c-0.218,3.605-5.094,14.821-5.094,14.821
				s40.264,28.432,43.32,36.208c1.507,3.824,1.666,8.54,0.758,12.834c-0.932,4.434-3.019,8.433-5.959,10.586
				c-2.369,1.725-6.596,2.859-11.437,3.127c-6.979,0.391-15.236-1.01-21.045-4.96c-3.249-2.209-6.778-7.01-10.036-12.466
				c-6.635-11.046-12.19-24.738-12.19-24.738c-2.08-0.485-3.677-1.237-4.891-2.115c-0.388-0.289-0.748-0.583-1.053-0.896
				c-3.077-2.933-2.881-6.611-2.881-6.611l-5.369-5.675c0,0-6.754-2.348-10.953-5.413c-4.199-3.065-4.386-7.226-2.523-8.313
				c1.75-1.019,21.325,6.454,23.67,7.345c-2.205-1.032-19.705-9.205-24.308-13.038c-4.921-4.105-4.098-8.886-2.16-9.273
				c1.854-0.372,19.651,7.354,21.31,8.076c-1.403-0.748-13.998-7.445-17.616-11.488c-3.836-4.295-0.346-8.655,1.867-7.74
				c2.18,0.892,31.556,15.29,32.473,15.737l-3.887-4.479c0,0-8.921-3.493-11.924-7.383
				C283.728,322.791,285.949,317.843,288.778,318.92z"/>
		</g>
		<g>
			<path style="fill:#FFFFFF;" d="M283.266,284.068l35.151,14.787c1.977,0.831,2.908,3.126,2.078,5.103l-10.299,24.475
				c-0.355-0.208-0.759-0.426-1.214-0.655l10.244-24.35c0.538-1.28-0.069-2.765-1.348-3.302l-35.151-14.787
				c-0.459-0.199-0.948-0.239-1.406-0.159c-0.711,0.124-1.359,0.556-1.736,1.21c-0.06,0.097-0.111,0.193-0.151,0.296l-29.864,70.96
				c-0.538,1.28,0.058,2.757,1.348,3.302l35.141,14.789c1.081,0.447,2.293,0.101,2.976-0.79c0.305,0.313,0.665,0.607,1.053,0.896
				c-1.059,1.332-2.914,1.859-4.559,1.163l-35.151-14.787c-1.979-0.84-2.918-3.125-2.079-5.113l29.854-70.958
				C278.993,284.169,281.278,283.23,283.266,284.068z"/>
		</g>
		<g>
			<path style="fill:#292953;" d="M285.301,314.027c-0.483,0-0.967-0.097-1.427-0.29l-8.201-3.455
				c-0.904-0.381-1.605-1.091-1.975-1.999c-0.369-0.906-0.362-1.904,0.019-2.809l6.478-15.4c0.786-1.866,2.941-2.749,4.805-1.966
				l8.201,3.455c0.907,0.379,1.611,1.087,1.981,1.993c0.372,0.908,0.366,1.907-0.016,2.814l-6.486,15.401
				c-0.378,0.906-1.086,1.61-1.993,1.982C286.24,313.936,285.771,314.027,285.301,314.027z M283.586,289.323
				c-0.849,0-1.657,0.502-2.008,1.333l-6.478,15.4c-0.226,0.535-0.23,1.126-0.012,1.662c0.218,0.536,0.632,0.956,1.167,1.181
				l8.201,3.455c0.537,0.227,1.127,0.229,1.662,0.011c0.535-0.219,0.953-0.636,1.178-1.174l6.487-15.403
				c0.227-0.536,0.229-1.127,0.011-1.663c-0.219-0.535-0.636-0.954-1.173-1.178c-0.001-0.001-0.001-0.001-0.002-0.001l-8.201-3.455
				C284.146,289.377,283.864,289.323,283.586,289.323z"/>
		</g>
		<g>
			<path style="fill:#292953;" d="M282.726,286.089c-0.097,0-0.194-0.018-0.288-0.058c-0.317-0.132-0.658-0.172-0.989-0.112
				c-0.401,0.066-0.796-0.202-0.868-0.61c-0.007-0.044-0.011-0.087-0.011-0.13c0-0.358,0.257-0.674,0.621-0.738
				c0.001,0,0.003,0,0.004,0c0.627-0.11,1.26-0.037,1.83,0.211c0.378,0.163,0.553,0.602,0.392,0.982
				C283.296,285.918,283.018,286.089,282.726,286.089z"/>
		</g>
		<g>
			<path style="fill:#292953;" d="M287.031,376.679c-0.423,0-0.85-0.081-1.259-0.25l-35.145-14.79
				c-1.662-0.703-2.446-2.625-1.749-4.284l29.864-70.961c0.049-0.126,0.119-0.262,0.203-0.398c0.471-0.815,1.294-1.389,2.246-1.556
				c0.615-0.105,1.244-0.036,1.823,0.206l35.153,14.788c0.804,0.338,1.429,0.971,1.76,1.781c0.331,0.81,0.327,1.699-0.011,2.504
				l-10.244,24.35c-0.081,0.193-0.239,0.344-0.437,0.414c-0.199,0.071-0.416,0.057-0.602-0.04c-5.58-2.904-17.77-7.923-20.124-8.821
				c-0.832-0.319-1.418,0.169-1.762,0.633c-0.959,1.29-1.082,3.823,0.578,5.979l0,0c2.844,3.684,11.518,7.109,11.605,7.143
				c0.113,0.044,0.214,0.115,0.293,0.207l3.887,4.479c0.233,0.268,0.245,0.665,0.028,0.948c-0.217,0.283-0.603,0.374-0.924,0.217
				l-0.876-0.429c-19.08-9.341-30.285-14.77-31.552-15.288c-0.548-0.228-1.35,0.162-1.896,0.934
				c-0.886,1.249-1.122,3.379,0.873,5.612c3.25,3.632,14.122,9.574,17.377,11.31c0.355,0.189,0.514,0.634,0.339,0.996
				c-0.175,0.361-0.587,0.532-0.959,0.37c-9.387-4.088-19.586-8.123-20.878-8.026c-0.331,0.067-0.641,0.483-0.794,1.086
				c-0.398,1.567,0.227,4.309,3.303,6.874c4.176,3.477,19.506,10.765,24.104,12.915c0.365,0.171,0.551,0.609,0.394,0.982
				c-0.158,0.371-0.559,0.561-0.938,0.418l-0.117-0.045c-15.399-5.858-21.987-7.604-22.958-7.331
				c-0.391,0.234-0.665,0.801-0.702,1.53c-0.073,1.431,0.766,3.628,3.339,5.507c4.058,2.961,10.69,5.286,10.757,5.31
				c0.113,0.039,0.216,0.105,0.299,0.192l5.369,5.676c0.142,0.149,0.215,0.351,0.204,0.556c-0.002,0.031-0.124,3.385,2.649,6.028
				c0.277,0.265,0.311,0.695,0.078,0.999C288.999,376.226,288.028,376.679,287.031,376.679z M281.75,285.892
				c-0.101,0-0.201,0.009-0.301,0.026c-0.514,0.089-0.957,0.397-1.216,0.846c-0.046,0.075-0.077,0.131-0.101,0.191l-29.872,70.98
				c-0.377,0.898,0.049,1.94,0.949,2.321l35.141,14.787c0.537,0.224,1.139,0.165,1.612-0.126c-2.26-2.512-2.535-5.325-2.56-6.286
				l-5.039-5.327c-1.114-0.398-7.061-2.597-10.975-5.453c-3.056-2.23-4.045-4.972-3.952-6.794c0.064-1.245,0.608-2.256,1.494-2.772
				c0.376-0.221,1.333-0.774,11.096,2.503c-4.942-2.541-9.698-5.19-11.835-6.971c-3.612-3.014-4.303-6.406-3.797-8.396
				c0.302-1.185,1.037-2.003,1.969-2.188c1.042-0.211,5.755,1.493,10.756,3.499c-3.093-1.959-5.998-4.026-7.474-5.676
				c-2.586-2.895-2.144-5.839-0.978-7.48c0.977-1.379,2.462-1.96,3.69-1.453c1.56,0.639,16.216,7.781,29.2,14.134l-1.348-1.553
				c-1.309-0.526-9.176-3.805-12.071-7.555l0,0c-2.134-2.769-1.914-6.014-0.595-7.789c0.897-1.208,2.203-1.635,3.5-1.141
				c2.274,0.868,13.661,5.555,19.559,8.522l9.931-23.604c0.379-0.9-0.047-1.941-0.948-2.32l-35.15-14.787
				C282.216,285.938,281.983,285.892,281.75,285.892z M285.301,314.027c-0.483,0-0.967-0.097-1.427-0.29l-8.201-3.455
				c-0.904-0.381-1.605-1.091-1.975-1.999c-0.369-0.906-0.362-1.904,0.019-2.809l6.478-15.4c0.786-1.866,2.941-2.749,4.805-1.966
				l8.2,3.454c0.907,0.379,1.612,1.088,1.982,1.994c0.372,0.908,0.366,1.907-0.016,2.814l-6.486,15.401
				c-0.378,0.906-1.086,1.61-1.993,1.983C286.24,313.936,285.771,314.027,285.301,314.027z M283.586,289.323
				c-0.849,0-1.657,0.502-2.008,1.333l-6.478,15.4c-0.226,0.535-0.23,1.126-0.012,1.662c0.218,0.536,0.632,0.956,1.167,1.181
				l8.201,3.455c0.537,0.227,1.127,0.229,1.662,0.011c0.535-0.219,0.953-0.636,1.178-1.174l6.487-15.403
				c0.227-0.536,0.229-1.127,0.011-1.663c-0.219-0.535-0.636-0.954-1.173-1.178c-0.001-0.001-0.001-0.001-0.002-0.001l-8.201-3.455
				C284.146,289.377,283.864,289.323,283.586,289.323z"/>
		</g>
		<g>
			<path style="fill:#292953;" d="M335.922,420.936c-7.286,0-14.305-1.87-19.138-5.155c-2.987-2.031-6.439-6.305-10.258-12.701
				c-5.994-9.98-11.17-22.251-12.096-24.485c-1.861-0.475-3.469-1.196-4.781-2.145c-0.489-0.364-0.851-0.673-1.15-0.979
				c-2.756-2.626-3.07-5.804-3.096-6.838l-5.039-5.327c-1.114-0.398-7.061-2.597-10.975-5.453c-3.056-2.23-4.045-4.972-3.952-6.794
				c0.064-1.245,0.608-2.256,1.494-2.772c0.376-0.221,1.333-0.774,11.096,2.503c-4.942-2.541-9.698-5.19-11.835-6.971
				c-3.612-3.014-4.303-6.406-3.797-8.396c0.302-1.185,1.037-2.003,1.969-2.188c1.051-0.207,5.757,1.493,10.755,3.499
				c-3.092-1.959-5.997-4.026-7.473-5.676c-2.586-2.895-2.144-5.839-0.978-7.48c0.977-1.379,2.462-1.96,3.69-1.453
				c1.56,0.639,16.216,7.781,29.2,14.134l-1.348-1.553c-1.309-0.526-9.176-3.805-12.071-7.555c-2.134-2.769-1.914-6.014-0.595-7.789
				c0.897-1.208,2.203-1.635,3.5-1.141h0.001c2.37,0.905,14.648,5.962,20.282,8.894c0.461,0.231,0.88,0.458,1.247,0.674
				c0.946,0.542,1.441,0.893,1.701,1.209c1.56,1.812,5.373,9.623,5.135,13.594c-0.197,3.265-3.911,12.165-4.913,14.515
				c4.845,3.44,40.138,28.685,43.089,36.195c1.488,3.776,1.777,8.611,0.793,13.265c-1.018,4.851-3.296,8.873-6.249,11.035
				c-2.47,1.799-6.784,2.991-11.839,3.271C337.501,420.914,336.709,420.936,335.922,420.936z M267.906,349.576
				c-0.115,0-0.204,0.01-0.269,0.028c-0.391,0.234-0.665,0.801-0.702,1.53c-0.073,1.431,0.766,3.628,3.339,5.507
				c4.058,2.961,10.69,5.286,10.757,5.31c0.113,0.039,0.216,0.105,0.299,0.192l5.369,5.676c0.142,0.149,0.215,0.351,0.204,0.556
				c-0.002,0.031-0.124,3.385,2.649,6.028c0.262,0.267,0.568,0.527,0.984,0.837c1.229,0.89,2.784,1.56,4.613,1.986
				c0.237,0.056,0.433,0.223,0.524,0.448c0.055,0.137,5.61,13.767,12.138,24.635c3.708,6.209,7.01,10.324,9.815,12.232
				c5.092,3.461,12.78,5.267,20.581,4.831c4.703-0.26,8.829-1.375,11.037-2.984c2.657-1.945,4.723-5.639,5.666-10.133
				c0.925-4.373,0.662-8.895-0.722-12.405c-2.352-5.986-29.19-26.081-43.054-35.871c-0.29-0.205-0.396-0.585-0.255-0.911
				c0.048-0.111,4.824-11.135,5.031-14.567c0.206-3.424-3.334-10.854-4.784-12.538c-0.068-0.083-0.31-0.307-1.307-0.878
				c-0.349-0.204-0.738-0.415-1.178-0.636c-5.59-2.909-17.777-7.928-20.133-8.826l0,0c-0.831-0.319-1.419,0.169-1.763,0.633
				c-0.959,1.29-1.082,3.824,0.578,5.979c2.842,3.68,11.518,7.109,11.605,7.143c0.113,0.044,0.214,0.115,0.293,0.207l3.887,4.479
				c0.233,0.268,0.245,0.665,0.028,0.948c-0.217,0.283-0.603,0.374-0.924,0.217l-0.876-0.429
				c-19.08-9.341-30.285-14.77-31.552-15.288c-0.548-0.228-1.35,0.162-1.896,0.934c-0.886,1.249-1.122,3.379,0.873,5.612
				c3.25,3.632,14.122,9.574,17.377,11.31c0.355,0.189,0.514,0.634,0.339,0.996c-0.175,0.361-0.587,0.532-0.959,0.37
				c-9.387-4.088-19.586-8.123-20.878-8.026c-0.331,0.067-0.641,0.483-0.794,1.086c-0.398,1.567,0.227,4.309,3.303,6.874
				c4.176,3.477,19.506,10.765,24.104,12.915c0.365,0.171,0.551,0.609,0.394,0.982c-0.158,0.371-0.559,0.561-0.938,0.418
				l-0.117-0.045C276.221,351.467,269.52,349.576,267.906,349.576z"/>
		</g>
		<g>
			<path style="fill:#292953;" d="M287.034,378.059c-0.605,0-1.216-0.118-1.797-0.364l-35.149-14.786
				c-2.362-1.003-3.474-3.736-2.481-6.095l29.854-70.958c1.004-2.363,3.736-3.475,6.096-2.48l35.15,14.787
				c1.14,0.479,2.026,1.378,2.495,2.53c0.469,1.151,0.463,2.413-0.017,3.554l-10.3,24.477c-0.084,0.199-0.25,0.353-0.455,0.421
				c-0.205,0.067-0.43,0.044-0.616-0.065c-0.342-0.2-0.731-0.411-1.171-0.632c-0.353-0.177-0.508-0.597-0.354-0.961l10.244-24.35
				c0.183-0.434,0.185-0.915,0.005-1.355c-0.18-0.439-0.519-0.782-0.953-0.965l-35.15-14.787c-0.307-0.134-0.645-0.173-0.986-0.111
				c-0.514,0.089-0.957,0.397-1.216,0.846c-0.046,0.075-0.077,0.131-0.101,0.191l-29.872,70.98c-0.377,0.898,0.049,1.94,0.949,2.321
				l35.141,14.787c0.739,0.307,1.603,0.079,2.089-0.555c0.133-0.173,0.333-0.279,0.551-0.293c0.216-0.015,0.429,0.069,0.581,0.225
				c0.243,0.248,0.55,0.509,0.966,0.818c0.163,0.122,0.27,0.304,0.296,0.505c0.025,0.201-0.03,0.404-0.157,0.563
				C289.777,377.439,288.42,378.059,287.034,378.059z"/>
		</g>
		<g>
			<path style="fill:#292953;" d="M305.588,342.011c-0.178,0-0.355-0.063-0.499-0.19l-3.043-2.708
				c-0.309-0.275-0.337-0.75-0.061-1.06c0.276-0.309,0.75-0.336,1.059-0.061l3.043,2.708c0.309,0.275,0.337,0.75,0.062,1.06
				C306,341.926,305.794,342.011,305.588,342.011z"/>
		</g>
		<g>
			<path style="fill:#292953;" d="M299.176,349.028c-0.229,0-0.456-0.106-0.604-0.304c-0.566-0.764-2.401-2.831-4.065-3.218
				c-2.313-0.537-8.656-2.661-8.925-2.751c-0.393-0.132-0.605-0.557-0.473-0.949c0.131-0.393,0.558-0.602,0.949-0.473
				c0.065,0.022,6.544,2.191,8.788,2.712c2.544,0.591,4.835,3.656,4.932,3.786c0.246,0.333,0.176,0.803-0.157,1.049
				C299.488,348.98,299.331,349.028,299.176,349.028z"/>
		</g>
		<g>
			<path style="fill:#292953;" d="M294.319,358.184c-0.081,0-0.164-0.013-0.245-0.041l-3.34-1.155
				c-0.392-0.136-0.599-0.563-0.464-0.954c0.136-0.392,0.563-0.602,0.954-0.464l3.34,1.155c0.392,0.136,0.599,0.563,0.464,0.954
				C294.921,357.99,294.63,358.184,294.319,358.184z"/>
		</g>
		<g>
			<path style="fill:#292953;" d="M306.507,367.981c-0.115,0-0.231-0.026-0.342-0.083c-0.368-0.189-0.514-0.641-0.324-1.01
				l5.061-9.865c0.189-0.368,0.639-0.515,1.01-0.324c0.368,0.188,0.514,0.641,0.324,1.01l-5.061,9.865
				C307.042,367.833,306.779,367.981,306.507,367.981z"/>
		</g>
	</g>
	<g>
		<g>
			<polygon style="fill:#292953;" points="120.679,333.963 59.826,333.963 59.815,318.486 59.774,273.256 59.768,267.489 
				120.621,267.489 120.655,307.736 120.658,314.679 			"/>
		</g>
		<g>
			<polygon style="fill:#70C4BC;" points="123.802,336.741 62.949,336.741 62.938,321.264 62.896,276.034 62.89,270.267 
				123.743,270.267 123.777,310.514 123.781,317.457 			"/>
		</g>
		<g>
			<polygon style="fill:#FFFFFF;" points="127.372,339.371 66.519,339.371 66.507,323.894 66.466,278.664 66.46,272.897 
				127.313,272.897 127.347,313.144 127.351,320.086 			"/>
		</g>
		<g>
			<polygon style="fill:#C4E4E6;" points="124.786,318.233 69.067,318.233 69.071,315.972 124.791,315.972 			"/>
		</g>
		<g>
			<polygon style="fill:#C4E4E6;" points="115.302,325.396 69.077,325.396 69.072,323.136 115.297,323.136 			"/>
		</g>
		<g>
			<rect x="69.081" y="330.299" style="fill:#C4E4E6;" width="46.225" height="2.25"/>
		</g>
		<g>
			<g>
				<path style="fill:#7770FA;" d="M121.549,293.814c0.011,6.591-5.354,11.956-11.945,11.956c-0.502,0-1.015-0.03-1.514-0.1
					c-0.03,0-0.05,0-0.077-0.01c-1.188-0.171-2.413-0.532-3.618-1.075c-2.058-0.934-4.834-2.783-7.473-6.39
					c-3.327,4.621-6.991,6.47-9.685,7.193c-0.988,0.251-1.997,0.382-3.011,0.382c-6.601,0-11.966-5.365-11.967-11.956
					c-0.008-6.601,5.347-11.966,11.948-11.966c0.502,0,1.015,0.03,1.513,0.1c0.03,0,0.05,0,0.077,0.01
					c1.199,0.171,2.41,0.542,3.615,1.085c2.058,0.934,4.837,2.773,7.476,6.38c3.327-4.621,6.995-6.48,9.685-7.193
					c0.992-0.261,1.997-0.382,3.001-0.382C116.177,281.849,121.552,287.214,121.549,293.814z M108.706,301.078
					c4.406,0.553,8.21-2.944,8.212-7.264c-0.002-4.039-3.302-7.324-7.33-7.324c-0.623,0-1.232,0.08-1.836,0.231
					c-2.185,0.583-5.333,2.301-8.188,7.073c2.377,3.938,4.936,5.747,6.742,6.561c1.014,0.452,1.854,0.643,2.39,0.723H108.706z
					 M86.061,300.897c2.185-0.583,5.332-2.301,8.185-7.063c-2.37-3.958-4.946-5.747-6.743-6.56c-1.01-0.462-1.864-0.643-2.39-0.723
					c-0.01,0-0.01,0-0.01,0c-0.298-0.04-0.603-0.06-0.894-0.06c-4.039,0-7.32,3.285-7.318,7.324c0.006,4.029,3.292,7.324,7.33,7.324
					C84.845,301.138,85.455,301.058,86.061,300.897z"/>
			</g>
		</g>
		<g>
			<path style="fill:#292953;" d="M127.372,340.121H66.519c-0.414,0-0.75-0.336-0.75-0.749l-0.059-66.474
				c0-0.199,0.079-0.391,0.219-0.531c0.141-0.141,0.332-0.22,0.531-0.22h60.853c0.414,0,0.75,0.335,0.75,0.749l0.059,66.474
				c0,0.199-0.079,0.391-0.219,0.531C127.762,340.042,127.571,340.121,127.372,340.121z M67.268,338.621h59.353l-0.057-64.974
				H67.211L67.268,338.621z"/>
		</g>
	</g>
	<g>
		<g>
			<polygon style="fill:#FFFFFF;" points="443.791,353.062 376.575,353.062 376.555,332.099 376.544,321.934 376.503,271.142 
				443.719,271.142 443.756,320.225 443.766,330.39 			"/>
		</g>
		<g>
			<polygon style="fill:#C4E4E6;" points="430.463,343.429 379.405,343.429 379.398,340.932 430.457,340.932 			"/>
		</g>
		<g>
			<polygon style="fill:#C4E4E6;" points="440.939,327.874 379.394,327.874 379.398,325.377 440.932,325.377 			"/>
		</g>
		<g>
			<polygon style="fill:#7770FA;" points="443.791,314.921 376.585,314.921 376.563,292.6 376.547,271.142 443.752,271.142 
				443.773,290.565 			"/>
		</g>
		<g>
			<path style="fill:#292953;" d="M443.791,353.811h-67.216c-0.414,0-0.75-0.335-0.75-0.749l-0.072-81.919
				c0-0.199,0.079-0.391,0.22-0.531c0.141-0.141,0.331-0.22,0.53-0.22h67.216c0.414,0,0.75,0.335,0.75,0.749l0.072,81.919
				c0,0.199-0.079,0.391-0.22,0.531C444.18,353.732,443.99,353.811,443.791,353.811z M377.324,352.311h65.716l-0.07-80.419h-65.716
				L377.324,352.311z"/>
		</g>
		<g>
			<polygon style="fill:#C4E4E6;" points="440.939,335.652 379.394,335.652 379.398,333.155 440.932,333.155 			"/>
		</g>
	</g>
	<g>
		<g>
			<polygon style="fill:#AFDBD5;" points="445.417,403.983 433.805,418.373 422.201,403.983 427.194,403.983 427.194,387.506 
				440.417,387.506 440.417,403.983 			"/>
		</g>
		<g>
			<g>
				<polygon style="fill:#AFDBD5;" points="398.092,403.983 386.48,418.373 374.876,403.983 379.869,403.983 379.869,387.506 
					393.092,387.506 393.092,403.983 				"/>
			</g>
		</g>
		<g>
			<polygon style="fill:#AFDBD5;" points="421.801,386.566 410.189,400.955 398.586,386.566 403.578,386.566 403.578,370.089 
				416.801,370.089 416.801,386.566 			"/>
		</g>
	</g>
	<g>
		<g>
			<g>
				<circle style="fill:#292953;" cx="117.706" cy="61.534" r="3.045"/>
			</g>
		</g>
		<g>
			<g>
				<g>
					<circle style="fill:#292953;" cx="132.417" cy="61.534" r="3.045"/>
				</g>
			</g>
		</g>
		<g>
			<g>
				<g>
					<circle style="fill:#292953;" cx="117.706" cy="76.245" r="3.045"/>
				</g>
			</g>
		</g>
		<g>
			<g>
				<g>
					<circle style="fill:#292953;" cx="117.706" cy="90.956" r="3.045"/>
				</g>
			</g>
		</g>
		<g>
			<g>
				<g>
					<path style="fill:#292953;" d="M114.661,105.667c0-1.682,1.363-3.045,3.045-3.045s3.045,1.364,3.045,3.045
						c0,1.682-1.363,3.045-3.045,3.045S114.661,107.349,114.661,105.667z"/>
				</g>
			</g>
		</g>
		<g>
			<g>
				<g>
					<circle style="fill:#292953;" cx="117.706" cy="120.378" r="3.045"/>
				</g>
			</g>
		</g>
		<g>
			<g>
				<circle style="fill:#292953;" cx="132.417" cy="76.245" r="3.045"/>
			</g>
		</g>
		<g>
			<g>
				<g>
					<circle style="fill:#292953;" cx="132.417" cy="90.956" r="3.045"/>
				</g>
			</g>
		</g>
		<g>
			<g>
				<g>
					<path style="fill:#292953;" d="M129.372,105.667c0-1.682,1.363-3.045,3.045-3.045c1.682,0,3.045,1.364,3.045,3.045
						c0,1.682-1.363,3.045-3.045,3.045C130.735,108.712,129.372,107.349,129.372,105.667z"/>
				</g>
			</g>
		</g>
		<g>
			<g>
				<g>
					<circle style="fill:#292953;" cx="132.417" cy="120.378" r="3.045"/>
				</g>
			</g>
		</g>
		<g>
			<g>
				<g>
					<circle style="fill:#292953;" cx="117.706" cy="135.088" r="3.045"/>
				</g>
			</g>
		</g>
		<g>
			<g>
				<g>
					<circle style="fill:#292953;" cx="132.417" cy="135.088" r="3.045"/>
				</g>
			</g>
		</g>
	</g>
	<g>
		<g>
			<g>
				<circle style="fill:#292953;" cx="380.111" cy="202.193" r="3.045"/>
			</g>
		</g>
		<g>
			<g>
				<g>
					<path style="fill:#292953;" d="M383.157,187.482c0,1.682-1.363,3.045-3.045,3.045c-1.682,0-3.045-1.363-3.045-3.045
						c0-1.682,1.363-3.045,3.045-3.045C381.793,184.437,383.157,185.801,383.157,187.482z"/>
				</g>
			</g>
		</g>
		<g>
			<g>
				<g>
					<circle style="fill:#292953;" cx="394.822" cy="202.193" r="3.045"/>
				</g>
			</g>
		</g>
		<g>
			<g>
				<g>
					<circle style="fill:#292953;" cx="380.111" cy="232.916" r="3.045"/>
				</g>
			</g>
		</g>
		<g>
			<g>
				<g>
					<circle style="fill:#292953;" cx="394.822" cy="232.916" r="3.045"/>
				</g>
			</g>
		</g>
		<g>
			<g>
				<path style="fill:#292953;" d="M397.868,187.482c0,1.682-1.363,3.045-3.045,3.045c-1.682,0-3.045-1.363-3.045-3.045
					c0-1.682,1.363-3.045,3.045-3.045C396.504,184.437,397.868,185.801,397.868,187.482z"/>
			</g>
		</g>
		<g>
			<g>
				<g>
					<circle style="fill:#292953;" cx="380.111" cy="218.205" r="3.045"/>
				</g>
			</g>
		</g>
		<g>
			<g>
				<g>
					<circle style="fill:#292953;" cx="394.822" cy="218.205" r="3.045"/>
				</g>
			</g>
		</g>
		<g>
			<g>
				<g>
					
						<ellipse transform="matrix(0.1591 -0.9873 0.9873 0.1591 114.4326 600.1801)" style="fill:#292953;" cx="409.533" cy="232.916" rx="3.045" ry="3.045"/>
				</g>
			</g>
		</g>
		<g>
			<g>
				<g>
					
						<ellipse transform="matrix(0.1591 -0.9873 0.9873 0.1591 128.9561 587.8095)" style="fill:#292953;" cx="409.533" cy="218.205" rx="3.045" ry="3.045"/>
				</g>
			</g>
		</g>
	</g>
	<g>
		<g>
			<path style="fill:#FFFFFF;" d="M300.243,111.105v48.447c0,3.947,3.231,7.194,7.178,7.194h24.653l-6.844,21.072l29.539-21.072
				h45.789c3.963,0,7.194-3.247,7.194-7.194v-48.447c0-3.947-3.231-7.194-7.194-7.194h-93.137
				C303.473,103.911,300.243,107.158,300.243,111.105z"/>
		</g>
		<g>
			<path style="fill:#292953;" d="M325.23,188.568c-0.156,0-0.312-0.048-0.443-0.145c-0.261-0.191-0.37-0.529-0.27-0.836
				l6.524-20.091h-23.621c-4.371,0-7.928-3.564-7.928-7.944v-48.447c0-4.38,3.557-7.944,7.928-7.944h93.137
				c4.381,0,7.944,3.563,7.944,7.944v48.447c0,4.38-3.563,7.944-7.944,7.944h-45.548l-29.344,20.933
				C325.536,188.522,325.382,188.568,325.23,188.568z M307.421,104.661c-3.544,0-6.428,2.891-6.428,6.444v48.447
				c0,3.553,2.884,6.444,6.428,6.444h24.653c0.24,0,0.466,0.115,0.606,0.309c0.142,0.194,0.181,0.444,0.106,0.672l-6.141,18.91
				l27.688-19.751c0.127-0.091,0.279-0.14,0.436-0.14h45.788c3.554,0,6.444-2.891,6.444-6.444v-48.447
				c0-3.553-2.891-6.444-6.444-6.444H307.421z"/>
		</g>
		<g>
			<circle style="fill:#7770FA;" cx="318.815" cy="124.181" r="10.987"/>
		</g>
		<g>
			<rect x="335.112" y="116.651" style="fill:#7770FA;" width="65.186" height="3.097"/>
		</g>
		<g>
			<rect x="307.96" y="151.465" style="fill:#C4E4E6;" width="92.337" height="3.097"/>
		</g>
		<g>
			<rect x="308.038" y="140.404" style="fill:#C4E4E6;" width="92.337" height="3.097"/>
		</g>
		<g>
			<rect x="335.112" y="127.343" style="fill:#7770FA;" width="65.186" height="3.097"/>
		</g>
	</g>
	<g>
		<g>
			<g>
				<circle style="fill:#292953;" cx="129.082" cy="420.7" r="3.045"/>
			</g>
		</g>
		<g>
			<g>
				<g>
					<circle style="fill:#292953;" cx="129.082" cy="435.411" r="3.045"/>
				</g>
			</g>
		</g>
		<g>
			<g>
				<g>
					<circle style="fill:#292953;" cx="114.371" cy="420.7" r="3.045"/>
				</g>
			</g>
		</g>
		<g>
			<g>
				<g>
					<circle style="fill:#292953;" cx="129.082" cy="389.977" r="3.045"/>
				</g>
			</g>
		</g>
		<g>
			<g>
				<g>
					<circle style="fill:#292953;" cx="114.371" cy="389.977" r="3.045"/>
				</g>
			</g>
		</g>
		<g>
			<g>
				<circle style="fill:#292953;" cx="114.371" cy="435.411" r="3.045"/>
			</g>
		</g>
		<g>
			<g>
				<g>
					<circle style="fill:#292953;" cx="129.082" cy="404.688" r="3.045"/>
				</g>
			</g>
		</g>
		<g>
			<g>
				<g>
					<circle style="fill:#292953;" cx="114.371" cy="404.688" r="3.045"/>
				</g>
			</g>
		</g>
		<g>
			<g>
				<g>
					<circle style="fill:#292953;" cx="99.66" cy="389.977" r="3.045"/>
				</g>
			</g>
		</g>
		<g>
			<g>
				<g>
					<circle style="fill:#292953;" cx="99.66" cy="404.688" r="3.045"/>
				</g>
			</g>
		</g>
	</g>
</g>
</svg>
