<?xml version="1.0" encoding="utf-8"?>
<!-- Generator: Adobe Illustrator 27.5.0, SVG Export Plug-In . SVG Version: 6.00 Build 0)  -->
<svg version="1.1" xmlns="http://www.w3.org/2000/svg" xmlns:xlink="http://www.w3.org/1999/xlink" x="0px" y="0px"
	 viewBox="0 0 500 500" style="enable-background:new 0 0 500 500;" xml:space="preserve">
<g id="BACKGROUND">
	<rect style="fill:#EEEFF0;" width="500" height="500"/>
</g>
<g id="OBJECTS">
	<g>
		<path style="fill:#F2B9ED;" d="M125.665,128.589L68.11,229.839c-21.315,37.497-16.061,84.455,13.014,116.314l78.509,86.026
			c29.075,31.859,75.358,41.373,114.643,23.566l106.077-48.083c39.284-17.807,62.635-58.885,57.839-101.749l-12.95-115.743
			c-4.796-42.864-36.648-77.766-78.896-86.45l-114.08-23.45C190.016,71.584,146.98,91.092,125.665,128.589z"/>
		<g>
			<defs>
				<path id="SVGID_1_" d="M125.665,128.589L68.11,229.839c-21.315,37.497-16.061,84.455,13.014,116.314l78.509,86.026
					c29.075,31.859,75.358,41.373,114.643,23.566l106.077-48.083c39.284-17.807,62.635-58.885,57.839-101.749l-12.95-115.743
					c-4.796-42.864-36.648-77.766-78.896-86.45l-114.08-23.45C190.016,71.584,146.98,91.092,125.665,128.589z"/>
			</defs>
			<clipPath id="SVGID_00000096742056710804685950000002394888366934129812_">
				<use xlink:href="#SVGID_1_"  style="overflow:visible;"/>
			</clipPath>
			<g style="clip-path:url(#SVGID_00000096742056710804685950000002394888366934129812_);">
				<path style="fill:#F9E1BA;" d="M202.465,58.64c0,0-31.207,67.407,3.529,56.293c45.329-14.503,32.019,16.055,65.017,31.996
					c16.408,7.926,45.3-43.84,70.75-25.452c25.451,18.389,40.737-4.925,39.138-24.151C379.301,78.099,291.445,11.833,202.465,58.64z
					"/>
				<path style="fill:#F9E1BA;" d="M391.039,439.845c0,0-16.421-24.115-9.449-57.905c6.972-33.79,27.767-47.627,16.379-72.673
					c-11.388-25.046,70.585-6.308,43.915,55.607C415.213,426.789,391.039,439.845,391.039,439.845z"/>
				<path style="fill:#7D8AF5;" d="M58.977,307.666c0,0,20.133,16.462,39.886,19.607c19.754,3.145,30.422,44.282,12.495,47.451
					s-42.219,14.573-49.755,44.346C54.068,448.843,33.367,345.137,58.977,307.666z"/>
			</g>
		</g>
	</g>
	<g>
		<polygon style="fill:#EEEFF0;" points="126.867,304.27 120.512,306.185 123.855,311.918 122.336,318.379 128.973,318.35 
			133.808,322.896 137.102,317.134 143.457,315.219 140.114,309.486 141.633,303.025 134.996,303.054 130.16,298.508 		"/>
		<polygon style="fill:#EEEFF0;" points="216.111,94.821 212.068,94.052 212.262,98.162 209.574,101.278 213.231,103.165 
			214.585,107.051 218.048,104.828 222.09,105.598 221.897,101.487 224.584,98.371 220.928,96.484 219.574,92.599 		"/>
		<path style="fill:#F9E1BA;" d="M103.751,354.233c0,2.494,2.022,4.515,4.515,4.515c2.494,0,4.515-2.021,4.515-4.515
			c0-2.494-2.022-4.515-4.515-4.515C105.772,349.717,103.751,351.739,103.751,354.233z"/>
		<path style="fill:#EEEFF0;" d="M345.288,171.26c0,2.494,2.022,4.515,4.515,4.515c2.494,0,4.515-2.021,4.515-4.515
			c0-2.494-2.022-4.515-4.515-4.515C347.31,166.745,345.288,168.766,345.288,171.26z"/>
		
			<rect x="337.734" y="121.6" transform="matrix(-0.758 -0.6523 0.6523 -0.758 530.6118 455.4885)" style="fill:#7D8AF5;" width="24.139" height="15.421"/>
		
			<rect x="180.637" y="142.192" transform="matrix(0.5 -0.866 0.866 0.5 -30.386 242.4655)" style="fill:#F9E1BA;" width="28.303" height="10.711"/>
		
			<rect x="375.036" y="350.082" transform="matrix(0.8071 -0.5904 0.5904 0.8071 -134.6851 296.2462)" style="fill:#A3B0F7;" width="21.938" height="8.302"/>
	</g>
	<g>
		<defs>
			<rect id="SVGID_00000093875906459401394280000011157456446122321847_" width="500" height="500"/>
		</defs>
		<clipPath id="SVGID_00000128449529954433043860000012813681002790823858_">
			<use xlink:href="#SVGID_00000093875906459401394280000011157456446122321847_"  style="overflow:visible;"/>
		</clipPath>
		<g style="clip-path:url(#SVGID_00000128449529954433043860000012813681002790823858_);">
			<g>
				<path style="fill:#F9E1BA;" d="M321.311,433.787c0,0,33.049,100.651,38.001,133.988c0,0-56.592,12.822-86.724,15.386
					c0,0-19.998-75.928-28.333-102.533c0,0-1.28,7.652-16.925,108.944c0,0-35.952-7.732-82.757-27.907
					c0,0,7.268-115.021,23.15-164.11C183.605,348.466,285.761,355.959,321.311,433.787z"/>
				<g>
					<path style="fill:#F2CE99;" d="M247.492,394.086c0,0-11.301,46.528-18.371,65.263c0,0-33.613-1.244-51.98-5.041l39.096-69.957
						L247.492,394.086z"/>
					<path style="fill:#F2CE99;" d="M294.437,439.502l29.485,135.655l35.39-7.381c0,0-20.753-91.324-38.001-133.988L294.437,439.502
						z"/>
					<polygon style="fill:#F2CE99;" points="250,477.838 283.854,581.909 272.588,583.161 244.256,480.628 					"/>
					<polygon style="fill:#F2CE99;" points="243.04,488.302 216.237,586.809 227.33,589.572 					"/>
				</g>
				
					<line style="fill:none;stroke:#56357C;stroke-width:0.75;stroke-linecap:round;stroke-linejoin:round;stroke-miterlimit:10;" x1="244.256" y1="480.628" x2="266.529" y2="469.809"/>
				
					<path style="fill:none;stroke:#56357C;stroke-width:0.75;stroke-linecap:round;stroke-linejoin:round;stroke-miterlimit:10;" d="
					M173.642,573.231c0,0,24.692-144.208,39.751-202.096"/>
				
					<path style="fill:none;stroke:#56357C;stroke-width:0.75;stroke-linecap:round;stroke-linejoin:round;stroke-miterlimit:10;" d="
					M300.594,402.667c0,0,21.201,74.076,46.658,167.739"/>
				
					<line style="fill:none;stroke:#56357C;stroke-width:0.75;stroke-linecap:round;stroke-linejoin:round;stroke-miterlimit:10;" x1="242.523" y1="491.633" x2="237.78" y2="522.054"/>
				<polygon style="fill:#56357C;" points="246.033,486.449 254.494,475.655 244.256,480.628 				"/>
			</g>
			<path style="fill:#EEEFF0;" d="M241.58,180.419c0,0,19.075,19.552,52.316,7.417c0,0,47.312,15.962,45.865,40.081
				c-1.447,24.118-18.419,183.586-18.419,183.586s-69.119-39.215-141.59-53.647C179.751,357.856,198.635,242.343,241.58,180.419z"/>
			<path style="fill:#D3DBE2;" d="M249.454,187.002c0,0-5.939,28.251,15.704,54.889l-13.215,134.385l-32.723-5.14
				c0,0,10.742-194.672,17.039-195.36C236.259,175.775,245.454,184.612,249.454,187.002z"/>
			<path style="fill:#56357C;" d="M320.051,420.945l1.291-9.442c0,0-70.93-47.039-141.59-53.647c0,0-4.238,7.425-6.109,13.974
				C173.642,371.83,284.969,403.17,320.051,420.945z"/>
			<g>
				<path style="fill:#E493AD;" d="M248.418,71.512c-1.186,5.275-2.488,12.013-2.488,12.013s-7.797-5.774-12.888,9.418
					c-5.411,16.146,5.689,18.108,5.689,18.108s-2.528,8.766-0.316,15.095c2.753,7.876,10.801,12.588,10.801,12.588l-5.049,27.564
					l-2.587,14.122c0,0,9.4,10.646,23.831,13.152c14.542,1.751,28.485-5.735,28.485-5.735l1.714-16.139l2.734-25.746
					c0,0,9.063-2.198,13.965-8.949c3.94-5.426,4.04-14.548,4.04-14.548s11.196,1.315,10.657-15.706
					c-0.506-16.014-9.634-12.727-9.634-12.727s0.691-6.828,1.072-12.221c0,0,1.096-24.537-31.476-29.323
					C254.394,47.692,248.418,71.512,248.418,71.512z"/>
				<path style="fill:#D36E92;" d="M286.967,52.478C319.54,57.263,318.443,81.8,318.443,81.8
					c-0.382,5.393-1.072,12.221-1.072,12.221s9.128-3.287,9.634,12.727c0.538,17.021-10.657,15.706-10.657,15.706
					s-0.1,9.122-4.04,14.548c-4.901,6.751-13.965,8.949-13.965,8.949l-2.734,25.746l-1.714,16.139c0,0-2.242,1.204-5.866,2.533
					l3.308-42.821c0,0,18.417-9.848,19.214-27.983c0,0,2.391-26.105,2.391-33.08C312.943,79.51,310.013,59.522,286.967,52.478z"/>
				<path style="fill:#56357C;" d="M252.393,140.557c0,0,19.839,12.212,42.351,6.222c0,0-6.01,10.902-22.871,8.425
					C255.014,152.727,252.393,140.557,252.393,140.557z"/>
				
					<path style="fill:none;stroke:#56357C;stroke-width:0.75;stroke-linecap:round;stroke-linejoin:round;stroke-miterlimit:10;" d="
					M317.183,114.233c0,0,3.149-1.514,2.585-4.104c-0.564-2.591-2.834-2.158-2.529-4.819"/>
				
					<path style="fill:none;stroke:#56357C;stroke-width:0.75;stroke-linecap:round;stroke-linejoin:round;stroke-miterlimit:10;" d="
					M318.943,98.832c0,0,5.102-1.504,4.783,7.651"/>
				
					<path style="fill:none;stroke:#56357C;stroke-width:0.75;stroke-linecap:round;stroke-linejoin:round;stroke-miterlimit:10;" d="
					M239.747,103.577c0,0-2.58-2.356-1.295-4.675c1.285-2.319,3.335-1.252,3.808-3.888"/>
				
					<path style="fill:none;stroke:#56357C;stroke-width:0.75;stroke-linecap:round;stroke-linejoin:round;stroke-miterlimit:10;" d="
					M243.041,87.68c0,0-4.454-2.908-6.782,5.952"/>
				<g>
					
						<path style="fill:none;stroke:#56357C;stroke-width:0.75;stroke-linecap:round;stroke-linejoin:round;stroke-miterlimit:10;" d="
						M271.472,110.203c0,0-4.957,2.606-1.206,6.197"/>
					
						<path style="fill:none;stroke:#56357C;stroke-width:0.75;stroke-linecap:round;stroke-linejoin:round;stroke-miterlimit:10;" d="
						M284.525,118.495c4.626-2.36,0.628-6.282,0.628-6.282s-2.686-2.377-1.301-8.444"/>
					
						<path style="fill:none;stroke:#56357C;stroke-width:0.75;stroke-linecap:round;stroke-linejoin:round;stroke-miterlimit:10;" d="
						M273.297,115.876c0,0,1.252-1.21,2.672,0.484"/>
					
						<path style="fill:none;stroke:#56357C;stroke-width:0.75;stroke-linecap:round;stroke-linejoin:round;stroke-miterlimit:10;" d="
						M279.203,116.744c0,0,1.252-1.21,2.672,0.484"/>
				</g>
				<g>
					<g>
						<path style="fill:#56357C;" d="M286.141,106.738c0.999-2.368,2.86-4.309,5.228-5.602c2.367-1.295,5.309-1.722,8.003-1.217
							c1.35,0.253,2.554,0.649,3.781,1.183c1.198,0.571,2.363,1.243,3.365,2.147c2.007,1.755,3.535,4.173,3.626,6.853
							c0.007,0.211-0.158,0.388-0.37,0.396c-0.121,0.004-0.232-0.049-0.305-0.135l-0.047-0.056
							c-1.499-1.781-3.233-3.078-5.043-4.046c-0.899-0.502-1.869-0.867-2.829-1.234c-0.969-0.321-2.023-0.63-2.985-0.846
							c-1.936-0.4-3.885-0.359-5.873,0.169c-1.984,0.518-4.001,1.522-5.945,2.832l-0.038,0.025
							c-0.176,0.118-0.414,0.072-0.533-0.104C286.101,106.991,286.093,106.853,286.141,106.738z"/>
					</g>
				</g>
				<g>
					<path style="fill:#FFFFFF;" d="M251.323,101.156c-1.667-2.608-2.334-5.041-2.334-5.041s16.047-13.396,25.346,5.439
						c0,0-2.516,3.168-6.894,4.852C267.441,106.406,259.937,102.29,251.323,101.156z"/>
					<g>
						<g>
							<defs>
								<path id="SVGID_00000003072126183547342790000016755744772814121914_" d="M251.318,101.148
									c-1.663-2.604-2.328-5.032-2.328-5.032s16.1-13.389,25.346,5.439c0,0-2.505,3.154-6.866,4.841
									C267.469,106.395,259.534,102.167,251.318,101.148z"/>
							</defs>
							<clipPath id="SVGID_00000103232310745357940470000013994250433294748545_">
								<use xlink:href="#SVGID_00000003072126183547342790000016755744772814121914_"  style="overflow:visible;"/>
							</clipPath>
							<path style="clip-path:url(#SVGID_00000103232310745357940470000013994250433294748545_);fill:#56357C;" d="M253.351,98.604
								c-0.651,4.514,2.48,8.702,6.995,9.354c4.514,0.651,8.702-2.48,9.354-6.995c0.651-4.514-2.48-8.702-6.995-9.354
								S254.002,94.09,253.351,98.604z"/>
						</g>
					</g>
					<g>
						<path style="fill:#56357C;" d="M273.967,101.627c-1.313-2.45-2.842-4.696-4.641-6.394c-1.798-1.709-3.856-2.792-6.136-3.163
							c-2.368-0.403-4.77-0.273-7.096,0.443c-2.328,0.721-4.629,2.052-6.785,3.8l-0.037,0.03c-0.164,0.133-0.405,0.108-0.538-0.056
							c-0.087-0.107-0.106-0.247-0.064-0.368c1.003-2.858,3.17-5.25,5.964-6.765c2.803-1.533,6.208-1.961,9.334-1.355
							c1.613,0.289,3.193,0.922,4.571,1.822c1.383,0.898,2.54,2.068,3.458,3.343c1.795,2.59,2.726,5.539,2.706,8.519
							c-0.001,0.211-0.173,0.381-0.384,0.379c-0.144-0.001-0.27-0.082-0.334-0.201L273.967,101.627z"/>
					</g>
				</g>
				<g>
					<path style="fill:#56357C;" d="M262.55,119.012c0,0,14.349,2.908,28.493,4.302c0,0-5.766,12.061-16.156,10.493
						C263.859,132.141,262.55,119.012,262.55,119.012z"/>
					<path style="fill:#D36E92;" d="M265.464,127.379c0,0,7.937-0.579,10.098,2.451c0,0,2.787-1.996,9.535,0.921
						c0,0-3.222,3.899-10.209,3.055C268.064,132.982,265.464,127.379,265.464,127.379z"/>
					<path style="fill:#EEEFF0;" d="M262.55,119.012c0,0,13.001,10.383,28.493,4.302
						C291.043,123.314,276.756,120.856,262.55,119.012z"/>
				</g>
				<path style="fill:#56357C;" d="M306.495,88.678c2.674,1.015,4.941-2.098,3.225-4.385c-2.111-2.814-5.343-5.651-10.148-6.788
					c-10.875-2.573-6.426,6.448,0.602,8.877C302.438,87.164,304.602,87.959,306.495,88.678z"/>
				<path style="fill:#56357C;" d="M259.038,79.282c-2.835-0.375-3.355-4.19-0.759-5.39c3.193-1.476,7.384-2.44,12.154-1.162
					c10.795,2.894,2.599,8.724-4.741,7.529C263.328,79.874,261.046,79.547,259.038,79.282z"/>
				<path style="fill:none;stroke:#56357C;stroke-linecap:round;stroke-linejoin:round;stroke-miterlimit:10;" d="M296.338,94.722
					c0,0,4.331-1.268,7.349,1.239"/>
				<path style="fill:#56357C;" d="M241.688,82.493c0,0,4.395-0.279,3.432,3.747c-1.423,5.946,1.225,3.093,3.267,2.636
					c2.042-0.457,2.859-1.274,4.629-10.395c1.77-9.121,11.286-21.314,17.152-18.969c5.866,2.345,6.057,9.519,2.168,10.071
					c0,0,16.252,2.862,13.493-10.365c0,0,2.622,13.092,17.858,10.585c0,0,0.452,10.033,9.832,14.098c0,0-0.313,6.723-0.938,13.445
					c0,0-0.318,1.951,2.703,1.951c3.021,0,1.375-1.895,3.227-5.512c0,0,4.846-7.716,7.341-10.823c0,0,6.756,0.557,9.251-7.593
					c2.495-8.151-1.433-12.314-1.433-12.314s4.769-6.942-3.392-13.655c-5.832-4.797-13.093-1.815-13.093-1.815
					s0.849-9.648-3.476-10.812c0,0-1.497,6.154-5.156,6.487c0,0-4.763-17.722-21.436-16.135
					c-13.818,1.315-16.933,11.545-16.933,11.545s-4.08-1.342-1.319-7.525c0,0-5.389,3.798-5.389,8.788c0,0-2.495-2.495-5.656-2.495
					c0,0,1.497,1.663,0.832,4.99c0,0-17.919-6.101-20.456,13.781c0,0-1.907,13.014,5.119,14.529L241.688,82.493z"/>
				
					<path style="fill:none;stroke:#56357C;stroke-width:0.75;stroke-linecap:round;stroke-linejoin:round;stroke-miterlimit:10;" d="
					M327.224,111.57c0.447,0.295,0.861,0.73,1.175,1.274c0.816,1.414,0.657,3.034-0.355,3.618c-1.012,0.584-2.494-0.088-3.311-1.502
					c-0.816-1.414-0.657-3.034,0.355-3.618"/>
				<path style="fill:#56357C;" d="M322.114,116.987c0,0.943-0.764,1.707-1.707,1.707c-0.943,0-1.707-0.764-1.707-1.707
					s0.764-1.707,1.707-1.707C321.35,115.28,322.114,116.044,322.114,116.987z"/>
				<path style="fill:#D36E92;" d="M233.552,107.661c0,0,3.656-0.821,6.624-2.262l-1.444,5.651
					C238.732,111.05,235.835,110.818,233.552,107.661z"/>
			</g>
			<g>
				<path style="fill:#E493AD;" d="M378.483,206.351l4.101,31.908c0,0,27.637-1.256,31.908-13.567
					c4.271-12.311,9.828-10.225-14.055-43.175L378.483,206.351z"/>
				<path style="fill:#D36E92;" d="M382.584,238.259c0,0,27.637-1.256,31.908-13.567c4.081-11.762,9.335-10.382-11.035-38.975
					C403.457,185.717,407.15,219.358,382.584,238.259z"/>
				<path style="fill:#E493AD;" d="M400.437,181.516c0,0-4.284,18.563-12.239,25.498c-7.955,6.936-18.767,3.468-16.115-15.299
					c0,0-13.579,1.94-8.985-8.575c0,0-7.453-3.471-2.552-12.149c0,0-4.186-3.573,2.348-9.291c0,0-3.777-6.636,5.513-9.087
					c0,0,7.963-1.021,14.293-1.838c0,0,2.859-3.165,3.369-6.738c0.51-3.573,2.246-14.089,10.005-12.149
					c7.759,1.94,3.165,6.228,1.123,14.497c0,0-0.204,2.144,0,4.798c0.204,2.655-1.021,8.481-1.021,8.481
					S398.973,168.695,400.437,181.516z"/>
				
					<path style="fill:none;stroke:#56357C;stroke-width:0.75;stroke-linecap:round;stroke-linejoin:round;stroke-miterlimit:10;" d="
					M382.822,151.033c0,0,11.294,0.006,13.477,8.89"/>
				
					<path style="fill:none;stroke:#56357C;stroke-width:0.75;stroke-linecap:round;stroke-linejoin:round;stroke-miterlimit:10;" d="
					M363.015,161.957c0,0,4.029-2.686,19.069-0.862"/>
				
					<path style="fill:none;stroke:#56357C;stroke-width:0.75;stroke-linecap:round;stroke-linejoin:round;stroke-miterlimit:10;" d="
					M382.084,169.54c0,0-18.055-2.141-21.417,1.707"/>
				
					<path style="fill:none;stroke:#56357C;stroke-width:0.75;stroke-linecap:round;stroke-linejoin:round;stroke-miterlimit:10;" d="
					M363.22,183.397c0,0,3.086-3.967,14.865-3.967"/>
			</g>
			<g>
				<path style="fill:#E493AD;" d="M139.578,172.843l-14.795,28.566c0,0-25.53-10.657-25.32-23.686
					c0.21-13.029-5.725-12.975,28.009-35.737L139.578,172.843z"/>
				<path style="fill:#E493AD;" d="M127.472,141.986c0,0-2.342,18.906,2.753,28.149c5.095,9.243,16.439,9.693,20.384-8.845
					c0,0,12.09,6.48,11.381-4.974c0,0,8.191-0.705,6.564-10.537c0,0,5.157-1.921,0.98-9.533c0,0,5.824-4.938-2.063-10.426
					c0,0-7.13-3.69-12.796-6.628c0,0-1.6-3.953-0.854-7.485s2.722-14.005-5.232-14.844c-7.954-0.839-5.109,4.765-6.027,13.233
					c0,0-0.543,2.084-1.645,4.507c-1.102,2.424-1.95,8.317-1.95,8.317S133.245,130.443,127.472,141.986z"/>
				
					<path style="fill:none;stroke:#56357C;stroke-width:0.75;stroke-linecap:round;stroke-linejoin:round;stroke-miterlimit:10;" d="
					M154.473,119.391c0,0-10.611-3.868-15.708,3.729"/>
				
					<path style="fill:none;stroke:#56357C;stroke-width:0.75;stroke-linecap:round;stroke-linejoin:round;stroke-miterlimit:10;" d="
					M169.332,136.445c0,0-2.864-3.905-17.617-7.349"/>
				
					<path style="fill:none;stroke:#56357C;stroke-width:0.75;stroke-linecap:round;stroke-linejoin:round;stroke-miterlimit:10;" d="
					M148.819,137.029c0,0,17.695,4.18,19.533,8.948"/>
				
					<path style="fill:none;stroke:#56357C;stroke-width:0.75;stroke-linecap:round;stroke-linejoin:round;stroke-miterlimit:10;" d="
					M161.788,156.515c0,0-1.538-4.785-12.603-8.824"/>
				<path style="fill:#D36E92;" d="M121.628,179.386l14.546-5.101c0,0,8.089-1.716,14.435-12.996c0,0-2.498,16.225-12.859,15.083
					l-8.753,16.9L121.628,179.386z"/>
			</g>
			<g>
				<path style="fill:#7D8AF5;" d="M255.241,241.374c0,51.973-45.976,211.888-45.976,211.888
					c-52.972,4.997-97.572-8.007-97.572-8.007c17.496-65.786,48.29-154.163,48.29-154.163
					c-90.56,16.452-119.694,11.592-124.368-31.643s73.003-103.804,73.003-103.804c1.927,17.339,20.259,22.977,26.64,24.423
					c0.994,0.225,1.429,1.387,0.833,2.213c-5.774,8.01-10.142,18.235-10.142,18.235s42.652-26.529,61.417-26.529
					c9.382,0,22,1.456,32.271,2.912c1.465,0.208,5.884-26.546,26.841-23.212l-4.897,26.732
					C237.975,189.364,234.003,211.335,255.241,241.374z"/>
				<path style="fill:#5669D8;" d="M159.982,291.093c-42.069,7.643-70.882,10.686-90.145,7.42c0,0,63.124-25.168,101.866-58.195
					C171.704,240.318,167.36,269.474,159.982,291.093z"/>
				<path style="fill:#5669D8;" d="M221.565,222.65c0,0,3.068,25.007,18.965,32.442l1.05-5.95
					C241.58,249.141,230.147,241.399,221.565,222.65z"/>
				
					<path style="fill:none;stroke:#56357C;stroke-width:0.75;stroke-linecap:round;stroke-linejoin:round;stroke-miterlimit:10;" d="
					M219.637,176.899c0,0-15.172,41.235,21.943,72.242c0,0-17.085,102.018-50.686,193.415"/>
				
					<line style="fill:none;stroke:#56357C;stroke-width:0.75;stroke-linecap:round;stroke-linejoin:round;stroke-miterlimit:10;" x1="152.605" y1="312.712" x2="164.424" y2="278.558"/>
				<polygon style="fill:#56357C;" points="159.982,291.093 141.184,294.337 164.071,279.578 				"/>
				<polygon style="fill:#5669D8;" points="125.948,200.516 113.145,228.478 150.114,187.002 				"/>
				
					<path style="fill:none;stroke:#56357C;stroke-width:0.75;stroke-linecap:round;stroke-linejoin:round;stroke-miterlimit:10;" d="
					M130.477,191.328c0,0-13.199,23.976-21.859,49.376"/>
				
					<path style="fill:none;stroke:#56357C;stroke-width:0.75;stroke-linecap:round;stroke-linejoin:round;stroke-miterlimit:10;" d="
					M94.528,167.584c0,0,2.63,20.315,30.256,33.826"/>
			</g>
			<g>
				<path style="fill:#7D8AF5;" d="M414.552,204.014c0.804-1.151,2.531-1.104,3.254,0.1c61.855,103.052,27.665,130.54-5.768,132.82
					c-33.713,2.299-57.359-22.573-57.359-22.573c-4.597,62.063-6.896,121.827-6.896,121.827
					c-43.674,16.857-84.283,18.217-84.283,18.217l1.658-212.515c31.818-21.874,29.587-48.906,28.738-54.054l2.748-25.879
					c15.326,4.304,16.336,23.841,16.336,23.841s20.245,2.906,34.037,15.932s33.607,38.663,33.607,38.663s-1.123-6.41-1.197-12.165
					c-0.014-1.066,0.849-1.932,1.916-1.944C386.347,226.225,400.505,224.11,414.552,204.014z"/>
				<path style="fill:#5669D8;" d="M354.678,314.362c0,0,23.646,24.871,57.359,22.573c10.535-0.718,21.146-3.94,28.803-11.24
					c0,0,28.006-21.227-3.579-85.13c0,0,18.816,71.902-50.963,69.931c-20.416-0.98-30.086-7.259-30.086-7.259L354.678,314.362z"/>
				
					<line style="fill:none;stroke:#56357C;stroke-width:0.75;stroke-linecap:round;stroke-linejoin:round;stroke-miterlimit:10;" x1="354.212" y1="320.763" x2="357.941" y2="290.352"/>
				
					<path style="fill:none;stroke:#56357C;stroke-width:0.75;stroke-linecap:round;stroke-linejoin:round;stroke-miterlimit:10;" d="
					M294.437,307.545c0,1.7-1.378,3.078-3.078,3.078c-1.7,0-3.078-1.378-3.078-3.078c0-1.7,1.378-3.078,3.078-3.078
					C293.059,304.467,294.437,305.845,294.437,307.545z"/>
				
					<path style="fill:none;stroke:#56357C;stroke-width:0.75;stroke-linecap:round;stroke-linejoin:round;stroke-miterlimit:10;" d="
					M297.516,333.092c0,1.7-1.378,3.078-3.078,3.078c-1.7,0-3.078-1.378-3.078-3.078c0-1.7,1.378-3.078,3.078-3.078
					C296.137,330.014,297.516,331.392,297.516,333.092z"/>
				
					<path style="fill:none;stroke:#56357C;stroke-width:0.75;stroke-linecap:round;stroke-linejoin:round;stroke-miterlimit:10;" d="
					M300.594,357.856c0,1.7-1.378,3.078-3.078,3.078c-1.7,0-3.078-1.378-3.078-3.078s1.378-3.078,3.078-3.078
					C299.216,354.778,300.594,356.156,300.594,357.856z"/>
				<polygon style="fill:#56357C;" points="357.087,297.317 365.87,323.455 354.522,315.169 				"/>
				<polygon style="fill:#5669D8;" points="380.623,240.392 357.941,213.104 383.953,268.024 				"/>
				
					<path style="fill:none;stroke:#56357C;stroke-width:0.75;stroke-linecap:round;stroke-linejoin:round;stroke-miterlimit:10;" d="
					M379.657,232.68c0,0,3.909,33.195,6.039,48.716"/>
				
					<path style="fill:none;stroke:#56357C;stroke-width:0.75;stroke-linecap:round;stroke-linejoin:round;stroke-miterlimit:10;" d="
					M380.623,240.392c0,0,27.301,10.051,44.83-23.05"/>
				<path style="fill:#5669D8;" d="M315.685,186.307l-2.706-0.51c0,0-1.304,49.421-37.085,66.01l2.277,52.659l2.858-49.446
					C281.03,255.021,321.621,241.128,315.685,186.307z"/>
				
					<path style="fill:none;stroke:#56357C;stroke-width:0.75;stroke-linecap:round;stroke-linejoin:round;stroke-miterlimit:10;" d="
					M312.98,185.798c0,0-2.603,52.133-37.085,66.01c0,0,5.268,124.219,8.54,187.694"/>
			</g>
			<g>
				
					<path style="fill:none;stroke:#56357C;stroke-width:0.75;stroke-linecap:round;stroke-linejoin:round;stroke-miterlimit:10;" d="
					M398.432,126.283c0,0,1.839-7.654,9.565-11.156"/>
				
					<path style="fill:none;stroke:#56357C;stroke-width:0.75;stroke-linecap:round;stroke-linejoin:round;stroke-miterlimit:10;" d="
					M408.488,132.952c0,0,2.575-2.085,7.603-2.207"/>
				
					<path style="fill:none;stroke:#56357C;stroke-width:0.75;stroke-linecap:round;stroke-linejoin:round;stroke-miterlimit:10;" d="
					M387.273,125.594c0,0-2.33-5.396-1.471-8.952"/>
				
					<circle style="fill:none;stroke:#56357C;stroke-width:0.75;stroke-linecap:round;stroke-linejoin:round;stroke-miterlimit:10;" cx="394.999" cy="116.642" r="1.3"/>
				<circle style="fill:#56357C;" cx="391.247" cy="125.302" r="0.981"/>
				<path style="fill:#56357C;" d="M409.469,119.723c0,0.542-0.439,0.982-0.981,0.982c-0.542,0-0.982-0.439-0.982-0.982
					c0-0.542,0.439-0.981,0.982-0.981C409.03,118.742,409.469,119.181,409.469,119.723z"/>
				
					<circle style="fill:none;stroke:#56357C;stroke-width:0.75;stroke-linecap:round;stroke-linejoin:round;stroke-miterlimit:10;" cx="407.457" cy="126.601" r="1.3"/>
				
					<path style="fill:none;stroke:#56357C;stroke-width:0.75;stroke-linecap:round;stroke-linejoin:round;stroke-miterlimit:10;" d="
					M388.902,134.944c0,0,2.897-5.21,8.133-2.784"/>
			</g>
			<g>
				
					<path style="fill:none;stroke:#56357C;stroke-width:0.75;stroke-linecap:round;stroke-linejoin:round;stroke-miterlimit:10;" d="
					M142.508,91.802c0,0-2.681-7.401-10.749-10.021"/>
				
					<path style="fill:none;stroke:#56357C;stroke-width:0.75;stroke-linecap:round;stroke-linejoin:round;stroke-miterlimit:10;" d="
					M133.259,99.55c0,0-2.792-1.785-7.802-1.346"/>
				
					<path style="fill:none;stroke:#56357C;stroke-width:0.75;stroke-linecap:round;stroke-linejoin:round;stroke-miterlimit:10;" d="
					M153.521,89.874c0,0,1.714-5.622,0.465-9.06"/>
				
					<path style="fill:none;stroke:#56357C;stroke-width:0.75;stroke-linecap:round;stroke-linejoin:round;stroke-miterlimit:10;" d="
					M143.554,81.984c0.08,0.713,0.723,1.227,1.436,1.147c0.713-0.08,1.227-0.723,1.147-1.436c-0.08-0.713-0.723-1.227-1.436-1.147
					C143.988,80.627,143.474,81.27,143.554,81.984z"/>
				<path style="fill:#56357C;" d="M148.564,90.135c0.06,0.539,0.546,0.926,1.085,0.866c0.539-0.06,0.926-0.546,0.866-1.085
					c-0.06-0.539-0.546-0.927-1.085-0.866C148.891,89.111,148.504,89.597,148.564,90.135z"/>
				<path style="fill:#56357C;" d="M130.809,86.514c0.06,0.539,0.546,0.926,1.085,0.866c0.539-0.06,0.926-0.546,0.866-1.085
					c-0.06-0.539-0.546-0.926-1.085-0.866S130.749,85.975,130.809,86.514z"/>
				
					<path style="fill:none;stroke:#56357C;stroke-width:0.75;stroke-linecap:round;stroke-linejoin:round;stroke-miterlimit:10;" d="
					M132.284,93.269c0.08,0.713,0.723,1.227,1.436,1.147c0.713-0.08,1.227-0.723,1.147-1.436c-0.08-0.713-0.723-1.227-1.436-1.147
					C132.717,91.913,132.204,92.556,132.284,93.269z"/>
				
					<path style="fill:none;stroke:#56357C;stroke-width:0.75;stroke-linecap:round;stroke-linejoin:round;stroke-miterlimit:10;" d="
					M152.945,99.347c0,0-3.46-4.854-8.392-1.86"/>
			</g>
		</g>
	</g>
</g>
</svg>
