<?xml version="1.0" encoding="utf-8"?>
<!-- Generator: Adobe Illustrator 27.5.0, SVG Export Plug-In . SVG Version: 6.00 Build 0)  -->
<svg version="1.1" xmlns="http://www.w3.org/2000/svg" xmlns:xlink="http://www.w3.org/1999/xlink" x="0px" y="0px"
	 viewBox="0 0 500 500" style="enable-background:new 0 0 500 500;" xml:space="preserve">
<g id="BACKGROUND">
	<rect style="fill:#EEEFF0;" width="500" height="500"/>
</g>
<g id="OBJECTS">
	<g>
		<path style="fill:#F2B9ED;" d="M383.196,448.327H116.804c-12.097,0-21.904-9.807-21.904-21.904v-296.06
			c0-17.495,14.182-31.677,31.677-31.677h246.845c17.495,0,31.677,14.182,31.677,31.677v296.06
			C405.099,438.52,395.293,448.327,383.196,448.327z"/>
		<g>
			<defs>
				<path id="SVGID_1_" d="M383.196,448.327H116.804c-12.097,0-21.904-9.807-21.904-21.904v-296.06
					c0-17.495,14.182-31.677,31.677-31.677h246.845c17.495,0,31.677,14.182,31.677,31.677v296.06
					C405.099,438.52,395.293,448.327,383.196,448.327z"/>
			</defs>
			<clipPath id="SVGID_00000150784780367152418060000002901953448149747075_">
				<use xlink:href="#SVGID_1_"  style="overflow:visible;"/>
			</clipPath>
			<g style="clip-path:url(#SVGID_00000150784780367152418060000002901953448149747075_);">
				<path style="fill:#A3B0F7;" d="M346.657,68.012c0,0-54.649,69.483,0,99.404c46.179,25.283-3.657,97.475,77.565,95.639
					C483.717,261.709,458.109,68.012,346.657,68.012z"/>
				<path style="fill:#A3B0F7;" d="M68.025,196.032c0,0,64.19-7.965,55.44,35.553c-8.75,43.518-9.717,33.728,6.58,58.579
					c16.298,24.851-82.353,100.91-82.353,45.184C47.692,279.622,17.57,214.859,68.025,196.032z"/>
			</g>
		</g>
	</g>
	<g>
		<polygon style="fill:#F9E1BA;" points="119.031,205.396 113.526,207.055 116.422,212.022 115.106,217.619 120.856,217.594 
			125.045,221.532 127.898,216.54 133.403,214.882 130.507,209.915 131.823,204.318 126.074,204.343 121.885,200.405 		"/>
		<polygon style="fill:#7D8AF5;" points="356.866,428.927 353.599,431.344 356.711,433.957 357.171,437.994 360.99,436.606 
			364.716,438.227 365.423,434.225 368.69,431.808 365.578,429.195 365.118,425.158 361.3,426.546 357.573,424.925 		"/>
		<circle style="fill:#EEEFF0;" cx="332.331" cy="188.788" r="3.911"/>
		<path style="fill:#7D8AF5;" d="M385.012,219.851c0,2.16,1.751,3.912,3.912,3.912c2.16,0,3.911-1.751,3.911-3.912
			c0-2.16-1.751-3.912-3.911-3.912C386.764,215.939,385.012,217.69,385.012,219.851z"/>
		<path style="fill:#F9E1BA;" d="M130.045,432.371c0,2.16,1.751,3.911,3.911,3.911c2.16,0,3.911-1.751,3.911-3.911
			c0-2.16-1.751-3.912-3.911-3.912C131.796,428.46,130.045,430.211,130.045,432.371z"/>
		<path style="fill:#F9E1BA;" d="M160.261,183.352c0,2.16,1.751,3.911,3.912,3.911c2.16,0,3.911-1.751,3.911-3.911
			c0-2.16-1.751-3.911-3.911-3.911C162.012,179.441,160.261,181.192,160.261,183.352z"/>
		
			<rect x="313.629" y="121.497" transform="matrix(-0.758 -0.6523 0.6523 -0.758 488.0608 437.4325)" style="fill:#F9E1BA;" width="23.097" height="13.359"/>
		
			<rect x="131.082" y="130.053" transform="matrix(0.5 -0.866 0.866 0.5 -44.9767 191.4836)" style="fill:#EEEFF0;" width="24.519" height="9.279"/>
		
			<rect x="370.883" y="150.037" transform="matrix(0.8071 -0.5904 0.5904 0.8071 -17.3289 254.2288)" style="fill:#EEEFF0;" width="19.005" height="7.192"/>
	</g>
	<g>
		<defs>
			<rect id="SVGID_00000168802132036882734460000008460959203071321013_" width="500" height="500"/>
		</defs>
		<clipPath id="SVGID_00000090254199542971415880000003908176838807569804_">
			<use xlink:href="#SVGID_00000168802132036882734460000008460959203071321013_"  style="overflow:visible;"/>
		</clipPath>
		<g style="clip-path:url(#SVGID_00000090254199542971415880000003908176838807569804_);">
			<g>
				<g>
					<path style="fill:#56357C;" d="M342.972,521.784c-1.542-60.917-21.142-110.707-21.142-110.707
						c-89.597-5.634-149.296,0-149.296,0c-21.574,31.892-22.523,69.315-24.751,110.707H342.972z"/>
				</g>
				
					<line style="fill:none;stroke:#EEEFF0;stroke-width:0.75;stroke-linecap:round;stroke-linejoin:round;stroke-miterlimit:10;" x1="245.378" y1="485.253" x2="245.378" y2="521.784"/>
				
					<line style="fill:none;stroke:#EEEFF0;stroke-width:0.75;stroke-linecap:round;stroke-linejoin:round;stroke-miterlimit:10;" x1="239.708" y1="484.873" x2="254.676" y2="485.728"/>
			</g>
			<g>
				<path style="fill:#E493AD;" d="M202.186,102.46c-0.455,6.034-0.801,13.707-0.801,13.707s-8.573-5.125-11.739,12.525
					c-3.365,18.76,8.246,17.61,8.246,17.61s-2.888,11.633,0.591,18.281c4.329,8.273,15.522,14.824,15.522,14.824l-0.741,26.711
					c0,0,14.413,10.259,30.8,10.686c16.387-0.427,30.8-10.686,30.8-10.686l-0.741-26.711c0,0,11.193-6.551,15.522-14.824
					c3.48-6.649,0.591-18.281,0.591-18.281s11.611,1.149,8.246-17.61c-3.166-17.65-11.739-12.525-11.739-12.525
					s-0.346-7.673-0.801-13.707c0,0-5.05-27.348-41.897-27.348C207.201,75.111,202.186,102.46,202.186,102.46z"/>
				<path style="fill:#D36E92;" d="M290.238,146.302l-2.374-6.364c0,0,2.637,3.448,9.568,2.438
					C297.432,142.376,295.904,146.405,290.238,146.302z"/>
				<path style="fill:#D36E92;" d="M197.893,146.302l2.374-6.364c0,0-2.637,3.448-9.568,2.438
					C190.699,142.376,192.227,146.405,197.893,146.302z"/>
				<path style="fill:#D36E92;" d="M214.006,179.407l-0.741,26.711c0,0,14.413,10.259,30.8,10.686
					c16.387-0.427,30.8-10.686,30.8-10.686l-0.741-26.711H214.006z"/>
				
					<path style="fill:none;stroke:#56357C;stroke-width:0.75;stroke-linecap:round;stroke-linejoin:round;stroke-miterlimit:10;" d="
					M287.864,139.937c0,0,3.24-2.188,2.195-4.965c-1.046-2.777-3.49-1.928-3.584-4.925"/>
				
					<path style="fill:none;stroke:#56357C;stroke-width:0.75;stroke-linecap:round;stroke-linejoin:round;stroke-miterlimit:10;" d="
					M286.996,121.238c0,0,5.405-2.495,6.541,7.694"/>
				
					<path style="fill:none;stroke:#56357C;stroke-width:0.75;stroke-linecap:round;stroke-linejoin:round;stroke-miterlimit:10;" d="
					M200.267,139.937c0,0-3.24-2.188-2.195-4.965c1.046-2.777,3.489-1.928,3.584-4.925"/>
				
					<path style="fill:none;stroke:#56357C;stroke-width:0.75;stroke-linecap:round;stroke-linejoin:round;stroke-miterlimit:10;" d="
					M201.135,121.238c0,0-5.405-2.495-6.541,7.694"/>
				<g>
					
						<path style="fill:none;stroke:#56357C;stroke-width:0.75;stroke-linecap:round;stroke-linejoin:round;stroke-miterlimit:10;" d="
						M236.281,138.552c0,0-5.065,3.692-0.327,7.058"/>
					
						<path style="fill:none;stroke:#56357C;stroke-width:0.75;stroke-linecap:round;stroke-linejoin:round;stroke-miterlimit:10;" d="
						M252.083,145.61c4.738-3.365-0.327-7.058-0.327-7.058s-3.36-2.195-2.814-9.139"/>
					
						<path style="fill:none;stroke:#56357C;stroke-width:0.75;stroke-linecap:round;stroke-linejoin:round;stroke-miterlimit:10;" d="
						M239.225,144.537c0,0,1.19-1.544,3.037,0.101"/>
					
						<path style="fill:none;stroke:#56357C;stroke-width:0.75;stroke-linecap:round;stroke-linejoin:round;stroke-miterlimit:10;" d="
						M245.906,144.537c0,0,1.19-1.544,3.037,0.101"/>
				</g>
				<g>
					<path style="fill:#FFFFFF;" d="M206.781,129.157c0,0,15.635-17.404,28.945,1.974c0,0-4.804,8.239-14.473,8.645
						C211.584,140.181,206.781,129.157,206.781,129.157z"/>
					<g>
						<g>
							<defs>
								<path id="SVGID_00000079444280163452532290000014460286160964976058_" d="M206.781,129.157c0,0,15.695-17.404,28.945,1.974
									c0,0-4.804,8.239-14.473,8.645C211.584,140.181,206.781,129.157,206.781,129.157z"/>
							</defs>
							<clipPath id="SVGID_00000001637162046936069840000004293665170528693133_">
								<use xlink:href="#SVGID_00000079444280163452532290000014460286160964976058_"  style="overflow:visible;"/>
							</clipPath>
							
								<ellipse transform="matrix(0.7071 -0.7071 0.7071 0.7071 -27.9808 194.8824)" style="clip-path:url(#SVGID_00000001637162046936069840000004293665170528693133_);fill:#56357C;" cx="221.253" cy="131.217" rx="9.243" ry="9.243"/>
						</g>
					</g>
					<g>
						<path style="fill:#56357C;" d="M235.376,131.264c-1.798-2.336-3.856-4.36-6.138-5.705c-2.269-1.373-4.741-2.046-7.32-2.07
							c-2.665-0.035-5.295,0.394-7.785,1.346c-2.481,0.964-4.884,2.475-7.022,4.498l-0.036,0.034
							c-0.153,0.144-0.394,0.138-0.538-0.015c-0.097-0.103-0.126-0.246-0.087-0.373c0.947-3.093,3.22-5.655,6.036-7.398
							c2.838-1.745,6.232-2.534,9.522-2.436c3.387,0.047,6.847,1.357,9.338,3.593c2.48,2.249,4.171,5.125,4.73,8.259
							c0.037,0.207-0.101,0.404-0.308,0.441c-0.144,0.026-0.284-0.034-0.368-0.142L235.376,131.264z"/>
					</g>
				</g>
				<g>
					<path style="fill:#FFFFFF;" d="M281.35,129.157c0,0-15.635-17.404-28.946,1.974c0,0,4.804,8.239,14.473,8.645
						C276.547,140.181,281.35,129.157,281.35,129.157z"/>
					<g>
						<g>
							<defs>
								<path id="SVGID_00000153679939013266713860000006994193582457587861_" d="M281.35,129.157c0,0-15.695-17.404-28.946,1.974
									c0,0,4.804,8.239,14.473,8.645C276.547,140.181,281.35,129.157,281.35,129.157z"/>
							</defs>
							<clipPath id="SVGID_00000010290734308892773030000005412924129551689372_">
								<use xlink:href="#SVGID_00000153679939013266713860000006994193582457587861_"  style="overflow:visible;"/>
							</clipPath>
							
								<ellipse transform="matrix(0.2307 -0.973 0.973 0.2307 77.6393 360.6303)" style="clip-path:url(#SVGID_00000010290734308892773030000005412924129551689372_);fill:#56357C;" cx="266.877" cy="131.217" rx="9.243" ry="9.243"/>
						</g>
					</g>
					<g>
						<path style="fill:#56357C;" d="M252.054,130.998c0.56-3.133,2.25-6.01,4.73-8.259c2.491-2.235,5.952-3.546,9.339-3.593
							c3.29-0.098,6.684,0.69,9.522,2.436c2.816,1.744,5.09,4.305,6.036,7.398c0.061,0.201-0.052,0.414-0.253,0.475
							c-0.135,0.042-0.276,0.004-0.372-0.087l-0.037-0.035c-2.137-2.022-4.541-3.534-7.022-4.498
							c-2.49-0.953-5.119-1.381-7.785-1.346c-2.58,0.024-5.051,0.697-7.32,2.07c-2.282,1.344-4.339,3.369-6.138,5.705l-0.025,0.033
							c-0.128,0.167-0.367,0.198-0.533,0.069C252.08,131.277,252.03,131.133,252.054,130.998z"/>
					</g>
				</g>
				<path style="fill:#D36E92;" d="M248.943,150.382l-12.662-0.984c0,0-31.709,7.072-6.894,14.093
					c20.497,5.799,38.853,1.12,37.161-9.029C264.857,144.314,248.943,150.382,248.943,150.382z"/>
				<g>
					<path style="fill:#EEEFF0;" d="M230.117,153.349c0,0,13.93,1.854,27.651,0.005c0,0,0.221,13.658-13.785,13.658
						C230.106,167.012,230.117,153.349,230.117,153.349z"/>
				</g>
				<path style="fill:#56357C;" d="M278.517,111.933c0,0-10.111-2.566-17.596-6.553c-7.485-3.988-9.192,3.497-3.546,7.174
					c5.647,3.677,18.909,4.333,21.142,3.546C280.749,115.312,280.556,112.495,278.517,111.933z"/>
				<path style="fill:#56357C;" d="M210.355,110.573c0,0,9.292-4.741,15.708-10.288c6.416-5.547,9.738,1.374,5.046,6.21
					c-4.692,4.836-17.48,8.414-19.831,8.14C208.926,114.362,208.49,111.572,210.355,110.573z"/>
				<path style="fill:#56357C;" d="M224.707,157.811c15.769,3.91,19.359-7.428,19.359-7.428s3.468,11.338,19.236,7.428
					c0,0-1.714,14.465-19.359,14.465C226.299,172.276,224.707,157.811,224.707,157.811z M244.065,191.464
					c10.136,0,16.742,0.53,35.705-11.67s14.587-18.566,12.2-29.411c-2.387-10.846-4.244-14.881-9.018-7.057
					c-4.774,7.824-13.526,8.885-13.526,8.885c-20.22-12.372-25.362-4.189-25.362-4.189s-5.142-8.183-25.362,4.189
					c0,0-8.752-1.061-13.526-8.885c-4.774-7.824-6.631-3.789-9.018,7.057c-2.387,10.846-6.763,17.211,12.2,29.411
					C227.323,191.994,233.93,191.464,244.065,191.464z"/>
				<path style="fill:#56357C;" d="M289.282,115.482c0,0-2.356,0.049-2.831,1.737c-0.475,1.688,0.005,4.85,0.024,6.632
					c0,0,0.177,0.858-0.655,1.541c-0.832,0.683-1.425,1.544-1.604-3.089s-1.85-18.228-2.866-20.84
					c-1.016-2.612-8.87-20.85-21.028-14.931c-12.158,5.919-10.363,6.079-16.379,6.079c-6.016,0-4.225-0.16-16.383-6.079
					c-12.158-5.919-20.011,12.319-21.028,14.931c-1.016,2.612-2.688,16.207-2.866,20.84c-0.178,4.633-0.772,3.772-1.604,3.089
					c-0.832-0.683-0.655-1.541-0.655-1.541c0.019-1.782,0.499-4.944,0.024-6.632c-0.475-1.688-2.831-1.737-2.831-1.737
					s1.498-11.677,0-20.773s-1.989-21.087,8.18-21.914c0,0,1.245-12.818,14.063-13.851c0,0,5.616-10.75,23.16-10.75
					c0,0,16.717-0.328,21.049,11.002c0,0,11.178,0.4,14.322,12.976c0,0,11.987,0.259,9.907,22.96
					C287.775,111.575,289.282,115.482,289.282,115.482z"/>
			</g>
			<g>
				<path style="fill:#F9E1BA;" d="M210.507,206.297c0,0-38.526,6.799-55.901,13.598c-17.375,6.799,0,60.07,0,123.889
					c0,80.067-5.59,73.096,89.14,73.096c96.862,0,89.14,5.765,89.14-73.096c0-63.819,9.978-114.529,0-123.889
					c-17.375-6.799-55.901-13.598-55.901-13.598s4.518-15.008-4.609-12.799c-11.324,2.741-30.113,7.034-57.233-1.169
					C205.839,189.515,212.859,207.872,210.507,206.297z"/>
				<path style="fill:#F2CE99;" d="M154.606,343.784c0,80.067-5.59,73.096,89.14,73.096c96.862,0,89.14,5.765,89.14-73.096
					c0,0-67.271-23.394-90.562-52.508C242.323,291.276,206.938,340.554,154.606,343.784z"/>
				<g>
					<path style="fill:#F9E1BA;" d="M154.606,219.895c0,0-50.464,29.309-63.775,131.386
						c-13.311,102.077,66.896,53.889,75.765,46.063c0,0-34.575-10.748-11.991-53.561
						C154.606,343.784,213.28,219.075,154.606,219.895z"/>
					<polygon style="fill:#F2CE99;" points="191.762,300.492 175.825,283.52 164.842,320.217 					"/>
					<path style="fill:#F2CE99;" d="M90.498,387.633c0,0,25.862,24.876,60.215,0.175c0,0,6.353,5.673,15.754,9.301
						C166.466,397.109,102.201,444.292,90.498,387.633z"/>
					<path style="fill:#F2CE99;" d="M145.907,331.237l29.917-47.717l-10.982,36.697l-14.097,11.188
						C150.745,331.405,147.862,331.086,145.907,331.237z"/>
					<path style="fill:#E493AD;" d="M150.876,331.64c0,0,31.513-27.32,56.549-39.935c0,0,17.102,10.451,20.864,24.883
						c0,0-22.998,47.062-61.693,80.756C166.597,397.344,115.334,379.178,150.876,331.64z"/>
					
						<path style="fill:none;stroke:#56357C;stroke-width:0.75;stroke-linecap:round;stroke-linejoin:round;stroke-miterlimit:10;" d="
						M127.737,340.01c0,0,7.679-10.106,23.139-8.37c0,0,14.667-11.975,32.749-25.367"/>
					
						<path style="fill:none;stroke:#56357C;stroke-width:0.75;stroke-linecap:round;stroke-linejoin:round;stroke-miterlimit:10;" d="
						M133.428,343.913c0,0-23.463,38.767,12.611,55.896"/>
					
						<path style="fill:none;stroke:#56357C;stroke-width:0.75;stroke-linecap:round;stroke-linejoin:round;stroke-miterlimit:10;" d="
						M164.973,320.452c0,0,10.139-27.16,14.623-54.596"/>
					<polygon style="fill:#56357C;" points="170.317,304.735 171.777,315.199 164.973,320.452 					"/>
					<path style="fill:#D36E92;" d="M150.712,387.808c0,0,36.484-28.887,77.577-71.22c0,0-22.694,47.72-61.693,80.756
						C166.597,397.344,158.103,394.336,150.712,387.808z"/>
					
						<path style="fill:none;stroke:#56357C;stroke-width:0.75;stroke-linecap:round;stroke-linejoin:round;stroke-miterlimit:10;" d="
						M146.764,408.484c0,0,15.108-4.285,34.69-25.434"/>
					<path style="fill:#56357C;" d="M158.252,402.946c0,0,0.336,2.805,3.079,5.185c0,0,2.698-4.191,4.465-10.211
						C165.796,397.921,161.726,401.082,158.252,402.946z"/>
				</g>
				<g>
					<polygon style="fill:#F2CE99;" points="295.575,300.727 311.512,283.755 322.495,320.452 					"/>
					<path style="fill:#F9E1BA;" d="M332.862,219.895c0,0,50.464,29.309,63.775,131.386c13.311,102.077-66.896,53.889-75.766,46.063
						c0,0,34.575-10.748,11.991-53.561C332.862,343.784,274.188,219.075,332.862,219.895z"/>
					<path style="fill:#F2CE99;" d="M396.839,387.868c0,0-21.737,21.813-61.766,1.139c0,0-4.802,4.709-14.202,8.337
						C320.871,397.344,385.136,444.527,396.839,387.868z"/>
					<path style="fill:#F2CE99;" d="M341.43,331.472l-29.917-47.717l10.983,36.697l14.097,11.188
						C336.592,331.64,339.475,331.321,341.43,331.472z"/>
					<path style="fill:#E493AD;" d="M336.592,331.64c0,0-31.513-27.32-56.549-39.935c0,0-17.102,10.451-20.864,24.883
						c0,0,22.998,47.062,61.693,80.756C320.871,397.344,372.134,379.178,336.592,331.64z"/>
					
						<path style="fill:none;stroke:#56357C;stroke-width:0.75;stroke-linecap:round;stroke-linejoin:round;stroke-miterlimit:10;" d="
						M359.731,340.01c0,0-7.679-10.106-23.139-8.37c0,0-14.667-11.975-32.749-25.367"/>
					
						<path style="fill:none;stroke:#56357C;stroke-width:0.75;stroke-linecap:round;stroke-linejoin:round;stroke-miterlimit:10;" d="
						M354.04,343.913c0,0,23.463,38.767-12.61,55.896"/>
					
						<path style="fill:none;stroke:#56357C;stroke-width:0.75;stroke-linecap:round;stroke-linejoin:round;stroke-miterlimit:10;" d="
						M322.495,320.452c0,0-10.139-27.16-14.624-54.596"/>
					<polygon style="fill:#56357C;" points="317.15,304.735 315.691,315.199 322.495,320.452 					"/>
					<path style="fill:#D36E92;" d="M335.073,389.008c0,0-21.914-7.914-65.184-53.47c0,0,25.473,43.356,50.981,61.807
						C320.871,397.344,328.925,394.685,335.073,389.008z"/>
					
						<path style="fill:none;stroke:#56357C;stroke-width:0.75;stroke-linecap:round;stroke-linejoin:round;stroke-miterlimit:10;" d="
						M341.43,409.204c0,0-17.795-6.033-35.454-25.162"/>
					<path style="fill:#56357C;" d="M329.322,403.201c0,0-0.336,2.805-3.079,5.186c0,0-2.698-4.191-4.465-10.211
						C321.779,398.176,325.848,401.337,329.322,403.201z"/>
				</g>
				
					<path style="fill:none;stroke:#56357C;stroke-width:0.75;stroke-linecap:round;stroke-linejoin:round;stroke-miterlimit:10;" d="
					M277.126,205.267c0,0-0.916,4.799-0.916,6.438c0,1.638,0.025,9.115-32.144,9.115s-32.144-7.477-32.144-9.115
					c0-1.638-0.916-6.438-0.916-6.438"/>
				
					<path style="fill:none;stroke:#56357C;stroke-width:0.75;stroke-linecap:round;stroke-linejoin:round;stroke-miterlimit:10;" d="
					M222.778,194.37c0,0,14.342,2.946,26.258,2.671"/>
				<g>
					<path style="fill:#E493AD;" d="M264.427,326.331c14.217,10.615,34.522-15.477,24.195-29.905c0,0-12.146-8.515-13.639-11.034
						c-2.882-4.867-5.966-10.24-8.488-15.21c-4.977-9.811-9.87-17.643-21.46-14.043c0,0-11.332-4.86-17.28-6.347
						c-5.947-1.487-10.233,1.399-5.947,5.773c4.286,4.373,20.092,7.012,18.864,16.082
						C239.444,280.714,233.924,305.822,264.427,326.331C264.578,326.432,264.282,326.223,264.427,326.331z"/>
					<path style="fill:#E493AD;" d="M203.542,293.749c0,0,12.569-13.22,17.216-39.499l-0.613-1.356c0,0-7.431,1.53-8.04-2.964
						c-0.609-4.494,5.12-5.725,5.12-5.725s-6.056-2.08,0.946-5.888c7.002-3.809,13.219-8.913,19.239-4.136
						c0,0,1.243,1.374,3.861-0.262c2.618-1.636,5.079-5.039,10.621-1.374c5.542,3.665,11.367,5.955,14.9,7.264
						c3.534,1.309,2.749,5.367-1.701,5.923c0,0,3.532,4.817,1.95,7.189c-1.581,2.372-2.524,2.354-2.524,2.354
						s2.802,5.312,2.979,9.069c0.177,3.757-2.029,4.128-2.029,4.128s-29.838,37.822-37.178,48.118
						c-3.855-14.684-10.94,1.123-18.869,0.144C195.471,315.011,203.542,293.749,203.542,293.749z"/>
					
						<path style="fill:none;stroke:#56357C;stroke-width:0.75;stroke-linecap:round;stroke-linejoin:round;stroke-miterlimit:10;" d="
						M251.893,263.461c0,0-2.399-4.704-6.857-7.323"/>
					
						<path style="fill:none;stroke:#56357C;stroke-width:0.75;stroke-linecap:round;stroke-linejoin:round;stroke-miterlimit:10;" d="
						M231.452,250.894c0,0,13.073-4.552,18.695-5.389c5.623-0.837,9.052-1.884,15.074,11.484c4.82,10.701,0.247,11.482,0.247,11.482
						"/>
					
						<path style="fill:none;stroke:#56357C;stroke-width:0.75;stroke-linecap:round;stroke-linejoin:round;stroke-miterlimit:10;" d="
						M220.201,253.051c0,0-7.378,0.948-8.096-3.12c-0.718-4.067,4.666-5.383,11.724-8.613c7.058-3.23,10.017-6.399,22.206,5.073"/>
					
						<path style="fill:none;stroke:#56357C;stroke-width:0.75;stroke-linecap:round;stroke-linejoin:round;stroke-miterlimit:10;" d="
						M235.728,238.972c0,0,7.006-2.103,10.603-2.588c3.597-0.484,11.44,4.721,18.76,9.348"/>
					
						<line style="fill:none;stroke:#56357C;stroke-width:0.75;stroke-linecap:round;stroke-linejoin:round;stroke-miterlimit:10;" x1="237.41" y1="234.181" x2="242.347" y2="237.183"/>
					
						<path style="fill:none;stroke:#56357C;stroke-width:0.75;stroke-linecap:round;stroke-linejoin:round;stroke-miterlimit:10;" d="
						M273.435,282.634c-8.329-13.693-14.618-32.634-28.399-26.495c0,0-11.332-4.86-17.28-6.347
						c-5.947-1.487-10.233,1.399-5.947,5.773c4.286,4.373,20.092,7.012,18.864,16.082c-0.719,5.308-1.906,15.058,0.131,24.442"/>
				</g>
			</g>
			<g>
				
					<path style="fill:none;stroke:#56357C;stroke-width:0.75;stroke-linecap:round;stroke-linejoin:round;stroke-miterlimit:10;" d="
					M268.614,230.908c0,0,3.849-6.506,11.095-7.185"/>
				
					<path style="fill:none;stroke:#56357C;stroke-width:0.75;stroke-linecap:round;stroke-linejoin:round;stroke-miterlimit:10;" d="
					M275.367,243.81c0,0,4.785-4.623,15.181-4.661"/>
				
					<path style="fill:none;stroke:#56357C;stroke-width:0.75;stroke-linecap:round;stroke-linejoin:round;stroke-miterlimit:10;" d="
					M277.126,256.138c0,0,7.537-1.231,12.134,3.661"/>
				
					<path style="fill:none;stroke:#56357C;stroke-width:0.75;stroke-linecap:round;stroke-linejoin:round;stroke-miterlimit:10;" d="
					M217.318,233.117c0,0-3.997-7.394-13.389-11.99"/>
				
					<path style="fill:none;stroke:#56357C;stroke-width:0.75;stroke-linecap:round;stroke-linejoin:round;stroke-miterlimit:10;" d="
					M205.727,242.91c0,0-4.396-2.398-11.591,0"/>
				
					<path style="fill:none;stroke:#56357C;stroke-width:0.75;stroke-linecap:round;stroke-linejoin:round;stroke-miterlimit:10;" d="
					M210.623,256c0,0-7.294,2.696-11.491,8.492"/>
				
					<circle style="fill:none;stroke:#56357C;stroke-width:0.75;stroke-linecap:round;stroke-linejoin:round;stroke-miterlimit:10;" cx="209.519" cy="234.55" r="1.802"/>
				
					<circle style="fill:none;stroke:#56357C;stroke-width:0.75;stroke-linecap:round;stroke-linejoin:round;stroke-miterlimit:10;" cx="255.183" cy="226.284" r="1.802"/>
				
					<circle style="fill:none;stroke:#56357C;stroke-width:0.75;stroke-linecap:round;stroke-linejoin:round;stroke-miterlimit:10;" cx="289.259" cy="245.755" r="1.802"/>
				
					<circle style="fill:none;stroke:#56357C;stroke-width:0.75;stroke-linecap:round;stroke-linejoin:round;stroke-miterlimit:10;" cx="195.939" cy="257.9" r="1.802"/>
				<path style="fill:#56357C;" d="M278.816,251.055c0,0.583-0.472,1.055-1.055,1.055c-0.583,0-1.055-0.473-1.055-1.055
					c0-0.583,0.473-1.055,1.055-1.055C278.344,250,278.816,250.473,278.816,251.055z"/>
				<path style="fill:#56357C;" d="M280.764,233.117c0,0.583-0.473,1.055-1.055,1.055c-0.583,0-1.056-0.473-1.056-1.055
					s0.473-1.055,1.056-1.055C280.292,232.062,280.764,232.535,280.764,233.117z"/>
				<path style="fill:#56357C;" d="M224.622,228.086c0,0.583-0.472,1.055-1.055,1.055c-0.583,0-1.055-0.473-1.055-1.055
					c0-0.583,0.472-1.055,1.055-1.055C224.15,227.031,224.622,227.503,224.622,228.086z"/>
				<path style="fill:#56357C;" d="M210.623,263.644c0,0.583-0.473,1.055-1.055,1.055s-1.055-0.473-1.055-1.055
					c0-0.583,0.473-1.055,1.055-1.055S210.623,263.061,210.623,263.644z"/>
				<path style="fill:#56357C;" d="M200.188,247.558c0,0.583-0.473,1.056-1.055,1.056c-0.583,0-1.055-0.473-1.055-1.056
					s0.473-1.055,1.055-1.055C199.715,246.502,200.188,246.975,200.188,247.558z"/>
				
					<circle style="fill:none;stroke:#56357C;stroke-width:0.75;stroke-linecap:round;stroke-linejoin:round;stroke-miterlimit:10;" cx="271.664" cy="261.842" r="1.802"/>
			</g>
		</g>
	</g>
</g>
</svg>
