<?xml version="1.0" encoding="utf-8"?>
<!-- Generator: Adobe Illustrator 27.5.0, SVG Export Plug-In . SVG Version: 6.00 Build 0)  -->
<svg version="1.1" xmlns="http://www.w3.org/2000/svg" xmlns:xlink="http://www.w3.org/1999/xlink" x="0px" y="0px"
	 viewBox="0 0 500 500" style="enable-background:new 0 0 500 500;" xml:space="preserve">
<g id="BACKGROUND">
	<rect style="fill:#EEEFF0;" width="500" height="500"/>
</g>
<g id="OBJECTS">
	<g>
		<polygon style="fill:#A3B0F7;" points="447.481,103.693 31.549,182.675 285.119,488.272 		"/>
		<g>
			<defs>
				<polygon id="SVGID_1_" points="447.481,103.693 31.549,182.675 285.119,488.272 				"/>
			</defs>
			<clipPath id="SVGID_00000067212178582103106980000015946605165389928835_">
				<use xlink:href="#SVGID_1_"  style="overflow:visible;"/>
			</clipPath>
			<g style="clip-path:url(#SVGID_00000067212178582103106980000015946605165389928835_);">
				<path style="fill:#F9E1BA;" d="M353.984,17.192c0,0-80.663,84.559,0,120.971c68.161,30.769-5.398,118.624,114.488,116.389
					C536.163,253.291,498.102,17.192,353.984,17.192z"/>
				<path style="fill:#7D8AF5;" d="M24.643,216.907c0,0,58.148-53.057,80.066-3.683s14.072,40.331,47.736,53.549
					c33.665,13.218-10.815,158.14-50.009,102.796C63.241,314.224-12.225,271.091,24.643,216.907z"/>
			</g>
		</g>
	</g>
	<g>
		<polygon style="fill:#F2B9ED;" points="96.649,223.217 89.95,225.236 93.474,231.28 91.873,238.091 98.87,238.061 
			103.967,242.854 107.44,236.779 114.139,234.761 110.615,228.716 112.216,221.905 105.22,221.935 100.122,217.143 		"/>
		<polygon style="fill:#EEEFF0;" points="359.764,205.743 355.503,204.932 355.707,209.265 352.873,212.55 356.728,214.54 
			358.156,218.636 361.807,216.293 366.069,217.104 365.865,212.771 368.698,209.486 364.843,207.496 363.415,203.4 		"/>
		<path style="fill:#F9E1BA;" d="M97.284,182.551c0,2.629,2.131,4.76,4.76,4.76c2.629,0,4.76-2.131,4.76-4.76
			c0-2.629-2.131-4.76-4.76-4.76C99.416,177.791,97.284,179.922,97.284,182.551z"/>
		
			<rect x="346.334" y="140.625" transform="matrix(-0.758 -0.6523 0.6523 -0.758 534.2005 495.7073)" style="fill:#7D8AF5;" width="25.449" height="16.258"/>
		
			<rect x="138.204" y="184.841" transform="matrix(0.5 -0.866 0.866 0.5 -88.4048 227.8516)" style="fill:#EEEFF0;" width="29.839" height="11.292"/>
		
			<rect x="403.146" y="129.917" transform="matrix(0.8071 -0.5904 0.5904 0.8071 0.7122 270.766)" style="fill:#F2B9ED;" width="23.128" height="8.753"/>
	</g>
	<g>
		<defs>
			<rect id="SVGID_00000112612116528482924750000004189865851768968081_" width="500" height="500"/>
		</defs>
		<clipPath id="SVGID_00000124151373764377624670000001775839606547480473_">
			<use xlink:href="#SVGID_00000112612116528482924750000004189865851768968081_"  style="overflow:visible;"/>
		</clipPath>
		<g style="clip-path:url(#SVGID_00000124151373764377624670000001775839606547480473_);">
			<g>
				<path style="fill:#E493AD;" d="M196.957,103.576c0.264,6.244,0.839,14.156,0.839,14.156s-10.439-4.098-11.549,14.389
					c-1.179,19.649,11.8,18.497,11.8,18.497s2.924,10.177,7.299,16.575c5.442,7.961,12.735,11.165,12.735,11.165l-1.278,27.602
					c0,0,12.141,9.236,29.001,7.689c16.756-2.423,26.472-6.631,26.472-6.631l-0.303-35.024c0,0,6.346-4.814,9.784-13.824
					c2.764-7.241,3.237-17.819,3.237-17.819s12.891-1.902,7.167-20.736c-5.385-17.72-14.583-11.304-14.583-11.304
					s-1.284-7.828-2.482-13.962c0,0-4.608-27.898-42.401-23.435C194.903,75.376,196.957,103.576,196.957,103.576z"/>
				
					<path style="fill:none;stroke:#56357C;stroke-width:0.75;stroke-linecap:round;stroke-linejoin:round;stroke-miterlimit:10;" d="
					M283.25,133.15c0,0,3.059-2.637,1.65-5.359c-1.409-2.722-3.813-1.555-4.272-4.617"/>
				
					<path style="fill:none;stroke:#56357C;stroke-width:0.75;stroke-linecap:round;stroke-linejoin:round;stroke-miterlimit:10;" d="
					M280.003,113.298c0,0,5.241-3.214,7.641,7.099"/>
				
					<path style="fill:none;stroke:#56357C;stroke-width:0.75;stroke-linecap:round;stroke-linejoin:round;stroke-miterlimit:10;" d="
					M198.065,143.208c0,0-3.589-1.852-2.852-4.827c0.736-2.975,3.346-2.401,3.08-5.485"/>
				
					<path style="fill:none;stroke:#56357C;stroke-width:0.75;stroke-linecap:round;stroke-linejoin:round;stroke-miterlimit:10;" d="
					M196.599,123.147c0,0-5.846-1.905-5.777,8.684"/>
				<g>
					
						<path style="fill:none;stroke:#56357C;stroke-width:0.75;stroke-linecap:round;stroke-linejoin:round;stroke-miterlimit:10;" d="
						M233.675,138.863c0,0-4.748,4.401,0.52,7.279"/>
					
						<path style="fill:none;stroke:#56357C;stroke-width:0.75;stroke-linecap:round;stroke-linejoin:round;stroke-miterlimit:10;" d="
						M248.702,144.428c4.452-4.026-1.19-7.2-1.19-7.2s-3.713-1.844-3.993-9.033"/>
					
						<path style="fill:none;stroke:#56357C;stroke-width:0.75;stroke-linecap:round;stroke-linejoin:round;stroke-miterlimit:10;" d="
						M236.401,144.765c0,0,1.033-1.727,3.127-0.264"/>
					
						<path style="fill:none;stroke:#56357C;stroke-width:0.75;stroke-linecap:round;stroke-linejoin:round;stroke-miterlimit:10;" d="
						M243.254,143.956c0,0,1.033-1.727,3.127-0.264"/>
				</g>
				<g>
					<path style="fill:#FFFFFF;" d="M201.795,130.769c0,0,13.929-19.745,29.928-1.481c0,0-3.929,9.032-13.797,10.619
						C208.057,141.494,201.795,130.769,201.795,130.769z"/>
					<g>
						<g>
							<defs>
								<path id="SVGID_00000075158947712572941640000003093721024919986334_" d="M201.795,130.769c0,0,13.99-19.752,29.928-1.481
									c0,0-3.929,9.032-13.797,10.619C208.057,141.494,201.795,130.769,201.795,130.769z"/>
							</defs>
							<clipPath id="SVGID_00000107547850275645999870000013395464832444711583_">
								<use xlink:href="#SVGID_00000075158947712572941640000003093721024919986334_"  style="overflow:visible;"/>
							</clipPath>
							<path style="clip-path:url(#SVGID_00000107547850275645999870000013395464832444711583_);fill:#56357C;" d="M207.408,132.249
								c0.618,5.236,5.364,8.98,10.6,8.361s8.98-5.364,8.361-10.6c-0.618-5.236-5.364-8.979-10.6-8.361
								S206.79,127.013,207.408,132.249z"/>
						</g>
					</g>
					<g>
						<path style="fill:#56357C;" d="M231.39,129.461c-2.055-2.227-4.407-4.095-6.93-5.214c-2.51-1.172-5.18-1.497-7.835-1.204
							c-2.752,0.29-5.376,1.178-7.733,2.524c-1.181,0.681-2.273,1.527-3.298,2.472c-0.512,0.475-0.992,0.986-1.467,1.513
							c-0.449,0.523-0.887,1.145-1.238,1.645l-0.26,0.371c-0.341,0.487-1.012,0.605-1.499,0.264
							c-0.224-0.157-0.371-0.386-0.43-0.632c-0.35-1.472-0.678-2.953-0.905-4.474c-0.031-0.21,0.114-0.406,0.324-0.438
							c0.15-0.022,0.293,0.045,0.374,0.162c0.873,1.266,1.646,2.572,2.395,3.886l-2.189,0.003c0.256-0.917,0.601-1.626,0.981-2.4
							c0.394-0.744,0.829-1.474,1.344-2.148c1.012-1.36,2.233-2.589,3.629-3.598c2.804-2.002,6.173-3.199,9.557-3.438
							c3.464-0.29,7.13,0.59,9.928,2.586c2.799,1.977,4.885,4.679,5.917,7.771c0.066,0.198-0.041,0.413-0.239,0.479
							c-0.146,0.049-0.3,0.004-0.398-0.102L231.39,129.461z"/>
					</g>
				</g>
				<g>
					<path style="fill:#FFFFFF;" d="M276.726,121.921c0,0-18.145-15.958-29.45,5.53c0,0,5.925,7.868,15.891,7.114
						C273.134,133.81,276.726,121.921,276.726,121.921z"/>
					<g>
						<g>
							<defs>
								<path id="SVGID_00000061448020535032150560000014862846072942686867_" d="M276.726,121.921c0,0-18.206-15.95-29.45,5.53
									c0,0,5.925,7.868,15.891,7.114C273.134,133.81,276.726,121.921,276.726,121.921z"/>
							</defs>
							<clipPath id="SVGID_00000138535855033273566850000006685267767272531334_">
								<use xlink:href="#SVGID_00000061448020535032150560000014862846072942686867_"  style="overflow:visible;"/>
							</clipPath>
							
								<ellipse transform="matrix(0.6126 -0.7904 0.7904 0.6126 2.1329 255.9252)" style="clip-path:url(#SVGID_00000138535855033273566850000006685267767272531334_);fill:#56357C;" cx="262.131" cy="125.787" rx="9.547" ry="9.547"/>
						</g>
					</g>
					<g>
						<path style="fill:#56357C;" d="M246.912,127.36c0.294-3.244,1.694-6.353,3.954-8.926c2.255-2.589,5.61-4.3,9.044-4.83
							c3.345-0.561,6.9-0.193,10.101,1.09c1.6,0.643,3.074,1.56,4.39,2.631c1.326,1.103,2.408,2.314,3.368,3.869l-2.312,0.671
							c0.168-0.865,0.315-1.73,0.501-2.594c0.185-0.864,0.377-1.727,0.618-2.589c0.057-0.205,0.27-0.324,0.475-0.267
							c0.145,0.041,0.248,0.16,0.275,0.299c0.166,0.879,0.283,1.756,0.393,2.632c0.111,0.876,0.183,1.751,0.277,2.627
							c0.069,0.651-0.402,1.235-1.053,1.305c-0.367,0.039-0.713-0.094-0.957-0.333l-0.302-0.3c-0.905-0.899-2.134-1.778-3.318-2.453
							c-1.202-0.696-2.46-1.258-3.76-1.659c-2.598-0.771-5.356-1.034-8.102-0.681c-2.653,0.328-5.179,1.266-7.348,2.994
							c-2.195,1.679-4.046,4.047-5.516,6.695l-0.02,0.035c-0.101,0.183-0.332,0.249-0.515,0.147
							C246.97,127.65,246.899,127.505,246.912,127.36z"/>
					</g>
				</g>
				<g>
					<path style="fill:#EEEFF0;" d="M226.031,153.396c0,0,16.239-0.484,32.144-3.791c0,0-3.254,13.439-14.505,14.767
						C231.54,165.805,226.031,153.396,226.031,153.396z"/>
				</g>
				<path style="fill:#56357C;" d="M274.482,110.289c0,0-3.083-3.86-8.382-6.294c-5.299-2.434-11.382-0.618-15.489-0.367
					c-4.106,0.251-3.826-5.12-0.936-6.097c2.89-0.977,14.216-1.354,19.392,2.52C275.589,104.933,276.545,112.396,274.482,110.289z"
					/>
				<path style="fill:#D36E92;" d="M259.272,79.587c0,0-44.959-3.397-52.904,40.9C206.368,120.487,194.24,51.125,259.272,79.587z"/>
				<path style="fill:#D36E92;" d="M218.08,178.357c0,0,28.747,11.483,53.893-6.364l0.147,16.968c0,0-20.416,16.013-54.65,2.587
					L218.08,178.357z"/>
				<path style="fill:#56357C;" d="M224.879,180.335c0,0,20.963,5.704,40.804-4.496c0,0-3.058,10.974-19.302,12.892
					S224.879,180.335,224.879,180.335z"/>
				<path style="fill:#56357C;" d="M255.7,77.74c0,0-19.7-5.472-34.748,3.83c-15.048,9.303-13.909,25.643-17.457,91.005
					c-1.7,31.327-8.382,12.086-10.923,2.51c0,0-1.266-11.754-14.483-16.631c-10.147-3.744-21.208-31.641,8.081-83.336
					C210.696,31.833,255.7,56.334,255.7,56.334s30.064-3.107,40.638,36.341c10.574,39.449,6.719,87.036-8.694,98.222
					c0,0-8.192,3.997-7.017-7.817c1.175-11.814-5.172-14.483-5.172-14.483s8.595-8.059,9.539-28.247c0,0,12.709-2.217,7.167-20.736
					C292.161,119.614,263.167,113.611,255.7,77.74z M198.821,117.731c-12.622-3.237-12.574,14.389-12.574,14.389
					c-0.571,17.485,9.892,18.174,9.892,18.174S197.696,141.335,198.821,117.731z"/>
				<path style="fill:#F9E1BA;" d="M194.119,152.012c0,1.235-1.001,2.235-2.236,2.235c-1.235,0-2.235-1.001-2.235-2.235
					c0-1.235,1.001-6.735,2.235-6.735C193.118,145.277,194.119,150.778,194.119,152.012z"/>
				<path style="fill:#F9E1BA;" d="M290.994,143.048c0,1.235-1.001,2.235-2.236,2.235c-1.235,0-2.236-1.001-2.236-2.235
					c0-1.235,1.001-6.735,2.236-6.735C289.993,136.312,290.994,141.813,290.994,143.048z"/>
				<path style="fill:#56357C;" d="M199.821,114.884c0,0,2.339-0.484,9.868-2.888c8.639-2.758,10.415-4.633,13.956-6.726
					c3.542-2.094,5.738,2.816,3.609,5.002s-6.016,3.789-12.348,5.089C208.318,116.714,198.329,117.188,199.821,114.884z"/>
			</g>
			<g>
				<g>
					<path style="fill:#7D8AF5;" d="M169.622,413.521c-23.968,32.698-31.174,71.069-33.65,113.507h216.852
						c0-74.072-28.615-113.507-28.615-113.507l-1.903-28.665H172.686L169.622,413.521z"/>
				</g>
				
					<path style="fill:none;stroke:#56357C;stroke-width:0.75;stroke-linecap:round;stroke-linejoin:round;stroke-miterlimit:10;" d="
					M324.209,413.521c0,0-78.899,22.478-154.587,0"/>
				
					<line style="fill:none;stroke:#56357C;stroke-width:0.75;stroke-linecap:round;stroke-linejoin:round;stroke-miterlimit:10;" x1="246.916" y1="527.028" x2="246.916" y2="494.339"/>
				
					<path style="fill:none;stroke:#56357C;stroke-width:0.75;stroke-linecap:round;stroke-linejoin:round;stroke-miterlimit:10;" d="
					M229.417,438.382c0,0,2.523,46.681,3.154,51.097c0.631,4.416,18.883,5.305,20.324,4.86"/>
			</g>
			<path style="fill:#E493AD;" d="M187.693,206.53c0,0,72.904-7.028,110.621-0.32c0,0-0.872,24.553-52.218,24.553
				S187.693,206.53,187.693,206.53z"/>
			<path style="fill:#F2B9ED;" d="M187.693,206.53c0,0-11.27-0.233-26.923,5.856c-4.449,1.731-6.354,6.989-4.072,11.182
				c10.249,18.829,33.82,70.327,16.532,119.571c-16.375,46.646-26.607,64.692,70.519,64.692c99.312,0,91.395-15.936,77.374-64.692
				c-14.317-49.784,2.822-100.353,10.585-119.263c1.785-4.348-0.549-9.279-5.048-10.637c-8.657-2.613-19.245-5.086-28.346-7.028
				C298.315,206.21,243.722,232.481,187.693,206.53z"/>
			<path style="fill:#E09BDC;" d="M173.232,343.138c-16.375,46.646-26.607,64.692,70.519,64.692
				c99.312,0,91.395-15.936,77.374-64.692l-78.127,36.515L173.232,343.138z"/>
			<g>
				<path style="fill:#F2B9ED;" d="M158.968,213.385c0,0-44.828,21.375-73.973,102.156c0,0,50.174,17.248,91.335,31.8
					c0,0,8.418-44.467,13.669-65.647C195.428,259.799,172.818,207.14,158.968,213.385z"/>
				<path style="fill:#E493AD;" d="M85.23,315.096c0,0,69.885,11.737,137.264,46.8c0,0-1.137,13.696-8.444,31.388
					c0,0-59.34,0.367-110.01-13.059C59.042,368.302,85.23,315.096,85.23,315.096z"/>
				<path style="fill:#D36E92;" d="M150.074,388.956c-14.904-1.927-30.858-4.711-46.034-8.732
					c-21.354-5.658-26.677-20.614-26.374-34.768C77.665,345.456,83.869,374.99,150.074,388.956z"/>
				
					<path style="fill:none;stroke:#56357C;stroke-width:0.75;stroke-linecap:round;stroke-linejoin:round;stroke-miterlimit:10;" d="
					M85.23,315.096c0,0,29.419,5.658,49.907,12.144"/>
			</g>
			<g>
				<path style="fill:#F2B9ED;" d="M326.031,213.05c0,0,40.037,10.194,76.115,102.492c0,0-50.174,17.248-91.335,31.8
					c0,0-8.418-44.467-13.67-65.647C291.712,259.799,308.364,209.212,326.031,213.05z"/>
				<path style="fill:#E493AD;" d="M401.91,315.096c0,0-69.885,11.737-137.264,46.8c0,0-3.846,13.845,3.461,31.537
					c0,0,64.322,0.217,114.993-13.208C428.097,368.302,401.91,315.096,401.91,315.096z"/>
				<path style="fill:#D36E92;" d="M333.926,389.243c16.136-1.954,33.323-4.819,49.174-9.019
					c19.686-5.216,25.747-18.334,26.337-31.441C409.437,348.783,403.759,374.422,333.926,389.243z"/>
				<path style="fill:#E493AD;" d="M264.646,361.896"/>
			</g>
			<g>
				<path style="fill:#E09BDC;" d="M331.048,333.611c0,0-19.827-16.565-25.059-36.613c0,0-1.323,41.467-32.395,60.382
					C273.594,357.381,308.84,340.022,331.048,333.611z"/>
				<path style="fill:#E09BDC;" d="M154.729,333.424c0,0,21.156-16.377,26.389-36.425c0,0,1.323,41.467,32.395,60.382
					C213.513,357.381,178.3,341,154.729,333.424z"/>
				
					<path style="fill:none;stroke:#56357C;stroke-width:0.75;stroke-linecap:round;stroke-linejoin:round;stroke-miterlimit:10;" d="
					M170.429,338.973c0,0,8.693-19.129,15.742-75.049"/>
				
					<path style="fill:none;stroke:#56357C;stroke-width:0.75;stroke-linecap:round;stroke-linejoin:round;stroke-miterlimit:10;" d="
					M316.592,338.698c0,0-8.574-18.854-15.622-74.775"/>
				<polygon style="fill:#56357C;" points="313.436,329.46 305.521,343.275 316.711,338.973 				"/>
				
					<path style="fill:none;stroke:#56357C;stroke-width:0.75;stroke-linecap:round;stroke-linejoin:round;stroke-miterlimit:10;" d="
					M292.156,348.83c0,0,29.783-13.622,59.975-21.627"/>
				<polygon style="fill:#56357C;" points="173.704,329.46 181.619,343.275 170.429,338.973 				"/>
			</g>
			<path style="fill:none;stroke:#56357C;stroke-width:0.75;stroke-linecap:round;stroke-linejoin:round;stroke-miterlimit:10;" d="
				M177.438,207.615c0,0,14.55,23.148,68.659,23.148c45.29,0,62.717-22.207,62.717-22.207"/>
			<g>
				<g>
					<path style="fill:#E493AD;" d="M221.492,357.808c0,0-3.845,7.271-12.528,7.271c-8.683,0-19.846,26.701,5.086,28.205
						c24.932,1.504,29.992-9.778,29.372-19.555c-0.62-9.778,0-71.252,0-71.252s0.216-11.63-6.801-11.63
						c-9.412,0-7.068,28.681-9.342,44.001C225.006,350.166,221.492,357.808,221.492,357.808z"/>
					
						<path style="fill:none;stroke:#56357C;stroke-width:0.75;stroke-linecap:round;stroke-linejoin:round;stroke-miterlimit:10;" d="
						M243.373,307.717c0,0-0.054-9.525-6.223-9.525c-6.168,0-6.585,31.703-11.144,43.94"/>
					
						<path style="fill:none;stroke:#56357C;stroke-width:0.75;stroke-linecap:round;stroke-linejoin:round;stroke-miterlimit:10;" d="
						M243.284,318.786c0,0,0.691-10.046-5-10.046c-6.47,0-3.646,20.121-8.36,34.1"/>
				</g>
				<g>
					<path style="fill:#E493AD;" d="M264.14,357.808c0,0,3.845,7.271,12.528,7.271s19.846,26.701-5.085,28.205
						c-24.932,1.504-29.992-9.778-29.372-19.555c0.62-9.778,0-71.252,0-71.252s-0.216-11.63,6.801-11.63
						c9.412,0,7.068,28.681,9.342,44.001C260.626,350.166,264.14,357.808,264.14,357.808z"/>
					<path style="fill:#D36E92;" d="M253.713,391.423c0,0-9.419-28.794-11.224-60.289c0,0-1.691,45.833-12.883,61.004
						c0,0,10.07-1.28,13.391-12.486C242.996,379.653,244.552,389.593,253.713,391.423z"/>
					
						<path style="fill:none;stroke:#56357C;stroke-width:0.75;stroke-linecap:round;stroke-linejoin:round;stroke-miterlimit:10;" d="
						M242.259,307.717c0,0,0.054-9.525,6.223-9.525c6.168,0,6.585,31.703,11.144,43.94"/>
					
						<path style="fill:none;stroke:#56357C;stroke-width:0.75;stroke-linecap:round;stroke-linejoin:round;stroke-miterlimit:10;" d="
						M242.348,318.786c0,0-0.691-10.046,5-10.046c6.47,0,3.646,20.121,8.36,34.1"/>
					
						<path style="fill:none;stroke:#56357C;stroke-width:0.75;stroke-linecap:round;stroke-linejoin:round;stroke-miterlimit:10;" d="
						M242.489,321.907v49.746c0,0-0.991,10.873,4.384,15.671"/>
				</g>
				
					<path style="fill:none;stroke:#56357C;stroke-width:0.75;stroke-linecap:round;stroke-linejoin:round;stroke-miterlimit:10;" d="
					M264.495,393.419c0,0,29.751,1.951,66.575-3.839"/>
				
					<path style="fill:none;stroke:#56357C;stroke-width:0.75;stroke-linecap:round;stroke-linejoin:round;stroke-miterlimit:10;" d="
					M221.136,393.419c0,0-24.382,0.799-51.007-2.281"/>
			</g>
			<path style="fill:none;stroke:#56357C;stroke-width:0.75;stroke-linecap:round;stroke-linejoin:round;stroke-miterlimit:10;" d="
				M263.967,301.86c0,0,3.783-6.809,12.609-7.313"/>
			<path style="fill:none;stroke:#56357C;stroke-width:0.75;stroke-linecap:round;stroke-linejoin:round;stroke-miterlimit:10;" d="
				M256.401,282.693c0,0,4.792-12.609,13.87-14.375"/>
			<path style="fill:none;stroke:#56357C;stroke-width:0.75;stroke-linecap:round;stroke-linejoin:round;stroke-miterlimit:10;" d="
				M239.515,279.919c0,0-3.037-17.653-12.115-22.697"/>
			<path style="fill:none;stroke:#56357C;stroke-width:0.75;stroke-linecap:round;stroke-linejoin:round;stroke-miterlimit:10;" d="
				M223.058,291.635c0,0-3.34-8.302-15.159-8.546"/>
			<path style="fill:none;stroke:#56357C;stroke-width:0.75;stroke-linecap:round;stroke-linejoin:round;stroke-miterlimit:10;" d="
				M252.836,260.326c0,0-1.464,4.21-2.295,7.337"/>
			<path style="fill:none;stroke:#56357C;stroke-width:0.75;stroke-linecap:round;stroke-linejoin:round;stroke-miterlimit:10;" d="
				M225.421,277.056c0,0,3.952,3.794,4.584,6.481"/>
			<path style="fill:none;stroke:#56357C;stroke-width:0.75;stroke-linecap:round;stroke-linejoin:round;stroke-miterlimit:10;" d="
				M228.84,267.663c0,1.067-0.865,1.932-1.932,1.932c-1.067,0-1.932-0.865-1.932-1.932s0.865-1.932,1.932-1.932
				C227.975,265.73,228.84,266.595,228.84,267.663z"/>
			<path style="fill:none;stroke:#56357C;stroke-width:0.75;stroke-linecap:round;stroke-linejoin:round;stroke-miterlimit:10;" d="
				M267.831,282.693c0,1.067-0.865,1.932-1.932,1.932s-1.932-0.865-1.932-1.932c0-1.067,0.865-1.932,1.932-1.932
				S267.831,281.626,267.831,282.693z"/>
			<circle style="fill:#56357C;" cx="246.038" cy="276.011" r="1.428"/>
			<circle style="fill:#56357C;" cx="260.513" cy="293.285" r="1.428"/>
			<circle style="fill:#56357C;" cx="215.478" cy="271.975" r="1.428"/>
			<path style="fill:none;stroke:#56357C;stroke-width:0.75;stroke-linecap:round;stroke-linejoin:round;stroke-miterlimit:10;" d="
				M220.838,301.86c0,1.067-0.865,1.932-1.932,1.932s-1.932-0.865-1.932-1.932c0-1.067,0.865-1.932,1.932-1.932
				S220.838,300.792,220.838,301.86z"/>
			<path style="fill:none;stroke:#56357C;stroke-width:0.75;stroke-linecap:round;stroke-linejoin:round;stroke-miterlimit:10;" d="
				M250.942,217.62c0,0-24.725,2.829-48.941-5.529"/>
		</g>
	</g>
</g>
</svg>
