<?xml version="1.0" encoding="utf-8"?>
<!-- Generator: Adobe Illustrator 27.5.0, SVG Export Plug-In . SVG Version: 6.00 Build 0)  -->
<svg version="1.1" id="Capa_1" xmlns="http://www.w3.org/2000/svg" xmlns:xlink="http://www.w3.org/1999/xlink" x="0px" y="0px"
	 viewBox="0 0 2122 2122" style="enable-background:new 0 0 2122 2122;" xml:space="preserve">
<path style="fill:#F9C2AC;" d="M1153.081,1090.524c-3.93-13.383-10.075-51.379-12.368-88.343
	c26.623-15.174,53.517-37.033,78.36-66.217c-3.89-11.491-6.761-23.243-7.689-35.491c-1.998-26.367,5.075-51.604,14.674-76.337
	c-4.833,0.948-9.851,1.505-15.038,1.505c-35.613,0-64.484-23.674-64.484-52.877c0-4.555,0.777-8.951,2.097-13.168
	c-18.744-3.175-37.07-10.017-52.998-21.618c-5.131-3.754-9.546-9.036-13.459-15.307c-3.903-6.276-7.284-13.572-10.094-21.457
	c-5.024-14.131-8.207-30.137-8.826-45.465l-1.142,0.611c-2.167-4.054-5.664-7.288-10.005-9.549
	c-4.327-2.257-9.462-3.473-14.508-3.468c-1.498,0-2.988,0.106-4.447,0.317c-10.403,1.472-20.184,7.638-28.237,15.732
	c-1.517,22.805-8.438,46.653-18.717,63.278c-3.913,6.271-8.328,11.553-13.459,15.307c-12.176,8.867-25.759,14.94-39.849,18.759
	c1.96,5.057,3.034,10.437,3.034,16.026c0,29.203-28.87,52.877-64.484,52.877c-35.614,0-64.484-23.674-64.484-52.877
	c0-11.581,4.592-22.258,12.292-30.968c-2.55-1.575-5.032-3.201-7.357-4.935c-11.565-8.661-20.527-20.832-26.625-34.732
	c-6.094-13.908-9.342-29.582-9.346-45.473c0.001-22.548,6.57-45.63,21.26-64.366c8.701-11.088,20.86-18.867,34.703-23.856
	c13.86-4.992,29.468-7.254,45.522-7.257c1.747,0,3.505,0.073,5.261,0.127c-14.341-2.345-28.788-3.366-42.633-2.085
	c-24.198,14.202-47.178,24.797-66.898,31.91c0.854,31.074-0.844,71.237-14.691,77.822c-0.844,0.402-1.726,0.531-2.628,0.519
	c-0.26-2.385-0.521-4.771-0.907-7.306c-10.404-68.324-56.522-75.874-75.353-62.94c-18.097,12.431-13.202,57.961-4.823,90.438
	c5.605,21.725,24.45,54.839,41.31,63.866c15.352,8.22,32.535,2.418,37.029-13.573c0.966,5.104,1.963,10.239,3.004,15.427
	c5.09,25.365,13.151,49.017,23.343,71.025c12.554,27.113,28.416,51.657,46.379,73.518c3.819,4.647,7.736,9.157,11.729,13.563
	c30.974,34.175,66.76,61.052,101.672,80.204c42.066,23.077,82.802,35.009,112.086,35.009c1.334,0,2.707-0.081,4.062-0.123
	l-50.955,293.084c15.061,4.399,31.228,6.981,48.669,6.981c123.774,0,190.696-157.351,201.86-194.592
	C1222.712,1124.929,1158.475,1108.892,1153.081,1090.524z"/>
<path style="fill:#342726;" d="M1528.71,1422.115c0.038,0.126-14.395,20.003-36.375,44.57c6.708,90.882,2.266,198.465-5.57,295.487
	c28.513,32.746,68.656,27.644,68.656,27.644s-32.034-73.094-6.494-145.638c24.222-68.802,71.944-114.467,76.917-203.511
	c6.391-114.436-74.65-214.99-160.722-290.675c-37.286-32.786-77.161-63.928-107.023-103.264c4.031,20.687,6.787,41.666,7.164,63.15
	c0.263,14.986-1.149,29.65-3.944,43.948c33.409,11.403,66.592,26.915,86.934,48.214
	C1488.884,1244.584,1523.347,1399.745,1528.71,1422.115z"/>
<path style="fill:#342726;" d="M1140.713,1002.18c2.293,36.965,8.438,74.961,12.368,88.343
	c5.394,18.369,69.631,34.405,101.842,43.527c1.322-4.411,1.871-7.156,1.63-7.735c3.298,0.945,7.919,2.046,13.532,3.33
	c1.218-43.281-6.247-86.851-22.392-126.679c-9.093-22.429-20.899-44.192-28.62-67.003
	C1194.23,965.148,1167.336,987.006,1140.713,1002.18z"/>
<path style="fill:#4B3939;" d="M1559.227,1132.232c-47.174-50.838-96.026-102.741-121.387-168.499
	c-27.947-72.461-20.345-167.143-14.19-255.894c4.215-32.178,7.585-64.406,8.003-96.847c0.88-68.281-11.487-136.708-36.213-200.36
	c-25.839-66.516-54.861-123.207-106.477-167.852c-41.579-45.242-143.965-93.048-207.92-113.323
	c-26.551-8.417-58.569,12.8-58.569,12.8s-33.877-33.648-67.442-14.628c-50.81,28.791-124.333,58.312-176.2,97.082
	c-1.436,0.938-2.867,1.934-4.289,3.008c-70.951,53.577-101.389,122.364-126.141,205.07c-19.578,65.42-26.457,134.615-20.142,202.608
	c3,32.304,8.926,64.163,15.69,95.902c13.203,87.98,28.321,181.755,6.233,256.212c-20.044,67.569-64.607,123.197-107.583,177.63
	c-41.006,51.939-83.302,106.116-101.807,170.763c-23.153,80.883-0.391,164.086,37.725,236.478
	c19.139,36.35,41.124,71.119,59.923,107.66c9.431,18.333,17.943,37.257,24.068,56.971c5.447,17.528,9.144,36.074,5.93,54.424
	c-1.497,8.546-4.864,17.181-9.348,24.587c-0.904,1.493,1.1,2.874,2.326,1.795c27.714-24.385,18.182-68.621,7.617-99.039
	c-8.291-23.873-19.249-46.469-31.211-68.574c21.696,27.91,41.255,55.007,49.304,83.983c21.037,75.732-15.618,119.086-15.618,119.086
	s26.89-2.571,52.41-18.93c-0.579-5.739-1.153-11.54-1.719-17.415c-13.327,3.871-23.439,3.403-23.439,3.403
	s26.111-75.412-5.125-145.692c-29.624-66.655-80.831-108.374-92.879-196.739c-14.984-109.89,52.678-213.34,129.348-294.486
	c95.493-60.419,185.022-145.695,205.913-260.426c0.574-3.154,1.043-6.327,1.511-9.501c-3.992-4.405-7.91-8.915-11.729-13.563
	c-0.441,4.473-0.967,8.936-1.669,13.371c-4.587,28.985-13.992,57.206-26.785,83.583c-26.131,53.88-67.414,99.901-112.767,138.439
	c-11.307,9.608-22.973,18.784-34.766,27.8c35.585-36.021,72.402-71.597,96.397-116c34.519-63.876,38.959-139.751,33.871-212.179
	c-0.2-2.846-0.435-5.688-0.66-8.532c-10.192-22.009-18.253-45.66-23.343-71.025c-1.041-5.188-2.038-10.322-3.004-15.427
	c-4.495,15.991-21.678,21.793-37.029,13.573c-16.861-9.027-35.705-42.141-41.31-63.866c-8.379-32.477-13.274-78.007,4.823-90.438
	c18.831-12.934,64.949-5.385,75.353,62.94c0.386,2.535,0.647,4.921,0.907,7.306c0.902,0.012,1.784-0.117,2.628-0.519
	c13.848-6.585,15.545-46.748,14.691-77.822c-0.569-20.701-2.267-37.374-2.267-37.374s160.351-62.589,244.405-211.49
	c9.532,21.332,19.921,39.536,24.15,44.857c32.364,40.712,77.666,67.316,122.866,90.819c18.776,9.764,37.911,19.275,54.279,33.03
	c13.608,11.436,24.793,25.56,33.612,41.29c3.283,5.856,6.222,11.939,8.839,18.193c1.983,4.74,3.78,9.57,5.38,14.484
	c3.098,9.512,5.483,19.297,7.143,29.207c1.1,6.565,1.919,13.174,2.387,19.79c1.707,24.161-0.489,48.34-5.398,72.021
	c-1.836,8.858-4.055,17.642-6.596,26.333c-0.607,2.073-1.215,4.146-1.857,6.209c-3.427,11.001-7.347,21.836-11.65,32.444
	c-7.147,17.621-15.418,35.276-22.372,53.194c-9.599,24.733-16.672,49.97-14.674,76.337c0.928,12.247,3.799,23.999,7.689,35.491
	c7.721,22.811,19.527,44.573,28.62,67.003c16.145,39.828,23.61,83.398,22.392,126.679c-0.83,29.482-5.649,58.83-14.65,86.766
	c-22.213,68.946-69.246,128.662-129.47,164.38c29.878,0.937,58.258-13.22,83.959-29.299
	c71.01-44.422,135.168-114.679,151.394-197.666c2.795-14.297,4.207-28.961,3.944-43.948c-0.377-21.484-3.133-42.463-7.164-63.15
	c29.862,39.335,69.737,70.478,107.023,103.264c86.072,75.685,167.114,176.238,160.722,290.675
	c-4.973,89.044-52.695,134.709-76.917,203.511c-25.539,72.545,6.494,145.638,6.494,145.638s-40.143,5.102-68.656-27.644
	c-0.8,9.898-1.636,19.673-2.498,29.322c44.184,26.373,100.943,28.988,100.943,28.988s-39.991-40.296-25.052-117.464
	c5.716-29.526,23.055-58.095,42.46-87.645c-10.165,22.988-19.288,46.385-25.652,70.843c-8.109,31.163-14.088,76.017,15.48,98.118
	c1.309,0.978,3.196-0.558,2.176-1.975c-5.059-7.026-9.104-15.366-11.276-23.765c-4.665-18.036-2.457-36.817,1.577-54.723
	c4.536-20.14,11.514-39.681,19.455-58.707c15.828-37.923,34.975-74.331,51.158-112.09c32.23-75.198,48.294-159.949,18.773-238.731
	C1650.715,1231.377,1604.239,1180.74,1559.227,1132.232z M657.722,1063.81c-21.341,51.959-59.633,94.721-94.253,138.955
	c-60.052,76.73-113.182,170.455-110.946,265.205c-7.698-33.609-10.086-68.552-4.082-102.597
	c11.8-66.914,52.389-123.21,93.419-175.516c42.242-53.851,87.488-107.285,113.085-171.571
	c12.836-32.236,19.654-65.778,22.702-99.819C680.824,968.198,676.522,1018.038,657.722,1063.81z M1386.245,681.853
	c-5.605,21.726-24.45,54.839-41.31,63.867c-7.069,3.785-14.515,4.556-20.948,2.774c2.846-14.183,5.823-28.603,8.384-44.366
	c2.487-15.301,4.578-31.858,5.716-50.825c0.718-11.973,0.448-23.806-0.564-35.537c-0.621-7.194-1.541-14.346-2.678-21.47
	c16.673-12.949,35.962-12.173,46.578-4.881C1399.519,603.847,1394.624,649.377,1386.245,681.853z M1673.135,1426.927
	c-5.316-94.627-65.741-183.824-131.713-255.529c-38.033-41.337-79.609-80.913-105.02-131.008
	c-22.385-44.13-30.643-93.469-31.436-143.296c5.749,33.69,15.217,66.583,30.579,97.694c30.636,62.045,79.994,111.705,126.39,162.021
	c45.065,48.874,90.009,101.758,107.1,167.519C1677.73,1357.789,1678.133,1392.812,1673.135,1426.927z"/>
<path style="fill:#342726;" d="M780.083,834.94c5.088,72.428,0.648,148.303-33.871,212.179c-23.995,44.403-60.812,79.978-96.397,116
	c11.793-9.016,23.459-18.192,34.766-27.8c45.353-38.538,86.636-84.559,112.767-138.439c12.792-26.377,22.197-54.598,26.785-83.583
	c0.702-4.434,1.229-8.898,1.669-13.371c-17.963-21.861-33.825-46.405-46.379-73.518C779.648,829.251,779.884,832.094,780.083,834.94
	z"/>
<path style="fill:#342726;" d="M611.017,1477.745c-18.869-18.17-34.478-36.933-40.699-53.264
	c0.045-0.299,28.396-134.884,73.359-182.213c73.296-77.153,197.181-103.83,197.181-103.83s0.063,0.2,0.156,0.483
	c0.026,0.079,0.079,0.238,0.112,0.337c0.09,0.276,0.206,0.624,0.348,1.046c0.09,0.265,0.213,0.62,0.323,0.938
	c0.139,0.406,0.291,0.842,0.463,1.332c0.149,0.424,0.324,0.911,0.498,1.395c0.187,0.523,0.392,1.088,0.609,1.678
	c0.216,0.588,0.448,1.215,0.693,1.867c0.157,0.42,0.335,0.885,0.504,1.331c13.917-7.828,29.583-16.328,42.047-23.727
	c11-6.575,19.421-12.21,21.98-15.671c4.232-5.714,7.883-11.624,11.033-17.709c7.876-15.215,12.624-31.532,15.489-48.641
	c0.573-3.422,1.071-6.875,1.504-10.358c0.865-6.965,1.469-14.048,1.892-21.227c0.346-5.874,0.549-11.827,0.696-17.82
	c-34.912-19.152-70.698-46.028-101.672-80.204c-0.468,3.173-0.936,6.347-1.511,9.501
	c-20.892,114.731-110.421,200.007-205.913,260.426c-76.67,81.146-144.332,184.596-129.348,294.486
	c12.048,88.366,63.254,130.084,92.879,196.739c31.236,70.28,5.125,145.692,5.125,145.692s10.112,0.468,23.439-3.403
	C611.997,1710.974,604.307,1583.997,611.017,1477.745z"/>
<path style="fill:#F39A83;" d="M1055.35,1028.578c-1.355,0.042-2.728,0.123-4.062,0.123c-29.284,0-70.019-11.932-112.086-35.009
	c-0.147,5.993-0.35,11.947-0.696,17.82c-0.423,7.18-1.027,14.262-1.892,21.227c-0.433,3.483-0.93,6.936-1.504,10.358
	c-2.866,17.109-7.613,33.425-15.489,48.641c-3.151,6.086-6.802,11.996-11.033,17.709c-2.649,3.582-11.086,9.204-21.98,15.671
	c-12.463,7.399-28.13,15.899-42.047,23.727c0.078,0.205,0.152,0.402,0.233,0.613c0.284,0.744,0.575,1.502,0.891,2.31
	c0.275,0.704,0.582,1.468,0.881,2.219c0.349,0.876,0.694,1.745,1.077,2.682c0.322,0.789,0.684,1.646,1.03,2.476
	c0.419,1.006,0.821,1.984,1.276,3.048c0.297,0.696,0.637,1.457,0.95,2.177c1.026,2.362,2.134,4.842,3.326,7.437
	c0.383,0.835,0.745,1.641,1.146,2.498c0.603,1.289,1.257,2.639,1.9,3.974c0.471,0.98,0.933,1.949,1.425,2.953
	c0.665,1.354,1.37,2.747,2.074,4.139c0.527,1.043,1.055,2.087,1.604,3.15c0.738,1.429,1.506,2.882,2.284,4.344
	c0.572,1.076,1.156,2.159,1.751,3.251c0.819,1.504,1.657,3.02,2.518,4.552c0.606,1.08,1.234,2.171,1.861,3.263
	c0.913,1.587,1.831,3.177,2.789,4.786c0.62,1.044,1.271,2.1,1.911,3.153c1.022,1.681,2.041,3.361,3.112,5.058
	c0.567,0.899,1.171,1.809,1.752,2.712c4.01,6.235,8.35,12.541,13.025,18.829c0.689,0.928,1.357,1.857,2.061,2.783
	c1.282,1.684,2.619,3.359,3.949,5.035c0.867,1.092,1.723,2.186,2.611,3.273c1.326,1.623,2.695,3.233,4.068,4.842
	c0.954,1.118,1.91,2.234,2.886,3.343c1.395,1.583,2.819,3.153,4.261,4.715c1.02,1.105,2.054,2.204,3.098,3.297
	c1.473,1.544,2.964,3.077,4.485,4.593c1.071,1.069,2.169,2.119,3.264,3.172c1.565,1.505,3.134,3.007,4.748,4.478
	c1.099,1.002,2.236,1.975,3.359,2.958c1.683,1.476,3.358,2.958,5.092,4.391c1.004,0.83,2.053,1.619,3.074,2.433
	c4.194,3.342,8.517,6.561,13.006,9.606c0.471,0.319,0.919,0.663,1.393,0.979c1.842,1.227,3.753,2.373,5.645,3.543
	c1.37,0.847,2.719,1.717,4.115,2.532c1.837,1.074,3.729,2.078,5.613,3.095c1.523,0.822,3.04,1.65,4.593,2.432
	c1.888,0.951,3.816,1.846,5.748,2.736c1.626,0.749,3.261,1.485,4.919,2.188c1.946,0.826,3.918,1.613,5.907,2.373
	c1.728,0.66,3.478,1.285,5.239,1.893c2.006,0.693,4.023,1.369,6.073,1.992c0.598,0.182,1.215,0.331,1.817,0.507L1055.35,1028.578z"
	/>
<path style="fill:#F39A83;" d="M761.996,1818.487c-2-44.991-37.327-219.817-46.144-262.67
	c-14.065-6.308-66.287-40.949-104.834-78.071c-6.71,106.252,0.98,233.229,11.184,339.185c0.566,5.875,1.14,11.676,1.719,17.415
	c7.075,70.091,14.997,129.488,20.075,165.172h87.929C734.827,1950.501,764.51,1875.382,761.996,1818.487z"/>
<path style="fill:#F9C2AC;" d="M1492.334,1466.686c-30.341,33.913-75.089,76.781-116.258,89.131
	c-8.817,42.853-40.594,214.13-42.595,259.121c-2.627,59.474,24.912,132.81,25.134,184.579h101.498
	c6.085-42.759,16.252-119.555,24.153-208.023c0.862-9.649,1.698-19.423,2.498-29.322
	C1494.6,1665.15,1499.042,1557.567,1492.334,1466.686z"/>
<path style="fill:#E1B261;" d="M1333.482,1814.938c2.001-44.99,33.778-216.267,42.595-259.121
	c41.168-12.35,85.917-55.218,116.258-89.131c21.98-24.568,36.414-44.445,36.375-44.57c-5.363-22.37-39.825-177.531-80.458-220.075
	c-20.342-21.3-53.525-36.812-86.934-48.214c-16.225,82.987-80.384,153.244-151.394,197.666
	c-25.702,16.079-54.081,30.235-83.959,29.299c60.224-35.719,107.257-95.434,129.47-164.38c9.001-27.936,13.82-57.284,14.65-86.766
	c-5.614-1.284-10.234-2.385-13.532-3.33c0.241,0.579-0.308,3.324-1.63,7.735c-11.164,37.241-78.086,194.592-201.86,194.592
	c-17.441,0-33.608-2.581-48.669-6.981c-0.602-0.176-1.219-0.325-1.817-0.507c0.608,0.185,1.19,0.413,1.802,0.592
	c-38.873,263.651-76.736,488.459-96.8,677.771h434.553h16.482C1358.393,1947.748,1330.854,1874.412,1333.482,1814.938z"/>
<path style="fill:#CF9751;" d="M1004.381,1321.746c-0.612-0.179-1.194-0.407-1.802-0.592c-2.05-0.624-4.067-1.299-6.073-1.992
	c-1.762-0.609-3.51-1.234-5.239-1.893c-1.99-0.76-3.961-1.547-5.907-2.373c-1.658-0.703-3.292-1.439-4.919-2.188
	c-1.932-0.89-3.86-1.785-5.748-2.736c-1.553-0.782-3.07-1.61-4.593-2.432c-1.883-1.016-3.775-2.021-5.613-3.095
	c-1.396-0.816-2.745-1.685-4.115-2.532c-1.892-1.17-3.803-2.316-5.645-3.543c-0.474-0.316-0.922-0.659-1.393-0.979
	c-4.489-3.045-8.812-6.265-13.006-9.606c-1.021-0.814-2.07-1.603-3.074-2.433c-1.734-1.433-3.409-2.916-5.092-4.391
	c-1.123-0.984-2.259-1.957-3.359-2.958c-1.614-1.47-3.183-2.972-4.748-4.478c-1.096-1.053-2.192-2.103-3.264-3.172
	c-1.521-1.516-3.011-3.05-4.485-4.593c-1.044-1.094-2.077-2.191-3.098-3.297c-1.441-1.563-2.866-3.132-4.261-4.715
	c-0.977-1.109-1.932-2.225-2.886-3.343c-1.373-1.609-2.742-3.219-4.068-4.842c-0.888-1.088-1.744-2.181-2.611-3.273
	c-1.33-1.676-2.667-3.351-3.949-5.035c-0.704-0.927-1.371-1.855-2.061-2.783c-4.675-6.288-9.015-12.593-13.025-18.829
	c-0.582-0.904-1.184-1.813-1.752-2.712c-1.071-1.698-2.09-3.378-3.112-5.058c-0.64-1.053-1.29-2.107-1.911-3.153
	c-0.957-1.609-1.876-3.199-2.789-4.786c-0.628-1.093-1.254-2.182-1.861-3.263c-0.861-1.532-1.699-3.048-2.518-4.552
	c-0.596-1.094-1.177-2.174-1.751-3.251c-0.778-1.462-1.546-2.915-2.284-4.344c-0.55-1.065-1.076-2.105-1.604-3.15
	c-0.704-1.392-1.409-2.786-2.074-4.139c-0.493-1.005-0.953-1.971-1.425-2.953c-0.643-1.335-1.297-2.685-1.9-3.974
	c-0.401-0.858-0.762-1.662-1.146-2.498c-1.191-2.595-2.299-5.075-3.326-7.437c-0.313-0.721-0.652-1.48-0.95-2.177
	c-0.454-1.064-0.857-2.042-1.276-3.048c-0.347-0.833-0.707-1.685-1.03-2.476c-0.383-0.938-0.727-1.806-1.077-2.682
	c-0.302-0.756-0.604-1.51-0.881-2.219c-0.315-0.809-0.607-1.567-0.891-2.31c-0.258-0.676-0.505-1.324-0.737-1.944
	c-0.245-0.653-0.477-1.279-0.693-1.867c-0.22-0.602-0.418-1.146-0.609-1.678c-0.174-0.484-0.349-0.971-0.498-1.395
	c-0.177-0.504-0.321-0.916-0.463-1.332c-0.11-0.319-0.233-0.673-0.323-0.938c-0.151-0.446-0.255-0.759-0.348-1.046
	c-0.032-0.099-0.086-0.257-0.112-0.337c-0.1-0.308-0.156-0.483-0.156-0.483s-123.885,26.677-197.181,103.83
	c-44.962,47.328-73.314,181.914-73.359,182.213c6.221,16.331,21.831,35.093,40.699,53.264
	c38.548,37.122,90.769,71.763,104.834,78.071c8.817,42.853,44.144,217.68,46.144,262.67c2.514,56.895-27.169,132.014-30.072,181.03
	h30.051h145.605C927.644,1810.205,965.507,1585.397,1004.381,1321.746z"/>
<path style="fill:#F9C2AC;" d="M1236.49,568.435c4.298,1.549,8.408,3.401,12.328,5.504c-3.791-4.234-7.59-8.18-11.391-11.992
	c-19.772-4.949-41.545-3.837-62.923,0.01c5.506-0.511,11.012-0.778,16.465-0.779C1207.023,561.181,1222.63,563.442,1236.49,568.435z
	"/>
<path style="fill:#F9C2AC;" d="M1260.081,738.498c0.642-2.063,1.251-4.135,1.857-6.209c-1.458,1.33-2.959,2.605-4.515,3.811
	C1258.337,736.878,1259.226,737.676,1260.081,738.498z"/>
<path style="fill:#F9C2AC;" d="M1273.932,633.936c-0.467-6.616-1.287-13.225-2.387-19.79c-2.56-5.218-5.594-10.227-9.246-14.878
	c-7.099-9.052-17.307-15.748-29.644-20.198c-12.319-4.448-26.7-6.591-41.687-6.587c-20.62-0.006-42.371,4.05-61.449,11.317
	c-19.092,7.247-35.453,17.745-45.52,30.077c-3.12,3.798-5.561,9.032-7.171,15.312c-1.615,6.272-2.4,13.548-2.397,21.256
	c-0.058,23.07,7.15,49.993,17.344,66.252c3.363,5.421,7.031,9.617,10.519,12.144c15.103,11.019,32.887,17.446,51.197,20.126
	c10.626-17.237,32.366-29.082,57.529-29.082c13.587,0,26.176,3.464,36.572,9.348c0.688-0.485,1.456-0.928,2.118-1.425
	c7.447-5.568,13.808-13.076,18.824-21.853C1273.443,682.275,1275.639,658.097,1273.932,633.936z"/>
<path style="fill:#F9C2AC;" d="M991.548,629.19c-1.609-6.28-4.05-11.515-7.171-15.313c-10.066-12.331-26.428-22.83-45.52-30.077
	c-19.079-7.267-40.829-11.324-61.449-11.317c-14.987-0.004-29.369,2.139-41.687,6.587c-12.336,4.45-22.545,11.146-29.643,20.198
	c-12.896,16.426-18.85,37.002-18.849,57.389c-0.003,14.343,2.958,28.543,8.394,40.933c5.433,12.399,13.324,22.952,23.045,30.22
	c2.839,2.133,5.996,4.103,9.29,5.99c11.472-8.613,26.705-13.913,43.485-13.913c23.931,0,44.771,10.715,55.9,26.59
	c13.841-3.435,27.096-9.14,38.741-17.634c3.488-2.527,7.156-6.723,10.519-12.144c3.373-5.415,6.461-12.025,9.043-19.277
	c5.176-14.505,8.311-31.593,8.301-46.976C993.948,642.738,993.163,635.461,991.548,629.19z"/>
<path style="fill:#F9C2AC;" d="M953.601,560.444c6.701,4.278,5.182,14.018-0.515,17.125c16.139,7.428,30.195,17.16,40.038,29.144
	c4.475,5.475,7.458,12.229,9.374,19.661c1.437,5.601,2.268,11.611,2.593,17.851c7.65-5.851,16.503-10.291,26.445-11.753
	c2.008-0.291,4.037-0.434,6.067-0.434c6.823,0.005,13.659,1.595,19.724,4.744c2.21,1.148,4.267,2.588,6.224,4.166
	c0.417-5.061,1.147-9.966,2.33-14.574c1.916-7.433,4.9-14.187,9.374-19.661c9.531-11.604,23.015-21.093,38.51-28.429
	c-10.029,2.137-14.824-12.4-6.302-17.84c27.658-17.654,72.684-19.321,104.454-17.344c1.815,0.113,3.608,0.253,5.381,0.423
	c-78.533-65.475-155.832-61.361-199.376-172.642c-36.718,76.774-95.223,133.514-151.396,171.593
	C895.881,542.164,930.657,545.799,953.601,560.444z"/>
<path style="fill:#F39A83;" d="M1248.818,573.939c5.699,3.057,10.958,6.693,15.584,11c-1.6-4.914-3.397-9.744-5.38-14.484
	c-6.822-3.836-14.058-6.622-21.595-8.509C1241.228,565.759,1245.028,569.704,1248.818,573.939z"/>
<path style="fill:#F39A83;" d="M786.778,581.548c-0.587,0.544-1.853,0.012-1.485-0.864c11.502-27.33,35.044-35.785,63.854-37.583
	c5.452-0.34,11.307-0.561,17.377-0.626c56.173-38.079,114.678-94.819,151.396-171.593
	c43.544,111.281,120.843,107.167,199.376,172.642c12.212,1.167,23.363,3.753,32.886,8.739c-8.819-15.729-20.004-29.853-33.612-41.29
	c-16.368-13.756-35.503-23.267-54.279-33.03c-45.201-23.503-90.502-50.108-122.866-90.819c-4.229-5.321-14.618-23.525-24.15-44.857
	c-84.054,148.9-244.405,211.49-244.405,211.49s1.699,16.674,2.267,37.374c19.72-7.112,42.7-17.708,66.898-31.91
	C820.363,561.041,801.913,567.508,786.778,581.548z"/>
<path style="fill:#F39A83;" d="M1079.676,768.269c-17.383-17.945-27.611-31.315-40.455-30.369
	c-12.844,0.947-29.165,11.883-46.145,30.369H1079.676z"/>
<path style="fill:#F9C2AC;" d="M1381.422,591.416c-10.616-7.292-29.905-8.068-46.578,4.881c1.137,7.124,2.057,14.277,2.678,21.47
	c4.746-6.431,11.854-10.641,17.184-12.77c11.77-4.701,22.373,1.415,24.843,9.01c9.278,28.535-12.702,66.311-47.178,90.121
	c-2.561,15.762-5.538,30.183-8.384,44.366c6.434,1.782,13.88,1.01,20.948-2.774c16.86-9.028,35.704-42.141,41.31-63.867
	C1394.624,649.377,1399.519,603.847,1381.422,591.416z"/>
<path style="fill:#F39A83;" d="M1379.549,614.008c-2.47-7.595-13.073-13.711-24.843-9.01c-5.33,2.129-12.439,6.339-17.184,12.77
	c1.013,11.731,1.283,23.564,0.564,35.537c-1.138,18.967-3.229,35.523-5.716,50.825
	C1366.847,680.318,1388.827,642.543,1379.549,614.008z"/>
<path style="fill:#F39A83;" d="M730.67,623.518c-3.97-9.78-13.703-15.809-20.49-18.52c-11.77-4.701-22.373,1.415-24.843,9.01
	c-9.817,30.195,15.344,70.758,53.298,94.148L730.67,623.518z"/>
<path style="fill:#F39A83;" d="M1241.18,588.853c-26.741-11.981-81.232-1.757-107.372,36.81
	c13.548-16.318,32.624-26.547,54.899-24.324c0.284,0.029,0.561,0.084,0.844,0.116c23.391,1.517,57.484,22.022,71.12,17.165
	c0.154,1.795,0.162,3.742,0.083,5.758c1.388-0.542,2.329-1.08,2.65-1.605C1268.728,614.044,1253.565,594.402,1241.18,588.853z"/>
<path style="fill:#F39A83;" d="M871.514,601.455c0.283-0.032,0.558-0.087,0.842-0.116c23.894-2.385,44.113,9.555,57.766,27.976
	c-21.972-45.691-76.389-52.601-103.482-40.462c-10.921,4.892-23.981,20.735-23.27,30.398
	C818.505,620.831,849.67,602.87,871.514,601.455z"/>
<path style="fill:#F39A83;" d="M1042.421,905.158c-18.468,0-37.157-7.515-50.695-18.664c23.919,36.042,56.914,38.143,75.158,31.204
	c12.872-4.895,20.323-15.969,24.558-25.799C1079.884,899.823,1063.999,905.158,1042.421,905.158z"/>
<path style="fill:#EB5956;" d="M1123.145,853.661c-13.862,1.195-50.471,8.623-77.413,8.623c-32.508,0-83.572-7.817-86.387-8.634
	c0,0,11.72,2.996,15.652,11.857c3.408,7.681,9.305,14.872,16.729,20.986c13.537,11.149,32.227,18.664,50.695,18.664
	c21.578,0,37.464-5.335,49.022-13.259c10.046-6.887,16.833-15.723,21.111-24.792c4.933-10.46,15.651-13.456,15.651-13.456
	C1127.342,853.412,1125.543,853.454,1123.145,853.661z"/>
<path style="fill:#EC6669;" d="M1063.64,833.991c-6.622,0-15.049,10.232-15.049,10.232s-10.685-12.311-17.759-10.232
	c-25.525,7.5-45.3,12.945-71.487,19.66c2.815,0.816,53.879,8.634,86.387,8.634c26.943,0,63.552-7.428,77.413-8.623
	c2.398-0.207,4.197-0.249,5.06-0.01C1091.934,844.857,1083.569,833.991,1063.64,833.991z"/>
<path style="fill:#F08283;" d="M1006.758,871.709c3.582,5.713,13.169,7.568,20.32,8.754c12.769,2.117,25.427,2.177,37.837,1.407
	c5.251-0.326,11.333,0.089,15.151-2.758c3.688-2.75,3.196-6.826-1.84-9.452c-5.252-2.74-12.803-1.395-18.065-0.858
	c-16.859,1.724-35.797,1.731-52.863-3.885C1004.16,864.846,1005.039,868.966,1006.758,871.709z"/>
<path style="fill:#F3968D;" d="M1032.035,845.896c9.441,1.947,10.835,6.608,15.049,8.313c4.214,1.705,12.165-1.983,15.852-5.116
	c4.013-3.411,8.026-10.232,3.01-11.724c-4.646-1.382-13.728,10.569-17.806,10.605c-5.872,0.053-8.078-11.671-17.51-11.032
	c-2.344,0.094-14.824,5.548-13.243,8.74C1019.394,849.733,1026.748,844.806,1032.035,845.896z"/>
<path style="fill:#503949;" d="M1211.916,543.1c-31.77-1.977-76.796-0.31-104.454,17.344c-8.522,5.44-3.727,19.978,6.302,17.84
	c3.809-1.803,7.706-3.513,11.735-5.05c15.387-5.851,32.204-9.719,49.005-11.277c21.378-3.848,43.15-4.96,62.923-0.01
	c7.537,1.886,14.774,4.673,21.595,8.509c-2.617-6.253-5.556-12.336-8.839-18.193c-9.524-4.987-20.675-7.572-32.886-8.739
	C1215.524,543.354,1213.731,543.213,1211.916,543.1z"/>
<path style="fill:#503949;" d="M1260.671,618.62c-13.635,4.857-47.729-15.648-71.12-17.165c-0.283-0.032-0.56-0.087-0.844-0.116
	c-22.275-2.223-41.351,8.006-54.899,24.324c-2.698,3.25-5.198,6.72-7.437,10.405c-1.127,1.855,1.593,3.287,2.832,1.655
	c0.467-0.615,0.954-1.179,1.431-1.77c4.851-5.999,10.203-10.69,15.885-14.185c17.062-10.495,37.053-10.27,55.185-2.537
	c13.183,5.622,25.373,15.193,34.726,27.48c1.742,7.933,1.221,16.437-0.93,23.649c16.176-7.01,24.605-29.506,25.254-45.983
	C1260.833,622.362,1260.825,620.414,1260.671,618.62z"/>
<path style="fill:#FFFFFF;" d="M1132.277,654.658c0.521-14.74,5.983-25.7,14.242-32.889c-5.682,3.495-11.034,8.186-15.885,14.185
	c-5.408,9.483-9.118,22.858-5.792,35.429c5.496,20.779,20.596,28.054,47.517,29.417
	C1149.279,699.561,1131.245,683.82,1132.277,654.658z"/>
<path style="fill:#FFFFFF;" d="M1236.43,646.712c-9.352-12.287-21.543-21.859-34.726-27.48
	c10.293,7.492,16.514,20.367,15.875,38.444c-1.04,29.388-20.427,43.827-43.778,43.198c0.415,0.018,0.805,0.047,1.225,0.062
	c24.437,0.865,42.484-2.718,55.19-19.618c2.221-2.953,4.026-6.733,5.284-10.956C1237.651,663.148,1238.172,654.645,1236.43,646.712z
	"/>
<path style="fill:#62929F;" d="M1201.704,619.232c-18.132-7.732-38.124-7.958-55.185,2.537
	c-8.259,7.189-13.721,18.149-14.242,32.889c-1.032,29.162,17.002,44.903,40.081,46.143c0.332,0.018,0.653,0.063,0.987,0.075
	c0.153,0.005,0.302-0.007,0.455-0.003c23.351,0.63,42.738-13.809,43.778-43.198C1218.218,639.599,1211.998,626.724,1201.704,619.232
	z"/>
<path style="fill:#2E1F27;" d="M1184.807,664.614c0.185-5.228,4.042-7.763,8.387-7.61c0.334,0.012,0.647,0.068,0.966,0.111
	c0.449-13.076-7.247-20.031-17.747-20.403c-1.169-0.042-2.316,0.031-3.446,0.157c0.115,1.047,0.181,2.134,0.14,3.305
	c-0.369,10.428-7.286,15.523-15.588,15.229c-0.462-0.017-0.894-0.11-1.343-0.159c-0.011,0.195-0.062,0.358-0.069,0.556
	c-0.464,13.097,7.818,20.096,18.327,20.468c5.33,0.189,10.196-1.381,13.771-4.666
	C1186.064,670.304,1184.689,667.965,1184.807,664.614z"/>
<path style="fill:#FFFFFF;" d="M1173.107,640.174c0.041-1.171-0.025-2.258-0.14-3.305c-0.911-8.28-6.506-12.701-13.876-12.961
	c-8.301-0.294-15.677,4.775-16.046,15.203c-0.348,9.849,5.49,15.304,13.131,16.134c0.449,0.049,0.882,0.142,1.343,0.159
	C1165.821,655.697,1172.739,650.602,1173.107,640.174z"/>
<path style="fill:#FFFFFF;" d="M1194.16,657.115c-0.319-0.043-0.632-0.099-0.966-0.111c-4.345-0.154-8.202,2.382-8.387,7.61
	c-0.119,3.351,1.257,5.69,3.397,6.988c1.199,0.727,2.631,1.137,4.192,1.192c4.345,0.154,7.962-2.395,8.147-7.623
	C1200.714,660.344,1197.995,657.629,1194.16,657.115z"/>
<path style="fill:#503949;" d="M953.085,577.569c5.697-3.107,7.217-12.847,0.515-17.125c-22.943-14.645-57.72-18.28-87.076-17.969
	c-6.07,0.064-11.925,0.285-17.377,0.626c-28.81,1.799-52.352,10.253-63.854,37.583c-0.369,0.877,0.897,1.408,1.485,0.864
	c15.135-14.04,33.585-20.507,53.258-22.328c13.845-1.281,28.292-0.26,42.633,2.085c20.448,0.624,41.394,4.776,60.209,11.929
	C946.37,574.567,949.756,576.036,953.085,577.569z"/>
<path style="fill:#503949;" d="M824.633,646.711c9.353-12.287,21.543-21.858,34.726-27.48c18.132-7.732,38.124-7.957,55.185,2.538
	c5.682,3.495,11.033,8.186,15.885,14.185c0.477,0.59,0.964,1.154,1.431,1.77c1.237,1.63,3.96,0.202,2.832-1.655
	c-1.422-2.339-2.96-4.581-4.57-6.753c-13.653-18.421-33.872-30.361-57.766-27.976c-0.284,0.029-0.559,0.084-0.842,0.116
	c-21.843,1.415-53.008,19.375-68.144,17.796c-1.073-0.112-2.075-0.31-2.978-0.632c-1.413,16.462,7.016,43.873,25.171,51.741
	C823.413,663.148,822.892,654.644,824.633,646.711z"/>
<path style="fill:#FFFFFF;" d="M914.544,621.769c8.259,7.189,13.721,18.149,14.242,32.889c1.032,29.162-17.002,44.903-40.082,46.143
	c26.921-1.363,42.021-8.638,47.517-29.417c3.325-12.57-0.385-25.946-5.792-35.429C925.577,629.955,920.227,625.264,914.544,621.769z
	"/>
<path style="fill:#FFFFFF;" d="M843.484,657.675c-0.639-18.077,5.581-30.951,15.875-38.444
	c-13.183,5.622-25.373,15.193-34.726,27.48c-1.742,7.933-1.22,16.437,0.93,23.649c1.259,4.223,3.063,8.003,5.284,10.956
	c12.707,16.901,30.753,20.483,55.19,19.618c0.42-0.015,0.81-0.044,1.225-0.062C863.911,701.503,844.525,687.064,843.484,657.675z"/>
<path style="fill:#62929F;" d="M914.544,621.769c-17.062-10.495-37.053-10.27-55.185-2.538
	c-10.293,7.493-16.514,20.367-15.875,38.444c1.04,29.388,20.427,43.827,43.778,43.198c0.153-0.004,0.302,0.008,0.455,0.003
	c0.333-0.012,0.656-0.057,0.987-0.075c23.08-1.239,41.114-16.98,40.082-46.143C928.265,639.917,922.804,628.958,914.544,621.769z"/>
<path style="fill:#2E1F27;" d="M887.956,640.174c-0.041-1.171,0.025-2.258,0.14-3.305c-1.13-0.126-2.276-0.198-3.446-0.157
	c-10.499,0.371-18.196,7.327-17.746,20.403c0.319-0.043,0.632-0.099,0.965-0.111c4.346-0.154,8.202,2.382,8.387,7.61
	c0.118,3.351-1.257,5.69-3.397,6.988c3.575,3.285,8.44,4.855,13.771,4.666c10.508-0.372,18.79-7.371,18.327-20.468
	c-0.007-0.198-0.058-0.361-0.069-0.556c-0.45,0.049-0.882,0.142-1.343,0.159C895.243,655.697,888.325,650.602,887.956,640.174z"/>
<path style="fill:#FFFFFF;" d="M918.017,639.11c-0.369-10.428-7.744-15.496-16.045-15.203c-7.37,0.26-12.965,4.681-13.876,12.961
	c-0.115,1.047-0.182,2.134-0.14,3.305c0.369,10.428,7.287,15.523,15.588,15.229c0.461-0.017,0.893-0.11,1.343-0.159
	C912.527,654.414,918.366,648.959,918.017,639.11z"/>
<path style="fill:#FFFFFF;" d="M876.256,664.614c-0.185-5.228-4.042-7.763-8.387-7.61c-0.334,0.012-0.646,0.068-0.965,0.111
	c-3.836,0.514-6.554,3.229-6.383,8.055c0.185,5.228,3.802,7.777,8.147,7.623c1.561-0.055,2.993-0.465,4.192-1.192
	C874.999,670.304,876.374,667.965,876.256,664.614z"/>
<path style="fill:#F39EA4;" d="M1153.491,748.968c6.731,0.985,13.526,1.501,20.294,1.5c28.154,0.035,55.495-8.339,73.806-21.234
	c-10.396-5.884-22.984-9.348-36.572-9.348C1185.858,719.887,1164.117,731.731,1153.491,748.968z"/>
<path style="fill:#F39EA4;" d="M1256.484,736.861L1256.484,736.861c-20.838,15.539-51.213,24.877-82.698,24.913
	c-8.357-0.002-16.792-0.762-25.152-2.178c-1.321,4.217-2.097,8.613-2.097,13.168c0,29.203,28.871,52.877,64.484,52.877
	c5.188,0,10.206-0.556,15.038-1.505c6.954-17.918,15.224-35.573,22.372-53.194c4.303-10.608,8.223-21.443,11.65-32.444
	c-0.855-0.823-1.744-1.62-2.658-2.398C1257.105,736.347,1256.806,736.619,1256.484,736.861z"/>
<path style="fill:#F39EA4;" d="M819.251,741.796c-7.7,8.71-12.292,19.387-12.292,30.968c0,29.203,28.871,52.877,64.484,52.877
	c35.614,0,64.484-23.674,64.484-52.877c0-5.589-1.074-10.969-3.034-16.026c-12.564,3.407-25.529,5.034-38.302,5.036
	C866.618,761.742,839.561,754.339,819.251,741.796z"/>
<path style="fill:#F39EA4;" d="M871.443,719.887c-16.78,0-32.013,5.3-43.485,13.913c17.912,10.26,41.959,16.7,66.633,16.669
	c10.986,0.001,22.039-1.333,32.751-3.992C916.214,730.602,895.374,719.887,871.443,719.887z"/>
<path style="fill:#8B4A7C;" d="M1236.49,568.435c-13.86-4.992-29.468-7.254-45.521-7.257c-5.453,0.001-10.958,0.268-16.465,0.779
	c-16.802,1.559-33.618,5.427-49.005,11.277c-4.029,1.537-7.926,3.247-11.735,5.05c-15.495,7.336-28.98,16.825-38.51,28.429
	c-4.475,5.474-7.459,12.228-9.374,19.661c-1.183,4.608-1.913,9.513-2.33,14.574c-1.956-1.579-4.014-3.018-6.224-4.166
	c-6.065-3.148-12.901-4.739-19.724-4.744c-2.03,0-4.059,0.143-6.067,0.434c-9.942,1.462-18.795,5.903-26.445,11.753
	c-0.325-6.24-1.155-12.251-2.593-17.851c-1.916-7.433-4.899-14.186-9.374-19.661c-9.843-11.984-23.899-21.716-40.038-29.144
	c-3.33-1.533-6.716-3.002-10.208-4.335c-18.815-7.154-39.761-11.306-60.209-11.929c-1.756-0.054-3.515-0.127-5.261-0.127
	c-16.054,0.003-31.662,2.265-45.522,7.257c-13.843,4.989-26.001,12.767-34.703,23.856c-14.69,18.737-21.259,41.818-21.26,64.366
	c0.004,15.89,3.251,31.564,9.346,45.473c6.098,13.9,15.06,26.07,26.625,34.732c2.324,1.734,4.807,3.361,7.357,4.935
	c20.31,12.542,47.367,19.946,75.34,19.978c12.773-0.002,25.737-1.63,38.302-5.036c14.089-3.82,27.673-9.892,39.849-18.759
	c5.131-3.754,9.546-9.036,13.459-15.307c10.279-16.625,17.2-40.472,18.717-63.278c8.053-8.094,17.834-14.26,28.237-15.732
	c1.459-0.211,2.949-0.317,4.447-0.317c5.046-0.005,10.181,1.211,14.508,3.468c4.34,2.261,7.838,5.495,10.005,9.549l1.142-0.611
	c0.619,15.327,3.802,31.334,8.826,45.465c2.81,7.885,6.191,15.181,10.094,21.457c3.913,6.271,8.328,11.553,13.459,15.307
	c15.928,11.601,34.254,18.443,52.998,21.618c8.36,1.416,16.795,2.176,25.152,2.178c31.485-0.036,61.861-9.374,82.698-24.913h0
	c0.322-0.242,0.621-0.513,0.939-0.76c1.556-1.206,3.057-2.481,4.515-3.811c2.542-8.69,4.76-17.475,6.596-26.333
	c-5.016,8.777-11.377,16.285-18.824,21.853l0,0c-0.662,0.497-1.43,0.94-2.118,1.425c-18.311,12.895-45.653,21.269-73.806,21.234
	c-6.768,0.001-13.564-0.515-20.294-1.5c-18.31-2.68-36.094-9.107-51.197-20.126c-3.488-2.527-7.156-6.723-10.519-12.144
	c-10.194-16.259-17.402-43.182-17.344-66.252c-0.002-7.708,0.782-14.985,2.397-21.256c1.61-6.28,4.051-11.514,7.171-15.312
	c10.067-12.332,26.428-22.831,45.52-30.077c19.079-7.267,40.829-11.324,61.449-11.317c14.987-0.004,29.368,2.139,41.687,6.587
	c12.336,4.45,22.545,11.146,29.644,20.198c3.651,4.651,6.685,9.66,9.246,14.878c-1.66-9.91-4.045-19.695-7.143-29.207
	c-4.626-4.307-9.884-7.943-15.584-11C1244.898,571.836,1240.788,569.984,1236.49,568.435z M985.645,697.422
	c-2.581,7.252-5.67,13.862-9.043,19.277c-3.363,5.421-7.031,9.617-10.519,12.144c-11.644,8.494-24.9,14.199-38.741,17.634
	c-10.712,2.659-21.765,3.993-32.751,3.992c-24.674,0.031-48.722-6.408-66.633-16.669c-3.294-1.887-6.451-3.857-9.29-5.99
	c-9.721-7.268-17.612-17.821-23.045-30.22c-5.436-12.39-8.398-26.591-8.394-40.933c0-20.387,5.953-40.962,18.849-57.389
	c7.098-9.052,17.307-15.748,29.643-20.198c12.318-4.448,26.7-6.591,41.687-6.587c20.62-0.006,42.371,4.05,61.449,11.317
	c19.092,7.247,35.454,17.745,45.52,30.077c3.121,3.798,5.561,9.033,7.171,15.313c1.616,6.272,2.4,13.548,2.398,21.256
	C993.956,665.829,990.821,682.917,985.645,697.422z"/>
<path style="fill:#342726;" d="M1305.488,967.789c11.293,17.896,27.089,32.237,40.926,48.048c0.352,0.401,1.01-0.118,0.734-0.567
	c-11.931-19.428-21.611-40.229-32.538-60.25c-10.361-18.985-19.396-39.162-23.653-60.462c-4.421-22.129-3.444-45.068,2.741-66.757
	c3.322-11.646,7.892-23.072,12.851-34.108c4.667-10.384,9.068-20.687,13.369-31.21c0.381-0.931-1.065-1.739-1.694-0.986
	c-12.28,14.699-22.039,30.48-29.461,48.229c-7.253,17.344-12.586,35.525-14.16,54.315
	C1271.507,901.003,1286.108,937.077,1305.488,967.789z"/>
</svg>
